<svg xmlns="http://www.w3.org/2000/svg" viewBox="0 0 16 16" width="16" height="16">
  <path d="m1,1v3h3V1H1Zm0,8h3v-3H1v3Zm0,5h3v-3H1v3Z" fill="#FFFFFF" />
  <path d="m3.5.5H1.5c-.27,0-.52.11-.71.29-.19.19-.29.44-.29.71v2c0,.27.11.52.29.71s.44.29.71.29h2c.27,0,.52-.11.71-.29.19-.19.29-.44.29-.71V1.5c0-.27-.11-.52-.29-.71s-.44-.29-.71-.29Zm0,3H1.5V1.5h2v2Zm0,2H1.5c-.27,0-.52.11-.71.29-.19.19-.29.44-.29.71v2c0,.27.11.52.29.71s.44.29.71.29h2c.27,0,.52-.11.71-.29.19-.19.29-.44.29-.71v-2c0-.27-.11-.52-.29-.71s-.44-.29-.71-.29Zm0,3H1.5v-2h2v2Zm0,2H1.5c-.27,0-.52.11-.71.29s-.29.44-.29.71v2c0,.27.11.52.29.71s.44.29.71.29h2c.27,0,.52-.11.71-.29.19-.19.29-.44.29-.71v-2c0-.27-.11-.52-.29-.71-.19-.19-.44-.29-.71-.29Zm0,3H1.5v-2h2v2ZM14.35,1.65c-.09-.09-.22-.15-.35-.15h-8c-.13,0-.26.05-.35.15-.09.09-.15.22-.15.35s.05.26.15.35c.09.09.22.15.35.15h8c.13,0,.26-.05.35-.15.09-.09.15-.22.15-.35s-.05-.26-.15-.35ZM5.65,6.65c-.09.09-.15.22-.15.35s.05.26.15.35c.09.09.22.15.35.15h.44c.29-.37.62-.71.98-1h-1.42c-.13,0-.26.05-.35.15Z" fill="#000000" />
  <path d="m6.5,11c0-1.19.47-2.34,1.32-3.18.84-.84,1.99-1.32,3.18-1.32s2.34.47,3.18,1.32c.84.84,1.32,1.99,1.32,3.18s-.47,2.34-1.32,3.18-1.99,1.32-3.18,1.32-2.34-.47-3.18-1.32c-.84-.84-1.32-1.99-1.32-3.18Z" fill="#0078D7" />
  <path d="m12.5,12c0,.13.05.26.15.35.09.09.22.15.35.15s.26-.05.35-.15c.09-.09.15-.22.15-.35v-3c0-.13-.05-.26-.15-.35-.09-.09-.22-.15-.35-.15h-3c-.13,0-.26.05-.35.15-.09.09-.15.22-.15.35s.05.26.15.35c.09.09.22.15.35.15h1.74l-2.62,2.62c-.1.1-.16.24-.16.38s.06.28.16.38c.1.1.24.16.38.16s.28-.06.38-.16l2.62-2.62v1.74Z" fill="#FFFFFF" />
</svg>