<svg xmlns="http://www.w3.org/2000/svg" viewBox="0 0 16 16" width="16" height="16">
  <path d="m14.5,3.5H.5v7.5c0,1.38,1.12,2.5,2.5,2.5h5.35c-.22-.58-.35-1.23-.35-1.98v-2.32c0-.81.63-1.38,1.29-1.47.85-.12,1.63-.76,2.1-1.25.6-.63,1.61-.63,2.21,0,.23.24.54.52.9.76v-3.73Z" fill="#FFFFFF" />
  <path d="m0,3C0,1.34,1.34,0,3,0h9c1.66,0,3,1.34,3,3v4.51c-.37-.17-.71-.41-1-.66v-2.85H1v7c0,1.1.9,2,2,2h5.19c.1.36.23.69.38,1H3c-1.66,0-3-1.34-3-3V3ZM3,1c-1.1,0-2,.9-2,2h13c0-1.1-.9-2-2-2H3Z" fill="#000000" />
  <path d="m12.88,7.16c.51.53,1.48,1.38,2.68,1.55.24.03.44.23.44.48v2.32c0,3.12-2.78,4.26-3.39,4.46-.08.03-.15.03-.23,0-.6-.21-3.39-1.34-3.39-4.46v-2.32c0-.25.2-.45.44-.48,1.2-.17,2.18-1.02,2.68-1.55.2-.21.56-.21.76,0Z" fill="#0078D7" />
</svg>