<svg xmlns="http://www.w3.org/2000/svg" viewBox="0 0 16 16" width="16" height="16">
  <path d="m13.5,3.5H.5v7.75c0,1.24,1.01,2.25,2.25,2.25h3.63c-.25-.63-.38-1.31-.38-2,0-1.46.58-2.86,1.61-3.89s2.43-1.61,3.89-1.61c.69,0,1.37.13,2,.38v-2.88Z" fill="#FFFFFF" />
  <path d="m14,2.5C14,1.12,12.88,0,11.5,0H2.5C1.12,0,0,1.12,0,2.5v9c0,1.38,1.12,2.5,2.5,2.5h4.1c-.16-.32-.29-.65-.39-1h-3.71c-.83,0-1.5-.67-1.5-1.5v-7.5h12v2.21c.35.1.68.23,1,.39V2.5ZM2.5,1h9c.83,0,1.5.67,1.5,1.5v.5H1v-.5c0-.83.67-1.5,1.5-1.5Z" fill="#000000" />
  <path d="m16,11.5c0,2.49-2.01,4.5-4.5,4.5s-4.5-2.01-4.5-4.5,2.01-4.5,4.5-4.5,4.5,2.01,4.5,4.5Z" fill="#0078D7" />
  <path d="m13,12.5c0,.13.05.26.15.35.09.09.22.15.35.15s.26-.05.35-.15c.09-.09.15-.22.15-.35v-3c0-.13-.05-.26-.15-.35-.09-.09-.22-.15-.35-.15h-3c-.13,0-.26.05-.35.15-.09.09-.15.22-.15.35s.05.26.15.35c.09.09.22.15.35.15h1.74l-2.62,2.62c-.1.1-.16.24-.16.38s.06.28.16.38c.1.1.24.16.38.16s.28-.06.38-.16l2.62-2.62v1.74Z" fill="#FFFFFF" />
</svg>