<svg xmlns="http://www.w3.org/2000/svg" viewBox="0 0 16 16" width="16" height="16">
  <path d="M14,2.5C14,1.1,12.9,0,11.5,0h-9C1.1,0,0,1.1,0,2.5V3h14V2.5z M11.5,6c0.9,0,1.7,0.2,2.5,0.6V4H0v7.5C0,12.9,1.1,14,2.5,14h4.1C6.2,13.2,6,12.4,6,11.5C6,8.5,8.5,6,11.5,6z M3.8,11c-0.3,0.3-0.8,0.3-1.1,0c-0.3-0.3-0.3-0.8,0-1.1l1.5-1.5L2.7,7C2.4,6.7,2.4,6.3,2.7,6s0.8-0.3,1.1,0l2,2c0.3,0.3,0.3,0.8,0,1.1L3.8,11z M14.7,8.3c-0.8-0.8-2-1.3-3.2-1.3S9.2,7.5,8.3,8.3C7.5,9.2,7,10.3,7,11.5s0.5,2.3,1.3,3.2c0.8,0.8,2,1.3,3.2,1.3s2.3-0.5,3.2-1.3c0.8-0.8,1.3-2,1.3-3.2S15.5,9.2,14.7,8.3z M14,12.5c0,0.1-0.1,0.3-0.1,0.4c-0.1,0.1-0.2,0.1-0.4,0.1c-0.1,0-0.3-0.1-0.4-0.1c-0.1-0.1-0.1-0.2-0.1-0.4v-1.7l-2.6,2.6c-0.1,0.1-0.2,0.2-0.4,0.2c-0.1,0-0.3-0.1-0.4-0.2c-0.1-0.1-0.2-0.2-0.2-0.4s0.1-0.3,0.2-0.4l2.6-2.6h-1.7c-0.1,0-0.3-0.1-0.4-0.1C10.1,9.8,10,9.6,10,9.5s0.1-0.3,0.1-0.4C10.2,9.1,10.4,9,10.5,9h3c0.1,0,0.3,0.1,0.4,0.1C13.9,9.2,14,9.4,14,9.5V12.5z" fill="currentColor" />
</svg>