<svg xmlns="http://www.w3.org/2000/svg" viewBox="0 0 16 16" width="16" height="16">
  <path d="m3.5.5H1.5c-.27,0-.52.11-.71.29-.19.19-.29.44-.29.71v2c0,.27.11.52.29.71s.44.29.71.29h2c.27,0,.52-.11.71-.29.19-.19.29-.44.29-.71V1.5c0-.27-.11-.52-.29-.71s-.44-.29-.71-.29Zm0,3H1.5V1.5h2v2Zm0,2H1.5c-.27,0-.52.11-.71.29-.19.19-.29.44-.29.71v2c0,.27.11.52.29.71s.44.29.71.29h2c.27,0,.52-.11.71-.29.19-.19.29-.44.29-.71v-2c0-.27-.11-.52-.29-.71s-.44-.29-.71-.29Zm0,3H1.5v-2h2v2Zm0,2H1.5c-.27,0-.52.11-.71.29s-.29.44-.29.71v2c0,.27.11.52.29.71s.44.29.71.29h2c.27,0,.52-.11.71-.29.19-.19.29-.44.29-.71v-2c0-.27-.11-.52-.29-.71-.19-.19-.44-.29-.71-.29Zm0,3H1.5v-2h2v2ZM6,2.5h8c.13,0,.26-.05.35-.15.09-.09.15-.22.15-.35s-.05-.26-.15-.35-.22-.15-.35-.15H6c-.13,0-.26.05-.35.15-.09.09-.15.22-.15.35s.05.26.15.35c.09.09.22.15.35.15Zm1.42,4h-1.42c-.13,0-.26.05-.35.15-.09.09-.15.22-.15.35s.05.26.15.35c.09.09.22.15.35.15h.44c.29-.37.62-.71.98-1Zm6.76,1.32c-.84-.84-1.99-1.32-3.18-1.32s-2.34.47-3.18,1.32-1.32,1.99-1.32,3.18.47,2.34,1.32,3.18,1.99,1.32,3.18,1.32,2.34-.47,3.18-1.32c.84-.84,1.32-1.99,1.32-3.18s-.47-2.34-1.32-3.18Zm-.68,4.18c0,.13-.05.26-.15.35-.09.09-.22.15-.35.15s-.26-.05-.35-.15-.15-.22-.15-.35v-1.74l-2.62,2.62c-.1.1-.24.16-.38.16s-.28-.06-.38-.16c-.1-.1-.16-.24-.16-.38s.06-.28.16-.38l2.62-2.62h-1.74c-.13,0-.26-.05-.35-.15-.09-.09-.15-.22-.15-.35s.05-.26.15-.35.22-.15.35-.15h3c.13,0,.26.05.35.15.09.09.15.22.15.35v3Z" fill="currentColor" />
</svg>