<svg xmlns="http://www.w3.org/2000/svg" viewBox="0 0 16 16" width="16" height="16">
  <path d="M2.5,13C1.7,13,1,12.3,1,11.5V4h12v2.2c0.3,0.1,0.7,0.2,1,0.4V2.5C14,1.1,12.9,0,11.5,0h-9C1.1,0,0,1.1,0,2.5v9C0,12.9,1.1,14,2.5,14h4.1c-0.2-0.3-0.3-0.7-0.4-1H2.5z M1,2.5C1,1.7,1.7,1,2.5,1h9C12.3,1,13,1.7,13,2.5V3H1V2.5z M3.1,10.9c0.2,0.2,0.5,0.2,0.7,0l2-2C5.9,8.8,6,8.6,6,8.5S5.9,8.2,5.9,8.1l-2-2C3.7,6,3.3,6,3.1,6.1C3,6.3,3,6.7,3.1,6.9l1.6,1.6l-1.6,1.6C3,10.3,3,10.7,3.1,10.9z M14.7,8.3c-0.8-0.8-2-1.3-3.2-1.3S9.2,7.5,8.3,8.3C7.5,9.2,7,10.3,7,11.5s0.5,2.3,1.3,3.2c0.8,0.8,2,1.3,3.2,1.3s2.3-0.5,3.2-1.3c0.8-0.8,1.3-2,1.3-3.2S15.5,9.2,14.7,8.3z M14,12.5c0,0.1-0.1,0.3-0.1,0.4c-0.1,0.1-0.2,0.1-0.4,0.1c-0.1,0-0.3-0.1-0.4-0.1c-0.1-0.1-0.1-0.2-0.1-0.4v-1.7l-2.6,2.6c-0.1,0.1-0.2,0.2-0.4,0.2c-0.1,0-0.3-0.1-0.4-0.2c-0.1-0.1-0.2-0.2-0.2-0.4s0.1-0.3,0.2-0.4l2.6-2.6h-1.7c-0.1,0-0.3-0.1-0.4-0.1C10.1,9.8,10,9.6,10,9.5s0.1-0.3,0.1-0.4C10.2,9.1,10.4,9,10.5,9h3c0.1,0,0.3,0.1,0.4,0.1C13.9,9.2,14,9.4,14,9.5V12.5z" fill="currentColor" />
</svg>