<svg xmlns="http://www.w3.org/2000/svg" viewBox="0 0 16 16" width="16" height="16">
  <path d="m14.5,3.5H.5v7.5c0,1.38,1.12,2.5,2.5,2.5h5c0-1.3,1-2.38,2.27-2.49-.48-.53-.77-1.24-.77-2.01,0-1.66,1.34-3,3-3,.77,0,1.47.29,2,.76v-3.26Z" fill="#FFFFFF" />
  <path d="m0,3C0,1.34,1.34,0,3,0h9c1.66,0,3,1.34,3,3v4.34c-.26-.39-.6-.71-1-.94v-2.4H1v7c0,1.1.9,2,2,2h5.05c-.03.16-.05.33-.05.5s.01.33.04.5H3c-1.66,0-3-1.34-3-3V3ZM3,1c-1.1,0-2,.9-2,2h13c0-1.1-.9-2-2-2H3Z" fill="#000000" />
  <path d="m12.5,11c1.1,0,2-.9,2-2s-.9-2-2-2-2,.9-2,2,.9,2,2,2Zm0,5c2.5,0,3.5-1.25,3.5-2.5,0-.83-.67-1.5-1.5-1.5h-4c-.83,0-1.5.67-1.5,1.5,0,1.25,1,2.5,3.5,2.5Z" fill="#0078D7" />
</svg>