<svg xmlns="http://www.w3.org/2000/svg" viewBox="0 0 16 16" width="16" height="16">
  <path d="M10.9,5.1L10.9,5.1c-0.1-0.1-0.1-0.1-0.2-0.1c-0.1,0-0.1,0-0.2,0h-5C5.2,5,5,5.2,5,5.5S5.2,6,5.5,6h3.8l-4.1,4.1c-0.2,0.2-0.2,0.5,0,0.7c0.2,0.2,0.5,0.2,0.7,0L10,6.7v3.8c0,0.3,0.2,0.5,0.5,0.5s0.5-0.2,0.5-0.5v-5c0-0.1,0-0.1,0-0.2C10.9,5.3,10.9,5.2,10.9,5.1z M8,0C3.6,0,0,3.6,0,8s3.6,8,8,8s8-3.6,8-8S12.4,0,8,0z M8,15c-3.9,0-7-3.1-7-7c0-3.9,3.1-7,7-7c3.9,0,7,3.1,7,7C15,11.9,11.9,15,8,15z" fill="currentColor" />
</svg>