<svg xmlns="http://www.w3.org/2000/svg" viewBox="0 0 16 16" width="16" height="16">
  <path d="m7,8.34V0H3C1.34,0,0,1.34,0,3v9c0,1.66,1.34,3,3,3h4v-.34c-.65-.92-1-2.02-1-3.16s.35-2.24,1-3.16Zm8-1.08V3c0-1.66-1.34-3-3-3h-4v7.26c.98-.81,2.22-1.26,3.5-1.26s2.52.45,3.5,1.26Zm-.32,1.06c-.84-.84-1.99-1.32-3.18-1.32s-2.34.47-3.18,1.32c-.84.84-1.32,1.99-1.32,3.18s.47,2.34,1.32,3.18c.84.84,1.99,1.32,3.18,1.32s2.34-.47,3.18-1.32c.84-.84,1.32-1.99,1.32-3.18s-.47-2.34-1.32-3.18Zm-.68,4.18c0,.13-.05.26-.15.35-.09.09-.22.15-.35.15s-.26-.05-.35-.15c-.09-.09-.15-.22-.15-.35v-1.74l-2.62,2.62c-.1.1-.24.16-.38.16s-.28-.06-.38-.16c-.1-.1-.16-.24-.16-.38s.06-.28.16-.38l2.62-2.62h-1.74c-.13,0-.26-.05-.35-.15-.09-.09-.15-.22-.15-.35s.05-.26.15-.35c.09-.09.22-.15.35-.15h3c.13,0,.26.05.35.15.09.09.15.22.15.35v3Z" fill="currentColor" />
</svg>