<svg xmlns="http://www.w3.org/2000/svg" viewBox="0 0 16 16" width="16" height="16">
  <path d="m3,.5C1.62.5.5,1.62.5,3v9c0,1.38,1.12,2.5,2.5,2.5h3.89c-.58-.89-.89-1.93-.89-3,0-1.46.58-2.86,1.61-3.89s2.43-1.61,3.89-1.61c1.07,0,2.11.31,3,.89v-3.89c0-1.38-1.12-2.5-2.5-2.5H3Z" fill="#FFFFFF" />
  <path d="m0,3C0,1.34,1.34,0,3,0h9c1.66,0,3,1.34,3,3v4.26c-.31-.26-.65-.48-1-.66v-3.6c0-1.1-.9-2-2-2H3c-1.1,0-2,.9-2,2v4h7.34c-.26.18-.5.39-.73.61-.12.12-.24.25-.35.39H1v4c0,1.1.9,2,2,2h3.6c.18.35.4.69.66,1H3c-1.66,0-3-1.34-3-3V3Z" fill="#000000" />
  <path d="m7,11.5c0-1.19.47-2.34,1.32-3.18.84-.84,1.99-1.32,3.18-1.32s2.34.47,3.18,1.32c.84.84,1.32,1.99,1.32,3.18s-.47,2.34-1.32,3.18-1.99,1.32-3.18,1.32-2.34-.47-3.18-1.32c-.84-.84-1.32-1.99-1.32-3.18Z" fill="#0078D7" />
  <path d="m13,12.5c0,.13.05.26.15.35.09.09.22.15.35.15s.26-.05.35-.15c.09-.09.15-.22.15-.35v-3c0-.13-.05-.26-.15-.35-.09-.09-.22-.15-.35-.15h-3c-.13,0-.26.05-.35.15-.09.09-.15.22-.15.35s.05.26.15.35c.09.09.22.15.35.15h1.74l-2.62,2.62c-.1.1-.16.24-.16.38s.06.28.16.38c.1.1.24.16.38.16s.28-.06.38-.16l2.62-2.62v1.74Z" fill="#FFFFFF" />
</svg>