<svg xmlns="http://www.w3.org/2000/svg" viewBox="0 0 16 16" width="16" height="16">
  <path d="m14,2.5C14,1.12,12.88,0,11.5,0H2.5C1.12,0,0,1.12,0,2.5v.5h14v-.5Zm-2.5,3.5c.9,0,1.75.22,2.5.6v-2.6H0v7.5c0,1.38,1.12,2.5,2.5,2.5h4.1c-.38-.75-.6-1.6-.6-2.5,0-3.04,2.46-5.5,5.5-5.5Zm3.18,2.32c-.84-.84-1.99-1.32-3.18-1.32s-2.34.47-3.18,1.32c-.84.84-1.32,1.99-1.32,3.18s.47,2.34,1.32,3.18c.84.84,1.99,1.32,3.18,1.32s2.34-.47,3.18-1.32c.84-.84,1.32-1.99,1.32-3.18s-.47-2.34-1.32-3.18Zm-.68,4.18c0,.13-.05.26-.15.35-.09.09-.22.15-.35.15s-.26-.05-.35-.15c-.09-.09-.15-.22-.15-.35v-1.74l-2.62,2.62c-.1.1-.24.16-.38.16s-.28-.06-.38-.16c-.1-.1-.16-.24-.16-.38s.06-.28.16-.38l2.62-2.62h-1.74c-.13,0-.26-.05-.35-.15-.09-.09-.15-.22-.15-.35s.05-.26.15-.35c.09-.09.22-.15.35-.15h3c.13,0,.26.05.35.15.09.09.15.22.15.35v3Z" fill="currentColor" />
</svg>