<svg xmlns="http://www.w3.org/2000/svg" viewBox="0 0 16 16" width="16" height="16">
  <path d="m7.5,2.5l-1.71,1.71c-.19.19-.44.29-.71.29H.5v6c0,1.1.9,2,2,2h3.59c-.06-.32-.09-.66-.09-1,0-3.04,2.46-5.5,5.5-5.5,1.11,0,2.14.33,3,.89v-2.39c0-1.1-.9-2-2-2h-5Z" fill="#FFFFFF" />
  <path d="m5.79.79l1.71,1.71-1.71,1.71c-.19.19-.44.29-.71.29H.5v-2C.5,1.4,1.4.5,2.5.5h2.59c.27,0,.52.11.71.29Z" fill="#000000" opacity="0.4" />
  <path d="m0,2.5C0,1.12,1.12,0,2.5,0h2.48c.46,0,.91.18,1.24.51l1.49,1.49h4.79c1.38,0,2.5,1.12,2.5,2.5v2.76c-.31-.25-.64-.47-1-.66v-2.1c0-.83-.67-1.5-1.5-1.5h-4.79l-1.56,1.56c-.28.28-.66.44-1.06.44H1v5.5c0,.83.67,1.5,1.5,1.5h3.52c.03.34.09.68.18,1h-3.71c-1.38,0-2.5-1.12-2.5-2.5V2.5Zm2.5-1.5c-.83,0-1.5.67-1.5,1.5v1.5h4.09c.13,0,.26-.05.35-.15l1.35-1.35-1.28-1.28c-.14-.14-.33-.22-.53-.22h-2.48Z" fill="#000000" />
  <path d="m11.5,7c2.49,0,4.5,2.01,4.5,4.5s-2.01,4.5-4.5,4.5-4.5-2.01-4.5-4.5,2.01-4.5,4.5-4.5Z" fill="#0078D7" />
  <path d="m11.5,9c.13,0,.26.05.35.15.09.09.15.22.15.35v1.5h1.5c.13,0,.26.05.35.15.09.09.15.22.15.35s-.05.26-.15.35c-.09.09-.22.15-.35.15h-1.5v1.5c0,.13-.05.26-.15.35-.09.09-.22.15-.35.15s-.26-.05-.35-.15c-.09-.09-.15-.22-.15-.35v-1.5h-1.5c-.13,0-.26-.05-.35-.15-.09-.09-.15-.22-.15-.35s.05-.26.15-.35c.09-.09.22-.15.35-.15h1.5v-1.5c0-.13.05-.26.15-.35.09-.09.22-.15.35-.15Z" fill="#FFFFFF" />
</svg>