<svg xmlns="http://www.w3.org/2000/svg" viewBox="0 0 16 16" width="16" height="16">
  <path d="m9.5.5h-3.25c-.97,0-1.75.78-1.75,1.75v3.84c.33-.06.66-.09,1-.09,1.46,0,2.86.58,3.89,1.61,1.03,1.03,1.61,2.43,1.61,3.89,0,1.07-.31,2.11-.89,3h2.64c.97,0,1.75-.78,1.75-1.75v-7.25h-4c-.55,0-1-.45-1-1V.5Z" fill="#FFFFFF" />
  <path d="m6,0c-1.1,0-2,.9-2,2v4.21c.32-.09.66-.15,1-.18V2c0-.55.45-1,1-1h3v3.5c0,.83.67,1.5,1.5,1.5h3.5v7c0,.55-.45,1-1,1h-2.6c-.18.36-.4.69-.66,1h3.26c1.1,0,2-.9,2-2v-7.59c0-.4-.16-.78-.44-1.06L10.65.44c-.28-.28-.66-.44-1.06-.44h-3.59Zm7.79,5h-3.29c-.28,0-.5-.22-.5-.5V1.21l3.79,3.79Z" fill="#000000" />
  <path d="m1,11.5c0-1.19.47-2.34,1.32-3.18.84-.84,1.99-1.32,3.18-1.32s2.34.47,3.18,1.32c.84.84,1.32,1.99,1.32,3.18s-.47,2.34-1.32,3.18-1.99,1.32-3.18,1.32-2.34-.47-3.18-1.32c-.84-.84-1.32-1.99-1.32-3.18Z" fill="#0078D7" />
  <path d="m5.5,9c.13,0,.26.05.35.15.09.09.15.22.15.35v1.5h1.5c.13,0,.26.05.35.15.09.09.15.22.15.35s-.05.26-.15.35c-.09.09-.22.15-.35.15h-1.5v1.5c0,.13-.05.26-.15.35-.09.09-.22.15-.35.15s-.26-.05-.35-.15c-.09-.09-.15-.22-.15-.35v-1.5h-1.5c-.13,0-.26-.05-.35-.15-.09-.09-.15-.22-.15-.35s.05-.26.15-.35c.09-.09.22-.15.35-.15h1.5v-1.5c0-.13.05-.26.15-.35.09-.09.22-.15.35-.15Z" fill="#FFFFFF" />
</svg>