<svg xmlns="http://www.w3.org/2000/svg" viewBox="0 0 16 16" width="16" height="16">
  <path d="m8,15.5c4.14,0,7.5-3.36,7.5-7.5S12.14.5,8,.5.5,3.86.5,8s3.36,7.5,7.5,7.5Z" fill="#FFFFFF" />
  <path d="m8,15c-3.87,0-7-3.13-7-7S4.13,1,8,1s7,3.13,7,7-3.13,7-7,7Zm0,1c4.42,0,8-3.58,8-8S12.42,0,8,0,0,3.58,0,8s3.58,8,8,8Z" fill="#000000" />
  <path d="m4,8c0-.28.22-.5.5-.5h3v-3c0-.28.22-.5.5-.5s.5.22.5.5v3h3c.28,0,.5.22.5.5s-.22.5-.5.5h-3v3c0,.28-.22.5-.5.5s-.5-.22-.5-.5v-3h-3c-.28,0-.5-.22-.5-.5Z" fill="#0078D7" />
</svg>