<svg xmlns="http://www.w3.org/2000/svg" viewBox="0 0 16 16" width="16" height="16">
  <path d="m3,.5C1.62.5.5,1.62.5,3v9c0,1.38,1.12,2.5,2.5,2.5h3.89c-.58-.89-.89-1.93-.89-3,0-1.46.58-2.86,1.61-3.89s2.43-1.61,3.89-1.61c1.07,0,2.11.31,3,.89v-3.89c0-1.38-1.12-2.5-2.5-2.5H3Z" fill="#FFFFFF" />
  <path d="m12,0H3C1.34,0,0,1.34,0,3v9c0,1.66,1.34,3,3,3h4.26c-.26-.31-.48-.65-.66-1h-3.6c-1.1,0-2-.9-2-2V3c0-1.1.9-2,2-2h9c1.1,0,2,.9,2,2v3.6c.35.18.69.4,1,.66V3c0-1.66-1.34-3-3-3ZM2.65,7.85c.2.2.51.2.71,0l2-2c.09-.09.15-.22.15-.35s-.05-.26-.15-.35l-2-2c-.2-.2-.51-.2-.71,0-.2.2-.2.51,0,.71l1.65,1.65-1.65,1.65c-.2.2-.2.51,0,.71Zm3.35-.35c0,.28.22.5.5.5h.75c.11-.13.23-.26.35-.39.23-.23.47-.43.73-.61h-1.83c-.28,0-.5.22-.5.5Z" fill="#000000" />
  <path d="m7,11.5c0-1.19.47-2.34,1.32-3.18.84-.84,1.99-1.32,3.18-1.32s2.34.47,3.18,1.32c.84.84,1.32,1.99,1.32,3.18s-.47,2.34-1.32,3.18-1.99,1.32-3.18,1.32-2.34-.47-3.18-1.32c-.84-.84-1.32-1.99-1.32-3.18Z" fill="#0078D7" />
  <path d="m12,9.5c0-.28-.22-.5-.5-.5s-.5.22-.5.5v1.5h-1.5c-.28,0-.5.22-.5.5s.22.5.5.5h1.5v1.5c0,.28.22.5.5.5s.5-.22.5-.5v-1.5h1.5c.28,0,.5-.22.5-.5s-.22-.5-.5-.5h-1.5v-1.5Z" fill="#FFFFFF" />
</svg>