<svg xmlns="http://www.w3.org/2000/svg" viewBox="0 0 16 16" width="16" height="16">
  <path d="m8.37,13.72c-.25.18-.56.28-.87.28H3.5c-.4,0-.78-.16-1.06-.44-.28-.28-.44-.66-.44-1.06v-6c0-.4.16-.78.44-1.06s.66-.44,1.06-.44h1.5v-1h-1.5c-.66,0-1.3.26-1.77.73-.47.47-.73,1.1-.73,1.77v6c0,.66.26,1.3.73,1.77.47.47,1.1.73,1.77.73h4c.58,0,1.14-.2,1.58-.56.45-.36.75-.87.87-1.44h-1.04c-.1.29-.3.55-.55.72ZM14.27,1.73c-.47-.47-1.1-.73-1.77-.73h-4c-.66,0-1.3.26-1.77.73-.47.47-.73,1.1-.73,1.77v6c0,.66.26,1.3.73,1.77.47.47,1.1.73,1.77.73h4c.33,0,.65-.06.96-.19.3-.13.58-.31.81-.54.23-.23.42-.51.54-.81.13-.3.19-.63.19-.96V3.5c0-.66-.26-1.3-.73-1.77Zm-.27,7.77c0,.4-.16.78-.44,1.06-.28.28-.66.44-1.06.44h-4c-.4,0-.78-.16-1.06-.44-.28-.28-.44-.66-.44-1.06V3.5c0-.4.16-.78.44-1.06s.66-.44,1.06-.44h4c.4,0,.78.16,1.06.44.28.28.44.66.44,1.06v6Z" fill="currentColor" />
</svg>