<svg xmlns="http://www.w3.org/2000/svg" viewBox="0 0 16 16" width="16" height="16">
  <path d="m11.5,6.49c0,2.76-2.24,5-5,5S1.5,9.25,1.5,6.49,3.74,1.49,6.5,1.49s5,2.24,5,5Z" fill="#FFFFFF" opacity="0.5" />
  <path d="m6.5.99c3.04,0,5.5,2.46,5.5,5.5,0,1.34-.48,2.57-1.27,3.52l4.13,4.13c.2.2.2.51,0,.71-.17.17-.44.19-.64.06l-.07-.06-4.13-4.13c-.95.8-2.18,1.27-3.52,1.27-3.04,0-5.5-2.46-5.5-5.5S3.46.99,6.5.99Zm0,1c-2.49,0-4.5,2.01-4.5,4.5s2.01,4.5,4.5,4.5,4.5-2.01,4.5-4.5S8.99,1.99,6.5,1.99Z" fill="#000000" />
</svg>