<svg xmlns="http://www.w3.org/2000/svg" viewBox="0 0 16 16" width="16" height="16">
  <path d="m14,2.5H2l1.24,10.79c.15,1.26,1.21,2.21,2.48,2.21h2c-1.06-1-1.73-2.42-1.73-4,0-3.04,2.46-5.5,5.5-5.5.72,0,1.42.14,2.05.39l.45-3.89Z" fill="#FFFFFF" />
  <path d="m5,2v-.5C5,.67,5.67,0,6.5,0h3C10.33,0,11,.67,11,1.5v.5h4.5c.28,0,.5.22.5.5s-.22.5-.5.5h-1.05l-.42,3.61c-.3-.16-.63-.29-.96-.39l.37-3.23H2.56l1.18,10.23c.12,1.01.97,1.77,1.99,1.77h1.53c.31.38.68.72,1.08,1h-2.61c-1.52,0-2.81-1.14-2.98-2.66L1.55,3H.5c-.28,0-.5-.22-.5-.5s.22-.5.5-.5h4.5Zm1-.5v.5h4v-.5c0-.28-.22-.5-.5-.5h-3c-.28,0-.5.22-.5.5Z" fill="#000000" />
  <path d="m11.5,16c2.49,0,4.5-2.01,4.5-4.5s-2.01-4.5-4.5-4.5-4.5,2.01-4.5,4.5,2.01,4.5,4.5,4.5Z" fill="#0078D7" />
  <path d="m10.6,9.6l-.9.9h1.54c1.52,0,2.75,1.23,2.75,2.75v.25c0,.28-.22.5-.5.5s-.5-.22-.5-.5v-.25c0-.97-.78-1.75-1.75-1.75h-1.54l.9.9c.2.2.2.51,0,.71-.2.2-.51.2-.71,0l-1.75-1.75s-.08-.1-.11-.16c-.02-.06-.04-.12-.04-.19s.01-.13.04-.19c.02-.06.06-.11.11-.16l1.75-1.75c.2-.2.51-.2.71,0,.2.2.2.51,0,.71Z" fill="#FFFFFF" />
</svg>