<svg xmlns="http://www.w3.org/2000/svg" viewBox="0 0 16 16" width="16" height="16">
  <path d="m4.5,7C2.01,7,0,9.01,0,11.5s2.01,4.5,4.5,4.5,4.5-2.01,4.5-4.5-2.01-4.5-4.5-4.5Zm2.35,3.35l-3,3c-.2.2-.51.2-.71,0l-1-1c-.2-.2-.2-.51,0-.71.2-.2.51-.2.71,0l.65.65,2.65-2.65c.2-.2.51-.2.71,0s.2.51,0,.71Zm3.17.8h0s-.05-.16-.05-.16c.01.16.02.33.02.5,0,.9-.22,1.75-.6,2.5h1.92c-.11-.13-.21-.27-.31-.42-.48-.75-.75-1.71-.99-2.42Zm3.38-1.05c-.27-.38-.49-.86-.69-1.4l-.19-.55h0s-1.25-3.94-1.25-3.94c-.23-.73-.91-1.22-1.67-1.22h-1.11l2.48,7.84c.26.79.49,1.58.88,2.2.31.49.67.93,1.3.93,1.34,0,2.84-1.57,2.84-3.22v-.04c-.27.17-.61.29-1,.29-.71,0-1.22-.37-1.59-.9Zm.84-7.1h-2.52c.22.27.39.57.5.92l1.25,3.93.18.53c.18.49.36.88.56,1.15.25.35.49.48.78.48.31,0,.56-.15.73-.38.19-.24.27-.51.27-.62v-4.25c0-.97-.78-1.75-1.75-1.75ZM4.85,1h-2.1c-.97,0-1.75.78-1.75,1.75v4.51c.95-.79,2.17-1.26,3.5-1.26,2.04,0,3.82,1.11,4.77,2.76l-1.99-6.3c-.47-.89-1.4-1.46-2.43-1.46Z" fill="currentColor" />
</svg>