<svg xmlns="http://www.w3.org/2000/svg" viewBox="0 0 16 16" width="16" height="16">
  <path d="m1.5,2.5c0-.55.45-1,1-1h1.59c.21,0,.4.13.47.33.14.39.51.67.94.67h3c.43,0,.81-.28.94-.67.07-.2.26-.33.47-.33h1.59c.55,0,1,.45,1,1v1.5h-4c-1.38,0-2.5,1.12-2.5,2.5v8h-3.5c-.55,0-1-.45-1-1V2.5Z" fill="#FFFFFF" />
  <path d="m4.09,2h-1.59c-.28,0-.5.22-.5.5v11c0,.28.22.5.5.5h3c.28,0,.5.22.5.5s-.22.5-.5.5h-3c-.83,0-1.5-.67-1.5-1.5V2.5c0-.83.67-1.5,1.5-1.5h1.59C4.29.42,4.85,0,5.5,0h3C9.15,0,9.71.42,9.91,1h1.59c.83,0,1.5.67,1.5,1.5v1c0,.28-.22.5-.5.5s-.5-.22-.5-.5v-1c0-.28-.22-.5-.5-.5h-1.59c-.21.58-.76,1-1.41,1h-3c-.65,0-1.21-.42-1.41-1Zm.91-.5c0,.28.22.5.5.5h3c.28,0,.5-.22.5-.5s-.22-.5-.5-.5h-3c-.28,0-.5.22-.5.5Z" fill="#000000" />
  <path d="m7.5,6.5c0-.55.45-1,1-1h5c.55,0,1,.45,1,1v8c0,.55-.45,1-1,1h-5c-.55,0-1-.45-1-1V6.5Z" fill="#0078D7" opacity="0.4" />
  <path d="m8.5,5c-.83,0-1.5.67-1.5,1.5v8c0,.83.67,1.5,1.5,1.5h5c.83,0,1.5-.67,1.5-1.5V6.5c0-.83-.67-1.5-1.5-1.5h-5Zm-.5,1.5c0-.28.22-.5.5-.5h5c.28,0,.5.22.5.5v8c0,.28-.22.5-.5.5h-5c-.28,0-.5-.22-.5-.5V6.5Z" fill="#0078D7" />
</svg>