<svg xmlns="http://www.w3.org/2000/svg" viewBox="0 0 16 16" width="16" height="16">
  <path d="m15.78,12.97l-4.15-4.15c.7-.92,1.12-2.07,1.12-3.32,0-3.04-2.46-5.5-5.5-5.5S1.75,2.46,1.75,5.5c0,.36.03.71.1,1.05.45-.22.93-.38,1.44-.47-.03-.19-.04-.39-.04-.58,0-2.21,1.79-4,4-4s4,1.79,4,4c0,1.52-.85,2.84-2.09,3.52.23.45.39.93.49,1.43.33-.16.64-.35.92-.57l4.15,4.15.08.07c.29.22.71.19.98-.07.29-.29.29-.77,0-1.06Zm-7.46-2.11c-1.12-.26-1.79-1.42-1.46-2.52l.13-.42c-.26-.2-.54-.38-.83-.52l-.32.34c-.79.84-2.12.84-2.91,0l-.34-.36c-.29.13-.57.3-.82.5l.16.56c.3,1.08-.34,2.2-1.43,2.48l-.46.12c-.01.15-.02.31-.02.46,0,.19.01.37.03.55l.35.08c1.12.26,1.79,1.42,1.46,2.52l-.13.42c.26.2.54.38.83.52l.32-.34c.79-.84,2.12-.84,2.91,0l.34.36c.29-.13.57-.3.82-.5l-.16-.56c-.3-1.08.34-2.2,1.43-2.48l.46-.12c.01-.15.02-.31.02-.46,0-.19-.01-.37-.03-.55l-.35-.08Zm-3.97,1.64c-.55,0-1-.45-1-1s.45-1,1-1,1,.45,1,1-.45,1-1,1Z" fill="currentColor" />
</svg>