<svg xmlns="http://www.w3.org/2000/svg" viewBox="0 0 16 16" width="16" height="16">
  <path d="m6,3.5v2c0,1.38,1.12,2.5,2.5,2.5h4v4.25c0,1.24-1.01,2.25-2.25,2.25H2.75c-1.24,0-2.25-1.01-2.25-2.25v-6.5c0-1.24,1.01-2.25,2.25-2.25h3.25Z" fill="#FFFFFF" opacity="0.4" />
  <path d="m12,8v4.25c0,.97-.78,1.75-1.75,1.75H2.75c-.97,0-1.75-.78-1.75-1.75v-6.5c0-.97.78-1.75,1.75-1.75h3.25v-1h-3.25c-1.52,0-2.75,1.23-2.75,2.75v6.5c0,1.52,1.23,2.75,2.75,2.75h7.5c1.52,0,2.75-1.23,2.75-2.75v-4.25h-1Zm-8.5,1c0-.28-.22-.5-.5-.5s-.5.22-.5.5v3c0,.28.22.5.5.5h3c.28,0,.5-.22.5-.5s-.22-.5-.5-.5h-1.79l2.65-2.65c.2-.2.2-.51,0-.71-.2-.2-.51-.2-.71,0l-2.65,2.65v-1.79Z" fill="#0078D7" />
  <path d="m8.5,7c-.83,0-1.5-.67-1.5-1.5V1.5C7,.67,7.67,0,8.5,0h6C15.33,0,16,.67,16,1.5v4c0,.83-.67,1.5-1.5,1.5h-6Zm-.5-5.25v3.5c0,.41.34.75.75.75h5.5c.41,0,.75-.34.75-.75V1.75c0-.41-.34-.75-.75-.75h-5.5c-.41,0-.75.34-.75.75Z" fill="#000000" />
</svg>