<svg xmlns="http://www.w3.org/2000/svg" viewBox="0 0 16 16" width="16" height="16">
  <path d="m5,4.5h-1.5c-.53,0-1.04.21-1.41.59-.38.38-.59.88-.59,1.41v6c0,.53.21,1.04.59,1.41.38.38.88.59,1.41.59h4c.44,0,.87-.15,1.23-.42.35-.27.6-.65.71-1.08h-1.44c-.8,0-1.56-.32-2.12-.88-.56-.56-.88-1.33-.88-2.12v-5.5Z" fill="#FFFFFF" />
  <path d="m5,4h-1.5c-.66,0-1.3.26-1.77.73-.47.47-.73,1.1-.73,1.77v6c0,.66.26,1.3.73,1.77.47.47,1.1.73,1.77.73h4c.58,0,1.13-.2,1.58-.56.45-.36.75-.87.87-1.44h-1.03c-.1.29-.3.55-.55.73-.25.18-.56.28-.87.27H3.5c-.4,0-.78-.16-1.06-.44-.28-.28-.44-.66-.44-1.06v-6c0-.4.16-.78.44-1.06.28-.28.66-.44,1.06-.44h1.5v-1Z" fill="#000000" />
  <path d="m6.5,9.5V3.5c0-.53.21-1.04.59-1.41.38-.38.88-.59,1.41-.59h4c.53,0,1.04.21,1.41.59.38.38.59.88.59,1.41v6c0,.53-.21,1.04-.59,1.41s-.88.59-1.41.59h-4c-.53,0-1.04-.21-1.41-.59-.38-.38-.59-.88-.59-1.41Z" fill="#0078D7" opacity="0.4" />
  <path d="m8.5,2c-.4,0-.78.16-1.06.44-.28.28-.44.66-.44,1.06v6c0,.4.16.78.44,1.06.28.28.66.44,1.06.44h4c.4,0,.78-.16,1.06-.44.28-.28.44-.66.44-1.06V3.5c0-.4-.16-.78-.44-1.06-.28-.28-.66-.44-1.06-.44h-4Zm-2.5,1.5c0-.66.26-1.3.73-1.77.47-.47,1.1-.73,1.77-.73h4c.66,0,1.3.26,1.77.73.47.47.73,1.1.73,1.77v6c0,.33-.06.65-.19.96s-.31.58-.54.81c-.23.23-.51.42-.81.54s-.63.19-.96.19h-4c-.66,0-1.3-.26-1.77-.73-.47-.47-.73-1.1-.73-1.77V3.5Z" fill="#0078D7" />
</svg>