<svg xmlns="http://www.w3.org/2000/svg" viewBox="0 0 16 16" width="16" height="16">
  <path d="m3.24,7.05l2.94,3.04c.49-1.88,1.96-3.36,3.82-3.89L5.38,1.57c-.38-.38-.88-.59-1.41-.59H1.5C.67.99,0,1.66,0,2.49v5.29l.75-.75c.69-.69,1.81-.68,2.49.02Zm8.26-1.06c1.33,0,2.55.47,3.5,1.26v-2.76c0-.83-.67-1.5-1.5-1.5h-5.29l3.01,3.01c.09,0,.19,0,.29,0Zm-5.5,5.35l-3.48-3.59c-.29-.3-.77-.3-1.07,0L0,9.19v3.29C0,13.32.67,13.99,1.5,13.99h5.1c-.38-.75-.6-1.6-.6-2.5,0-.05,0-.1,0-.15Zm5.5-4.35c-2.49,0-4.5,2.01-4.5,4.5s2.01,4.5,4.5,4.5,4.5-2.01,4.5-4.5-2.01-4.5-4.5-4.5Zm2.35,3.35l-3,3c-.2.2-.51.2-.71,0l-1-1c-.2-.2-.2-.51,0-.71s.51-.2.71,0l.65.65,2.65-2.65c.2-.2.51-.2.71,0,.2.2.2.51,0,.71Z" fill="currentColor" />
</svg>