<svg xmlns="http://www.w3.org/2000/svg" viewBox="0 0 16 16" width="16" height="16">
  <path d="m7.7,15.47c-.16-.15-.3-.31-.44-.47-.79-.95-1.26-2.17-1.26-3.5,0-3.04,2.46-5.5,5.5-5.5.54,0,1.07.08,1.57.23.16.05.33.11.48.17.16.07.32.14.48.22l.42-3.61h1.05c.28,0,.5-.22.5-.5s-.22-.5-.5-.5h-4.5v-.5C11,.67,10.33,0,9.5,0h-3C5.67,0,5,.67,5,1.5v.5H.5c-.28,0-.5.22-.5.5s.22.5.5.5h1.05l1.19,10.34c.17,1.51,1.46,2.66,2.98,2.66h2.61c-.22-.15-.42-.32-.61-.5l-.03-.03ZM6,1.5c0-.28.22-.5.5-.5h3c.28,0,.5.22.5.5v.5h-4v-.5Zm5.5,5.5c-2.49,0-4.5,2.01-4.5,4.5s2.01,4.5,4.5,4.5,4.5-2.01,4.5-4.5-2.01-4.5-4.5-4.5Zm2.5,6.5c0,.28-.22.5-.5.5s-.5-.22-.5-.5v-.25c0-.97-.78-1.75-1.75-1.75h-1.54l.9.9c.2.2.2.51,0,.71s-.51.2-.71,0l-1.75-1.75s-.08-.1-.11-.16c-.02-.06-.04-.12-.04-.19s.01-.13.04-.19c.02-.06.06-.11.11-.16l1.75-1.75c.2-.2.51-.2.71,0,.2.2.2.51,0,.71l-.9.9h1.54c1.52,0,2.75,1.23,2.75,2.75v.25Z" fill="currentColor" />
</svg>