<svg xmlns="http://www.w3.org/2000/svg" viewBox="0 0 16 16" width="16" height="16">
  <path d="m11.5,2.24c.41,0,.75-.34.75-.75s-.34-.75-.75-.75-.75.34-.75.75.34.75.75.75Zm2,2.75h.5v.5c0,.28.22.5.5.5s.5-.22.5-.5v-.5h.5c.28,0,.5-.22.5-.5s-.22-.5-.5-.5h-.5v-.5c0-.28-.22-.5-.5-.5s-.5.22-.5.5v.5h-.5c-.28,0-.5.22-.5.5s.22.5.5.5Zm-6.5,3.5c1.1,0,2-.9,2-2,0-.83-.67-1.5-1.5-1.5-.55,0-1,.45-1,1,0,.28.22.5.5.5s.5-.22.5-.5c.28,0,.5.22.5.5,0,.55-.45,1-1,1-.83,0-1.5-.67-1.5-1.5,0-1.1.9-2,2-2,1.38,0,2.5,1.12,2.5,2.5,0,1.66-1.34,3-3,3-.28,0-.5.22-.5.5s.22.5.5.5c2.21,0,4-1.79,4-4,0-1.93-1.57-3.5-3.5-3.5-1.66,0-3,1.34-3,3,0,1.38,1.12,2.5,2.5,2.5Zm6.85-.35c-.1-.1-.22-.15-.35-.15h-1.73c-.64,2.03-2.53,3.5-4.77,3.5-.83,0-1.5-.67-1.5-1.5,0-.27.07-.53.2-.75-.64-.26-1.18-.69-1.57-1.25h-1.63c-.13,0-.26.05-.35.15L.15,10.14c-.2.2-.2.51,0,.71.2.2.51.2.71,0l1.15-1.15v3.79c0,1.38,1.12,2.5,2.5,2.5h7c1.38,0,2.5-1.12,2.5-2.5v-3.79l1.15,1.15c.2.2.51.2.71,0,.2-.2.2-.51,0-.71l-2-2Z" fill="currentColor" />
</svg>