<svg xmlns="http://www.w3.org/2000/svg" viewBox="0 0 16 16" width="16" height="16">
  <path d="m4.5,1.5h-2c-.27,0-.52.11-.71.29-.19.19-.29.44-.29.71v2c0,.27.11.52.29.71.19.19.44.29.71.29h2c.27,0,.52-.11.71-.29.19-.19.29-.44.29-.71v-2c0-.27-.11-.52-.29-.71-.19-.19-.44-.29-.71-.29Zm9.71,9.29c-.19-.19-.44-.29-.71-.29h-2c-.27,0-.52.11-.71.29s-.29.44-.29.71v2c0,.27.11.52.29.71s.44.29.71.29h2c.27,0,.52-.11.71-.29s.29-.44.29-.71v-2c0-.27-.11-.52-.29-.71Z" fill="#FFFFFF" />
  <path d="m12.5,2.5h-2c-.55,0-1,.45-1,1v2c0,.55.45,1,1,1h2c.55,0,1-.45,1-1v-2c0-.55-.45-1-1-1Zm-7,7h-2c-.55,0-1,.45-1,1v2c0,.55.45,1,1,1h2c.55,0,1-.45,1-1v-2c0-.55-.45-1-1-1Z" fill="#0078D7" opacity="0.2" />
  <path d="m13.56,2.44c-.28-.28-.66-.44-1.06-.44h-2c-.4,0-.78.16-1.06.44s-.44.66-.44,1.06v2c0,.4.16.78.44,1.06s.66.44,1.06.44h2c.4,0,.78-.16,1.06-.44.28-.28.44-.66.44-1.06v-2c0-.4-.16-.78-.44-1.06Zm-.56,3.06c0,.28-.22.5-.5.5h-2c-.28,0-.5-.22-.5-.5v-2c0-.28.22-.5.5-.5h2c.28,0,.5.22.5.5v2Zm-7.5,3.5h-2c-.4,0-.78.16-1.06.44s-.44.66-.44,1.06v2c0,.4.16.78.44,1.06.28.28.66.44,1.06.44h2c.4,0,.78-.16,1.06-.44.28-.28.44-.66.44-1.06v-2c0-.4-.16-.78-.44-1.06s-.66-.44-1.06-.44Zm.5,3.5c0,.28-.22.5-.5.5h-2c-.28,0-.5-.22-.5-.5v-2c0-.28.22-.5.5-.5h2c.28,0,.5.22.5.5v2Z" fill="#0078D7" />
  <path d="m1,2.5c0-.4.16-.78.44-1.06s.66-.44,1.06-.44h2c.4,0,.78.16,1.06.44s.44.66.44,1.06v2c0,.4-.16.78-.44,1.06s-.66.44-1.06.44h-2c-.4,0-.78-.16-1.06-.44s-.44-.66-.44-1.06v-2Zm1.5-.5c-.13,0-.26.05-.35.15-.09.09-.15.22-.15.35v2c0,.13.05.26.15.35.09.09.22.15.35.15h2c.13,0,.26-.05.35-.15.09-.09.15-.22.15-.35v-2c0-.13-.05-.26-.15-.35-.09-.09-.22-.15-.35-.15h-2Zm7.5,9.5c0-.4.16-.78.44-1.06.28-.28.66-.44,1.06-.44h2c.4,0,.78.16,1.06.44.28.28.44.66.44,1.06v2c0,.4-.16.78-.44,1.06-.28.28-.66.44-1.06.44h-2c-.4,0-.78-.16-1.06-.44-.28-.28-.44-.66-.44-1.06v-2Zm1.5-.5c-.13,0-.26.05-.35.15-.09.09-.15.22-.15.35v2c0,.13.05.26.15.35.09.09.22.15.35.15h2c.13,0,.26-.05.35-.15.09-.09.15-.22.15-.35v-2c0-.13-.05-.26-.15-.35-.09-.09-.22-.15-.35-.15h-2ZM0,8.25c0-.69.56-1.25,1.25-1.25h.25c.13,0,.26.05.35.15.09.09.15.22.15.35s-.05.26-.15.35c-.09.09-.22.15-.35.15h-.25c-.07,0-.13.03-.18.07-.05.05-.07.11-.07.18v.25c0,.13-.05.26-.15.35-.09.09-.22.15-.35.15s-.26-.05-.35-.15c-.09-.09-.15-.22-.15-.35v-.25Zm3-.75c0-.13.05-.26.15-.35.09-.09.22-.15.35-.15h2c.13,0,.26.05.35.15.09.09.15.22.15.35s-.05.26-.15.35c-.09.09-.22.15-.35.15h-2c-.13,0-.26-.05-.35-.15-.09-.09-.15-.22-.15-.35Zm4,0c0-.13.05-.26.15-.35.09-.09.22-.15.35-.15h.25c.69,0,1.25.56,1.25,1.25v.25c0,.13-.05.26-.15.35-.09.09-.22.15-.35.15s-.26-.05-.35-.15c-.09-.09-.15-.22-.15-.35v-.25c0-.07-.03-.13-.07-.18-.05-.05-.11-.07-.18-.07h-.25c-.13,0-.26-.05-.35-.15-.09-.09-.15-.22-.15-.35ZM.5,10c.13,0,.26.05.35.15.09.09.15.22.15.35v2c0,.13-.05.26-.15.35-.09.09-.22.15-.35.15s-.26-.05-.35-.15c-.09-.09-.15-.22-.15-.35v-2c0-.13.05-.26.15-.35.09-.09.22-.15.35-.15Zm8,0c.13,0,.26.05.35.15.09.09.15.22.15.35v2c0,.13-.05.26-.15.35-.09.09-.22.15-.35.15s-.26-.05-.35-.15c-.09-.09-.15-.22-.15-.35v-2c0-.13.05-.26.15-.35.09-.09.22-.15.35-.15ZM.5,14c.13,0,.26.05.35.15.09.09.15.22.15.35v.25c0,.14.11.25.25.25h.25c.13,0,.26.05.35.15.09.09.15.22.15.35s-.05.26-.15.35c-.09.09-.22.15-.35.15h-.25c-.69,0-1.25-.56-1.25-1.25v-.25c0-.13.05-.26.15-.35.09-.09.22-.15.35-.15Zm8,0c.13,0,.26.05.35.15.09.09.15.22.15.35v.25c0,.69-.56,1.25-1.25,1.25h-.25c-.13,0-.26-.05-.35-.15-.09-.09-.15-.22-.15-.35s.05-.26.15-.35c.09-.09.22-.15.35-.15h.25c.07,0,.13-.03.18-.07.05-.05.07-.11.07-.18v-.25c0-.13.05-.26.15-.35.09-.09.22-.15.35-.15Zm-5.5,1.5c0-.13.05-.26.15-.35.09-.09.22-.15.35-.15h2c.13,0,.26.05.35.15.09.09.15.22.15.35s-.05.26-.15.35c-.09.09-.22.15-.35.15h-2c-.13,0-.26-.05-.35-.15-.09-.09-.15-.22-.15-.35ZM7,1.25C7,.56,7.56,0,8.25,0h.25C8.63,0,8.76.05,8.85.15c.09.09.15.22.15.35s-.05.26-.15.35c-.09.09-.22.15-.35.15h-.25c-.07,0-.13.03-.18.07-.05.05-.07.11-.07.18v.25c0,.13-.05.26-.15.35-.09.09-.22.15-.35.15s-.26-.05-.35-.15c-.09-.09-.15-.22-.15-.35v-.25Zm3-.75c0-.13.05-.26.15-.35C10.24.05,10.37,0,10.5,0h2C12.63,0,12.76.05,12.85.15c.09.09.15.22.15.35s-.05.26-.15.35c-.09.09-.22.15-.35.15h-2c-.13,0-.26-.05-.35-.15-.09-.09-.15-.22-.15-.35Zm4,0c0-.13.05-.26.15-.35C14.24.05,14.37,0,14.5,0h.25C15.44,0,16,.56,16,1.25v.25c0,.13-.05.26-.15.35-.09.09-.22.15-.35.15s-.26-.05-.35-.15c-.09-.09-.15-.22-.15-.35v-.25c0-.07-.03-.13-.07-.18-.05-.05-.11-.07-.18-.07h-.25c-.13,0-.26-.05-.35-.15-.09-.09-.15-.22-.15-.35Zm-6.5,2.5c.13,0,.26.05.35.15.09.09.15.22.15.35v2c0,.13-.05.26-.15.35-.09.09-.22.15-.35.15s-.26-.05-.35-.15c-.09-.09-.15-.22-.15-.35v-2c0-.13.05-.26.15-.35.09-.09.22-.15.35-.15Zm8,0c.13,0,.26.05.35.15.09.09.15.22.15.35v2c0,.13-.05.26-.15.35-.09.09-.22.15-.35.15s-.26-.05-.35-.15c-.09-.09-.15-.22-.15-.35v-2c0-.13.05-.26.15-.35.09-.09.22-.15.35-.15Zm0,4c.13,0,.26.05.35.15.09.09.15.22.15.35v.25c0,.69-.56,1.25-1.25,1.25h-.25c-.13,0-.26-.05-.35-.15-.09-.09-.15-.22-.15-.35s.05-.26.15-.35c.09-.09.22-.15.35-.15h.25c.07,0,.13-.03.18-.07.05-.05.07-.11.07-.18v-.25c0-.13.05-.26.15-.35.09-.09.22-.15.35-.15Zm-5.5,1.5c0-.13.05-.26.15-.35.09-.09.22-.15.35-.15h2c.13,0,.26.05.35.15.09.09.15.22.15.35s-.05.26-.15.35c-.09.09-.22.15-.35.15h-2c-.13,0-.26-.05-.35-.15-.09-.09-.15-.22-.15-.35Z" fill="#000000" />
</svg>