<svg xmlns="http://www.w3.org/2000/svg" viewBox="0 0 16 16" width="16" height="16">
  <path d="m5,1.5v.5H.5c-.28,0-.5.22-.5.5s.22.5.5.5h1.05l1.19,10.34c.17,1.51,1.46,2.66,2.98,2.66h4.54c1.52,0,2.81-1.14,2.98-2.66l1.19-10.34h1.05c.28,0,.5-.22.5-.5s-.22-.5-.5-.5h-4.5v-.5C11,.67,10.33,0,9.5,0h-3C5.67,0,5,.67,5,1.5Zm1.5-.5h3c.28,0,.5.22.5.5v.5h-4v-.5c0-.28.22-.5.5-.5Zm.5,5v6c0,.28-.22.5-.5.5s-.5-.22-.5-.5v-6c0-.28.22-.5.5-.5s.5.22.5.5Zm2.5-.5c.28,0,.5.22.5.5v6c0,.28-.22.5-.5.5s-.5-.22-.5-.5v-6c0-.28.22-.5.5-.5Z" fill="currentColor" />
</svg>