<svg xmlns="http://www.w3.org/2000/svg" viewBox="0 0 16 16" width="16" height="16">
  <path d="m5.44,3.85l2.06-2.06-1.28-1.28c-.33-.33-.77-.51-1.24-.51h-2.48C1.12,0,0,1.12,0,2.5v1.5h5.09c.13,0,.26-.05.35-.15Zm6.06,2.15c1.33,0,2.55.47,3.5,1.26v-2.76c0-1.38-1.12-2.5-2.5-2.5h-3.79l-2.56,2.56c-.28.28-.66.44-1.06.44H0v5.5c0,1.38,1.12,2.5,2.5,2.5h3.71c-.13-.48-.21-.98-.21-1.5,0-3.04,2.46-5.5,5.5-5.5Zm0,1c-2.49,0-4.5,2.01-4.5,4.5s2.01,4.5,4.5,4.5,4.5-2.01,4.5-4.5-2.01-4.5-4.5-4.5Zm2.5,4.5h0c0,.07-.01.13-.04.19-.02.06-.06.11-.11.16h0s-2,2-2,2c-.2.2-.51.2-.71,0s-.2-.51,0-.71l1.15-1.15h-2.79c-.28,0-.5-.22-.5-.5s.22-.5.5-.5h2.79l-1.15-1.15c-.2-.2-.2-.51,0-.71.2-.2.51-.2.71,0l2,2s.08.1.11.16c.02.06.04.12.04.19h0Z" fill="currentColor" />
</svg>