<svg xmlns="http://www.w3.org/2000/svg" viewBox="0 0 16 16" width="16" height="16">
  <path d="M5.79289 5.20711L7.5 3.5H13.5C14.6046 3.5 15.5 4.39543 15.5 5.5V12.5C15.5 13.6046 14.6046 14.5 13.5 14.5H2.5C1.39543 14.5 0.5 13.6046 0.5 12.5V5.5H5.08579C5.351 5.5 5.60536 5.39464 5.79289 5.20711Z" fill="#FFFFFF" />
  <path d="M5.79289 1.79289L7.5 3.5L5.79289 5.20711C5.60536 5.39464 5.351 5.5 5.08579 5.5H0.5V3.5C0.5 2.39543 1.39543 1.5 2.5 1.5H5.08579C5.351 1.5 5.60536 1.60536 5.79289 1.79289Z" fill="#000000" opacity="0.3" />
  <path d="M2.5 1C1.11929 1 0 2.11929 0 3.5V12.5C0 13.8807 1.11929 15 2.5 15H13.5C14.8807 15 16 13.8807 16 12.5V5.5C16 4.11929 14.8807 3 13.5 3H7.70711L6.21967 1.51256C5.89148 1.18437 5.44636 1 4.98223 1H2.5ZM1 3.5C1 2.67157 1.67157 2 2.5 2H4.98223C5.18115 2 5.37191 2.07902 5.51256 2.21967L6.79289 3.5L5.43934 4.85355C5.34557 4.94732 5.21839 5 5.08579 5H1V3.5ZM1 6H5.08579C5.48361 6 5.86514 5.84196 6.14645 5.56066L7.70711 4H13.5C14.3284 4 15 4.67157 15 5.5V12.5C15 13.3284 14.3284 14 13.5 14H2.5C1.67157 14 1 13.3284 1 12.5V6Z" fill="#000000" />
</svg>