<svg xmlns="http://www.w3.org/2000/svg" viewBox="0 0 16 16" width="16" height="16">
  <path d="m11.5,2.5c-.55,0-1,.45-1,1s.45,1,1,1,1-.45,1-1-.45-1-1-1ZM13,0h-3.88C8.59,0,8.08.21,7.71.59L2.21,6.09c-.78.78-.78,2.05,0,2.83l3.88,3.88c.78.78,2.05.78,2.83,0l5.5-5.5c.38-.38.59-.88.59-1.41v-3.88C15,.9,14.1,0,13,0Zm1,5.88c0,.27-.11.52-.29.71l-5.5,5.5c-.39.39-1.02.39-1.41,0l-3.88-3.88c-.39-.39-.39-1.02,0-1.41L8.41,1.29c.19-.19.44-.29.71-.29h3.88c.55,0,1,.45,1,1v3.88Zm-8.62,7.62l-3.69-3.69c-.18.67,0,1.41.52,1.93l2.46,2.46c1.56,1.56,4.09,1.56,5.66,0l4.09-4.09c.38-.38.59-.88.59-1.41v-.58l-5.38,5.38c-1.17,1.17-3.07,1.17-4.24,0Z" fill="currentColor" />
</svg>