<svg xmlns="http://www.w3.org/2000/svg" viewBox="0 0 16 16" width="16" height="16">
  <path d="m6,11h-2.2c-1.56-.11-2.8-1.41-2.8-3s1.34-3,3-3h2.09c.23-.05.41-.25.41-.5,0-.28-.22-.5-.5-.5h-2.22c-2.11.12-3.78,1.86-3.78,4s1.79,4,4,4h2.09c.23-.05.41-.25.41-.5,0-.28-.22-.5-.5-.5Zm6-7h-2.09c-.23.05-.41.25-.41.5,0,.28.22.5.5.5h2.2c1.56.11,2.8,1.41,2.8,3s-1.34,3-3,3h-2.09c-.23.05-.41.25-.41.5,0,.28.22.5.5.5h2.22c2.11-.12,3.78-1.86,3.78-4s-1.79-4-4-4ZM3.91,7.51c-.23.04-.41.25-.41.49,0,.28.22.5.5.5h8.09c.23-.05.41-.25.41-.5,0-.28-.22-.5-.5-.5H3.91Z" fill="currentColor" />
</svg>