<svg xmlns="http://www.w3.org/2000/svg" viewBox="0 0 16 16" width="16" height="16">
  <path d="m6.5,4h9c.28,0,.5-.22.5-.5s-.22-.5-.5-.5H6.5c-.28,0-.5.22-.5.5s.22.5.5.5Zm9,9H6.5c-.28,0-.5.22-.5.5s.22.5.5.5h9c.28,0,.5-.22.5-.5s-.22-.5-.5-.5Zm0-5H6.5c-.28,0-.5.22-.5.5s.22.5.5.5h9c.28,0,.5-.22.5-.5s-.22-.5-.5-.5ZM3.15,1.65l-1.65,1.65-.65-.65c-.2-.2-.51-.2-.71,0-.2.2-.2.51,0,.71l1,1c.2.2.51.2.71,0l2-2c.2-.2.2-.51,0-.71-.2-.2-.51-.2-.71,0Zm0,10.5l-1.65,1.65-.65-.65c-.2-.2-.51-.2-.71,0-.2.2-.2.51,0,.71l1,1c.2.2.51.2.71,0l2-2c.2-.2.2-.51,0-.71-.2-.2-.51-.2-.71,0Z" fill="currentColor" />
</svg>