<svg xmlns="http://www.w3.org/2000/svg" viewBox="0 0 16 16" width="16" height="16">
  <path d="m14.8,2.51c-.13-.3-.31-.55-.53-.77-.22-.22-.48-.4-.77-.53-.3-.14-.61-.2-.94-.2h-4.11c-.33,0-.64.07-.94.2-.3.13-.56.31-.78.53-.22.22-.4.48-.53.77-.13.3-.2.61-.2.94v6.11c0,.33.07.64.2.94.14.3.31.56.53.78.22.22.48.4.78.53.3.13.61.2.94.2h4.11c.33,0,.64-.07.94-.2.3-.14.55-.31.77-.53.22-.22.4-.48.53-.78.14-.3.2-.61.2-.94V3.45c0-.33-.07-.64-.2-.94Zm-6.1,10.91c-.09.12-.2.22-.33.31-.12.09-.26.16-.41.2-.15.05-.3.07-.46.07H3.5c-.2,0-.4-.04-.58-.12-.18-.08-.34-.18-.48-.32-.14-.14-.24-.3-.32-.48-.08-.18-.12-.38-.12-.58v-6c0-.2.04-.4.12-.58s.18-.34.32-.48c.14-.14.3-.25.48-.33.18-.08.38-.12.58-.12h1.5v-1h-1.55c-.33,0-.64.07-.94.2-.3.13-.56.31-.78.53-.22.22-.4.48-.53.77-.13.3-.2.61-.2.94v6.11c0,.33.07.64.2.94.14.3.31.56.53.78.22.22.48.4.78.53.3.13.61.2.94.2h4.05c.29,0,.57-.05.84-.15.27-.1.52-.24.73-.42.22-.18.4-.39.55-.63.16-.24.26-.51.32-.8h-1.04c-.05.15-.12.29-.22.41Z" fill="currentColor" />
</svg>