<svg xmlns="http://www.w3.org/2000/svg" viewBox="0 0 16 16" width="16" height="16">
  <path d="m4.75,1.19c.31.28.33.75.06,1.06l-2.25,2.5c-.14.15-.33.24-.54.25-.21,0-.4-.07-.55-.22L.22,3.53c-.29-.29-.29-.77,0-1.06.29-.29.77-.29,1.06,0l.69.69,1.72-1.91c.28-.31.75-.33,1.06-.06Zm1.75,2.06c0-.41.34-.75.75-.75h8c.41,0,.75.34.75.75s-.34.75-.75.75H7.25c-.41,0-.75-.34-.75-.75Zm0,5c0-.41.34-.75.75-.75h8c.41,0,.75.34.75.75s-.34.75-.75.75H7.25c-.41,0-.75-.34-.75-.75Zm.75,4.25c-.41,0-.75.34-.75.75s.34.75.75.75h8c.41,0,.75-.34.75-.75s-.34-.75-.75-.75H7.25Zm-2.44-.25c.28-.31.25-.78-.06-1.06-.31-.28-.78-.25-1.06.06l-1.72,1.91-.69-.69c-.29-.29-.77-.29-1.06,0-.29.29-.29.77,0,1.06l1.25,1.25c.15.15.34.22.55.22.21,0,.4-.09.54-.25l2.25-2.5Z" fill="currentColor" />
</svg>