<svg xmlns="http://www.w3.org/2000/svg" viewBox="0 0 16 16" width="16" height="16">
  <path d="m12.88,1.16l-3.1,4.77-.89-1.38L11.62.34c.23-.35.69-.45,1.04-.22.35.23.45.69.22,1.04Zm-2.38,8.59c.39-.16.81-.25,1.25-.25,1.79,0,3.25,1.46,3.25,3.25s-1.46,3.25-3.25,3.25-3.25-1.46-3.25-3.25c0-.81.29-1.55.78-2.11l-1.28-1.97-1.28,1.97c.49.57.78,1.31.78,2.11,0,1.79-1.46,3.25-3.25,3.25s-3.25-1.46-3.25-3.25,1.46-3.25,3.25-3.25c.44,0,.87.09,1.25.25l1.6-2.46L3.12,1.16c-.23-.35-.13-.81.22-1.04.35-.23.81-.13,1.04.22l6.12,9.41Zm.2,1.61c-.42.32-.69.82-.69,1.39,0,.97.78,1.75,1.75,1.75s1.75-.78,1.75-1.75-.78-1.75-1.75-1.75c-.39,0-.75.13-1.04.34,0,0-.01,0-.02.01Zm-6.44-.36c-.97,0-1.75.78-1.75,1.75s.78,1.75,1.75,1.75,1.75-.78,1.75-1.75c0-.57-.27-1.07-.69-1.39,0,0-.01,0-.02-.01-.29-.22-.65-.34-1.04-.34Z" fill="currentColor" />
</svg>