<svg xmlns="http://www.w3.org/2000/svg" viewBox="0 0 16 16" width="16" height="16">
  <path d="m6.4,8.6l1.5.37c.65.16,1.24-.43,1.08-1.08l-.37-1.5c-.1-.39-.3-.74-.58-1.02L3.19.55C2.46-.18,1.28-.18.55.55-.18,1.28-.18,2.46.55,3.19l4.83,4.83c.28.28.63.48,1.02.58ZM13.07,1h-4.45c-.53,0-1.04.21-1.41.59l-.78.78.71.71.78-.78c.19-.19.44-.29.71-.29h4.45c.55,0,1,.45,1,1v4.37c0,.27-.11.52-.3.71l-5.82,5.76c-.39.39-1.02.39-1.41,0l-4.38-4.38c-.39-.39-.39-1.02,0-1.41l.91-.91-.71-.71-.91.91c-.78.78-.78,2.05,0,2.83l4.38,4.38c.78.78,2.04.78,2.82,0l5.82-5.76c.38-.38.59-.89.59-1.42V3c0-1.1-.9-2-2-2Zm-.57,3.5c0-.55-.45-1-1-1s-1,.45-1,1,.45,1,1,1,1-.45,1-1Z" fill="currentColor" />
</svg>