<svg xmlns="http://www.w3.org/2000/svg" viewBox="0 0 16 16" width="16" height="16">
  <path d="m6.5,9.63v3.62c0,.66.29,1.26.74,1.67l3.09-2.81c.38-.35.96-.35,1.35,0l3.09,2.81c.45-.41.74-1.01.74-1.67v-4.5c0-1.24-1.01-2.25-2.25-2.25h-3.62c-.56,1.43-1.7,2.57-3.13,3.13Z" fill="#FFFFFF" />
  <path d="m14.76,14.92c-.4.36-.93.58-1.51.58h-4.5c-.58,0-1.11-.22-1.51-.58l3.09-2.81c.38-.35.96-.35,1.35,0l3.09,2.81Z" fill="#000000" opacity="0.3" />
  <path d="m13.5,6h-3.71c-.1.35-.23.68-.39,1h4.1c.83,0,1.5.67,1.5,1.5v5c0,.23-.05.45-.15.65l-2.44-2.44c-.78-.78-2.05-.78-2.83,0l-2.44,2.44c-.09-.2-.15-.42-.15-.65v-4.1c-.32.16-.65.29-1,.39v3.71c0,1.38,1.12,2.5,2.5,2.5h5c1.38,0,2.5-1.12,2.5-2.5v-5c0-1.38-1.12-2.5-2.5-2.5Zm0,9h-5c-.23,0-.45-.05-.65-.15l2.44-2.44c.39-.39,1.02-.39,1.41,0l2.44,2.44c-.2.09-.42.15-.65.15Zm.5-6c0-.55-.45-1-1-1s-1,.45-1,1,.45,1,1,1,1-.45,1-1Z" fill="#000000" />
  <path d="m9,4.5c0,2.49-2.01,4.5-4.5,4.5S0,6.99,0,4.5,2.01,0,4.5,0s4.5,2.01,4.5,4.5Z" fill="#0078D7" />
  <path d="m6.15,2.65l-2.65,2.65-.65-.65c-.2-.2-.51-.2-.71,0-.2.2-.2.51,0,.71l1,1c.2.2.51.2.71,0l3-3c.2-.2.2-.51,0-.71-.2-.2-.51-.2-.71,0Z" fill="#FFFFFF" />
</svg>