<svg xmlns="http://www.w3.org/2000/svg" viewBox="0 0 16 16" width="16" height="16">
  <path d="m4.85,1c1.2,0,2.26.78,2.62,1.92,0,.03.02.05.03.08h0s6.75,0,6.75,0c.97,0,1.75.78,1.75,1.75v6c0,1.79-1.46,3.25-3.25,3.25h-3.35c.16-.32.29-.65.39-1h.27c-.07-.07-.14-.15-.21-.23.1-.41.15-.83.15-1.27,0-.27-.02-.54-.06-.8.1.31.16.49.16.49.3,1.07,1.3,1.81,2.4,1.81h0s.25,0,.25,0c1.24,0,2.25-1.01,2.25-2.25v-.03c-.3.17-.64.28-1,.28-.61,0-1.4-.29-1.6-.8l-1.96-5.54c-.14-.39-.52-.66-.94-.66h-1.68c.42,1.34,1.09,3.43,1.59,5.02-.4-.78-.97-1.45-1.67-1.96-.53-1.68-1.05-3.32-1.22-3.83-.23-.73-.91-1.22-1.67-1.22h-2.1c-.41,0-.75.34-.75.75v3.85c-.36.18-.69.4-1,.66V2.75c0-.97.78-1.75,1.75-1.75h2.1Zm6.38,3c.06.1.11.21.15.32l1.82,5.28c.1.25.49.4.8.4.54,0,1-.45,1-1v-4.25c0-.41-.34-.75-.75-.75h-3.02Z" fill="#000000" />
  <path d="m0,11.5c0,2.49,2.01,4.5,4.5,4.5s4.5-2.01,4.5-4.5-2.01-4.5-4.5-4.5S0,9.01,0,11.5Z" fill="#0078D7" />
  <path d="m6.85,9.65c-.2-.2-.51-.2-.71,0l-2.65,2.65-.65-.65c-.2-.2-.51-.2-.71,0-.2.2-.2.51,0,.71l1,1c.2.2.51.2.71,0l3-3c.2-.2.2-.51,0-.71Z" fill="#FFFFFF" />
</svg>