<svg xmlns="http://www.w3.org/2000/svg" viewBox="0 0 16 16" width="16" height="16">
  <path d="M4 0.5C3.17157 0.5 2.5 1.17157 2.5 2V14C2.5 14.8284 3.17157 15.5 4 15.5H12C12.8284 15.5 13.5 14.8284 13.5 14V5.5H9.5C8.94772 5.5 8.5 5.05228 8.5 4.5V0.5H4Z" fill="#FFFFFF" />
  <path d="M4 0C2.89543 0 2 0.895431 2 2V14C2 15.1046 2.89543 16 4 16H12C13.1046 16 14 15.1046 14 14V5.41421C14 5.01639 13.842 4.63486 13.5607 4.35355L9.64645 0.43934C9.36514 0.158035 8.98361 0 8.58579 0H4ZM3 2C3 1.44772 3.44772 1 4 1H8V4.5C8 5.32843 8.67157 6 9.5 6H13V14C13 14.5523 12.5523 15 12 15H4C3.44772 15 3 14.5523 3 14V2ZM12.7929 5H9.5C9.22386 5 9 4.77614 9 4.5V1.20711L12.7929 5Z" fill="#000000" />
</svg>