<svg xmlns="http://www.w3.org/2000/svg" viewBox="0 0 16 16" width="16" height="16">
  <path d="m6.4,8.6l1.5.37c.65.16,1.24-.43,1.08-1.08l-.37-1.5c-.1-.39-.3-.74-.58-1.02L3.19.55C2.46-.18,1.28-.18.55.55-.18,1.28-.18,2.46.55,3.19l4.83,4.83c.28.28.63.48,1.02.58ZM13.07,1h-4.45c-.53,0-1.04.21-1.41.59l-.78.78,2.3,2.3c.41.41.7.92.84,1.49l.37,1.5c.35,1.38-.91,2.64-2.29,2.29l-1.5-.37c-.56-.14-1.08-.43-1.49-.84l-1.95-1.95-.35-.35-.91.91c-.78.78-.78,2.05,0,2.83l4.38,4.38c.78.78,2.04.78,2.82,0l5.82-5.76c.38-.38.59-.89.59-1.42V3c0-1.1-.9-2-2-2Zm-1.57,4.5c-.55,0-1-.45-1-1s.45-1,1-1,1,.45,1,1-.45,1-1,1Z" fill="currentColor" />
</svg>