<svg xmlns="http://www.w3.org/2000/svg" viewBox="0 0 16 16" width="16" height="16">
  <path d="m3,1.99C1.34,1.99,0,3.33,0,4.99v6c0,1.66,1.34,3,3,3h10c1.66,0,3-1.34,3-3v-6c0-1.66-1.34-3-3-3H3Zm.48,2.58c-.09-.4-.5-.66-.9-.56-.4.09-.66.5-.56.9l1.5,6.5c.09.4.5.66.9.56.4-.09.66-.5.56-.9l-1.5-6.5Zm6.77,7.42c.41,0,.75-.34.75-.75s-.34-.75-.75-.75-.75.34-.75.75.34.75.75.75Zm2.5,0c.41,0,.75-.34.75-.75s-.34-.75-.75-.75-.75.34-.75.75.34.75.75.75Zm-7.17-7.98c.4-.09.81.16.9.56l1.5,6.5c.09.4-.16.81-.56.9-.4.09-.81-.16-.9-.56l-1.5-6.5c-.09-.4.16-.81.56-.9Z" fill="currentColor" />
</svg>