<svg xmlns="http://www.w3.org/2000/svg" viewBox="0 0 16 16" width="16" height="16">
  <path d="m6.45,12c-.33,0-.64-.07-.94-.2-.3-.14-.56-.31-.78-.53-.22-.22-.4-.48-.53-.78-.13-.3-.2-.61-.2-.94V3.45c0-.33.07-.64.2-.94.14-.3.31-.55.53-.77.22-.22.48-.4.78-.53.3-.14.61-.2.94-.2h6.11c.33,0,.64.07.94.2.3.13.55.31.77.53.22.22.4.48.53.77.14.3.2.61.2.94v6.11c0,.33-.07.64-.2.94-.13.3-.31.56-.53.78-.22.22-.48.4-.77.53-.3.13-.61.2-.94.2h-6.11Z" fill="#0078D7" />
  <path d="m5.36,4.02c.13-.04.26-.02.38.04.12.06.2.17.24.3l1,4c.04.13.02.26-.04.38-.06.12-.17.2-.3.24-.13.04-.26.02-.38-.04-.12-.06-.2-.17-.24-.3l-1-4c-.02-.06-.02-.13-.02-.19,0-.07.03-.13.06-.19.03-.06.07-.11.13-.15.05-.04.11-.07.17-.09Zm3,0c.13-.04.26-.02.38.04.12.06.2.17.24.3l1,4c.04.13.02.26-.04.38-.06.12-.17.2-.3.24-.13.04-.26.02-.38-.04-.12-.06-.2-.17-.24-.3l-1-4c-.02-.06-.02-.13-.02-.19,0-.07.03-.13.06-.19.03-.06.07-.11.13-.15.05-.04.11-.07.17-.09Zm5.64,4.23c0,.2-.08.39-.22.53-.14.14-.33.22-.53.22s-.39-.08-.53-.22c-.14-.14-.22-.33-.22-.53s.08-.39.22-.53c.14-.14.33-.22.53-.22s.39.08.53.22c.14.14.22.33.22.53Z" fill="#FFFFFF" />
  <path d="m3,4.04c-.17.03-.33.09-.49.16-.3.13-.56.31-.78.53-.22.22-.4.48-.53.77-.13.3-.2.61-.2.94v6.11c0,.33.07.64.2.94.14.3.31.56.53.78.22.22.48.4.78.53.3.13.61.2.94.2h6.05c.29,0,.57-.05.84-.15.27-.1.52-.24.73-.42.22-.18.4-.39.55-.63.16-.24.26-.51.32-.8h-1.04c-.05.15-.12.29-.22.41-.09.12-.2.22-.33.31-.12.09-.26.16-.41.2-.15.05-.3.07-.46.07H3.5c-.2,0-.4-.04-.58-.12-.18-.08-.34-.18-.48-.32-.14-.14-.24-.3-.32-.48-.08-.18-.12-.38-.12-.58v-6c0-.2.04-.4.12-.58.08-.18.18-.34.32-.48.14-.14.3-.25.48-.33.03-.01.05-.02.08-.03v-1.04Z" fill="#000000" />
</svg>