<svg xmlns="http://www.w3.org/2000/svg" viewBox="0 0 16 16" width="16" height="16">
  <path d="m2,2.5h12l-1.24,10.79c-.15,1.26-1.21,2.21-2.48,2.21h-4.54c-1.27,0-2.34-.95-2.48-2.21L2,2.5Z" fill="#FFFFFF" />
  <path d="m13.5,2.5l-1.24,10.73c-.12,1.01-.97,1.77-1.99,1.77h-4.54c-1.02,0-1.87-.76-1.99-1.77L2.5,2.5h-1s0,.04,0,.06l1.24,10.79c.17,1.51,1.46,2.66,2.98,2.66h4.54c1.52,0,2.81-1.14,2.98-2.66l1.24-10.79s0-.04,0-.06h-1Zm-7,10c.28,0,.5-.22.5-.5v-6c0-.28-.22-.5-.5-.5s-.5.22-.5.5v6c0,.28.22.5.5.5Zm3,0c.28,0,.5-.22.5-.5v-6c0-.28-.22-.5-.5-.5s-.5.22-.5.5v6c0,.28.22.5.5.5Z" fill="#000000" />
  <path d="m5,2v-.5C5,.67,5.67,0,6.5,0h3C10.33,0,11,.67,11,1.5v.5h4.5c.28,0,.5.22.5.5s-.22.5-.5.5H.5c-.28,0-.5-.22-.5-.5s.22-.5.5-.5h4.5Zm1-.5v.5h4v-.5c0-.28-.22-.5-.5-.5h-3c-.28,0-.5.22-.5.5Z" fill="#0078D7" />
</svg>