<svg xmlns="http://www.w3.org/2000/svg" viewBox="0 0 16 16" width="16" height="16">
  <path d="m9,4.5C9,2.01,6.99,0,4.5,0S0,2.01,0,4.5s2.01,4.5,4.5,4.5,4.5-2.01,4.5-4.5Zm-2.15-1.15l-3,3c-.2.2-.51.2-.71,0l-1-1c-.2-.2-.2-.51,0-.71.2-.2.51-.2.71,0l.65.65,2.65-2.65c.2-.2.51-.2.71,0,.2.2.2.51,0,.71Zm6.65,2.65h-3.71c-.52,1.83-1.96,3.27-3.79,3.79v3.71c0,.51.15.98.41,1.38l3.17-3.17c.78-.78,2.05-.78,2.83,0l3.17,3.17c.26-.4.41-.87.41-1.38v-5c0-1.38-1.12-2.5-2.5-2.5Zm-.5,4c-.55,0-1-.45-1-1s.45-1,1-1,1,.45,1,1-.45,1-1,1Zm-2.71,2.41l-3.17,3.17c.4.26.87.41,1.38.41h5c.51,0,.98-.15,1.38-.41l-3.17-3.17c-.39-.39-1.02-.39-1.41,0Z" fill="currentColor" />
</svg>