<svg xmlns="http://www.w3.org/2000/svg" viewBox="0 0 16 16" width="16" height="16">
  <path d="m14.25,3h-6.75s-.02-.05-.03-.08c-.36-1.14-1.42-1.92-2.62-1.92h-2.1c-.97,0-1.75.78-1.75,1.75v4.51c.31-.25.64-.47,1-.66v-3.85c0-.41.34-.75.75-.75h2.1c.76,0,1.44.49,1.67,1.22.16.51.68,2.15,1.22,3.83.7.51,1.28,1.18,1.67,1.96-.5-1.58-1.17-3.68-1.59-5.02h1.68c.42,0,.8.27.94.66l1.96,5.54c.2.51.99.81,1.6.8.36,0,.7-.1,1-.28v.03c0,1.24-1.01,2.25-2.25,2.25h-.25c-1.1,0-2.1-.75-2.4-1.81,0,0-.06-.18-.16-.49.04.26.06.53.06.8,0,.44-.05.86-.15,1.27.07.08.14.15.21.23h-.27c-.1.35-.23.68-.39,1h3.35c1.79,0,3.25-1.46,3.25-3.25v-6c0-.97-.78-1.75-1.75-1.75Zm.75,6c0,.55-.46,1-1,1-.31,0-.7-.15-.8-.4l-1.82-5.28c-.04-.11-.09-.22-.15-.32h3.02c.41,0,.75.34.75.75v4.25Zm-10.5-2c-2.49,0-4.5,2.01-4.5,4.5s2.01,4.5,4.5,4.5,4.5-2.01,4.5-4.5-2.01-4.5-4.5-4.5Zm2.35,4.85l-2,2s-.1.08-.16.11c-.06.02-.12.04-.19.04h0c-.07,0-.13-.01-.19-.04-.06-.02-.11-.06-.16-.11h0s-2-2-2-2c-.2-.2-.2-.51,0-.71.2-.2.51-.2.71,0l1.15,1.15v-2.79c0-.28.22-.5.5-.5s.5.22.5.5v2.79l1.15-1.15c.2-.2.51-.2.71,0,.2.2.2.51,0,.71Z" fill="currentColor" />
</svg>