<svg xmlns="http://www.w3.org/2000/svg" viewBox="0 0 16 16" width="16" height="16">
  <path d="m1,12.5v-6.5h4.09c.4,0,.78-.16,1.06-.44l1.56-1.56h1.29v-1h-1.29l-1.49-1.49c-.33-.33-.77-.51-1.24-.51h-2.48C1.12,1,0,2.12,0,3.5v9c0,1.38,1.12,2.5,2.5,2.5h7.5v-1H2.5c-.83,0-1.5-.67-1.5-1.5ZM1,3.5c0-.83.67-1.5,1.5-1.5h2.48c.2,0,.39.08.53.22l1.28,1.28-1.35,1.35c-.09.09-.22.15-.35.15H1v-1.5Zm13-.45v1.04c.58.21,1,.76,1,1.41v7c0,.83-.67,1.5-1.5,1.5h-.5v1h.5c1.38,0,2.5-1.12,2.5-2.5v-7c0-1.21-.86-2.22-2-2.45Zm-1.5,6.95h-.5v-2h.5c.28,0,.5-.22.5-.5V3.5c0-.28-.22-.5-.5-.5h-2c-.28,0-.5.22-.5.5v4c0,.28.22.5.5.5h.5v1h-.5c-.28,0-.5.22-.5.5s.22.5.5.5h.5v1h-.5c-.28,0-.5.22-.5.5s.22.5.5.5h.5v2.5c0,.28.22.5.5.5s.5-.22.5-.5v-3.5h.5c.28,0,.5-.22.5-.5s-.22-.5-.5-.5Zm-1.5-3v-3h1v3h-1Z" fill="currentColor" />
</svg>