<svg xmlns="http://www.w3.org/2000/svg" viewBox="0 0 16 16" width="16" height="16">
  <path d="m2.69,8.03c.19.08.31.26.31.46v5c0,.83.67,1.5,1.5,1.5h7c.83,0,1.5-.67,1.5-1.5v-5c0-.2.12-.38.31-.46.19-.08.4-.03.54.11l2,2c.2.2.2.51,0,.71-.2.2-.51.2-.71,0l-1.15-1.15v3.79c0,1.38-1.12,2.5-2.5,2.5h-7c-1.38,0-2.5-1.12-2.5-2.5v-3.79l-1.15,1.15c-.2.2-.51.2-.71,0-.2-.2-.2-.51,0-.71l2-2c.14-.14.36-.19.54-.11Z" fill="#000000" />
  <path d="m11.5,2.24c.41,0,.75-.34.75-.75s-.34-.75-.75-.75-.75.34-.75.75.34.75.75.75Zm3,.75c.28,0,.5.22.5.5v.5h.5c.28,0,.5.22.5.5s-.22.5-.5.5h-.5v.5c0,.28-.22.5-.5.5s-.5-.22-.5-.5v-.5h-.5c-.28,0-.5-.22-.5-.5s.22-.5.5-.5h.5v-.5c0-.28.22-.5.5-.5Zm-7,0c-1.66,0-3,1.34-3,3,0,1.38,1.12,2.5,2.5,2.5,1.1,0,2-.9,2-2,0-.83-.67-1.5-1.5-1.5-.55,0-1,.45-1,1,0,.28.22.5.5.5s.5-.22.5-.5c.28,0,.5.22.5.5,0,.55-.45,1-1,1-.83,0-1.5-.67-1.5-1.5,0-1.1.9-2,2-2,1.38,0,2.5,1.12,2.5,2.5,0,1.66-1.34,3-3,3-.28,0-.5.22-.5.5s.22.5.5.5c2.21,0,4-1.79,4-4,0-1.93-1.57-3.5-3.5-3.5Z" fill="#0078D7" />
</svg>