<svg xmlns="http://www.w3.org/2000/svg" viewBox="0 0 16 16" width="16" height="16">
  <path d="m11.5.5c-2.21,0-4,1.79-4,4,0,.35.04.69.13,1.01L1.02,12.37c-.36.37-.52.85-.52,1.31,0,1.04.88,1.83,1.86,1.82.47,0,.95-.17,1.32-.54l6.57-6.66c.39.13.81.2,1.25.2,2.21,0,4-1.79,4-4,0-.28-.03-.56-.08-.82-.04-.18-.17-.32-.35-.38-.18-.05-.37,0-.5.13l-2.07,2.07-2-2,2.07-2.07c.13-.13.18-.32.13-.5-.05-.18-.2-.31-.38-.35-.27-.06-.54-.08-.82-.08Z" fill="#FFFFFF" />
  <path d="m7,4.5C7,2.01,9.02,0,11.5,0,12.16,0,12.79.14,13.36.4c.15.07.26.2.29.37.03.16-.02.33-.14.44l-2.29,2.29,1.29,1.29,2.29-2.29c.12-.12.28-.17.44-.14.16.03.3.14.37.29.26.57.4,1.19.4,1.85,0,2.49-2.01,4.5-4.5,4.5-.38,0-.75-.05-1.1-.14l-6.36,6.45c-.45.46-1.05.68-1.65.69C1.1,16.01,0,14.97,0,13.68c0-.59.21-1.19.66-1.66l6.43-6.66c-.05-.28-.08-.57-.08-.86Zm4.5-3.5c-1.93,0-3.5,1.57-3.5,3.5,0,.31.04.6.11.89.04.17,0,.35-.12.47L1.38,12.71c-.26.27-.38.62-.38.96,0,.74.63,1.33,1.36,1.32.35,0,.7-.12.96-.39l6.57-6.66c.13-.14.33-.18.51-.12.34.11.71.17,1.1.17,1.93,0,3.5-1.57,3.5-3.5,0-.25-.03-.49-.07-.72l-2.07,2.07c-.2.2-.51.2-.71,0l-2-2c-.09-.09-.15-.22-.15-.35s.05-.26.15-.35l2.07-2.07c-.23-.05-.47-.07-.72-.07Z" fill="#000000" />
</svg>