<svg xmlns="http://www.w3.org/2000/svg" viewBox="0 0 16 16" width="16" height="16">
  <path d="m14.5,0h-6C7.67,0,7,.67,7,1.5v4c0,.83.67,1.5,1.5,1.5h6c.83,0,1.5-.67,1.5-1.5V1.5C16,.67,15.33,0,14.5,0ZM3,8.5c0,.28.22.5.5.5h1.79l-2.65,2.65c-.2.2-.2.51,0,.71.2.2.51.2.71,0l2.65-2.65v1.79c0,.28.22.5.5.5s.5-.22.5-.5v-3c0-.28-.22-.5-.5-.5h-3c-.28,0-.5.22-.5.5Zm9,3.75c0,.97-.78,1.75-1.75,1.75H2.75c-.97,0-1.75-.78-1.75-1.75v-6.5c0-.97.78-1.75,1.75-1.75h3.25v-1h-3.25C1.23,3,0,4.23,0,5.75v6.5C0,13.77,1.23,15,2.75,15h7.5c1.52,0,2.75-1.23,2.75-2.75v-4.25h-1v4.25Z" fill="currentColor" />
</svg>