<svg xmlns="http://www.w3.org/2000/svg" viewBox="0 0 16 16" width="16" height="16">
  <path d="m4.16,12.89c.18-.07.36-.1.54-.1.23,0,.43.07.6.22.17.15.28.33.32.55.05.25.09.5.13.76.04.25.09.5.13.75.04.22.13.4.27.55.14.14.32.23.54.27.21.04.43.07.65.09.22.02.44.02.66.02s.42,0,.63-.02c.21-.02.42-.04.63-.08.22-.04.41-.13.55-.27.15-.14.24-.32.28-.55.03-.14.05-.27.07-.39.03-.13.05-.26.08-.4.03-.17.06-.34.09-.52.03-.18.08-.35.15-.49.07-.15.16-.27.29-.37.12-.09.3-.14.53-.14.17,0,.34.03.52.1.18.07.35.14.53.23.18.08.35.15.53.22.18.07.36.1.53.1.15,0,.29-.03.41-.09.13-.06.25-.15.35-.27.07-.08.15-.18.24-.31.1-.13.2-.27.3-.43.1-.16.21-.32.3-.49.1-.17.2-.34.27-.51.08-.17.14-.32.19-.46.05-.15.08-.27.08-.38,0-.19-.05-.35-.14-.5-.09-.15-.21-.28-.35-.41-.14-.13-.29-.25-.45-.37-.16-.11-.31-.23-.45-.35-.14-.12-.26-.26-.35-.4-.09-.14-.14-.3-.14-.48s.05-.34.14-.48c.09-.14.21-.27.34-.39.14-.12.29-.24.45-.35.17-.11.32-.22.45-.34.14-.12.26-.26.35-.41.09-.15.14-.32.14-.51,0-.1-.02-.22-.07-.37-.05-.15-.11-.3-.19-.46-.07-.17-.16-.34-.26-.51-.1-.18-.2-.34-.3-.5-.1-.16-.2-.3-.29-.43-.09-.13-.17-.23-.23-.31-.1-.12-.22-.21-.35-.27-.12-.07-.27-.1-.43-.1-.18,0-.36.03-.54.1-.18.07-.35.14-.53.22-.17.08-.35.15-.52.22-.18.07-.36.1-.54.1-.23,0-.43-.07-.6-.22-.17-.15-.28-.33-.32-.55-.05-.26-.09-.51-.13-.76s-.09-.5-.13-.76c-.04-.22-.13-.4-.27-.54-.14-.14-.32-.23-.54-.27-.21-.04-.43-.07-.65-.09s-.44-.02-.66-.02-.42,0-.63.02c-.21.01-.42.03-.63.07-.22.04-.4.13-.55.27-.15.14-.24.32-.28.54l-.28,1.53c-.04.23-.15.42-.32.56-.17.14-.37.21-.6.21-.18,0-.36-.03-.54-.1-.17-.07-.34-.14-.52-.22-.17-.08-.34-.16-.52-.23-.17-.07-.35-.1-.53-.1-.15,0-.29.03-.43.09-.13.06-.25.15-.35.27-.07.07-.15.17-.24.3-.09.13-.19.28-.3.44-.1.16-.2.32-.3.5-.1.17-.19.34-.27.51-.08.17-.14.32-.2.47-.05.15-.07.27-.07.36,0,.19.05.35.14.5s.21.28.35.41c.14.12.29.24.45.36.16.11.31.23.45.36.14.12.26.25.35.39.09.14.14.3.14.48s-.05.34-.14.48c-.09.14-.21.27-.35.39-.14.12-.29.23-.45.34-.16.11-.31.23-.45.35-.14.12-.25.26-.34.41-.09.15-.14.31-.14.5,0,.1.02.22.07.37.05.15.11.3.18.47.08.16.17.33.27.51.1.17.2.34.3.49s.19.3.28.43c.09.13.17.23.24.31.1.12.22.21.35.28.13.06.27.09.43.09.18,0,.36-.03.54-.1.18-.07.35-.14.52-.22.18-.08.35-.15.53-.22Zm5.69-5.66c.1.24.16.5.16.77s-.05.54-.16.78c-.1.24-.25.45-.43.63s-.4.33-.64.43c-.24.1-.5.16-.77.16s-.54-.05-.78-.16c-.24-.1-.45-.25-.63-.43s-.33-.39-.43-.63c-.1-.24-.16-.51-.16-.78s.05-.53.16-.77c.1-.24.25-.46.43-.64s.39-.33.63-.43c.24-.1.51-.16.78-.16s.53.05.77.16c.24.1.46.25.64.43s.33.4.43.64Z" fill="currentColor" />
</svg>