<svg xmlns="http://www.w3.org/2000/svg" viewBox="0 0 16 16" width="16" height="16">
  <path d="m9,4.5C9,2.01,6.99,0,4.5,0S0,2.01,0,4.5s2.01,4.5,4.5,4.5,4.5-2.01,4.5-4.5Zm-2.15-1.15l-3,3c-.2.2-.51.2-.71,0l-1-1c-.2-.2-.2-.51,0-.71.2-.2.51-.2.71,0l.65.65,2.65-2.65c.2-.2.51-.2.71,0,.2.2.2.51,0,.71Zm6.65,2.65h-3.71c-.1.35-.23.68-.39,1h4.1c.83,0,1.5.67,1.5,1.5v5c0,.23-.05.45-.15.65l-2.44-2.44c-.78-.78-2.05-.78-2.83,0l-2.44,2.44c-.09-.2-.15-.42-.15-.65v-4.1c-.32.16-.65.29-1,.39v3.71c0,1.38,1.12,2.5,2.5,2.5h5c1.38,0,2.5-1.12,2.5-2.5v-5c0-1.38-1.12-2.5-2.5-2.5Zm0,9h-5c-.23,0-.45-.05-.65-.15l2.44-2.44c.39-.39,1.02-.39,1.41,0l2.44,2.44c-.2.09-.42.15-.65.15Zm.5-6c0-.55-.45-1-1-1s-1,.45-1,1,.45,1,1,1,1-.45,1-1Z" fill="currentColor" />
</svg>