<svg xmlns="http://www.w3.org/2000/svg" viewBox="0 0 16 16" width="16" height="16">
  <path d="m5.5,14h-3c-.28,0-.5-.22-.5-.5V2.5c0-.28.22-.5.5-.5h1.59c.21.58.76,1,1.41,1h3c.65,0,1.21-.42,1.41-1h1.59c.28,0,.5.22.5.5v1c0,.28.22.5.5.5s.5-.22.5-.5v-1c0-.83-.67-1.5-1.5-1.5h-1.59C9.71.42,9.15,0,8.5,0h-3C4.85,0,4.29.42,4.09,1h-1.59c-.83,0-1.5.67-1.5,1.5v11c0,.83.67,1.5,1.5,1.5h3c.28,0,.5-.22.5-.5s-.22-.5-.5-.5Zm0-13h3c.28,0,.5.22.5.5s-.22.5-.5.5h-3c-.28,0-.5-.22-.5-.5s.22-.5.5-.5Zm8,4h-5c-.83,0-1.5.67-1.5,1.5v8c0,.83.67,1.5,1.5,1.5h5c.83,0,1.5-.67,1.5-1.5V6.5c0-.83-.67-1.5-1.5-1.5Z" fill="currentColor" />
</svg>