<svg xmlns="http://www.w3.org/2000/svg" viewBox="0 0 16 16" width="16" height="16">
  <path d="m15.85,13.15l-4.13-4.13c.8-.95,1.27-2.18,1.27-3.52,0-3.04-2.46-5.5-5.5-5.5S2,2.46,2,5.5c0,.36.03.71.1,1.05.3-.15.62-.27.95-.36-.03-.23-.05-.46-.05-.69C3,3.01,5.01,1,7.5,1s4.5,2.01,4.5,4.5c0,1.72-.97,3.22-2.39,3.97.12.31.22.64.29.98.4-.2.78-.44,1.12-.72l4.13,4.13.07.06c.19.14.46.12.64-.06.2-.2.2-.51,0-.71Zm-7.39-2.28c-1.12-.26-1.79-1.42-1.46-2.52l.13-.42c-.26-.2-.54-.38-.83-.52l-.32.34c-.79.84-2.12.84-2.91,0l-.34-.36c-.29.13-.57.3-.82.5l.16.56c.3,1.08-.34,2.2-1.43,2.48l-.46.12c-.01.15-.02.31-.02.46,0,.19.01.37.03.55l.35.08c1.12.26,1.79,1.42,1.46,2.52l-.13.42c.26.2.54.38.83.52l.32-.34c.79-.84,2.12-.84,2.91,0l.34.36c.29-.13.57-.3.82-.5l-.16-.56c-.3-1.08.34-2.2,1.43-2.48l.46-.12c.02-.15.02-.31.02-.46,0-.19-.01-.37-.03-.55l-.35-.08Zm-3.97,1.64c-.55,0-1-.45-1-1s.45-1,1-1,1,.45,1,1-.45,1-1,1Z" fill="currentColor" />
</svg>