<svg xmlns="http://www.w3.org/2000/svg" viewBox="0 0 16 16" width="16" height="16">
  <path d="m13,6v-3.5c0-.83-.67-1.5-1.5-1.5h-1.59C9.71.42,9.15,0,8.5,0h-3C4.85,0,4.29.42,4.09,1h-1.59c-.83,0-1.5.67-1.5,1.5v11c0,.83.67,1.5,1.5,1.5h3.5v-6.5c0-.66.26-1.3.73-1.77s1.1-.73,1.77-.73h4.5ZM5.5,2c-.28,0-.5-.22-.5-.5s.22-.5.5-.5h3c.28,0,.5.22.5.5s-.22.5-.5.5h-3Zm10.06,5.44c-.28-.28-.66-.44-1.06-.44h-6c-.4,0-.78.16-1.06.44-.28.28-.44.66-.44,1.06v6c0,.4.16.78.44,1.06.28.28.66.44,1.06.44h6c.4,0,.78-.16,1.06-.44.28-.28.44-.66.44-1.06v-6c0-.4-.16-.78-.44-1.06Zm-1.56,6.06c0,.13-.05.26-.15.35s-.22.15-.35.15-.26-.05-.35-.15c-.09-.09-.15-.22-.15-.35v-2.62l-3.06,3.06c-.12.12-.28.18-.44.18s-.32-.07-.44-.18c-.12-.12-.18-.28-.18-.44s.07-.32.18-.44l3.06-3.06h-2.62c-.13,0-.26-.05-.35-.15-.09-.09-.15-.22-.15-.35s.05-.26.15-.35c.09-.09.22-.15.35-.15h4c.13,0,.26.05.35.15.09.09.15.22.15.35v4Z" fill="currentColor" />
</svg>