<svg xmlns="http://www.w3.org/2000/svg" viewBox="0 0 16 16" width="16" height="16">
  <path d="m13,1.99H3C1.34,1.99,0,3.33,0,4.99v6c0,1.66,1.34,3,3,3h10c1.66,0,3-1.34,3-3v-6c0-1.66-1.34-3-3-3Zm2,9c0,1.1-.9,2-2,2H3c-1.1,0-2-.9-2-2v-6c0-1.1.9-2,2-2h10c1.1,0,2,.9,2,2v6ZM5.98,4.35c-.08-.27-.35-.42-.62-.34-.27.08-.42.35-.34.62l2,7c.08.27.35.42.62.34.27-.08.42-.35.34-.62l-2-7Zm-3,0c-.08-.27-.35-.42-.62-.34-.27.08-.42.35-.34.62l2,7c.08.27.35.42.62.34.27-.08.42-.35.34-.62l-2-7Zm9.77,6.14c-.41,0-.75.34-.75.75s.34.75.75.75.75-.34.75-.75-.34-.75-.75-.75Zm-2.5,0c-.41,0-.75.34-.75.75s.34.75.75.75.75-.34.75-.75-.34-.75-.75-.75Z" fill="currentColor" />
</svg>