<svg xmlns="http://www.w3.org/2000/svg" viewBox="0 0 16 16" width="16" height="16">
  <path d="m5.5,1.5h-3c-.27,0-.52.11-.71.29s-.29.44-.29.71v3c0,.27.11.52.29.71s.44.29.71.29h3c.27,0,.52-.11.71-.29s.29-.44.29-.71v-3c0-.27-.11-.52-.29-.71s-.44-.29-.71-.29Zm8.71.29c-.19-.19-.44-.29-.71-.29h-3c-.27,0-.52.11-.71.29s-.29.44-.29.71v3c0,.27.11.52.29.71s.44.29.71.29h3c.27,0,.52-.11.71-.29.19-.19.29-.44.29-.71v-3c0-.27-.11-.52-.29-.71Zm-8.71,7.71h-3c-.27,0-.52.11-.71.29s-.29.44-.29.71v3c0,.27.11.52.29.71.19.19.44.29.71.29h3c.27,0,.52-.11.71-.29.19-.19.29-.44.29-.71v-3c0-.27-.11-.52-.29-.71s-.44-.29-.71-.29Zm8,0h-3c-.27,0-.52.11-.71.29s-.29.44-.29.71v3c0,.27.11.52.29.71.19.19.44.29.71.29h3c.27,0,.52-.11.71-.29s.29-.44.29-.71v-3c0-.27-.11-.52-.29-.71-.19-.19-.44-.29-.71-.29Z" fill="#FFFFFF" />
  <path d="m1,2.5c0-.4.16-.78.44-1.06s.66-.44,1.06-.44h3c.4,0,.78.16,1.06.44s.44.66.44,1.06v3c0,.4-.16.78-.44,1.06s-.66.44-1.06.44h-3c-.4,0-.78-.16-1.06-.44s-.44-.66-.44-1.06v-3Zm1.5-.5c-.13,0-.26.05-.35.15-.09.09-.15.22-.15.35v3c0,.13.05.26.15.35.09.09.22.15.35.15h3c.13,0,.26-.05.35-.15.09-.09.15-.22.15-.35v-3c0-.13-.05-.26-.15-.35-.09-.09-.22-.15-.35-.15h-3Zm6.5.5c0-.4.16-.78.44-1.06.28-.28.66-.44,1.06-.44h3c.4,0,.78.16,1.06.44.28.28.44.66.44,1.06v3c0,.4-.16.78-.44,1.06-.28.28-.66.44-1.06.44h-3c-.4,0-.78-.16-1.06-.44-.28-.28-.44-.66-.44-1.06v-3Zm1.5-.5c-.13,0-.26.05-.35.15-.09.09-.15.22-.15.35v3c0,.13.05.26.15.35.09.09.22.15.35.15h3c.13,0,.26-.05.35-.15.09-.09.15-.22.15-.35v-3c0-.13-.05-.26-.15-.35-.09-.09-.22-.15-.35-.15h-3ZM2.5,10c-.13,0-.26.05-.35.15-.09.09-.15.22-.15.35v3c0,.13.05.26.15.35.09.09.22.15.35.15h3c.13,0,.26-.05.35-.15.09-.09.15-.22.15-.35v-3c0-.13-.05-.26-.15-.35-.09-.09-.22-.15-.35-.15h-3Zm-1.5.5c0-.4.16-.78.44-1.06.28-.28.66-.44,1.06-.44h3c.4,0,.78.16,1.06.44.28.28.44.66.44,1.06v3c0,.4-.16.78-.44,1.06-.28.28-.66.44-1.06.44h-3c-.4,0-.78-.16-1.06-.44-.28-.28-.44-.66-.44-1.06v-3Zm8,0c0-.4.16-.78.44-1.06.28-.28.66-.44,1.06-.44h3c.4,0,.78.16,1.06.44.28.28.44.66.44,1.06v3c0,.4-.16.78-.44,1.06-.28.28-.66.44-1.06.44h-3c-.4,0-.78-.16-1.06-.44-.28-.28-.44-.66-.44-1.06v-3Zm1.5-.5c-.13,0-.26.05-.35.15-.09.09-.15.22-.15.35v3c0,.13.05.26.15.35.09.09.22.15.35.15h3c.13,0,.26-.05.35-.15.09-.09.15-.22.15-.35v-3c0-.13-.05-.26-.15-.35-.09-.09-.22-.15-.35-.15h-3Z" fill="#000000" />
</svg>