<svg xmlns="http://www.w3.org/2000/svg" viewBox="0 0 16 16" width="16" height="16">
  <path d="m.5,3c.13,0,.26-.05.35-.15.09-.09.15-.22.15-.35v-.5c0-.27.11-.52.29-.71.19-.19.44-.29.71-.29h.5c.13,0,.26-.05.35-.15.09-.09.15-.22.15-.35s-.05-.26-.15-.35C2.76.05,2.63,0,2.5,0h-.5C1.47,0,.96.21.59.59c-.38.38-.59.88-.59,1.41v.5c0,.13.05.26.15.35.09.09.22.15.35.15ZM7,0h-2C4.87,0,4.74.05,4.65.15c-.09.09-.15.22-.15.35s.05.26.15.35c.09.09.22.15.35.15h2c.13,0,.26-.05.35-.15.09-.09.15-.22.15-.35s-.05-.26-.15-.35C7.26.05,7.13,0,7,0Zm2.5,1h2c.13,0,.26-.05.35-.15.09-.09.15-.22.15-.35s-.05-.26-.15-.35C11.76.05,11.63,0,11.5,0h-2C9.37,0,9.24.05,9.15.15c-.09.09-.15.22-.15.35s.05.26.15.35c.09.09.22.15.35.15Zm5.91-.41C15.04.21,14.53,0,14,0h-.5C13.37,0,13.24.05,13.15.15c-.09.09-.15.22-.15.35s.05.26.15.35c.09.09.22.15.35.15h.5c.27,0,.52.11.71.29.19.19.29.44.29.71v.5c0,.13.05.26.15.35.09.09.22.15.35.15s.26-.05.35-.15c.09-.09.15-.22.15-.35v-.5c0-.53-.21-1.04-.59-1.41ZM.5,7c.13,0,.26-.05.35-.15.09-.09.15-.22.15-.35v-2c0-.13-.05-.26-.15-.35-.09-.09-.22-.15-.35-.15s-.26.05-.35.15c-.09.09-.15.22-.15.35v2c0,.13.05.26.15.35.09.09.22.15.35.15Zm15-3c-.13,0-.26.05-.35.15-.09.09-.15.22-.15.35v2c0,.13.05.26.15.35.09.09.22.15.35.15s.26-.05.35-.15c.09-.09.15-.22.15-.35v-2c0-.13-.05-.26-.15-.35-.09-.09-.22-.15-.35-.15ZM.5,11.5c.13,0,.26-.05.35-.15.09-.09.15-.22.15-.35v-2c0-.13-.05-.26-.15-.35-.09-.09-.22-.15-.35-.15s-.26.05-.35.15c-.09.09-.15.22-.15.35v2c0,.13.05.26.15.35.09.09.22.15.35.15Zm15-3c-.13,0-.26.05-.35.15-.09.09-.15.22-.15.35v2c0,.13.05.26.15.35s.22.15.35.15.26-.05.35-.15.15-.22.15-.35v-2c0-.13-.05-.26-.15-.35-.09-.09-.22-.15-.35-.15ZM2.5,15h-.5c-.27,0-.52-.11-.71-.29-.19-.19-.29-.44-.29-.71v-.5c0-.13-.05-.26-.15-.35-.09-.09-.22-.15-.35-.15s-.26.05-.35.15c-.09.09-.15.22-.15.35v.5c0,.53.21,1.04.59,1.41.38.38.88.59,1.41.59h.5c.13,0,.26-.05.35-.15.09-.09.15-.22.15-.35s-.05-.26-.15-.35c-.09-.09-.22-.15-.35-.15Zm13-2c-.13,0-.26.05-.35.15s-.15.22-.15.35v.5c0,.27-.11.52-.29.71s-.44.29-.71.29h-.5c-.13,0-.26.05-.35.15s-.15.22-.15.35.05.26.15.35.22.15.35.15h.5c.53,0,1.04-.21,1.41-.59.38-.38.59-.88.59-1.41v-.5c0-.13-.05-.26-.15-.35s-.22-.15-.35-.15Zm-8.5,2h-2c-.13,0-.26.05-.35.15-.09.09-.15.22-.15.35s.05.26.15.35c.09.09.22.15.35.15h2c.13,0,.26-.05.35-.15.09-.09.15-.22.15-.35s-.05-.26-.15-.35c-.09-.09-.22-.15-.35-.15Zm4.5,0h-2c-.13,0-.26.05-.35.15-.09.09-.15.22-.15.35s.05.26.15.35c.09.09.22.15.35.15h2c.13,0,.26-.05.35-.15s.15-.22.15-.35-.05-.26-.15-.35-.22-.15-.35-.15ZM2,3.5v2c0,.4.16.78.44,1.06s.66.44,1.06.44h2c.4,0,.78-.16,1.06-.44s.44-.66.44-1.06v-2c0-.4-.16-.78-.44-1.06s-.66-.44-1.06-.44h-2c-.4,0-.78.16-1.06.44s-.44.66-.44,1.06Zm8.5,3.5h2c.4,0,.78-.16,1.06-.44.28-.28.44-.66.44-1.06v-2c0-.4-.16-.78-.44-1.06-.28-.28-.66-.44-1.06-.44h-2c-.4,0-.78.16-1.06.44s-.44.66-.44,1.06v2c0,.4.16.78.44,1.06s.66.44,1.06.44Zm-3.94,6.56c.28-.28.44-.66.44-1.06v-2c0-.4-.16-.78-.44-1.06s-.66-.44-1.06-.44h-2c-.4,0-.78.16-1.06.44s-.44.66-.44,1.06v2c0,.4.16.78.44,1.06.28.28.66.44,1.06.44h2c.4,0,.78-.16,1.06-.44Zm7.44-1.06v-2c0-.4-.16-.78-.44-1.06-.28-.28-.66-.44-1.06-.44h-2c-.4,0-.78.16-1.06.44s-.44.66-.44,1.06v2c0,.4.16.78.44,1.06.28.28.66.44,1.06.44h2c.4,0,.78-.16,1.06-.44.28-.28.44-.66.44-1.06Z" fill="currentColor" />
</svg>