<svg xmlns="http://www.w3.org/2000/svg" viewBox="0 0 16 16" width="16" height="16">
  <path d="m13.5,11c-.28,0-.5.22-.5.5v1c0,.83-.67,1.5-1.5,1.5H3.5c-.83,0-1.5-.67-1.5-1.5V4.5c0-.83.67-1.5,1.5-1.5h3c.28,0,.5-.22.5-.5s-.22-.5-.5-.5h-3c-1.38,0-2.5,1.12-2.5,2.5v8c0,1.38,1.12,2.5,2.5,2.5h8c1.38,0,2.5-1.12,2.5-2.5v-1c0-.28-.22-.5-.5-.5Zm2.33-5.42L11.33,1.16l-.06-.05c-.36-.27-.89-.01-.89.47v2.13l-.22.02c-3.56.28-5.65,2.54-6.15,6.63-.06.53.54.85.93.51,1.43-1.28,2.91-2.07,4.44-2.39.25-.05.49-.09.74-.12l.26-.02v2.18c.07.45.61.67.95.33l4.5-4.42.06-.07c.17-.23.15-.56-.06-.77Zm-4.45,3.81v-2.16l-1.36.12h0c-1.7.18-3.31.86-4.83,2,.3-1.34.81-2.35,1.48-3.07.83-.89,1.99-1.44,3.56-1.57l1.15-.08v-2.03l3.45,3.39-3.45,3.39Z" fill="currentColor" />
</svg>