<svg xmlns="http://www.w3.org/2000/svg" viewBox="0 0 16 16" width="16" height="16">
  <path d="m2.72,6.78l1.95,1.95c.41.41.92.7,1.49.84l1.5.37c1.38.35,2.64-.91,2.29-2.29l-.37-1.5c-.14-.56-.43-1.08-.84-1.49l-1.95-1.95.93-.93c.19-.19.44-.29.71-.29h4.59c.83,0,1.5.67,1.5,1.5v4.59c0,.27-.11.52-.29.71l-5.9,5.9c-.59.59-1.54.59-2.12,0L1.81,9.81c-.59-.59-.59-1.54,0-2.12l.91-.91Z" fill="#FFFFFF" />
  <path d="m3.19.55l4.83,4.83c.28.28.48.63.58,1.02l.37,1.5c.16.65-.43,1.24-1.08,1.08l-1.5-.37c-.39-.1-.74-.3-1.02-.58L.55,3.19C-.18,2.46-.18,1.28.55.55,1.28-.18,2.46-.18,3.19.55Z" fill="#0078D7" />
  <path d="m13.07,1h-4.45c-.53,0-1.04.21-1.41.59l-.78.78.71.71.78-.78c.19-.19.44-.29.71-.29h4.45c.55,0,1,.45,1,1v4.37c0,.27-.11.52-.3.71l-5.82,5.76c-.39.39-1.02.39-1.41,0l-4.38-4.38c-.39-.39-.39-1.02,0-1.41l.91-.91-.71-.71-.91.91c-.78.78-.78,2.05,0,2.83l4.38,4.38c.78.78,2.04.78,2.82,0l5.82-5.76c.38-.38.59-.89.59-1.42V3c0-1.1-.9-2-2-2Zm-.57,3.5c0-.55-.45-1-1-1s-1,.45-1,1,.45,1,1,1,1-.45,1-1Z" fill="#000000" />
</svg>