<svg xmlns="http://www.w3.org/2000/svg" viewBox="0 0 16 16" width="16" height="16">
  <path d="M1.5 4C1.5 2.61929 2.61929 1.5 4 1.5H12C13.3807 1.5 14.5 2.61929 14.5 4V12C14.5 13.3807 13.3807 14.5 12 14.5H4C2.61929 14.5 1.5 13.3807 1.5 12V4Z" fill="#FFFFFF" />
  <path d="M4 1C2.34315 1 1 2.34315 1 4V12C1 13.6569 2.34315 15 4 15H12C13.6569 15 15 13.6569 15 12V4C15 2.34315 13.6569 1 12 1H4ZM2 4C2 2.89543 2.89543 2 4 2H12C13.1046 2 14 2.89543 14 4V12C14 13.1046 13.1046 14 12 14H4C2.89543 14 2 13.1046 2 12V4Z" fill="#000000" />
  <path d="M11.6914 4.03794C11.7495 4.06198 11.804 4.09744 11.8514 4.14433L11.8557 4.14857C11.9026 4.19602 11.938 4.25051 11.9621 4.30861C11.9865 4.36756 12 4.43221 12 4.5V9.5C12 9.77614 11.7761 10 11.5 10C11.2239 10 11 9.77614 11 9.5V5.70711L4.85355 11.8536C4.65829 12.0488 4.34171 12.0488 4.14645 11.8536C3.95118 11.6583 3.95118 11.3417 4.14645 11.1464L10.2929 5H6.5C6.22386 5 6 4.77614 6 4.5C6 4.22386 6.22386 4 6.5 4H11.5C11.5678 4 11.6324 4.01349 11.6914 4.03794Z" fill="#0078D7" />
</svg>