<svg xmlns="http://www.w3.org/2000/svg" viewBox="0 0 16 16" width="16" height="16">
  <path d="m5.5,1h-3c-.83,0-1.5.67-1.5,1.5v3c0,.83.67,1.5,1.5,1.5h3c.83,0,1.5-.67,1.5-1.5v-3c0-.83-.67-1.5-1.5-1.5Zm0,4.25c0,.14-.11.25-.25.25h-2.5c-.14,0-.25-.11-.25-.25v-2.5c0-.14.11-.25.25-.25h2.5c.14,0,.25.11.25.25v2.5Zm0,3.75h-3c-.83,0-1.5.67-1.5,1.5v3c0,.83.67,1.5,1.5,1.5h3c.83,0,1.5-.67,1.5-1.5v-3c0-.83-.67-1.5-1.5-1.5Zm0,4.25c0,.14-.11.25-.25.25h-2.5c-.14,0-.25-.11-.25-.25v-2.5c0-.14.11-.25.25-.25h2.5c.14,0,.25.11.25.25v2.5ZM13.5,1h-3c-.83,0-1.5.67-1.5,1.5v3c0,.83.67,1.5,1.5,1.5h3c.83,0,1.5-.67,1.5-1.5v-3c0-.83-.67-1.5-1.5-1.5Zm0,4.25c0,.14-.11.25-.25.25h-2.5c-.14,0-.25-.11-.25-.25v-2.5c0-.14.11-.25.25-.25h2.5c.14,0,.25.11.25.25v2.5Zm0,3.75h-3c-.83,0-1.5.67-1.5,1.5v3c0,.83.67,1.5,1.5,1.5h3c.83,0,1.5-.67,1.5-1.5v-3c0-.83-.67-1.5-1.5-1.5Zm0,4.25c0,.14-.11.25-.25.25h-2.5c-.14,0-.25-.11-.25-.25v-2.5c0-.14.11-.25.25-.25h2.5c.14,0,.25.11.25.25v2.5Z" fill="currentColor" />
</svg>