<svg xmlns="http://www.w3.org/2000/svg" viewBox="0 0 16 16" width="16" height="16">
  <path d="m1.5,12.99c-.28,0-.5-.22-.5-.5v-4.09l.65-.65c.2-.2.51-.2.71,0l3.65,3.65c0-.43.06-.85.16-1.25l-3.1-3.1c-.57-.57-1.47-.59-2.06-.06V2.49c0-.28.22-.5.5-.5h3.67c.27,0,.52.11.71.29l3.96,3.96c.38-.12.77-.2,1.18-.23l-2.02-2.02h4.5c.28,0,.5.22.5.5v2.1c.36.18.69.4,1,.66v-2.76c0-.83-.67-1.5-1.5-1.5h-5.5l-1.41-1.41c-.38-.38-.88-.59-1.41-.59H1.5C.67.99,0,1.66,0,2.49v10C0,13.32.67,13.99,1.5,13.99h5.1c-.16-.32-.29-.65-.39-1H1.5Zm10-6c-2.49,0-4.5,2.01-4.5,4.5s2.01,4.5,4.5,4.5,4.5-2.01,4.5-4.5-2.01-4.5-4.5-4.5Zm2.35,3.35l-3,3c-.2.2-.51.2-.71,0l-1-1c-.2-.2-.2-.51,0-.71s.51-.2.71,0l.65.65,2.65-2.65c.2-.2.51-.2.71,0,.2.2.2.51,0,.71Z" fill="currentColor" />
</svg>