<svg xmlns="http://www.w3.org/2000/svg" viewBox="0 0 16 16" width="16" height="16">
  <path d="m2.5,1C1.12,1,0,2.12,0,3.5v1.5h5.09c.13,0,.26-.05.35-.15l2.06-2.06-1.28-1.28c-.33-.33-.77-.51-1.24-.51h-2.48ZM0,12.5v-6.5h5.09c.4,0,.78-.16,1.06-.44l2.56-2.56h1.29v3.5c0,.28.22.5.5.5h.5v2h-.5c-.28,0-.5.22-.5.5s.22.5.5.5h.5v1h-.5c-.28,0-.5.22-.5.5s.22.5.5.5h.5v3H2.5c-1.38,0-2.5-1.12-2.5-2.5Zm12,2.5h1.5c1.38,0,2.5-1.12,2.5-2.5v-7c0-1.38-1.12-2.5-2.5-2.5h-.5v3.5c0,.28-.22.5-.5.5h-.5v3h.5c.28,0,.5.22.5.5s-.22.5-.5.5h-.5v4Zm0-12h-1v3h1v-3Z" fill="currentColor" />
</svg>