<svg xmlns="http://www.w3.org/2000/svg" viewBox="0 0 16 16" width="16" height="16">
  <path d="m3.24,7.05l2.94,3.04c.49-1.88,1.96-3.36,3.82-3.89L5.38,1.57c-.38-.38-.88-.59-1.41-.59H1.5C.67.99,0,1.66,0,2.49v5.29l.75-.75c.69-.69,1.81-.68,2.49.02Zm8.26-1.06c1.33,0,2.55.47,3.5,1.26v-2.76c0-.83-.67-1.5-1.5-1.5h-5.29l3.01,3.01c.09,0,.19,0,.29,0Zm-5.5,5.35l-3.48-3.59c-.29-.3-.77-.3-1.07,0L0,9.19v3.29C0,13.32.67,13.99,1.5,13.99h5.1c-.38-.75-.6-1.6-.6-2.5,0-.05,0-.1,0-.15Zm5.5-4.35c-2.49,0-4.5,2.01-4.5,4.5s2.01,4.5,4.5,4.5,4.5-2.01,4.5-4.5-2.01-4.5-4.5-4.5Zm2.12,6.37c-.28.28-.62.51-1,.66-.37.15-.77.22-1.18.22-.4,0-.8-.1-1.17-.26-.1-.04-.19-.09-.28-.14v.15c0,.28-.22.5-.5.5s-.5-.22-.5-.5v-1.5c0-.28.22-.5.5-.5h1.5c.28,0,.5.22.5.5s-.22.5-.5.5h-.47c.05.03.1.05.15.08.25.11.51.17.78.17.27,0,.54-.04.78-.15.25-.1.48-.25.67-.44s.51-.2.71,0c.2.2.2.51,0,.71Zm.38-2.87c0,.28-.22.5-.5.5h-1.5c-.28,0-.5-.22-.5-.5s.22-.5.5-.5h.47c-.05-.03-.1-.05-.15-.08-.25-.11-.51-.17-.78-.17-.27,0-.54.04-.78.15s-.48.25-.67.44c-.2.2-.51.2-.71,0-.2-.2-.2-.51,0-.71.28-.28.62-.51,1-.66.37-.15.77-.23,1.18-.22.4,0,.8.1,1.17.26.1.04.19.09.28.14v-.15c0-.28.22-.5.5-.5s.5.22.5.5v1.5Z" fill="currentColor" />
</svg>