<svg xmlns="http://www.w3.org/2000/svg" viewBox="0 0 16 16" width="16" height="16">
  <path d="m7.5,2c.13,0,.26-.05.35-.15.09-.09.15-.22.15-.35v-.25c0-.07.03-.13.07-.18s.11-.07.18-.07h.25c.13,0,.26-.05.35-.15.09-.09.15-.22.15-.35s-.05-.26-.15-.35C8.76.05,8.63,0,8.5,0h-.25C7.56,0,7,.56,7,1.25v.25c0,.13.05.26.15.35.09.09.22.15.35.15ZM2.5,6h2c.4,0,.78-.16,1.06-.44s.44-.66.44-1.06v-2c0-.4-.16-.78-.44-1.06s-.66-.44-1.06-.44h-2c-.4,0-.78.16-1.06.44s-.44.66-.44,1.06v2c0,.4.16.78.44,1.06s.66.44,1.06.44Zm-.5-3.5c0-.13.05-.26.15-.35.09-.09.22-.15.35-.15h2c.13,0,.26.05.35.15.09.09.15.22.15.35v2c0,.13-.05.26-.15.35-.09.09-.22.15-.35.15h-2c-.13,0-.26-.05-.35-.15-.09-.09-.15-.22-.15-.35v-2Zm11.5,7.5h-2c-.4,0-.78.16-1.06.44-.28.28-.44.66-.44,1.06v2c0,.4.16.78.44,1.06.28.28.66.44,1.06.44h2c.4,0,.78-.16,1.06-.44.28-.28.44-.66.44-1.06v-2c0-.4-.16-.78-.44-1.06-.28-.28-.66-.44-1.06-.44Zm.5,3.5c0,.13-.05.26-.15.35s-.22.15-.35.15h-2c-.13,0-.26-.05-.35-.15s-.15-.22-.15-.35v-2c0-.13.05-.26.15-.35s.22-.15.35-.15h2c.13,0,.26.05.35.15s.15.22.15.35v2ZM.5,9c.13,0,.26-.05.35-.15.09-.09.15-.22.15-.35v-.25c0-.07.03-.13.07-.18s.11-.07.18-.07h.25c.13,0,.26-.05.35-.15.09-.09.15-.22.15-.35s-.05-.26-.15-.35c-.09-.09-.22-.15-.35-.15h-.25c-.69,0-1.25.56-1.25,1.25v.25c0,.13.05.26.15.35.09.09.22.15.35.15Zm3-2c-.13,0-.26.05-.35.15-.09.09-.15.22-.15.35s.05.26.15.35c.09.09.22.15.35.15h2c.13,0,.26-.05.35-.15.09-.09.15-.22.15-.35s-.05-.26-.15-.35c-.09-.09-.22-.15-.35-.15h-2Zm4.25,0h-.25c-.13,0-.26.05-.35.15-.09.09-.15.22-.15.35s.05.26.15.35c.09.09.22.15.35.15h.25c.07,0,.13.03.18.07s.07.11.07.18v.25c0,.13.05.26.15.35.09.09.22.15.35.15s.26-.05.35-.15c.09-.09.15-.22.15-.35v-.25c0-.69-.56-1.25-1.25-1.25ZM.5,13c.13,0,.26-.05.35-.15.09-.09.15-.22.15-.35v-2c0-.13-.05-.26-.15-.35-.09-.09-.22-.15-.35-.15s-.26.05-.35.15c-.09.09-.15.22-.15.35v2c0,.13.05.26.15.35.09.09.22.15.35.15Zm8-3c-.13,0-.26.05-.35.15-.09.09-.15.22-.15.35v2c0,.13.05.26.15.35.09.09.22.15.35.15s.26-.05.35-.15c.09-.09.15-.22.15-.35v-2c0-.13-.05-.26-.15-.35-.09-.09-.22-.15-.35-.15ZM1.5,15h-.25c-.14,0-.25-.11-.25-.25v-.25c0-.13-.05-.26-.15-.35-.09-.09-.22-.15-.35-.15s-.26.05-.35.15c-.09.09-.15.22-.15.35v.25c0,.69.56,1.25,1.25,1.25h.25c.13,0,.26-.05.35-.15.09-.09.15-.22.15-.35s-.05-.26-.15-.35c-.09-.09-.22-.15-.35-.15Zm7-1c-.13,0-.26.05-.35.15-.09.09-.15.22-.15.35v.25c0,.07-.03.13-.07.18-.05.05-.11.07-.18.07h-.25c-.13,0-.26.05-.35.15-.09.09-.15.22-.15.35s.05.26.15.35c.09.09.22.15.35.15h.25c.69,0,1.25-.56,1.25-1.25v-.25c0-.13-.05-.26-.15-.35-.09-.09-.22-.15-.35-.15Zm-3,1h-2c-.13,0-.26.05-.35.15-.09.09-.15.22-.15.35s.05.26.15.35c.09.09.22.15.35.15h2c.13,0,.26-.05.35-.15.09-.09.15-.22.15-.35s-.05-.26-.15-.35c-.09-.09-.22-.15-.35-.15ZM10.5,1h2c.13,0,.26-.05.35-.15.09-.09.15-.22.15-.35s-.05-.26-.15-.35C12.76.05,12.63,0,12.5,0h-2C10.37,0,10.24.05,10.15.15c-.09.09-.15.22-.15.35s.05.26.15.35c.09.09.22.15.35.15ZM14.75,0h-.25C14.37,0,14.24.05,14.15.15c-.09.09-.15.22-.15.35s.05.26.15.35c.09.09.22.15.35.15h.25c.07,0,.13.03.18.07.05.05.07.11.07.18v.25c0,.13.05.26.15.35.09.09.22.15.35.15s.26-.05.35-.15c.09-.09.15-.22.15-.35v-.25C16,.56,15.44,0,14.75,0Zm-7.25,6c.13,0,.26-.05.35-.15.09-.09.15-.22.15-.35v-2c0-.13-.05-.26-.15-.35-.09-.09-.22-.15-.35-.15s-.26.05-.35.15c-.09.09-.15.22-.15.35v2c0,.13.05.26.15.35.09.09.22.15.35.15Zm8-3c-.13,0-.26.05-.35.15-.09.09-.15.22-.15.35v2c0,.13.05.26.15.35.09.09.22.15.35.15s.26-.05.35-.15c.09-.09.15-.22.15-.35v-2c0-.13-.05-.26-.15-.35-.09-.09-.22-.15-.35-.15Zm0,4c-.13,0-.26.05-.35.15-.09.09-.15.22-.15.35v.25c0,.07-.03.13-.07.18-.05.05-.11.07-.18.07h-.25c-.13,0-.26.05-.35.15-.09.09-.15.22-.15.35s.05.26.15.35c.09.09.22.15.35.15h.25c.69,0,1.25-.56,1.25-1.25v-.25c0-.13-.05-.26-.15-.35-.09-.09-.22-.15-.35-.15Zm-5,1c-.13,0-.26.05-.35.15-.09.09-.15.22-.15.35s.05.26.15.35c.09.09.22.15.35.15h2c.13,0,.26-.05.35-.15.09-.09.15-.22.15-.35s-.05-.26-.15-.35c-.09-.09-.22-.15-.35-.15h-2Zm2-1c.4,0,.78-.16,1.06-.44.28-.28.44-.66.44-1.06v-2c0-.4-.16-.78-.44-1.06-.28-.28-.66-.44-1.06-.44h-2c-.4,0-.78.16-1.06.44s-.44.66-.44,1.06v2c0,.4.16.78.44,1.06s.66.44,1.06.44h2Zm-2.5-1.5v-2c0-.28.22-.5.5-.5h2c.28,0,.5.22.5.5v2c0,.28-.22.5-.5.5h-2c-.28,0-.5-.22-.5-.5Zm-3,5c0-.4-.16-.78-.44-1.06s-.66-.44-1.06-.44h-2c-.4,0-.78.16-1.06.44s-.44.66-.44,1.06v2c0,.4.16.78.44,1.06.28.28.66.44,1.06.44h2c.4,0,.78-.16,1.06-.44.28-.28.44-.66.44-1.06v-2Zm-1,2c0,.28-.22.5-.5.5h-2c-.28,0-.5-.22-.5-.5v-2c0-.28.22-.5.5-.5h2c.28,0,.5.22.5.5v2Z" fill="currentColor" />
</svg>