<svg xmlns="http://www.w3.org/2000/svg" viewBox="0 0 16 16" width="16" height="16">
  <path d="m1,2.5c0-.4.16-.78.44-1.06s.66-.44,1.06-.44h3c.4,0,.78.16,1.06.44s.44.66.44,1.06v3c0,.4-.16.78-.44,1.06s-.66.44-1.06.44h-3c-.4,0-.78-.16-1.06-.44s-.44-.66-.44-1.06v-3Zm1.5-.5c-.13,0-.26.05-.35.15-.09.09-.15.22-.15.35v3c0,.13.05.26.15.35.09.09.22.15.35.15h3c.13,0,.26-.05.35-.15.09-.09.15-.22.15-.35v-3c0-.13-.05-.26-.15-.35-.09-.09-.22-.15-.35-.15h-3Zm6.5.5c0-.4.16-.78.44-1.06.28-.28.66-.44,1.06-.44h3c.4,0,.78.16,1.06.44.28.28.44.66.44,1.06v3c0,.4-.16.78-.44,1.06-.28.28-.66.44-1.06.44h-3c-.4,0-.78-.16-1.06-.44-.28-.28-.44-.66-.44-1.06v-3Zm1.5-.5c-.13,0-.26.05-.35.15-.09.09-.15.22-.15.35v3c0,.13.05.26.15.35.09.09.22.15.35.15h3c.13,0,.26-.05.35-.15.09-.09.15-.22.15-.35v-3c0-.13-.05-.26-.15-.35-.09-.09-.22-.15-.35-.15h-3ZM2.5,10c-.13,0-.26.05-.35.15-.09.09-.15.22-.15.35v3c0,.13.05.26.15.35.09.09.22.15.35.15h3c.13,0,.26-.05.35-.15.09-.09.15-.22.15-.35v-3c0-.13-.05-.26-.15-.35-.09-.09-.22-.15-.35-.15h-3Zm-1.5.5c0-.4.16-.78.44-1.06.28-.28.66-.44,1.06-.44h3c.4,0,.78.16,1.06.44.28.28.44.66.44,1.06v3c0,.4-.16.78-.44,1.06-.28.28-.66.44-1.06.44h-3c-.4,0-.78-.16-1.06-.44-.28-.28-.44-.66-.44-1.06v-3Zm8,0c0-.4.16-.78.44-1.06.28-.28.66-.44,1.06-.44h3c.4,0,.78.16,1.06.44.28.28.44.66.44,1.06v3c0,.4-.16.78-.44,1.06-.28.28-.66.44-1.06.44h-3c-.4,0-.78-.16-1.06-.44-.28-.28-.44-.66-.44-1.06v-3Zm1.5-.5c-.13,0-.26.05-.35.15-.09.09-.15.22-.15.35v3c0,.13.05.26.15.35.09.09.22.15.35.15h3c.13,0,.26-.05.35-.15.09-.09.15-.22.15-.35v-3c0-.13-.05-.26-.15-.35-.09-.09-.22-.15-.35-.15h-3Z" fill="currentColor" />
</svg>