<svg xmlns="http://www.w3.org/2000/svg" viewBox="0 0 16 16" width="16" height="16">
  <path d="m10.38,3.71V1.58c0-.48.53-.74.89-.47l.06.05,4.5,4.42c.21.21.23.54.06.77l-.06.07-4.5,4.42c-.34.33-.89.12-.95-.33v-.08s0-2.1,0-2.1l-.26.02c-1.8.19-3.53,1.02-5.19,2.51-.39.35-.99.02-.93-.51.5-4.09,2.59-6.34,6.15-6.63l.22-.02Zm-6.88-1.71c-1.38,0-2.5,1.12-2.5,2.5v8c0,1.38,1.12,2.5,2.5,2.5h8c1.38,0,2.5-1.12,2.5-2.5v-1c0-.28-.22-.5-.5-.5s-.5.22-.5.5v1c0,.83-.67,1.5-1.5,1.5H3.5c-.83,0-1.5-.67-1.5-1.5V4.5c0-.83.67-1.5,1.5-1.5h3c.28,0,.5-.22.5-.5s-.22-.5-.5-.5h-3Z" fill="currentColor" />
</svg>