<svg xmlns="http://www.w3.org/2000/svg" viewBox="0 0 16 16" width="16" height="16">
  <path d="m14.5,0h-6C7.67,0,7,.67,7,1.5v4c0,.83.67,1.5,1.5,1.5h6c.83,0,1.5-.67,1.5-1.5V1.5C16,.67,15.33,0,14.5,0Zm.5,5.25c0,.41-.34.75-.75.75h-5.5c-.41,0-.75-.34-.75-.75V1.75c0-.41.34-.75.75-.75h5.5c.41,0,.75.34.75.75v3.5Zm-9,.25v-2.5h-3.25C1.23,3,0,4.23,0,5.75v6.5C0,13.77,1.23,15,2.75,15h7.5c1.52,0,2.75-1.23,2.75-2.75v-4.25h-4.5c-1.38,0-2.5-1.12-2.5-2.5Zm.85,3.35l-2.65,2.65h1.79c.28,0,.5.22.5.5s-.22.5-.5.5h-3c-.28,0-.5-.22-.5-.5v-3c0-.28.22-.5.5-.5s.5.22.5.5v1.79l2.65-2.65c.2-.2.51-.2.71,0,.2.2.2.51,0,.71Z" fill="currentColor" />
</svg>