<svg xmlns="http://www.w3.org/2000/svg" viewBox="0 0 16 16" width="16" height="16">
  <path d="m0,2C0,1.47.21.96.59.59.96.21,1.47,0,2,0h.5C2.63,0,2.76.05,2.85.15c.09.09.15.22.15.35s-.05.26-.15.35c-.09.09-.22.15-.35.15h-.5c-.27,0-.52.11-.71.29-.19.19-.29.44-.29.71v.5c0,.13-.05.26-.15.35-.09.09-.22.15-.35.15s-.26-.05-.35-.15c-.09-.09-.15-.22-.15-.35v-.5ZM4.5.5c0-.13.05-.26.15-.35C4.74.05,4.87,0,5,0h2C7.13,0,7.26.05,7.35.15c.09.09.15.22.15.35s-.05.26-.15.35c-.09.09-.22.15-.35.15h-2c-.13,0-.26-.05-.35-.15-.09-.09-.15-.22-.15-.35Zm4.5,0c0-.13.05-.26.15-.35C9.24.05,9.37,0,9.5,0h2C11.63,0,11.76.05,11.85.15c.09.09.15.22.15.35s-.05.26-.15.35c-.09.09-.22.15-.35.15h-2c-.13,0-.26-.05-.35-.15-.09-.09-.15-.22-.15-.35Zm4,0c0-.13.05-.26.15-.35C13.24.05,13.37,0,13.5,0h.5C14.53,0,15.04.21,15.41.59c.38.38.59.88.59,1.41v.5c0,.13-.05.26-.15.35-.09.09-.22.15-.35.15s-.26-.05-.35-.15c-.09-.09-.15-.22-.15-.35v-.5c0-.27-.11-.52-.29-.71-.19-.19-.44-.29-.71-.29h-.5c-.13,0-.26-.05-.35-.15-.09-.09-.15-.22-.15-.35ZM.5,4c.13,0,.26.05.35.15.09.09.15.22.15.35v2c0,.13-.05.26-.15.35-.09.09-.22.15-.35.15s-.26-.05-.35-.15c-.09-.09-.15-.22-.15-.35v-2c0-.13.05-.26.15-.35.09-.09.22-.15.35-.15Zm15,0c.13,0,.26.05.35.15.09.09.15.22.15.35v2c0,.13-.05.26-.15.35-.09.09-.22.15-.35.15s-.26-.05-.35-.15c-.09-.09-.15-.22-.15-.35v-2c0-.13.05-.26.15-.35.09-.09.22-.15.35-.15ZM.5,8.5c.13,0,.26.05.35.15.09.09.15.22.15.35v2c0,.13-.05.26-.15.35-.09.09-.22.15-.35.15s-.26-.05-.35-.15c-.09-.09-.15-.22-.15-.35v-2c0-.13.05-.26.15-.35.09-.09.22-.15.35-.15Zm15,0c.13,0,.26.05.35.15.09.09.15.22.15.35v2c0,.13-.05.26-.15.35-.09.09-.22.15-.35.15s-.26-.05-.35-.15c-.09-.09-.15-.22-.15-.35v-2c0-.13.05-.26.15-.35.09-.09.22-.15.35-.15ZM.5,13c.13,0,.26.05.35.15.09.09.15.22.15.35v.5c0,.27.11.52.29.71.19.19.44.29.71.29h.5c.13,0,.26.05.35.15.09.09.15.22.15.35s-.05.26-.15.35c-.09.09-.22.15-.35.15h-.5c-.53,0-1.04-.21-1.41-.59-.38-.38-.59-.88-.59-1.41v-.5c0-.13.05-.26.15-.35.09-.09.22-.15.35-.15Zm15,0c.13,0,.26.05.35.15.09.09.15.22.15.35v.5c0,.53-.21,1.04-.59,1.41s-.88.59-1.41.59h-.5c-.13,0-.26-.05-.35-.15-.09-.09-.15-.22-.15-.35s.05-.26.15-.35c.09-.09.22-.15.35-.15h.5c.27,0,.52-.11.71-.29s.29-.44.29-.71v-.5c0-.13.05-.26.15-.35.09-.09.22-.15.35-.15Zm-11,2.5c0-.13.05-.26.15-.35.09-.09.22-.15.35-.15h2c.13,0,.26.05.35.15.09.09.15.22.15.35s-.05.26-.15.35c-.09.09-.22.15-.35.15h-2c-.13,0-.26-.05-.35-.15-.09-.09-.15-.22-.15-.35Zm4.5,0c0-.13.05-.26.15-.35.09-.09.22-.15.35-.15h2c.13,0,.26.05.35.15.09.09.15.22.15.35s-.05.26-.15.35c-.09.09-.22.15-.35.15h-2c-.13,0-.26-.05-.35-.15-.09-.09-.15-.22-.15-.35Z" fill="#000000" />
  <path d="m5.5,2.5h-2c-.55,0-1,.45-1,1v2c0,.55.45,1,1,1h2c.55,0,1-.45,1-1v-2c0-.55-.45-1-1-1Zm7,0h-2c-.55,0-1,.45-1,1v2c0,.55.45,1,1,1h2c.55,0,1-.45,1-1v-2c0-.55-.45-1-1-1Zm-7,7h-2c-.55,0-1,.45-1,1v2c0,.55.45,1,1,1h2c.55,0,1-.45,1-1v-2c0-.55-.45-1-1-1Zm7,0h-2c-.55,0-1,.45-1,1v2c0,.55.45,1,1,1h2c.55,0,1-.45,1-1v-2c0-.55-.45-1-1-1Z" fill="#0078D7" opacity="0.2" />
  <path d="m5.5,2h-2c-.4,0-.78.16-1.06.44s-.44.66-.44,1.06v2c0,.4.16.78.44,1.06s.66.44,1.06.44h2c.4,0,.78-.16,1.06-.44s.44-.66.44-1.06v-2c0-.4-.16-.78-.44-1.06s-.66-.44-1.06-.44Zm.5,3.5c0,.28-.22.5-.5.5h-2c-.28,0-.5-.22-.5-.5v-2c0-.28.22-.5.5-.5h2c.28,0,.5.22.5.5v2Zm7.56-3.06c-.28-.28-.66-.44-1.06-.44h-2c-.4,0-.78.16-1.06.44s-.44.66-.44,1.06v2c0,.4.16.78.44,1.06s.66.44,1.06.44h2c.4,0,.78-.16,1.06-.44.28-.28.44-.66.44-1.06v-2c0-.4-.16-.78-.44-1.06Zm-.56,3.06c0,.28-.22.5-.5.5h-2c-.28,0-.5-.22-.5-.5v-2c0-.28.22-.5.5-.5h2c.28,0,.5.22.5.5v2Zm-7.5,3.5h-2c-.4,0-.78.16-1.06.44s-.44.66-.44,1.06v2c0,.4.16.78.44,1.06.28.28.66.44,1.06.44h2c.4,0,.78-.16,1.06-.44.28-.28.44-.66.44-1.06v-2c0-.4-.16-.78-.44-1.06s-.66-.44-1.06-.44Zm.5,3.5c0,.28-.22.5-.5.5h-2c-.28,0-.5-.22-.5-.5v-2c0-.28.22-.5.5-.5h2c.28,0,.5.22.5.5v2Zm6.5-3.5h-2c-.4,0-.78.16-1.06.44s-.44.66-.44,1.06v2c0,.4.16.78.44,1.06.28.28.66.44,1.06.44h2c.4,0,.78-.16,1.06-.44.28-.28.44-.66.44-1.06v-2c0-.4-.16-.78-.44-1.06-.28-.28-.66-.44-1.06-.44Zm.5,3.5c0,.28-.22.5-.5.5h-2c-.28,0-.5-.22-.5-.5v-2c0-.28.22-.5.5-.5h2c.28,0,.5.22.5.5v2Z" fill="#0078D7" />
</svg>