<svg xmlns="http://www.w3.org/2000/svg" viewBox="0 0 16 16" width="16" height="16">
  <path d="m0,2.49C0,1.66.67.99,1.5.99h3.67c.53,0,1.04.21,1.41.59l1.41,1.41h5.5c.83,0,1.5.67,1.5,1.5v2.76c-.31-.25-.64-.47-1-.66v-2.1c0-.28-.22-.5-.5-.5h-4.5l2.02,2.02c-.41.04-.8.11-1.18.23l-3.96-3.96c-.19-.19-.44-.29-.71-.29H1.5c-.28,0-.5.22-.5.5v4.5c.59-.53,1.49-.51,2.06.06l3.1,3.1c-.1.4-.16.82-.16,1.25l-3.65-3.65c-.2-.2-.51-.2-.71,0l-.65.65v4.09c0,.28.22.5.5.5h4.71c.1.35.23.68.39,1H1.5c-.83,0-1.5-.67-1.5-1.5V2.49Z" fill="#000000" />
  <path d="m7,11.49c0,2.49,2.01,4.5,4.5,4.5s4.5-2.01,4.5-4.5-2.01-4.5-4.5-4.5-4.5,2.01-4.5,4.5Z" fill="#0078D7" />
  <path d="m13.85,9.63c-.2-.2-.51-.2-.71,0l-2.65,2.65-.65-.65c-.2-.2-.51-.2-.71,0-.2.2-.2.51,0,.71l1,1c.2.2.51.2.71,0l3-3c.2-.2.2-.51,0-.71Z" fill="#FFFFFF" />
</svg>