<svg xmlns="http://www.w3.org/2000/svg" viewBox="0 0 16 16" width="16" height="16">
  <path d="m9.78,9.95c1.62-.83,2.72-2.51,2.72-4.45,0-2.76-2.24-5-5-5S2.5,2.74,2.5,5.5c0,.29.02.57.07.85.6-.22,1.25-.35,1.93-.35,2.5,0,4.61,1.67,5.28,3.95Z" fill="#FFFFFF" opacity="0.5" />
  <path d="m7.5,0c3.04,0,5.5,2.46,5.5,5.5,0,1.34-.48,2.57-1.27,3.52l4.13,4.13c.2.2.2.51,0,.71-.17.17-.44.19-.64.06l-.07-.06-4.13-4.13c-.34.28-.72.53-1.12.72-.07-.34-.16-.66-.29-.98,1.42-.76,2.39-2.25,2.39-3.97,0-2.49-2.01-4.5-4.5-4.5S3,3.01,3,5.5c0,.24.02.47.05.69-.33.09-.65.21-.95.36-.07-.34-.1-.69-.1-1.05C2,2.46,4.46,0,7.5,0Z" fill="#000000" />
  <path d="m2.06,8.44c.3,1.08-.34,2.2-1.43,2.48l-.46.12c-.01.15-.02.31-.02.46,0,.19.01.37.03.55l.35.08c1.12.26,1.79,1.42,1.46,2.52l-.13.42c.26.2.54.38.83.52l.33-.34c.79-.84,2.12-.84,2.91,0l.34.36c.29-.13.57-.3.82-.5l-.16-.56c-.3-1.08.34-2.2,1.43-2.48l.46-.12c.01-.15.02-.31.02-.46,0-.19-.01-.37-.03-.55l-.35-.08c-1.12-.26-1.79-1.42-1.46-2.52l.13-.42c-.26-.2-.54-.38-.83-.52l-.32.34c-.79.84-2.12.84-2.91,0l-.34-.36c-.29.13-.57.3-.82.5l.16.56Zm2.43,4.06c-.55,0-1-.45-1-1s.45-1,1-1,1,.45,1,1-.45,1-1,1Z" fill="#0078D7" />
</svg>