<svg xmlns="http://www.w3.org/2000/svg" viewBox="0 0 16 16" width="16" height="16">
  <path d="m12,4c2.21,0,4,1.79,4,4s-1.68,3.89-3.8,4h-.2s-2,0-2,0c-.41,0-.75-.34-.75-.75,0-.38.28-.69.65-.74h.1s2,0,2,0c1.38,0,2.5-1.12,2.5-2.5s-1.03-2.41-2.34-2.49h-.16s-2,0-2,0c-.41,0-.75-.34-.75-.75,0-.38.28-.69.65-.74h.1s2,0,2,0Zm-6,0c.41,0,.75.34.75.75,0,.38-.28.69-.65.74h-.1s-2,0-2,0c-1.38,0-2.5,1.12-2.5,2.5s1.03,2.41,2.34,2.49h.16s2,0,2,0c.41,0,.75.34.75.75,0,.38-.28.69-.65.74h-.1s-2,0-2,0c-2.21,0-4-1.79-4-4s1.68-3.89,3.8-4h.2s2,0,2,0Zm-1.75,3.25h7.5c.41,0,.75.34.75.75,0,.38-.28.69-.65.74h-.1s-7.5,0-7.5,0c-.41,0-.75-.34-.75-.75,0-.38.28-.69.65-.74h.1s7.5,0,7.5,0h-7.5Z" fill="currentColor" />
</svg>