<svg xmlns="http://www.w3.org/2000/svg" viewBox="0 0 16 16" width="16" height="16">
  <path d="m1.5,2.5c0-.55.45-1,1-1h1.59c.21,0,.4.13.47.33.14.39.51.67.94.67h3c.43,0,.81-.28.94-.67.07-.2.26-.33.47-.33h1.59c.55,0,1,.45,1,1v3.5h-4c-1.38,0-2.5,1.12-2.5,2.5v6h-3.5c-.55,0-1-.45-1-1V2.5Z" fill="#FFFFFF" />
  <path d="m7,8.5c0-.4.16-.78.44-1.06s.66-.44,1.06-.44h6c.4,0,.78.16,1.06.44.28.28.44.66.44,1.06v6c0,.4-.16.78-.44,1.06-.28.28-.66.44-1.06.44h-6c-.4,0-.78-.16-1.06-.44-.28-.28-.44-.66-.44-1.06v-6Z" fill="#0078D7" />
  <path d="m9.5,9c-.13,0-.26.05-.35.15-.09.09-.15.22-.15.35s.05.26.15.35c.09.09.22.15.35.15h2.62l-3.06,3.06c-.12.12-.18.28-.18.44s.07.32.18.44c.12.12.28.18.44.18s.32-.07.44-.18l3.06-3.06v2.62c0,.13.05.26.15.35.09.09.22.15.35.15s.26-.05.35-.15c.09-.09.15-.22.15-.35v-4c0-.13-.05-.26-.15-.35-.09-.09-.22-.15-.35-.15h-4Z" fill="#FFFFFF" />
  <path d="m4.09,2h-1.59c-.28,0-.5.22-.5.5v11c0,.28.22.5.5.5h3c.28,0,.5.22.5.5s-.22.5-.5.5h-3c-.83,0-1.5-.67-1.5-1.5V2.5c0-.83.67-1.5,1.5-1.5h1.59C4.29.42,4.85,0,5.5,0h3C9.15,0,9.71.42,9.91,1h1.59c.83,0,1.5.67,1.5,1.5v3c0,.28-.22.5-.5.5s-.5-.22-.5-.5v-3c0-.28-.22-.5-.5-.5h-1.59c-.21.58-.76,1-1.41,1h-3c-.65,0-1.21-.42-1.41-1Zm.91-.5c0,.28.22.5.5.5h3c.28,0,.5-.22.5-.5s-.22-.5-.5-.5h-3c-.28,0-.5.22-.5.5Z" fill="#000000" />
</svg>