<svg xmlns="http://www.w3.org/2000/svg" viewBox="0 0 16 16" width="16" height="16">
  <path d="m6,3.5c0-.28.22-.5.5-.5h9c.28,0,.5.22.5.5s-.22.5-.5.5H6.5c-.28,0-.5-.22-.5-.5Zm0,5c0-.28.22-.5.5-.5h9c.28,0,.5.22.5.5s-.22.5-.5.5H6.5c-.28,0-.5-.22-.5-.5Zm.5,4.5c-.28,0-.5.22-.5.5s.22.5.5.5h9c.28,0,.5-.22.5-.5s-.22-.5-.5-.5H6.5Z" fill="#000000" />
  <path d="m3.85,2.35c.2-.2.2-.51,0-.71-.2-.2-.51-.2-.71,0l-1.65,1.65-.65-.65c-.2-.2-.51-.2-.71,0-.2.2-.2.51,0,.71l1,1c.2.2.51.2.71,0l2-2Zm0,9.79c.2.2.2.51,0,.71l-2,2c-.2.2-.51.2-.71,0l-1-1c-.2-.2-.2-.51,0-.71.2-.2.51-.2.71,0l.65.65,1.65-1.65c.2-.2.51-.2.71,0Z" fill="#0078D7" />
</svg>