<svg xmlns="http://www.w3.org/2000/svg" viewBox="0 0 16 16" width="16" height="16">
  <path d="m12.92.77c.15-.23.09-.54-.14-.69-.23-.15-.54-.09-.69.14l-3.48,5.33.6.91L12.92.77Zm-.92,9.23c-.53,0-1.02.14-1.45.37l-1.88-2.87h.01L3.92.23c-.15-.23-.46-.3-.69-.14-.23.15-.3.46-.14.69l4.33,6.62-1.96,2.98c-.43-.24-.93-.37-1.45-.37-1.66,0-3,1.34-3,3s1.34,3,3,3,3-1.34,3-3c0-.77-.29-1.47-.76-2l1.76-2.69,1.76,2.69c-.47.53-.76,1.23-.76,2,0,1.66,1.34,3,3,3s3-1.34,3-3-1.34-3-3-3Zm-8,5c-1.1,0-2-.9-2-2s.9-2,2-2,2,.9,2,2-.9,2-2,2Zm8,0c-1.1,0-2-.9-2-2s.9-2,2-2,2,.9,2,2-.9,2-2,2Z" fill="currentColor" />
</svg>