<svg xmlns="http://www.w3.org/2000/svg" viewBox="0 0 16 16" width="16" height="16">
  <path d="m14.5,0h-6C7.67,0,7,.67,7,1.5v4c0,.83.67,1.5,1.5,1.5h6c.83,0,1.5-.67,1.5-1.5V1.5C16,.67,15.33,0,14.5,0ZM6.5,8h-3c-.28,0-.5.22-.5.5s.22.5.5.5h1.79l-2.65,2.65c-.2.2-.2.51,0,.71.2.2.51.2.71,0l2.65-2.65v1.79c0,.28.22.5.5.5s.5-.22.5-.5v-3c0-.28-.22-.5-.5-.5Z" fill="#0078D7" />
  <path d="m8,1.75c0-.41.34-.75.75-.75h5.5c.41,0,.75.34.75.75v3.5c0,.41-.34.75-.75.75h-5.5c-.41,0-.75-.34-.75-.75V1.75Z" fill="#FFFFFF" opacity="0.8" />
  <path d="m0,12.25c0,1.52,1.23,2.75,2.75,2.75h7.5c1.52,0,2.75-1.23,2.75-2.75v-4.25h-1v4.25c0,.97-.78,1.75-1.75,1.75H2.75c-.97,0-1.75-.78-1.75-1.75v-6.5c0-.97.78-1.75,1.75-1.75h3.25v-1h-3.25c-1.52,0-2.75,1.23-2.75,2.75v6.5Z" fill="#000000" />
</svg>