<svg xmlns="http://www.w3.org/2000/svg" viewBox="0 0 16 16" width="16" height="16">
  <path d="m1.5,6.89c.86-.56,1.89-.89,3-.89,2.33,0,4.32,1.45,5.13,3.5h5.87v-5.25c0-1.52-1.23-2.75-2.75-2.75H4.25c-1.52,0-2.75,1.23-2.75,2.75v2.64Z" fill="#FFFFFF" />
  <path d="m9.4,14c.38-.75.6-1.6.6-2.5,0-.52-.07-1.02-.21-1.5l5.71-.5v2.5c0,1.1-1.4,2.5-2.5,2.5l-3.6-.5Z" fill="#000000" opacity="0.3" />
  <path d="m8.74,15h4.26c1.66,0,3-1.34,3-3V4c0-1.66-1.34-3-3-3H4c-1.66,0-3,1.34-3,3v3.26c.31-.25.64-.47,1-.66v-2.6c0-1.1.9-2,2-2h9c1.1,0,2,.9,2,2v5h-5.6c.16.32.29.65.39,1h5.21v2c0,1.1-.9,2-2,2h-3.6c-.18.36-.4.69-.66,1Z" fill="#000000" />
  <path d="m0,11.5c0,2.49,2.01,4.5,4.5,4.5s4.5-2.01,4.5-4.5-2.01-4.5-4.5-4.5S0,9.01,0,11.5Z" fill="#0078D7" />
  <path d="m4.5,12.21l-1.15,1.15c-.2.2-.51.2-.71,0-.2-.2-.2-.51,0-.71l1.15-1.15-1.15-1.15c-.2-.2-.2-.51,0-.71.2-.2.51-.2.71,0l1.15,1.15,1.15-1.15c.2-.2.51-.2.71,0,.2.2.2.51,0,.71l-1.15,1.15,1.15,1.15c.2.2.2.51,0,.71-.2.2-.51.2-.71,0l-1.15-1.15Z" fill="#FFFFFF" />
</svg>