<svg xmlns="http://www.w3.org/2000/svg" viewBox="0 0 16 16" width="16" height="16">
  <path d="m5.5,1.5h6.25c1.52,0,2.75,1.23,2.75,2.75v7.5c0,1.52-1.23,2.75-2.75,2.75h-6.25V1.5Z" fill="#FFFFFF" />
  <path d="m3,1.5C1.62,1.5.5,2.62.5,4v8c0,1.38,1.12,2.5,2.5,2.5h2.5V1.5h-2.5Z" fill="#0078D7" />
  <path d="m0,4C0,2.34,1.34,1,3,1h9c1.66,0,3,1.34,3,3v8c0,1.66-1.34,3-3,3H3c-1.66,0-3-1.34-3-3V4Zm6-2v12h6c1.1,0,2-.9,2-2V4c0-1.1-.9-2-2-2h-6Zm-1,0h-2c-1.1,0-2,.9-2,2v8c0,1.1.9,2,2,2h2V2Z" fill="#000000" />
</svg>