<svg xmlns="http://www.w3.org/2000/svg" viewBox="0 0 16 16" width="16" height="16">
  <path d="m6,14V2h6c1.1,0,2,.9,2,2v2.6c.36.18.69.4,1,.66v-3.26c0-1.66-1.34-3-3-3H3C1.34,1,0,2.34,0,4v8c0,1.66,1.34,3,3,3h4.26c-.25-.31-.47-.64-.66-1h-.6Zm5.5-7c-2.49,0-4.5,2.01-4.5,4.5s2.01,4.5,4.5,4.5,4.5-2.01,4.5-4.5-2.01-4.5-4.5-4.5Zm1.85,5.65c.2.2.2.51,0,.71s-.51.2-.71,0l-1.15-1.15-1.15,1.15c-.2.2-.51.2-.71,0-.2-.2-.2-.51,0-.71l1.15-1.15-1.15-1.15c-.2-.2-.2-.51,0-.71.2-.2.51-.2.71,0l1.15,1.15,1.15-1.15c.2-.2.51-.2.71,0,.2.2.2.51,0,.71l-1.15,1.15,1.15,1.15Z" fill="currentColor" />
</svg>