<svg xmlns="http://www.w3.org/2000/svg" viewBox="0 0 16 16" width="16" height="16">
  <path d="m10.5,1.5h-6.25c-1.52,0-2.75,1.23-2.75,2.75v7.5c0,1.52,1.23,2.75,2.75,2.75h6.25V1.5Z" fill="#FFFFFF" />
  <path d="m13,1.5c1.38,0,2.5,1.12,2.5,2.5v8c0,1.38-1.12,2.5-2.5,2.5h-2.5V1.5h2.5Z" fill="#0078D7" />
  <path d="m16,4c0-1.66-1.34-3-3-3H4c-1.66,0-3,1.34-3,3v8c0,1.66,1.34,3,3,3h9c1.66,0,3-1.34,3-3V4Zm-6-2v12H4c-1.1,0-2-.9-2-2V4c0-1.1.9-2,2-2h6Zm1,0h2c1.1,0,2,.9,2,2v8c0,1.1-.9,2-2,2h-2V2Z" fill="#000000" />
</svg>