<svg xmlns="http://www.w3.org/2000/svg" viewBox="0 0 16 16" width="16" height="16">
  <path d="m11.75,1.5h-6.25v13h1.39c-.56-.86-.89-1.89-.89-3,0-3.04,2.46-5.5,5.5-5.5,1.11,0,2.14.33,3,.89v-2.64c0-1.52-1.23-2.75-2.75-2.75Z" fill="#FFFFFF" />
  <path d="m5,2h-2c-1.1,0-2,.9-2,2v8c0,1.1.9,2,2,2h2V2Z" fill="#000000" opacity="0.3" />
  <path d="m3,1C1.34,1,0,2.34,0,4v8c0,1.66,1.34,3,3,3h4.26c-.25-.31-.47-.64-.66-1h-.6V2h6c1.1,0,2,.9,2,2v2.6c.36.18.69.4,1,.66v-3.26c0-1.66-1.34-3-3-3H3Zm0,1h2v12h-2c-1.1,0-2-.9-2-2V4c0-1.1.9-2,2-2Z" fill="#000000" />
  <path d="m16,11.5c0,2.49-2.01,4.5-4.5,4.5s-4.5-2.01-4.5-4.5,2.01-4.5,4.5-4.5,4.5,2.01,4.5,4.5Z" fill="#0078D7" />
  <path d="m11.5,12.21l1.15,1.15c.2.2.51.2.71,0,.2-.2.2-.51,0-.71l-1.15-1.15,1.15-1.15c.2-.2.2-.51,0-.71-.2-.2-.51-.2-.71,0l-1.15,1.15-1.15-1.15c-.2-.2-.51-.2-.71,0-.2.2-.2.51,0,.71l1.15,1.15-1.15,1.15c-.2.2-.2.51,0,.71.2.2.51.2.71,0l1.15-1.15Z" fill="#FFFFFF" />
</svg>