<svg xmlns="http://www.w3.org/2000/svg" viewBox="0 0 16 16" width="16" height="16">
  <path d="m13,1H4c-1.66,0-3,1.34-3,3v3.26c.31-.25.64-.47,1-.66v-2.6c0-1.1.9-2,2-2h6v12h-.6c-.18.36-.4.69-.66,1h4.26c1.66,0,3-1.34,3-3V4c0-1.66-1.34-3-3-3ZM4.5,7c-2.49,0-4.5,2.01-4.5,4.5s2.01,4.5,4.5,4.5,4.5-2.01,4.5-4.5-2.01-4.5-4.5-4.5Zm1.85,5.65c.2.2.2.51,0,.71-.2.2-.51.2-.71,0l-1.15-1.15-1.15,1.15c-.2.2-.51.2-.71,0-.2-.2-.2-.51,0-.71l1.15-1.15-1.15-1.15c-.2-.2-.2-.51,0-.71.2-.2.51-.2.71,0l1.15,1.15,1.15-1.15c.2-.2.51-.2.71,0,.2.2.2.51,0,.71l-1.15,1.15,1.15,1.15Z" fill="currentColor" />
</svg>