<svg xmlns="http://www.w3.org/2000/svg" viewBox="0 0 16 16" width="16" height="16">
  <path d="m10.5,1h-5c-1.38,0-2.5,1.12-2.5,2.5v5c0,.51.15.98.41,1.38l3.17-3.17c.78-.78,2.05-.78,2.83,0l3.17,3.17c.26-.4.41-.87.41-1.38V3.5c0-1.38-1.12-2.5-2.5-2.5Zm-.5,4c-.55,0-1-.45-1-1s.45-1,1-1,1,.45,1,1-.45,1-1,1Zm.5,6c.51,0,.98-.15,1.38-.41l-3.17-3.17c-.39-.39-1.02-.39-1.41,0l-3.17,3.17c.4.26.87.41,1.38.41h5Zm.75,2.5h-6.5c-.41,0-.75.34-.75.75s.34.75.75.75h6.5c.41,0,.75-.34.75-.75s-.34-.75-.75-.75Z" fill="currentColor" />
</svg>