<svg xmlns="http://www.w3.org/2000/svg" viewBox="0 0 16 16" width="16" height="16">
  <path d="m3.75,6h-1.5c-.69,0-1.25.56-1.25,1.25v1.5c0,.69.56,1.25,1.25,1.25h1.5c.69,0,1.25-.56,1.25-1.25v-1.5c0-.69-.56-1.25-1.25-1.25Zm0,5h-1.5c-.69,0-1.25.56-1.25,1.25v1.5c0,.69.56,1.25,1.25,1.25h1.5c.69,0,1.25-.56,1.25-1.25v-1.5c0-.69-.56-1.25-1.25-1.25ZM7.5,3h7c.28,0,.5-.22.5-.5s-.22-.5-.5-.5h-7c-.28,0-.5.22-.5.5s.22.5.5.5ZM3.75,1h-1.5c-.69,0-1.25.56-1.25,1.25v1.5c0,.69.56,1.25,1.25,1.25h1.5c.69,0,1.25-.56,1.25-1.25v-1.5c0-.69-.56-1.25-1.25-1.25Zm10.75,6h-7c-.28,0-.5.22-.5.5s.22.5.5.5h7c.28,0,.5-.22.5-.5s-.22-.5-.5-.5Zm0,5h-7c-.28,0-.5.22-.5.5s.22.5.5.5h7c.28,0,.5-.22.5-.5s-.22-.5-.5-.5Z" fill="currentColor" />
</svg>