<svg xmlns="http://www.w3.org/2000/svg" viewBox="0 0 16 16" width="16" height="16">
  <path d="m11.5,0h-7C3.12,0,2,1.12,2,2.5v7c0,.51.15.98.41,1.38l4.38-4.38c.66-.66,1.74-.66,2.4,0l4.38,4.38c.26-.4.41-.87.41-1.38V2.5c0-1.38-1.12-2.5-2.5-2.5Zm-1,4.5c-.55,0-1-.45-1-1s.45-1,1-1,1,.45,1,1-.45,1-1,1Zm-2.99,2.7l-4.38,4.38c.4.26.87.41,1.38.41h7c.51,0,.98-.15,1.38-.41l-4.38-4.38c-.27-.27-.72-.27-.99,0Zm3.74,6.3h-6.5c-.41,0-.75.34-.75.75s.34.75.75.75h6.5c.41,0,.75-.34.75-.75s-.34-.75-.75-.75Z" fill="currentColor" />
</svg>