<svg xmlns="http://www.w3.org/2000/svg" viewBox="0 0 16 16" width="16" height="16">
  <path d="m5,3.5h-2c-.83,0-1.5.67-1.5,1.5v2c0,.29.08.55.22.78l1.57-1.57c.39-.39,1.02-.39,1.41,0l1.57,1.57c.14-.23.22-.49.22-.78v-2c0-.83-.67-1.5-1.5-1.5Zm8,0h-2c-.83,0-1.5.67-1.5,1.5v2c0,.29.08.55.22.78l1.57-1.57c.39-.39,1.02-.39,1.41,0l1.57,1.57c.14-.23.22-.49.22-.78v-2c0-.83-.67-1.5-1.5-1.5Z" fill="#FFFFFF" />
  <path d="m3.29,6.21l-1.57,1.57c.26.43.74.72,1.28.72h2c.54,0,1.02-.29,1.28-.72l-1.57-1.57c-.39-.39-1.02-.39-1.41,0Zm9.41,0c-.39-.39-1.02-.39-1.41,0l-1.57,1.57c.26.43.74.72,1.28.72h2c.54,0,1.02-.29,1.28-.72l-1.57-1.57Z" fill="#000000" opacity="0.3" />
  <path d="m5,3h-2c-1.1,0-2,.9-2,2v2c0,1.1.9,2,2,2h2c1.1,0,2-.9,2-2v-2c0-1.1-.9-2-2-2Zm0,5h-2c-.22,0-.43-.07-.6-.2l1.24-1.24c.2-.2.51-.2.71,0l1.24,1.24c-.17.12-.37.2-.6.2Zm1-1.21l-.94-.94c-.59-.59-1.54-.59-2.12,0l-.94.94v-1.79c0-.55.45-1,1-1h2c.55,0,1,.45,1,1v1.79Zm7-3.79h-2c-1.1,0-2,.9-2,2v2c0,1.1.9,2,2,2h2c1.1,0,2-.9,2-2v-2c0-1.1-.9-2-2-2Zm0,5h-2c-.22,0-.43-.07-.6-.2l1.24-1.24c.2-.2.51-.2.71,0l1.24,1.24c-.17.12-.37.2-.6.2Zm1-1.21l-.94-.94c-.59-.59-1.54-.59-2.12,0l-.94.94v-1.79c0-.55.45-1,1-1h2c.55,0,1,.45,1,1v1.79Zm-7.5,5.21H1.5c-.28,0-.5.22-.5.5s.22.5.5.5h5c.28,0,.5-.22.5-.5s-.22-.5-.5-.5Zm8,0h-5c-.28,0-.5.22-.5.5s.22.5.5.5h5c.28,0,.5-.22.5-.5s-.22-.5-.5-.5Z" fill="#000000" />
</svg>