<svg xmlns="http://www.w3.org/2000/svg" viewBox="0 0 16 16" width="16" height="16">
  <path d="m3.5,2c-.83,0-1.5.67-1.5,1.5v1c0,.28-.22.5-.5.5s-.5-.22-.5-.5v-1c0-1.38,1.12-2.5,2.5-2.5h1c.28,0,.5.22.5.5s-.22.5-.5.5h-1Zm3,3c-.83,0-1.5.67-1.5,1.5v3c0,.83.67,1.5,1.5,1.5h3c.83,0,1.5-.67,1.5-1.5v-3c0-.83-.67-1.5-1.5-1.5h-3Zm6-3c.83,0,1.5.67,1.5,1.5v1c0,.28.22.5.5.5s.5-.22.5-.5v-1c0-1.38-1.12-2.5-2.5-2.5h-1c-.28,0-.5.22-.5.5s.22.5.5.5h1Zm0,12c.83,0,1.5-.67,1.5-1.5v-1c0-.28.22-.5.5-.5s.5.22.5.5v1c0,1.38-1.12,2.5-2.5,2.5h-1c-.28,0-.5-.22-.5-.5s.22-.5.5-.5h1Zm-9,0c-.83,0-1.5-.67-1.5-1.5v-1.25c0-.28-.22-.5-.5-.5s-.5.22-.5.5v1.25c0,1.38,1.12,2.5,2.5,2.5h1.25c.28,0,.5-.22.5-.5s-.22-.5-.5-.5h-1.25Z" fill="currentColor" />
</svg>