<svg xmlns="http://www.w3.org/2000/svg" viewBox="0 0 16 16" width="16" height="16">
  <path d="m10,1h-4c-1.1,0-2,.9-2,2v4c0,.37.1.72.28,1.02l2.49-2.49c.68-.68,1.79-.68,2.47,0l2.49,2.49c.18-.3.28-.65.28-1.02V3c0-1.1-.9-2-2-2Zm-.5,3.25c-.41,0-.75-.34-.75-.75s.34-.75.75-.75.75.34.75.75-.34.75-.75.75Zm1.52,4.47l-2.49-2.49c-.29-.29-.77-.29-1.06,0l-2.49,2.49c.3.18.65.28,1.02.28h4c.37,0,.72-.1,1.02-.28Zm.23,4.78h-6.5c-.41,0-.75.34-.75.75s.34.75.75.75h6.5c.41,0,.75-.34.75-.75s-.34-.75-.75-.75Zm0-3h-6.5c-.41,0-.75.34-.75.75s.34.75.75.75h6.5c.41,0,.75-.34.75-.75s-.34-.75-.75-.75Z" fill="currentColor" />
</svg>