<svg xmlns="http://www.w3.org/2000/svg" viewBox="0 0 16 16" width="16" height="16">
  <path d="m15,3.5c0-.41-.34-.75-.75-.75h-4.5c-.41,0-.75.34-.75.75s.34.75.75.75h4.5c.41,0,.75-.34.75-.75Zm-8,0c0-.41-.34-.75-.75-.75H1.75c-.41,0-.75.34-.75.75s.34.75.75.75h4.5c.41,0,.75-.34.75-.75Zm8,3c0-.41-.34-.75-.75-.75h-4.5c-.41,0-.75.34-.75.75s.34.75.75.75h4.5c.41,0,.75-.34.75-.75Zm-8,0c0-.41-.34-.75-.75-.75H1.75c-.41,0-.75.34-.75.75s.34.75.75.75h4.5c.41,0,.75-.34.75-.75Zm8,3c0-.41-.34-.75-.75-.75h-4.5c-.41,0-.75.34-.75.75s.34.75.75.75h4.5c.41,0,.75-.34.75-.75Zm-8,0c0-.41-.34-.75-.75-.75H1.75c-.41,0-.75.34-.75.75s.34.75.75.75h4.5c.41,0,.75-.34.75-.75Zm8,3c0-.41-.34-.75-.75-.75h-4.5c-.41,0-.75.34-.75.75s.34.75.75.75h4.5c.41,0,.75-.34.75-.75Zm-8,0c0-.41-.34-.75-.75-.75H1.75c-.41,0-.75.34-.75.75s.34.75.75.75h4.5c.41,0,.75-.34.75-.75Z" fill="currentColor" />
</svg>