<svg xmlns="http://www.w3.org/2000/svg" viewBox="0 0 16 16" width="16" height="16">
  <path d="m3.75,1.5h-1.5c-.41,0-.75.34-.75.75v1.5c0,.41.34.75.75.75h1.5c.41,0,.75-.34.75-.75v-1.5c0-.41-.34-.75-.75-.75Zm0,5h-1.5c-.41,0-.75.34-.75.75v1.5c0,.41.34.75.75.75h1.5c.41,0,.75-.34.75-.75v-1.5c0-.41-.34-.75-.75-.75Zm0,5h-1.5c-.41,0-.75.34-.75.75v1.5c0,.41.34.75.75.75h1.5c.41,0,.75-.34.75-.75v-1.5c0-.41-.34-.75-.75-.75Z" fill="#FFFFFF" />
  <path d="m3.75,1h-1.5c-.69,0-1.25.56-1.25,1.25v1.5c0,.69.56,1.25,1.25,1.25h1.5c.69,0,1.25-.56,1.25-1.25v-1.5c0-.69-.56-1.25-1.25-1.25Zm.25,2.75c0,.14-.11.25-.25.25h-1.5c-.14,0-.25-.11-.25-.25v-1.5c0-.14.11-.25.25-.25h1.5c.14,0,.25.11.25.25v1.5Zm-.25,2.25h-1.5c-.69,0-1.25.56-1.25,1.25v1.5c0,.69.56,1.25,1.25,1.25h1.5c.69,0,1.25-.56,1.25-1.25v-1.5c0-.69-.56-1.25-1.25-1.25Zm.25,2.75c0,.14-.11.25-.25.25h-1.5c-.14,0-.25-.11-.25-.25v-1.5c0-.14.11-.25.25-.25h1.5c.14,0,.25.11.25.25v1.5Zm-.25,2.25h-1.5c-.69,0-1.25.56-1.25,1.25v1.5c0,.69.56,1.25,1.25,1.25h1.5c.69,0,1.25-.56,1.25-1.25v-1.5c0-.69-.56-1.25-1.25-1.25Zm.25,2.75c0,.14-.11.25-.25.25h-1.5c-.14,0-.25-.11-.25-.25v-1.5c0-.14.11-.25.25-.25h1.5c.14,0,.25.11.25.25v1.5ZM7.5,3h7c.28,0,.5-.22.5-.5s-.22-.5-.5-.5h-7c-.28,0-.5.22-.5.5s.22.5.5.5Zm7,4h-7c-.28,0-.5.22-.5.5s.22.5.5.5h7c.28,0,.5-.22.5-.5s-.22-.5-.5-.5Zm0,5h-7c-.28,0-.5.22-.5.5s.22.5.5.5h7c.28,0,.5-.22.5-.5s-.22-.5-.5-.5Z" fill="#000000" />
</svg>