<svg xmlns="http://www.w3.org/2000/svg" viewBox="0 0 16 16" width="16" height="16">
  <path d="m5,3h-2c-1.1,0-2,.9-2,2v2c0,.24.04.46.12.68l1.82-1.82c.59-.59,1.54-.59,2.12,0l1.82,1.82c.08-.21.12-.44.12-.68v-2c0-1.1-.9-2-2-2Zm-2,6h2c.5,0,.96-.18,1.31-.49l-1.95-1.95c-.2-.2-.51-.2-.71,0l-1.95,1.95c.33.28.75.46,1.21.48.04,0,.07,0,.09,0Zm3.25,2.5H1.75c-.41,0-.75.34-.75.75s.34.75.75.75h4.5c.41,0,.75-.34.75-.75s-.34-.75-.75-.75Zm8,0h-4.5c-.41,0-.75.34-.75.75s.34.75.75.75h4.5c.41,0,.75-.34.75-.75s-.34-.75-.75-.75Zm-1.25-8.5h-2c-1.1,0-2,.9-2,2v2c0,.24.04.46.12.68l1.82-1.82c.59-.59,1.54-.59,2.12,0l1.82,1.82c.08-.21.12-.44.12-.68v-2c0-1.1-.9-2-2-2Zm-2,6h2c.5,0,.96-.18,1.31-.49l-1.95-1.95c-.2-.2-.51-.2-.71,0l-1.95,1.95c.33.28.75.46,1.21.48.04,0,.07,0,.09,0Z" fill="currentColor" />
</svg>