<svg xmlns="http://www.w3.org/2000/svg" viewBox="0 0 16 16" width="16" height="16">
  <path d="m5.5,1.5c-1.1,0-2,.9-2,2v5c0,.31.07.6.2.86l.3.64,3.14-3.14c.47-.47,1.24-.47,1.71,0l3.14,3.14.3-.64c.13-.26.2-.55.2-.86V3.5c0-1.1-.9-2-2-2h-5Z" fill="#FFFFFF" />
  <path d="m5.5,1.5c-1.1,0-2,.9-2,2v5c0,.31.07.6.2.86l.3.64,3.14-3.14c.47-.47,1.24-.47,1.71,0l3.14,3.14.3-.64c.13-.26.2-.55.2-.86V3.5c0-1.1-.9-2-2-2h-5Z" fill="#000000" opacity="0.3" />
  <path d="m10,3c-.55,0-1,.45-1,1s.45,1,1,1,1-.45,1-1-.45-1-1-1Zm.5-2h-5c-1.38,0-2.5,1.12-2.5,2.5v5c0,1.38,1.12,2.5,2.5,2.5h5c1.38,0,2.5-1.12,2.5-2.5V3.5c0-1.38-1.12-2.5-2.5-2.5Zm0,9h-5c-.23,0-.45-.05-.65-.15l2.44-2.44c.39-.39,1.02-.39,1.41,0l2.44,2.44c-.2.09-.42.15-.65.15Zm1.5-1.5c0,.23-.05.45-.15.65l-2.44-2.44c-.78-.78-2.05-.78-2.83,0l-2.44,2.44c-.09-.2-.15-.42-.15-.65V3.5c0-.83.67-1.5,1.5-1.5h5c.83,0,1.5.67,1.5,1.5v5Zm-.5,5.5h-7c-.28,0-.5.22-.5.5s.22.5.5.5h7c.28,0,.5-.22.5-.5s-.22-.5-.5-.5Z" fill="#000000" />
</svg>