<svg xmlns="http://www.w3.org/2000/svg" viewBox="0 0 16 16" width="16" height="16">
  <path d="m10.5,3c-.55,0-1,.45-1,1s.45,1,1,1,1-.45,1-1-.45-1-1-1Zm1-2.5h-7C3.12.5,2,1.62,2,3v7c0,1.38,1.12,2.5,2.5,2.5h7c1.38,0,2.5-1.12,2.5-2.5V3c0-1.38-1.12-2.5-2.5-2.5Zm0,11h-7c-.23,0-.45-.05-.65-.15l3.65-3.65c.27-.27.72-.27.99,0l3.65,3.65c-.2.09-.42.15-.65.15Zm1.5-1.5c0,.23-.05.45-.15.65l-3.65-3.65c-.66-.66-1.74-.66-2.4,0l-3.65,3.65c-.09-.2-.15-.42-.15-.65V3c0-.83.67-1.5,1.5-1.5h7c.83,0,1.5.67,1.5,1.5v7Zm-1.5,4.5h-7c-.28,0-.5.22-.5.5s.22.5.5.5h7c.28,0,.5-.22.5-.5s-.22-.5-.5-.5Z" fill="currentColor" />
</svg>