<svg xmlns="http://www.w3.org/2000/svg" viewBox="0 0 16 16" width="16" height="16">
  <path d="m2,4.5c-.83,0-1.5.67-1.5,1.5v4c0,.13.02.26.05.39.05.17.18.31.35.35.17.05.36,0,.48-.13l1.73-1.73c.49-.49,1.28-.49,1.77,0l1.73,1.73c.13.13.31.18.48.13.17-.05.31-.18.35-.35.03-.12.05-.25.05-.39v-4c0-.83-.67-1.5-1.5-1.5H2Z" fill="#FFFFFF" />
  <path d="m4.88,8.88c-.49-.49-1.28-.49-1.77,0l-1.73,1.73c-.13.13-.18.31-.13.48.05.17.18.31.35.35.12.03.25.05.39.05h4c.13,0,.26-.02.39-.05.17-.05.31-.18.35-.35.05-.17,0-.36-.13-.48l-1.73-1.73Z" fill="#000000" opacity="0.3" />
  <path d="m5.5,5.75c-.41,0-.75.34-.75.75s.34.75.75.75.75-.34.75-.75-.34-.75-.75-.75Zm.5-1.75H2c-1.1,0-2,.9-2,2v4c0,1.1.9,2,2,2h4c1.1,0,2-.9,2-2v-4c0-1.1-.9-2-2-2Zm0,7H2c-.09,0-.18-.01-.26-.03l1.73-1.73c.29-.29.77-.29,1.06,0l1.73,1.73c-.08.02-.17.03-.26.03Zm1-1c0,.09-.01.18-.03.26l-1.73-1.73c-.68-.68-1.79-.68-2.47,0l-1.73,1.73c-.02-.08-.03-.17-.03-.26v-4c0-.55.45-1,1-1h4c.55,0,1,.45,1,1v4Zm3.5-3h5c.28,0,.5-.22.5-.5s-.22-.5-.5-.5h-5c-.28,0-.5.22-.5.5s.22.5.5.5Zm5,2h-5c-.28,0-.5.22-.5.5s.22.5.5.5h5c.28,0,.5-.22.5-.5s-.22-.5-.5-.5Z" fill="#000000" />
</svg>