<svg xmlns="http://www.w3.org/2000/svg" viewBox="0 0 16 16" width="16" height="16">
  <path d="m1.5,3c0-.83.67-1.5,1.5-1.5h10c.83,0,1.5.67,1.5,1.5v10c0,.83-.67,1.5-1.5,1.5H3c-.83,0-1.5-.67-1.5-1.5V3Zm5,2.5c-.55,0-1,.45-1,1v3c0,.55.45,1,1,1h3c.55,0,1-.45,1-1v-3c0-.55-.45-1-1-1h-3Z" fill="#FFFFFF" />
  <path d="m5.5,6.5c0-.55.45-1,1-1h3c.55,0,1,.45,1,1v3c0,.55-.45,1-1,1h-3c-.55,0-1-.45-1-1v-3Z" fill="#0078D7" opacity="0.2" />
  <path d="m3.5,2c-.83,0-1.5.67-1.5,1.5v1c0,.28-.22.5-.5.5s-.5-.22-.5-.5v-1c0-1.38,1.12-2.5,2.5-2.5h1c.28,0,.5.22.5.5s-.22.5-.5.5h-1Zm10.5,1.5c0-.83-.67-1.5-1.5-1.5h-1c-.28,0-.5-.22-.5-.5s.22-.5.5-.5h1c1.38,0,2.5,1.12,2.5,2.5v1c0,.28-.22.5-.5.5s-.5-.22-.5-.5v-1Zm0,9c0,.83-.67,1.5-1.5,1.5h-1c-.28,0-.5.22-.5.5s.22.5.5.5h1c1.38,0,2.5-1.12,2.5-2.5v-1c0-.28-.22-.5-.5-.5s-.5.22-.5.5v1Zm-12,0c0,.83.67,1.5,1.5,1.5h1.25c.28,0,.5.22.5.5s-.22.5-.5.5h-1.25c-1.38,0-2.5-1.12-2.5-2.5v-1.25c0-.28.22-.5.5-.5s.5.22.5.5v1.25Zm4.5-7.5c-.83,0-1.5.67-1.5,1.5v3c0,.83.67,1.5,1.5,1.5h3c.83,0,1.5-.67,1.5-1.5v-3c0-.83-.67-1.5-1.5-1.5h-3Zm-.5,1.5c0-.28.22-.5.5-.5h3c.28,0,.5.22.5.5v3c0,.28-.22.5-.5.5h-3c-.28,0-.5-.22-.5-.5v-3Z" fill="#000000" />
</svg>