<svg xmlns="http://www.w3.org/2000/svg" viewBox="0 0 16 16" width="16" height="16">
  <path d="m15.5,2h-4.5v-.5c0-.83-.67-1.5-1.5-1.5h-3c-.83,0-1.5.67-1.5,1.5v.5H.5c-.28,0-.5.22-.5.5s.22.5.5.5h1.05l1.19,10.34c.17,1.51,1.46,2.66,2.98,2.66h.04c-.18-.3-.27-.65-.27-1.01-.91-.1-1.65-.83-1.76-1.76L2.56,3h10.88l-.51,4.39.82,1.64.7-6.03h1.05c.28,0,.5-.22.5-.5s-.22-.5-.5-.5Zm-5.5,0h-4v-.5c0-.28.22-.5.5-.5h3c.28,0,.5.22.5.5v.5Zm-3,9.53v-5.53c0-.28-.22-.5-.5-.5s-.5.22-.5.5v6c0,.28.22.5.5.5h.01s.49-.97.49-.97Zm3-5.27v-.26c0-.28-.22-.5-.5-.5s-.5.22-.5.5v1.52l.21-.42c.19-.38.47-.66.79-.84Zm1.89,1.29c-.37-.74-1.42-.74-1.79,0l-3.5,7c-.33.67.15,1.45.9,1.45h7c.74,0,1.23-.78.9-1.45l-3.5-7Zm-.9,7.45c-.28,0-.5-.22-.5-.5s.22-.5.5-.5.5.22.5.5-.22.5-.5.5Zm.5-2.5c0,.28-.22.5-.5.5s-.5-.22-.5-.5v-3c0-.28.22-.5.5-.5s.5.22.5.5v3Z" fill="currentColor" />
</svg>