<svg xmlns="http://www.w3.org/2000/svg" viewBox="0 0 16 16" width="16" height="16">
  <path d="m10,0c1.1,0,2,.9,2,2v8h1V2.27c.6.35,1,.99,1,1.73v6.27c.6.35,1,.99,1,1.73v1.5c0,1.38-1.12,2.5-2.5,2.5H3.5c-1.38,0-2.5-1.12-2.5-2.5v-6.5c0-.74.4-1.39,1-1.73v-3.27c0-1.1.9-2,2-2h6ZM3,5h1.88c.53,0,1.04.21,1.41.59l4.12,4.12c.16.16.37.26.59.29V2c0-.55-.45-1-1-1h-6c-.55,0-1,.45-1,1v3Zm-1,2v6.5c0,.83.67,1.5,1.5,1.5h9c.83,0,1.5-.67,1.5-1.5v-1.5c0-.55-.45-1-1-1h-1.88c-.53,0-1.04-.21-1.41-.59l-4.12-4.12c-.19-.19-.44-.29-.71-.29h-1.88c-.55,0-1,.45-1,1Z" fill="#000000" />
</svg>