<svg xmlns="http://www.w3.org/2000/svg" viewBox="0 0 16 16" width="16" height="16">
  <path d="m15.5,2h-4.5v-.5c0-.83-.67-1.5-1.5-1.5h-3c-.83,0-1.5.67-1.5,1.5v.5H.5c-.28,0-.5.22-.5.5s.22.5.5.5h1.05l1.19,10.34c.17,1.51,1.46,2.66,2.98,2.66h.04c-.32-.55-.38-1.25-.06-1.89l.8-1.61h-.01c-.28,0-.5-.22-.5-.5v-6c0-.28.22-.5.5-.5s.5.22.5.5v5.53l2-4v-1.52c0-.28.22-.5.5-.5s.5.22.5.5v.26c.94-.53,2.24-.25,2.79.84l.96,1.92.7-6.03h1.05c.28,0,.5-.22.5-.5s-.22-.5-.5-.5Zm-5.5,0h-4v-.5c0-.28.22-.5.5-.5h3c.28,0,.5.22.5.5v.5Zm1.89,5.55c-.37-.74-1.42-.74-1.79,0l-3.5,7c-.33.67.15,1.45.9,1.45h7c.74,0,1.23-.78.9-1.45l-3.5-7Zm-.9,7.45c-.28,0-.5-.22-.5-.5s.22-.5.5-.5.5.22.5.5-.22.5-.5.5Zm.5-2.5c0,.28-.22.5-.5.5s-.5-.22-.5-.5v-3c0-.28.22-.5.5-.5s.5.22.5.5v3Z" fill="currentColor" />
</svg>