<svg xmlns="http://www.w3.org/2000/svg" viewBox="0 0 16 16" width="16" height="16">
  <path d="m15.25,1.25c.41,0,.75.34.75.75v11c0,.41-.34.75-.75.75s-.75-.34-.75-.75V2c0-.41.34-.75.75-.75ZM0,7.5c0-.41.34-.75.75-.75h10.19l-2.72-2.72c-.29-.29-.29-.77,0-1.06.29-.29.77-.29,1.06,0l4,4s.02.02.04.04c.05.06.09.12.12.19.04.09.07.2.07.31s-.02.22-.07.31c-.03.06-.07.12-.12.18-.01.01-.03.03-.04.04l-4,4c-.29.29-.77.29-1.06,0-.29-.29-.29-.77,0-1.06l2.72-2.72H.75c-.41,0-.75-.34-.75-.75Z" fill="currentColor" />
</svg>