<svg xmlns="http://www.w3.org/2000/svg" viewBox="0 0 16 16" width="16" height="16">
  <path d="m4.97.22h0c-1.14-.33-2.14-.21-2.84,0-.35.1-.64.23-.83.33-.1.05-.18.09-.23.13-.03.02-.05.03-.07.04h-.02s0,.02,0,.02h0s0,0,0,0c-.23.16-.29.47-.13.7.16.23.47.29.69.13h0s0,0,0,0c0,0,.02-.01.04-.02.04-.02.09-.05.17-.09.15-.08.38-.18.66-.26.57-.17,1.37-.27,2.28,0,.71.21,1.03.59,1.19.99.15.38.18.8.18,1.17-.54-.15-1.21-.3-1.92-.33-1.04-.04-2.2.16-3.21,1C.04,4.75-.17,5.88.12,6.85c.29.97,1.08,1.84,2.25,2.08.91.19,1.86-.07,2.64-.41.38-.17.74-.36,1.05-.55v.53c0,.28.22.5.5.5s.5-.22.5-.5V3.45c0-.39,0-1.04-.25-1.66-.27-.67-.82-1.27-1.83-1.57Zm1.08,6.54c-.35.26-.87.59-1.45.85-.7.31-1.43.48-2.04.35-.77-.16-1.3-.73-1.49-1.39-.19-.66-.04-1.35.49-1.79.76-.63,1.65-.81,2.53-.77.72.03,1.41.2,1.96.37v2.38Zm8.96,4.53c-.18-.68-.65-1.26-1.38-1.58-.18-.08-.38-.14-.59-.18v-.03c0-.28-.22-.5-.5-.5s-.49.21-.5.48c-.29.02-.59.07-.9.15.02-.27.05-.55.09-.84.66-.06,1.32-.17,1.92-.31.27-.06.44-.33.37-.6-.06-.27-.33-.44-.6-.37-.48.11-1,.2-1.53.26.04-.22.08-.44.13-.67.06-.27-.11-.54-.38-.59-.27-.06-.54.11-.59.38-.07.33-.13.65-.19.96-.44.02-.88.01-1.29-.02-.28-.02-.51.19-.53.46-.02.28.19.51.46.53.39.03.8.03,1.21.02-.05.4-.08.78-.11,1.14-.91.42-1.51,1.03-1.83,1.67-.4.8-.36,1.72.2,2.3.38.39.92.43,1.4.32.21-.05.43-.13.65-.24.01.04.03.08.04.12.1.26.38.39.64.29.26-.1.39-.38.29-.64-.04-.11-.08-.23-.12-.37.72-.65,1.34-1.64,1.56-2.91.1.03.2.06.29.1.44.19.71.53.81.91.21.77-.23,1.92-1.68,2.48-.26.1-.39.39-.29.65.1.26.39.39.65.29,1.83-.71,2.65-2.31,2.29-3.67Zm-5.35,2.02c-.3.07-.43,0-.46-.05-.18-.18-.29-.61-.02-1.16.16-.32.45-.66.91-.96.01.75.08,1.38.18,1.9-.22.14-.43.22-.61.26Zm1.49-1.08c-.05-.44-.08-.96-.07-1.55.04-.01.08-.03.12-.04.27-.08.51-.13.74-.16-.15.71-.44,1.29-.79,1.74Z" fill="#000000" />
</svg>