<svg xmlns="http://www.w3.org/2000/svg" viewBox="0 0 16 16" width="16" height="16">
  <path d="m0,1.5C0,.67.67,0,1.5,0h1c.83,0,1.5.67,1.5,1.5v12.98c0,.83-.67,1.5-1.5,1.5h-1c-.83,0-1.5-.67-1.5-1.5V1.5Zm1.5-.5c-.28,0-.5.22-.5.5v12.98c0,.28.22.5.5.5h1c.28,0,.5-.22.5-.5V1.5c0-.28-.22-.5-.5-.5h-1Zm3.5.5c0-.83.67-1.5,1.5-1.5h1c.83,0,1.5.67,1.5,1.5v12.98c0,.83-.67,1.5-1.5,1.5h-1c-.83,0-1.5-.67-1.5-1.5V1.5Zm1.5-.5c-.28,0-.5.22-.5.5v12.98c0,.28.22.5.5.5h1c.28,0,.5-.22.5-.5V1.5c0-.28-.22-.5-.5-.5h-1Zm7.22,3.16c-.19-.83-1.04-1.34-1.87-1.11l-.75.21c-.76.21-1.22.97-1.06,1.74l2,9.8c.17.84,1.01,1.36,1.84,1.15l.98-.25c.79-.2,1.27-.99,1.09-1.79l-2.24-9.76Zm-1.6-.15c.28-.08.56.09.62.37l2.24,9.76c.06.26-.1.53-.36.6l-.98.25c-.28.07-.56-.1-.61-.38l-2-9.8c-.05-.26.1-.51.35-.58l.75-.21Z" fill="currentColor" />
</svg>