<svg xmlns="http://www.w3.org/2000/svg" viewBox="0 0 16 16" width="16" height="16">
  <path d="m0,4c0-1.1.9-2,2-2h12c1.1,0,2,.9,2,2v7c0,.81-.48,1.5-1.16,1.82-.07-.14-.16-.27-.28-.38l-.45-.45c.5-.06.89-.48.89-.99v-7c0-.55-.45-1-1-1H2c-.55,0-1,.45-1,1v7c0,.55.45,1,1,1h5v1H2c-1.1,0-2-.9-2-2v-7Zm8.85,4.15c-.14-.14-.36-.19-.54-.11-.19.08-.31.26-.31.46v7c0,.22.14.41.35.48.21.07.43-.01.56-.19l1.57-2.25,2.94.45c.21.03.42-.08.52-.27.1-.19.06-.43-.09-.58l-5-5Zm.15,5.77v-4.21l3.07,3.07-1.74-.27c-.19-.03-.38.05-.49.21l-.84,1.2Z" fill="#000000" />
</svg>