<svg xmlns="http://www.w3.org/2000/svg" viewBox="0 0 16 16" width="16" height="16">
  <path d="m5,0c-1.1,0-2,.9-2,2v4.21c.32-.09.66-.15,1-.18V2c0-.55.45-1,1-1h4v3.5c0,.83.67,1.5,1.5,1.5h3.5v8c0,.55-.45,1-1,1h-4.26c-.31.38-.68.72-1.08,1h5.34c1.1,0,2-.9,2-2V5.41c0-.4-.16-.78-.44-1.06L10.65.44c-.28-.28-.66-.44-1.06-.44h-4.59Zm8.79,5h-3.29c-.28,0-.5-.22-.5-.5V1.21l3.79,3.79Zm-11.73,3.44c.3,1.08-.34,2.2-1.43,2.48l-.46.12c-.01.15-.02.31-.02.46,0,.19.01.37.03.55l.35.08c1.12.26,1.79,1.42,1.46,2.52l-.13.42c.26.2.54.38.83.52l.33-.34c.79-.84,2.12-.84,2.91,0l.34.36c.29-.13.57-.3.82-.5l-.16-.56c-.3-1.08.34-2.2,1.43-2.48l.46-.12c.01-.15.02-.31.02-.46,0-.19-.01-.37-.03-.55l-.35-.08c-1.12-.26-1.79-1.42-1.46-2.52l.13-.42c-.26-.2-.54-.38-.83-.52l-.32.34c-.79.84-2.12.84-2.91,0l-.34-.36c-.29.13-.57.3-.82.5l.16.56Zm2.43,4.06c-.55,0-1-.45-1-1s.45-1,1-1,1,.45,1,1-.45,1-1,1Z" fill="#000000" />
</svg>