<svg xmlns="http://www.w3.org/2000/svg" viewBox="0 0 16 16" width="16" height="16">
  <path d="m3.64,9.81c-.53-.14-1.01-.36-1.45-.67-.44-.31-.83-.68-1.16-1.1-.32-.42-.58-.89-.76-1.4-.18-.51-.27-1.04-.27-1.58,0-.46.06-.91.17-1.34.12-.43.29-.84.5-1.21.21-.38.47-.72.77-1.02.3-.31.64-.57,1.01-.79.37-.22.77-.4,1.2-.52.43-.12.88-.18,1.35-.18.69,0,1.34.13,1.95.39.61.26,1.14.62,1.59,1.07.45.45.81.98,1.07,1.59.26.6.39,1.25.39,1.95h-1c0-.17-.01-.33-.03-.5s-.05-.33-.09-.5h-1.91c.01.17.02.33.02.5.01.17.02.33.02.5,0,.34-.02.67-.05.99-.03.32-.06.65-.1.98v.02h-2.69c.03.15.05.3.09.45.04.14.08.28.12.43h0c-.12.33-.24.65-.36.98-.12.32-.24.64-.36.96Zm.52-6.81h1.67c-.02-.11-.05-.27-.1-.47-.05-.21-.11-.42-.18-.62-.07-.21-.15-.41-.24-.58-.09-.17-.2-.28-.3-.33h-.02c-.11.05-.21.16-.3.33-.09.17-.18.36-.25.58-.07.21-.12.42-.17.62-.05.2-.08.36-.1.47Zm-2.63,0h1.62c.09-.61.25-1.2.48-1.76-.44.16-.84.39-1.2.7-.36.3-.66.66-.89,1.06Zm6.94,0c-.23-.41-.53-.76-.89-1.06-.36-.3-.76-.53-1.2-.7.22.56.38,1.15.48,1.76h1.62Zm-7.34,1c-.04.17-.07.33-.09.5s-.03.33-.03.5.01.33.03.5.05.33.09.5h1.91c-.01-.17-.02-.33-.03-.5,0-.17,0-.33,0-.5s0-.33,0-.5c.01-.17.02-.33.03-.5h-1.91Zm4.84,0h-1.92c-.01.17-.02.33-.03.5,0,.17,0,.33,0,.5s0,.33,0,.5c.01.17.02.33.03.5h1.92c.01-.17.02-.33.02-.5.01-.17.02-.33.02-.5s0-.33-.02-.5c0-.17-.01-.33-.02-.5Zm10.04,2.5v1.5c0,.14-.05.25-.15.35-.1.1-.22.15-.35.15s-.25-.05-.35-.15c-.1-.1-.15-.22-.15-.35v-1h-6v1c0,.14-.05.25-.15.35s-.22.15-.35.15-.25-.05-.35-.15-.15-.22-.15-.35v-1.5c0-.14.05-.25.15-.35s.22-.15.35-.15h3s0-.08,0-.12v-.14c0-.09,0-.17.02-.26.01-.09.03-.17.06-.23.04-.07.09-.13.16-.17.07-.05.16-.07.27-.07s.2.02.27.07c.07.04.12.1.15.17.04.07.06.15.07.23.01.08.02.17.02.26v.27h3c.14,0,.25.05.35.15.1.1.15.22.15.35Zm-14.46.5c.23.41.53.76.89,1.06.36.3.76.53,1.2.7-.22-.56-.38-1.15-.48-1.76h-1.61Zm14.46,3.5c0,.14-.05.25-.15.35-.1.1-.22.15-.35.15h-2.5v2c0,.14-.03.27-.08.39-.05.12-.12.23-.22.32-.09.09-.19.16-.31.21-.12.05-.25.08-.39.08h-.5c-.14,0-.25-.05-.35-.15-.1-.1-.15-.22-.15-.35,0-.11.02-.2.06-.27.05-.07.1-.12.17-.15.07-.04.15-.06.23-.07.09-.01.18-.02.27-.02h.27v-2h-2.5c-.14,0-.25-.05-.35-.15-.1-.1-.15-.22-.15-.35s.05-.25.15-.35c.1-.1.22-.15.35-.15h2.5c0-.07.02-.15.06-.24.05-.09.1-.19.16-.28s.12-.18.19-.27c.06-.08.11-.15.15-.21h-2.06c-.14,0-.25-.05-.35-.15-.1-.1-.15-.22-.15-.35s.05-.25.15-.35c.1-.1.22-.15.35-.15h3c.14,0,.25.05.35.15.1.1.15.22.15.35,0,.1-.03.19-.09.27l-.81,1.23h2.4c.14,0,.25.05.35.15.1.1.15.22.15.35Zm-7.25,4c0,.14-.05.26-.15.36-.09.09-.21.14-.35.14-.1,0-.2-.03-.29-.09-.08-.06-.14-.14-.18-.24l-.62-1.67h-2.31l-.62,1.67c-.04.1-.1.18-.19.24-.08.06-.18.09-.28.09-.14,0-.25-.05-.35-.15-.1-.1-.15-.22-.15-.35,0-.07.01-.13.03-.18l.75-1.98c.26-.67.51-1.34.75-2.01.25-.67.5-1.34.75-2.01.04-.1.1-.17.19-.22.09-.05.18-.07.28-.07.1,0,.2.02.28.07.08.05.15.12.19.22.25.67.5,1.34.74,2.01.24.67.5,1.34.76,2.01l.75,1.98s.03.11.03.18Zm-2.75-4.58l-.78,2.08h1.56l-.78-2.08Z" fill="#000000" />
</svg>