<svg xmlns="http://www.w3.org/2000/svg" viewBox="0 0 16 16" width="16" height="16">
  <path d="m1.5,2v11c0,.41-.34.75-.75.75S0,13.41,0,13V2c0-.41.34-.75.75-.75s.75.34.75.75Zm13.75,6.25H5.06s2.72,2.72,2.72,2.72c.29.29.29.77,0,1.06-.29.29-.77.29-1.06,0l-4-4s-.03-.03-.04-.04c-.05-.05-.09-.12-.12-.18-.04-.1-.07-.2-.07-.31s.02-.22.07-.31c.03-.07.07-.13.12-.19.01-.01.02-.03.04-.04l4-4c.29-.29.77-.29,1.06,0,.29.29.29.77,0,1.06l-2.72,2.72h10.19c.41,0,.75.34.75.75s-.34.75-.75.75Z" fill="currentColor" />
</svg>