<svg xmlns="http://www.w3.org/2000/svg" viewBox="0 0 16 16" width="16" height="16">
  <path d="m6.5,3c.28,0,.5-.22.5-.5V.5c0-.28-.22-.5-.5-.5s-.5.22-.5.5v2c0,.28.22.5.5.5Zm-3.18-1.39c-.2-.2-.51-.2-.71,0s-.2.51,0,.71l1.41,1.41c.2.2.51.2.71,0s.2-.51,0-.71l-1.41-1.41Zm5.66,2.12l1.41-1.41c.2-.2.2-.51,0-.71-.2-.2-.51-.2-.71,0l-1.41,1.41c-.2.2-.2.51,0,.71s.51.2.71,0Zm-5.47,1.27H1.5c-.28,0-.5.22-.5.5s.22.5.5.5h2c.28,0,.5-.22.5-.5s-.22-.5-.5-.5Zm11.32,6.11l-7.18-5.84c-.65-.53-1.63-.07-1.63.78v9.45c0,.21.13.39.32.47.19.07.41.02.55-.14l2.9-3.32c.28-.33.7-.51,1.13-.51h3.59c.21,0,.4-.13.47-.33.07-.2,0-.42-.16-.56Zm-3.91-.11c-.72,0-1.41.31-1.88.85l-2.03,2.32V6.05l6.09,4.95h-2.18Z" fill="#000000" />
</svg>