<svg xmlns="http://www.w3.org/2000/svg" viewBox="0 0 16 16" width="16" height="16">
  <path d="m5.04.2h0c-1.12-.33-2.11-.21-2.81,0-.35.1-.63.23-.83.33-.1.05-.18.1-.23.13-.03.02-.05.03-.07.04h-.02s0,.02,0,.02h0s0,0,0,0h0c-.34.24-.42.7-.19,1.04.24.34.7.42,1.04.19h0s.01-.01.03-.02c.03-.02.08-.04.14-.08.13-.07.32-.15.57-.22.49-.14,1.17-.23,1.96,0,.57.17.8.47.92.76.08.2.12.41.13.63-.44-.11-.94-.2-1.47-.22-1.01-.04-2.17.16-3.18,1.01C.09,4.6-.12,5.79.17,6.78c.29,1,1.1,1.9,2.3,2.15.93.2,1.89-.08,2.63-.41.2-.09.39-.18.57-.28h0c0,.42.34.76.75.76s.75-.34.75-.75V3.5c0-.37,0-1.02-.25-1.65-.28-.7-.86-1.33-1.88-1.64Zm.64,6.27c-.3.22-.72.48-1.18.68-.63.28-1.24.41-1.71.31-.6-.13-1.02-.57-1.17-1.1-.16-.53-.03-1.06.36-1.39.64-.54,1.38-.69,2.15-.66.55.02,1.08.14,1.55.27v1.89Zm8.14,3.43v-.02c0-.06,0-.1,0-.14,0-.02,0-.03,0-.05v-.02s0,0,0,0h0s0,0,0,0h0c-.04-.41-.41-.71-.82-.67-.31.03-.56.25-.64.54-.39-.04-.77-.04-1.14-.01.01-.18.02-.36.04-.54.65-.08,1.34-.23,2.08-.52.39-.15.58-.58.43-.97-.15-.39-.58-.58-.97-.43-.45.18-.89.29-1.3.37.02-.09.04-.18.06-.28.08-.41-.17-.8-.58-.89-.41-.08-.8.17-.89.58-.05.24-.09.47-.13.69-.35-.01-.7-.04-1.05-.08-.41-.04-.78.25-.83.67-.04.41.25.78.67.83.32.03.66.06,1,.08-.03.29-.04.56-.05.84-.23.09-.45.2-.65.32-1.04.62-1.82,1.73-1.4,3.05.22.68.72,1.1,1.3,1.3.51.17,1.07.17,1.6.07.18.18.46.26.72.18.31-.09.53-.36.55-.67.69-.4,1.29-1.01,1.53-1.8.09-.31.17-.59.23-.83.36.27.53.62.55.92.03.45-.25,1.18-1.58,1.68-.39.15-.58.58-.44.97.15.39.58.58.97.44,1.71-.65,2.64-1.86,2.54-3.19-.08-1.05-.78-1.93-1.79-2.39Zm-4.39,3.21c-.19-.06-.3-.17-.35-.34-.12-.38.02-.86.7-1.27.06.54.16,1.08.29,1.66-.25.03-.47,0-.63-.05Zm2.47-1.22c-.07.22-.22.45-.44.64-.11-.52-.19-1.02-.23-1.51.29-.03.59-.04.9,0-.06.25-.13.53-.23.87Z" fill="currentColor" />
</svg>