<svg xmlns="http://www.w3.org/2000/svg" viewBox="0 0 16 16" width="16" height="16">
  <path d="m13.56,4.35L9.65.44c-.28-.28-.66-.44-1.06-.44h-3.59c-1.1,0-2,.9-2,2v4.21c.32-.09.66-.15,1-.18V2c0-.55.45-1,1-1h3v3.5c0,.83.67,1.5,1.5,1.5h3.5v7c0,.55-.45,1-1,1h-2.6c-.18.36-.4.69-.66,1h3.26c1.1,0,2-.9,2-2v-7.59c0-.4-.16-.78-.44-1.06Zm-4.06.65c-.28,0-.5-.22-.5-.5V1.21l3.79,3.79h-3.29Zm-1.82,3.32c-.84-.84-1.99-1.32-3.18-1.32s-2.34.47-3.18,1.32c-.84.84-1.32,1.99-1.32,3.18s.47,2.34,1.32,3.18c.84.84,1.99,1.32,3.18,1.32s2.34-.47,3.18-1.32c.84-.84,1.32-1.99,1.32-3.18s-.47-2.34-1.32-3.18Zm-.68,4.18c0,.13-.05.26-.15.35-.09.09-.22.15-.35.15s-.26-.05-.35-.15c-.09-.09-.15-.22-.15-.35v-1.74l-2.62,2.62c-.1.1-.24.16-.38.16s-.28-.06-.38-.16c-.1-.1-.16-.24-.16-.38s.06-.28.16-.38l2.62-2.62h-1.74c-.13,0-.26-.05-.35-.15-.09-.09-.15-.22-.15-.35s.05-.26.15-.35c.09-.09.22-.15.35-.15h3c.13,0,.26.05.35.15.09.09.15.22.15.35v3Z" fill="currentColor" />
</svg>