<svg xmlns="http://www.w3.org/2000/svg" viewBox="0 0 16 16" width="16" height="16">
  <path d="m13,6.5c0-3.59-2.91-6.5-6.5-6.5S0,2.91,0,6.5c0,1.2.33,2.33.89,3.29L.08,11.84c-.27.68.34,1.39,1.05,1.21l2.62-.65c.84.39,1.77.61,2.75.61,3.59,0,6.5-2.91,6.5-6.5Zm-7.57-1.75c-.14.24-.44.32-.68.19s-.32-.44-.19-.68c.44-.78,1.07-1.2,1.74-1.33.65-.13,1.3.04,1.79.36.48.32.87.84.89,1.47.01.65-.39,1.24-1.12,1.68-.5.29-.69.49-.77.63-.07.11-.09.21-.09.44,0,.28-.22.5-.5.5s-.5-.22-.5-.5.01-.61.24-.97c.21-.34.57-.64,1.12-.96.53-.32.63-.62.63-.8,0-.21-.14-.46-.44-.66-.29-.19-.68-.29-1.05-.21-.36.07-.75.3-1.06.85Zm.57,5c0-.41.34-.75.75-.75s.75.34.75.75-.34.75-.75.75-.75-.34-.75-.75Zm9.13,3c.55-.96.87-2.07.87-3.25,0-1.96-.87-3.72-2.25-4.92.15.56.23,1.15.24,1.75.63.9,1,1.99,1,3.17,0,1.08-.31,2.09-.85,2.94-.09.14-.1.3-.04.45l.81,2.04-2.48-.62c-.12-.03-.25-.01-.36.04-.77.41-1.65.65-2.59.65-1.18,0-2.27-.37-3.17-1-.6-.01-1.19-.1-1.75-.25,1.19,1.38,2.95,2.25,4.92,2.25,1.04,0,2.02-.24,2.89-.68l2.48.62c.71.18,1.33-.53,1.05-1.21l-.79-1.99Z" fill="currentColor" />
</svg>