<svg xmlns="http://www.w3.org/2000/svg" viewBox="0 0 16 16" width="16" height="16">
  <path d="m1,9.66l1.08,1.08c1.17,1.17,3.07,1.17,4.24,0l.68-.68c.03,1.34.96,2.94,2.75,2.94s2.75-1.65,2.75-3c0-1.01-.53-1.96-.86-2.47-.19-.3-.38-.55-.52-.72l-.02-.02-.21-.26s-.02-.02-.02-.03c-.22-.25-.52-.42-.85-.48.06-.84-.23-1.71-.87-2.35l-.67-.67h5.02c1.38,0,2.5,1.12,2.5,2.5v7c0,1.38-1.12,2.5-2.5,2.5H3.5c-1.38,0-2.5-1.12-2.5-2.5v-2.84ZM4,.5c0-.28.22-.5.5-.5s.5.22.5.5v1.17c.48.02.95.22,1.32.58l2.12,2.12c.78.78.78,2.05,0,2.83l-2.83,2.83c-.78.78-2.05.78-2.83,0L.66,7.91C-.12,7.13-.12,5.87.66,5.09l2.83-2.83c.15-.15.32-.28.51-.37V.5Zm0,4v-1.34l-2.34,2.34h6.32c-.05-.15-.13-.29-.25-.41l-2.12-2.12c-.17-.17-.39-.27-.61-.29v1.82c0,.28-.22.5-.5.5s-.5-.22-.5-.5Zm-2.92,2c0,.26.1.51.29.71l2.12,2.12c.39.39,1.02.39,1.41,0l2.83-2.83H1.08Zm8.3.67l-.21.26c-.12.16-.29.38-.46.64-.32.5-.7,1.23-.7,1.93,0,1.01.67,2,1.75,2s1.75-.99,1.75-2c0-.7-.39-1.44-.7-1.93-.17-.26-.33-.48-.46-.64l-.21-.26c-.09-.11-.23-.17-.37-.17s-.28.06-.37.17Zm.17,1.44c.07-.11.14-.21.2-.3.07.09.13.19.2.3.31.48.55,1,.55,1.39,0,.29-.1.57-.25.75-.14.17-.3.25-.5.25s-.37-.08-.5-.25c-.15-.18-.25-.46-.25-.75,0-.4.24-.92.55-1.39Z" fill="currentColor" />
</svg>