<svg xmlns="http://www.w3.org/2000/svg" viewBox="0 0 16 16" width="16" height="16">
  <path d="m1.5,1c-.83,0-1.5.67-1.5,1.5v11c0,.83.67,1.5,1.5,1.5h13c.83,0,1.5-.67,1.5-1.5V4.5c0-.83-.67-1.5-1.5-1.5h-6.5l-1.41-1.41c-.38-.38-.88-.59-1.41-.59H1.5Zm4.38,1.29c-.19-.19-.44-.29-.71-.29H1.5c-.28,0-.5.22-.5.5v4.5c.59-.53,1.49-.51,2.06.06l6.94,6.94h4.5c.28,0,.5-.22.5-.5v-2.09L5.88,2.29Zm9.12,7.71l-6-6h5.5c.28,0,.5.22.5.5v5.5ZM1,13.5c0,.28.22.5.5.5h7.09L2.35,7.77c-.2-.2-.51-.2-.71,0l-.65.65v5.09Z" fill="currentColor" />
</svg>