<svg xmlns="http://www.w3.org/2000/svg" viewBox="0 0 16 16" width="16" height="16">
  <path d="m5.44,4.85l2.06-2.06-1.28-1.28c-.33-.33-.77-.51-1.24-.51h-2.48C1.12,1,0,2.12,0,3.5v1.5h5.09c.13,0,.26-.05.35-.15Zm8.06-1.85h-4.79l-2.56,2.56c-.28.28-.66.44-1.06.44H0v6.5c0,.24.03.47.1.69l4.49-4.49c.78-.78,2.05-.78,2.83,0l6.29,6.29c1.29-.1,2.3-1.18,2.3-2.49v-7c0-1.38-1.12-2.5-2.5-2.5Zm-1,4.5c-.55,0-1-.45-1-1s.45-1,1-1,1,.45,1,1-.45,1-1,1Zm-7.21,1.91L.59,14.12c.46.54,1.14.88,1.91.88h9.79l-5.59-5.59c-.39-.39-1.02-.39-1.41,0Z" fill="currentColor" />
</svg>