<svg xmlns="http://www.w3.org/2000/svg" viewBox="0 0 16 16" width="16" height="16">
  <path d="m8,14c-.46.61-1.18,1-2,1H1.5c-.83,0-1.5-.67-1.5-1.5V2.5c0-.83.67-1.5,1.5-1.5h4.5c.82,0,1.54.39,2,1,.46-.61,1.18-1,2-1h4.5c.83,0,1.5.67,1.5,1.5v11c0,.83-.67,1.5-1.5,1.5h-4.5c-.82,0-1.54-.39-2-1ZM1,2.5v11c0,.28.22.5.5.5h4.5c.83,0,1.5-.67,1.5-1.5V3.5c0-.83-.67-1.5-1.5-1.5H1.5c-.28,0-.5.22-.5.5Zm7.5,10c0,.83.67,1.5,1.5,1.5h4.5c.28,0,.5-.22.5-.5V2.5c0-.28-.22-.5-.5-.5h-4.5c-.83,0-1.5.67-1.5,1.5v9Z" fill="currentColor" />
</svg>