<svg xmlns="http://www.w3.org/2000/svg" viewBox="0 0 16 16" width="16" height="16">
  <path d="m11,0h-6c-1.66,0-3,1.34-3,3v2h12v-2c0-1.66-1.34-3-3-3Zm-4,3.5c0,.28-.22.5-.5.5h-1c-.28,0-.5-.22-.5-.5v-1c0-.28.22-.5.5-.5h1c.28,0,.5.22.5.5v1Zm4,0c0,.28-.22.5-.5.5h-1c-.28,0-.5-.22-.5-.5v-1c0-.28.22-.5.5-.5h1c.28,0,.5.22.5.5v1ZM2,13c0,1.66,1.34,3,3,3h6c1.66,0,3-1.34,3-3v-7H2v7Zm3.5-5h5c.28,0,.5.22.5.5s-.22.5-.5.5h-5c-.28,0-.5-.22-.5-.5s.22-.5.5-.5Zm0,4h5c.28,0,.5.22.5.5s-.22.5-.5.5h-5c-.28,0-.5-.22-.5-.5s.22-.5.5-.5Z" fill="currentColor" />
</svg>