<svg xmlns="http://www.w3.org/2000/svg" viewBox="0 0 16 16" width="16" height="16">
  <path d="m7.54,4.12c.3.2.44.45.44.66,0,.18-.09.48-.63.8-.55.32-.91.62-1.12.96-.22.36-.24.7-.24.97s.22.5.5.5.5-.22.5-.5c0-.23.02-.33.09-.44.08-.13.28-.33.77-.63.73-.43,1.13-1.02,1.12-1.68-.01-.63-.4-1.15-.89-1.47-.49-.32-1.14-.49-1.79-.36-.67.13-1.29.56-1.74,1.33-.14.24-.05.55.19.68.24.14.55.05.68-.19.31-.54.7-.78,1.06-.85.37-.07.76.02,1.05.21Zm-.04,5.64c0-.41-.34-.75-.75-.75s-.75.34-.75.75.34.75.75.75.75-.34.75-.75Zm5.5-3.25c0-3.59-2.91-6.5-6.5-6.5S0,2.91,0,6.5c0,1.2.33,2.33.89,3.29L.08,11.84c-.27.68.34,1.39,1.05,1.21l2.62-.65c.84.39,1.77.61,2.75.61,3.59,0,6.5-2.91,6.5-6.5ZM3.68,11.38l-2.61.65.84-2.1c.06-.15.04-.32-.04-.46-.55-.86-.87-1.88-.87-2.97C1,3.46,3.46,1,6.5,1s5.5,2.46,5.5,5.5-2.46,5.5-5.5,5.5c-.89,0-1.73-.21-2.47-.58-.11-.05-.23-.07-.35-.04Zm11.45,1.38c.55-.96.87-2.07.87-3.25,0-1.96-.87-3.72-2.25-4.92.15.56.23,1.15.24,1.75.63.9,1,1.99,1,3.17,0,1.08-.31,2.09-.85,2.94-.09.14-.1.3-.04.45l.81,2.04-2.48-.62c-.12-.03-.25-.01-.36.04-.77.41-1.65.65-2.59.65-1.18,0-2.27-.37-3.17-1-.6-.01-1.19-.1-1.75-.25,1.19,1.38,2.95,2.25,4.92,2.25,1.04,0,2.02-.24,2.89-.68l2.48.62c.71.18,1.33-.53,1.05-1.21l-.79-1.99Z" fill="currentColor" />
</svg>