<svg xmlns="http://www.w3.org/2000/svg" viewBox="0 0 16 16" width="16" height="16">
  <path d="m2,2c-1.1,0-2,.9-2,2v7c0,1.1.9,2,2,2h5v-4.5c0-.61.37-1.15.93-1.39.56-.23,1.21-.1,1.63.33l5,5c.11.11.21.24.28.38.69-.32,1.16-1.01,1.16-1.82v-7c0-1.1-.9-2-2-2H2Zm6.85,6.15c-.14-.14-.36-.19-.54-.11-.19.08-.31.26-.31.46v7c0,.22.14.41.35.48.21.07.43-.01.56-.19l1.57-2.25,2.94.45c.21.03.42-.08.52-.27.1-.19.06-.43-.09-.58l-5-5Zm.15,5.77v-4.21l3.07,3.07-1.74-.27c-.19-.03-.38.05-.49.21l-.84,1.2Z" fill="currentColor" />
</svg>