<svg xmlns="http://www.w3.org/2000/svg" viewBox="0 0 16 16" width="16" height="16">
  <path d="m13,5h-.07c.05.33.07.66.07,1,1.1,0,2,.9,2,2v5c0,1.1-.9,2-2,2h-5c-1.1,0-2-.9-2-2-.34,0-.67-.02-1-.07v.07c0,1.66,1.34,3,3,3h5c1.66,0,3-1.34,3-3v-5c0-1.66-1.34-3-3-3Zm-4.15-.85c-.2-.2-.51-.2-.71,0l-2.65,2.65-1.15-1.15c-.2-.2-.51-.2-.71,0-.2.2-.2.51,0,.71l1.5,1.5c.2.2.51.2.71,0l3-3c.2-.2.2-.51,0-.71Zm3.15,1.85c0-3.31-2.69-6-6-6S0,2.69,0,6s2.69,6,6,6,6-2.69,6-6Zm-11,0C1,3.24,3.24,1,6,1s5,2.24,5,5-2.24,5-5,5S1,8.76,1,6Z" fill="#000000" />
</svg>