<svg xmlns="http://www.w3.org/2000/svg" viewBox="0 0 16 16" width="16" height="16">
  <path d="m6,1c-1.1,0-2,.9-2,2v3h1v-3c0-.55.45-1,1-1h3v2.5c0,.83.67,1.5,1.5,1.5h2.5v7c0,.55-.45,1-1,1h-1.04c-.05.35-.15.69-.3,1h1.34c1.1,0,2-.9,2-2v-7.59c0-.4-.16-.78-.44-1.06l-2.91-2.91c-.28-.28-.66-.44-1.06-.44h-3.59Zm6.79,4h-2.29c-.28,0-.5-.22-.5-.5v-2.29l2.79,2.79ZM1,9.5c0-1.38,1.12-2.5,2.5-2.5h4c1.38,0,2.5,1.12,2.5,2.5v4c0,.51-.15.98-.41,1.38l-3.03-3.03c-.59-.59-1.54-.59-2.12,0l-3.03,3.03c-.26-.4-.41-.87-.41-1.38v-4Zm7,.25c0-.41-.34-.75-.75-.75s-.75.34-.75.75.34.75.75.75.75-.34.75-.75Zm-5.88,5.84c.4.26.87.41,1.38.41h4c.51,0,.98-.15,1.38-.41l-3.03-3.03c-.2-.2-.51-.2-.71,0l-3.03,3.03Z" fill="#000000" />
</svg>