<svg xmlns="http://www.w3.org/2000/svg" viewBox="0 0 16 16" width="16" height="16">
  <path d="m5,9c.55,0,1-.45,1-1s-.45-1-1-1-1,.45-1,1,.45,1,1,1Zm3,0c.55,0,1-.45,1-1s-.45-1-1-1-1,.45-1,1,.45,1,1,1Zm4-1c0,.55-.45,1-1,1s-1-.45-1-1,.45-1,1-1,1,.45,1,1Zm-7,4c.55,0,1-.45,1-1s-.45-1-1-1-1,.45-1,1,.45,1,1,1Zm4-1c0,.55-.45,1-1,1s-1-.45-1-1,.45-1,1-1,1,.45,1,1Zm2,1c.55,0,1-.45,1-1s-.45-1-1-1-1,.45-1,1,.45,1,1,1ZM7,.38c.57-.51,1.43-.51,2,0l5.5,4.94c.32.28.5.69.5,1.12v7.06c0,.83-.67,1.5-1.5,1.5H2.5c-.83,0-1.5-.67-1.5-1.5v-7.06c0-.43.18-.83.5-1.12L7,.38Zm1.34.74c-.19-.17-.48-.17-.67,0L2.17,6.07c-.11.09-.17.23-.17.37v7.06c0,.28.22.5.5.5h11c.28,0,.5-.22.5-.5v-7.06c0-.14-.06-.28-.17-.37L8.33,1.13Z" fill="currentColor" />
</svg>