<svg xmlns="http://www.w3.org/2000/svg" viewBox="0 0 16 16" width="16" height="16">
  <path d="m3.88,4.59c-.4.26-.87.41-1.38.41-1.38,0-2.5-1.12-2.5-2.5S1.12,0,2.5,0s2.5,1.12,2.5,2.5c0,.51-.15.98-.41,1.38l2.04,2.04c.4-.26.87-.41,1.38-.41s.98.15,1.38.41l2.04-2.04c-.26-.4-.41-.87-.41-1.38,0-1.38,1.12-2.5,2.5-2.5s2.5,1.12,2.5,2.5-1.12,2.5-2.5,2.5c-.51,0-.98-.15-1.38-.41l-2.04,2.04c.26.4.41.87.41,1.38s-.15.98-.41,1.38l2.04,2.04c.4-.26.87-.41,1.38-.41,1.38,0,2.5,1.12,2.5,2.5s-1.12,2.5-2.5,2.5-2.5-1.12-2.5-2.5c0-.51.15-.98.41-1.38l-2.04-2.04c-.4.26-.87.41-1.38.41s-.98-.15-1.38-.41l-2.04,2.04c.26.4.41.87.41,1.38,0,1.38-1.12,2.5-2.5,2.5s-2.5-1.12-2.5-2.5,1.12-2.5,2.5-2.5c.51,0,.98.15,1.38.41l2.04-2.04c-.26-.4-.41-.87-.41-1.38s.15-.98.41-1.38l-2.04-2.04Zm.12-2.09c0-.83-.67-1.5-1.5-1.5s-1.5.67-1.5,1.5.67,1.5,1.5,1.5,1.5-.67,1.5-1.5Zm11,0c0-.83-.67-1.5-1.5-1.5s-1.5.67-1.5,1.5.67,1.5,1.5,1.5,1.5-.67,1.5-1.5ZM2.5,15c.83,0,1.5-.67,1.5-1.5s-.67-1.5-1.5-1.5-1.5.67-1.5,1.5.67,1.5,1.5,1.5Zm12.5-1.5c0-.83-.67-1.5-1.5-1.5s-1.5.67-1.5,1.5.67,1.5,1.5,1.5,1.5-.67,1.5-1.5Zm-5.5-5.5c0-.83-.67-1.5-1.5-1.5s-1.5.67-1.5,1.5.67,1.5,1.5,1.5,1.5-.67,1.5-1.5Z" fill="#000000" />
</svg>