<svg xmlns="http://www.w3.org/2000/svg" viewBox="0 0 16 16" width="16" height="16">
  <path d="m14,2.5c0-1.38-1.12-2.5-2.5-2.5H2.5C1.12,0,0,1.12,0,2.5v9c0,1.38,1.12,2.5,2.5,2.5h4.1c-.16-.32-.29-.65-.39-1h-3.71c-.83,0-1.5-.67-1.5-1.5v-7.5h12v2.21c.35.1.68.23,1,.39V2.5ZM2.5,1h9c.83,0,1.5.67,1.5,1.5v.5H1v-.5c0-.83.67-1.5,1.5-1.5Zm9,15c2.49,0,4.5-2.01,4.5-4.5s-2.01-4.5-4.5-4.5-4.5,2.01-4.5,4.5,2.01,4.5,4.5,4.5Zm-.5-6.5c0-.28.22-.5.5-.5s.5.22.5.5v1.5h1c.28,0,.5.22.5.5s-.22.5-.5.5h-1.5c-.28,0-.5-.22-.5-.5v-2Z" fill="#000000" />
</svg>