<svg xmlns="http://www.w3.org/2000/svg" viewBox="0 0 16 16" width="16" height="16">
  <path d="m9,0v4.5c0,.83.67,1.5,1.5,1.5h4.5v8.5c0,.83-.67,1.5-1.5,1.5h-5.84c1.41-1,2.34-2.64,2.34-4.5,0-3.04-2.46-5.5-5.5-5.5-.52,0-1.02.07-1.5.21V1.5c0-.83.67-1.5,1.5-1.5h4.5Zm1,.25v4.25c0,.28.22.5.5.5h4.25L10,.25ZM2.06,8.44c.3,1.08-.34,2.2-1.43,2.48l-.46.12c-.01.15-.02.31-.02.46,0,.19.01.37.03.55l.35.08c1.12.26,1.79,1.42,1.46,2.52l-.13.42c.26.2.54.38.83.52l.33-.34c.79-.84,2.12-.84,2.91,0l.34.36c.29-.13.57-.3.82-.5l-.16-.56c-.3-1.08.34-2.2,1.43-2.48l.46-.12c.01-.15.02-.31.02-.46,0-.19-.01-.37-.03-.55l-.35-.08c-1.12-.26-1.79-1.42-1.46-2.52l.13-.42c-.26-.2-.54-.38-.83-.52l-.32.34c-.79.84-2.12.84-2.91,0l-.34-.36c-.29.13-.57.3-.82.5l.16.56Zm2.43,4.06c-.55,0-1-.45-1-1s.45-1,1-1,1,.45,1,1-.45,1-1,1Z" fill="currentColor" />
</svg>