<svg xmlns="http://www.w3.org/2000/svg" viewBox="0 0 16 16" width="16" height="16">
  <path d="m8,14.14c-.5.53-1.21.86-2,.86H1.75c-.97,0-1.75-.78-1.75-1.75V2.75c0-.97.78-1.75,1.75-1.75h4.25c.79,0,1.5.33,2,.86.5-.53,1.21-.86,2-.86h4.25c.97,0,1.75.78,1.75,1.75v10.5c0,.97-.78,1.75-1.75,1.75h-4.25c-.79,0-1.5-.33-2-.86ZM1.5,2.75v10.5c0,.14.11.25.25.25h4.25c.69,0,1.25-.56,1.25-1.25V3.75c0-.69-.56-1.25-1.25-1.25H1.75c-.14,0-.25.11-.25.25Zm7.25,9.5c0,.69.56,1.25,1.25,1.25h4.25c.14,0,.25-.11.25-.25V2.75c0-.14-.11-.25-.25-.25h-4.25c-.69,0-1.25.56-1.25,1.25v8.5Z" fill="currentColor" />
</svg>