<svg xmlns="http://www.w3.org/2000/svg" viewBox="0 0 16 16" width="16" height="16">
  <path d="m8,.5c0-.28-.22-.5-.5-.5s-.5.22-.5.5v6c0,.28.22.5.5.5s.5-.22.5-.5V.5Zm3.24,1.5c-.24-.14-.55-.06-.68.18-.14.24-.06.55.18.68,1.24.71,2.21,1.82,2.76,3.14s.65,2.79.28,4.17c-.37,1.38-1.18,2.6-2.32,3.48-1.13.87-2.53,1.35-3.96,1.35-1.43,0-2.82-.47-3.96-1.34-1.14-.87-1.95-2.09-2.32-3.47-.37-1.38-.27-2.85.27-4.17.55-1.32,1.52-2.43,2.76-3.14.24-.14.32-.44.18-.68-.14-.24-.44-.32-.68-.18-1.43.83-2.55,2.1-3.18,3.63C-.06,7.16-.17,8.85.26,10.44c.43,1.6,1.37,3,2.68,4.01,1.31,1,2.92,1.55,4.57,1.55,1.65,0,3.26-.55,4.57-1.55,1.31-1.01,2.25-2.42,2.68-4.01.43-1.6.31-3.29-.32-4.81-.63-1.53-1.75-2.8-3.18-3.62Z" fill="currentColor" />
</svg>