<svg xmlns="http://www.w3.org/2000/svg" viewBox="0 0 16 16" width="16" height="16">
  <path d="m9,1v3.5c0,.83.67,1.5,1.5,1.5h3.5v7.5c0,.83-.67,1.5-1.5,1.5h-1.84c.22-.45.34-.96.34-1.5v-4c0-1.93-1.57-3.5-3.5-3.5h-3.5v-3.5c0-.83.67-1.5,1.5-1.5h3.5Zm1,.25v3.25c0,.28.22.5.5.5h3.25l-3.75-3.75ZM1,9.5c0-1.38,1.12-2.5,2.5-2.5h4c1.38,0,2.5,1.12,2.5,2.5v4c0,.51-.15.98-.41,1.38l-3.03-3.03c-.59-.59-1.54-.59-2.12,0l-3.03,3.03c-.26-.4-.41-.87-.41-1.38v-4Zm7,.25c0-.41-.34-.75-.75-.75s-.75.34-.75.75.34.75.75.75.75-.34.75-.75Zm-5.88,5.84c.4.26.87.41,1.38.41h4c.51,0,.98-.15,1.38-.41l-3.03-3.03c-.2-.2-.51-.2-.71,0l-3.03,3.03Z" fill="currentColor" />
</svg>