<svg xmlns="http://www.w3.org/2000/svg" viewBox="0 0 16 16" width="16" height="16">
  <path d="m8,7.5c-.8,0-1.5.7-1.5,1.5,0,.6.3,1.1.9,1.4l-.3,2.1v.1c0,.3.2.5.5.5h.8c.3,0,.5-.2.5-.5v-.1l-.3-2.1c.6-.3.9-.8.9-1.4,0-.8-.7-1.5-1.5-1.5Zm4-3.5h-1v-1c0-1.66-1.34-3-3-3s-3,1.34-3,3v1h-1c-1.66,0-3,1.34-3,3v6c0,1.66,1.34,3,3,3h8c1.66,0,3-1.34,3-3v-6c0-1.66-1.34-3-3-3Zm-6-1c0-1.1.9-2,2-2s2,.9,2,2v1h-4v-1Zm8,10c0,1.1-.9,2-2,2H4c-1.1,0-2-.9-2-2v-6c0-1.1.9-2,2-2h8c1.1,0,2,.9,2,2v6Z" fill="currentColor" />
</svg>