<svg xmlns="http://www.w3.org/2000/svg" viewBox="0 0 16 16" width="16" height="16">
  <path d="m7.5,7c.41,0,.75-.34.75-.75V.75c0-.41-.34-.75-.75-.75s-.75.34-.75.75v5.5c0,.41.34.75.75.75Zm7-1.2c-.58-1.52-1.65-2.8-3.02-3.66-.35-.22-.81-.11-1.03.24-.22.35-.11.81.24,1.03,1.1.69,1.95,1.72,2.42,2.93.47,1.21.53,2.54.18,3.79-.35,1.25-1.1,2.35-2.14,3.14-1.03.79-2.29,1.22-3.59,1.23-1.3,0-2.57-.4-3.61-1.18-1.04-.77-1.81-1.86-2.18-3.11-.37-1.25-.33-2.58.12-3.8.45-1.22,1.28-2.26,2.38-2.96.35-.22.45-.69.22-1.04-.22-.35-.69-.45-1.04-.22-1.37.88-2.41,2.18-2.97,3.7-.56,1.52-.62,3.19-.15,4.74.46,1.56,1.42,2.92,2.73,3.89,1.31.97,2.89,1.48,4.51,1.47,1.62-.01,3.2-.55,4.49-1.53,1.29-.98,2.23-2.36,2.67-3.92.44-1.56.37-3.23-.22-4.74Z" fill="currentColor" />
</svg>