<svg xmlns="http://www.w3.org/2000/svg" viewBox="0 0 16 16" width="16" height="16">
  <path d="m6.98,4.5c-.06-1.33-.35-2.48-.76-3.3-.49-.98-.98-1.2-1.23-1.2s-.74.23-1.23,1.2c-.41.82-.7,1.97-.76,3.3h3.98Zm-3.22,4.3c.11.21.21.39.32.53.17-.45.34-.9.51-1.36h0c.12-.32.34-.59.66-.76.23-.12.48-.19.75-.19s.52.06.76.19c.12-.53.2-1.11.22-1.73h-3.98c.06,1.33.35,2.48.76,3.3ZM3.07.38C1.41,1.07.2,2.63.01,4.5h1.99c.07-1.66.47-3.12,1.08-4.12ZM.01,5.5c.19,1.87,1.4,3.43,3.06,4.12-.6-1-1.01-2.47-1.08-4.12H.01Zm9.95-1c-.19-1.87-1.4-3.43-3.06-4.12.6,1,1.01,2.47,1.08,4.12h1.99Zm5.88,1.65c-.1-.1-.22-.15-.35-.15h-3v-.27c0-.09,0-.17-.02-.26-.01-.09-.03-.17-.07-.23-.03-.07-.08-.13-.15-.17-.06-.05-.15-.07-.27-.07s-.21.02-.27.07c-.07.04-.12.1-.16.17-.03.07-.05.15-.06.23-.01.08-.02.17-.02.26v.14s0,.08,0,.12h-3c-.14,0-.25.05-.35.15s-.15.22-.15.35v1.5c0,.14.05.25.15.35s.22.15.35.15.25-.05.35-.15.15-.22.15-.35v-1h6v1c0,.14.05.25.15.35.1.1.22.15.35.15s.25-.05.35-.15c.1-.1.15-.22.15-.35v-1.5c0-.14-.05-.25-.15-.35Zm-.35,3.85h-2.4l.81-1.23c.06-.08.09-.17.09-.27,0-.14-.05-.25-.15-.35-.1-.1-.22-.15-.35-.15h-3c-.14,0-.25.05-.35.15-.1.1-.15.22-.15.35s.05.25.15.35c.1.1.22.15.35.15h2.06c-.04.06-.09.13-.15.21s-.12.17-.19.27-.12.19-.16.28c-.04.09-.06.17-.06.24h-2.5c-.14,0-.25.05-.35.15-.1.1-.15.22-.15.35s.05.25.15.35c.1.1.22.15.35.15h2.5v2h-.27c-.09,0-.18,0-.27.02-.08.01-.16.03-.23.07-.07.03-.12.08-.17.15-.04.06-.06.15-.06.27,0,.14.05.25.15.35.1.1.22.15.35.15h.5c.14,0,.27-.03.39-.08.12-.05.22-.12.31-.21.09-.09.17-.2.22-.32.05-.12.08-.25.08-.39v-2h2.5c.14,0,.25-.05.35-.15.1-.1.15-.22.15-.35s-.05-.25-.15-.35c-.1-.1-.22-.15-.35-.15Zm-7.53,2.34c-.26-.67-.51-1.34-.76-2.01s-.49-1.34-.74-2.01c-.04-.1-.1-.17-.19-.22s-.18-.07-.28-.07-.19.02-.28.07-.15.12-.19.22c-.25.67-.5,1.34-.75,2.01-.24.67-.49,1.34-.75,2.01l-.75,1.98s-.03.11-.03.18c0,.14.05.25.15.35.1.1.22.15.35.15.1,0,.2-.03.28-.09.09-.06.15-.14.19-.24l.62-1.67h2.31l.62,1.67c.04.1.1.18.18.24.09.06.18.09.29.09.14,0,.26-.05.35-.14.1-.1.15-.22.15-.36,0-.07-.01-.13-.03-.18l-.75-1.98Zm-2.75-.34l.78-2.08.78,2.08h-1.56Z" fill="currentColor" />
</svg>