<svg xmlns="http://www.w3.org/2000/svg" viewBox="0 0 16 16" width="16" height="16">
  <path d="m1,13.06V4.48c0-.21.13-.39.32-.47L9.32,1.03c.33-.12.68.12.68.47v.47l1-.37v-.09c0-1.04-1.05-1.76-2.03-1.4L.97,3.08c-.59.22-.97.78-.97,1.4v8.58c0,1.04,1.05,1.76,2.03,1.4l1.97-.74v-1.06l-2.32.87c-.33.12-.68-.12-.68-.47ZM13.97,1.54l-8,2.99c-.59.22-.97.78-.97,1.4v8.58c0,1.04,1.05,1.76,2.03,1.4l8-2.99c.59-.22.97-.78.97-1.4V2.94c0-1.04-1.05-1.76-2.03-1.4Zm1.03,9.98c0,.21-.13.39-.32.47l-8,2.99c-.33.12-.68-.12-.68-.47V5.93c0-.21.13-.39.32-.47l8-2.99c.33-.12.68.12.68.47v8.58Z" fill="#000000" />
</svg>