<svg xmlns="http://www.w3.org/2000/svg" viewBox="0 0 16 16" width="16" height="16">
  <path d="m1.5,2c-.83,0-1.5.67-1.5,1.5s.67,1.5,1.5,1.5,1.5-.67,1.5-1.5-.67-1.5-1.5-1.5Zm14.5,2.25c0-.41-.34-.75-.75-.75H5.75c-.41,0-.75.34-.75.75s.34.75.75.75h9.5c.41,0,.75-.34.75-.75Zm-3.61,3.3c-.37-.74-1.42-.74-1.79,0l-3.5,7c-.33.67.15,1.45.9,1.45h7c.74,0,1.23-.78.9-1.45l-3.5-7Zm-.9,7.45c-.28,0-.5-.22-.5-.5s.22-.5.5-.5.5.22.5.5-.22.5-.5.5Zm.5-2.5c0,.28-.22.5-.5.5s-.5-.22-.5-.5v-3c0-.28.22-.5.5-.5s.5.22.5.5v3Z" fill="currentColor" />
</svg>