<svg xmlns="http://www.w3.org/2000/svg" viewBox="0 0 16 16" width="16" height="16">
  <path d="m8,1c-1.86,0-3.64.74-4.95,2.05-1.31,1.31-2.05,3.09-2.05,4.95s.74,3.64,2.05,4.95c1.31,1.31,3.09,2.05,4.95,2.05s3.64-.74,4.95-2.05c1.31-1.31,2.05-3.09,2.05-4.95s-.74-3.64-2.05-4.95c-1.31-1.31-3.09-2.05-4.95-2.05Zm1.85,12.71h-.05s-.08,0-.12-.02c-.04-.01-.07-.04-.1-.06-.03-.03-.05-.06-.06-.1-.01-.04-.02-.08-.02-.12v-.82c0-.27,0-.55,0-.83,0-.2-.03-.4-.09-.6-.05-.2-.16-.37-.32-.51.41-.04.81-.13,1.19-.27.32-.12.61-.31.86-.56.24-.25.41-.55.52-.88.12-.4.18-.82.18-1.24,0-.29-.05-.59-.15-.86-.1-.28-.26-.53-.46-.75.04-.11.08-.22.09-.34.02-.12.03-.23.03-.35,0-.15-.02-.3-.05-.45-.03-.15-.07-.3-.13-.45-.02,0-.04-.01-.06-.01h-.06c-.13,0-.27.02-.39.06-.14.04-.28.09-.41.15-.13.06-.26.13-.39.2-.13.07-.24.15-.33.21-.98-.27-2.02-.27-3,0-.11-.07-.22-.14-.33-.21-.13-.07-.26-.14-.39-.2-.13-.06-.27-.11-.41-.15-.12-.04-.25-.06-.39-.06h-.06s-.04,0-.06.01c-.05.15-.1.29-.13.45-.03.15-.05.3-.05.45,0,.12,0,.24.03.35.02.12.05.23.09.34-.2.22-.36.47-.46.75-.1.28-.16.57-.15.86,0,.42.05.84.17,1.24.11.33.28.63.52.88.24.25.53.44.86.56.38.15.78.24,1.19.28-.11.1-.2.23-.26.37-.06.14-.1.28-.12.43-.21.1-.45.16-.69.16-.22,0-.44-.05-.62-.18-.18-.13-.32-.29-.44-.48-.05-.08-.11-.15-.17-.22-.07-.07-.14-.14-.22-.2-.08-.06-.16-.1-.25-.14-.09-.04-.18-.06-.28-.06-.02,0-.05,0-.07,0-.03,0-.06,0-.09.01-.03,0-.05.02-.08.03-.01,0-.02.01-.03.02,0,.01,0,.02,0,.03,0,.03.01.06.03.08.01.02.03.05.06.06.05.04.1.08.14.1h.02c.08.07.15.14.22.21.07.06.12.12.17.19.05.07.1.14.13.22.04.08.09.17.13.27.11.28.3.51.56.67.26.14.56.21.86.2.1,0,.2,0,.3-.02.1-.02.2-.03.3-.05v1.02s0,.08-.02.12c-.02.04-.04.07-.07.1-.03.03-.06.05-.1.07-.04.01-.08.02-.12.02h-.04c-1.36-.44-2.52-1.35-3.27-2.57-.75-1.22-1.04-2.66-.82-4.08.22-1.41.94-2.7,2.03-3.63,1.09-.93,2.47-1.44,3.9-1.44s2.81.51,3.9,1.44c1.09.93,1.81,2.22,2.03,3.63.22,1.41-.07,2.86-.82,4.08-.75,1.22-1.91,2.13-3.27,2.57h0Z" fill="#000000" />
</svg>