<svg xmlns="http://www.w3.org/2000/svg" viewBox="0 0 16 16" width="16" height="16">
  <path d="m12.5,5.5c-.55,0-1,.45-1,1s.45,1,1,1,1-.45,1-1-.45-1-1-1Zm1-2.5h-5.79l-1.49-1.49c-.33-.33-.77-.51-1.24-.51h-2.48C1.12,1,0,2.12,0,3.5v9c0,.56.19,1.08.5,1.5v.21l.09-.09c.46.54,1.14.88,1.91.88h11c1.38,0,2.5-1.12,2.5-2.5v-7c0-1.38-1.12-2.5-2.5-2.5ZM1,3.5c0-.83.67-1.5,1.5-1.5h2.48c.2,0,.39.08.53.22l1.28,1.28-1.35,1.35c-.09.09-.22.15-.35.15H1v-1.5Zm1.5,10.5c-.49,0-.92-.23-1.2-.6l3.99-3.99c.39-.39,1.02-.39,1.41,0l4.59,4.59H2.5Zm12.5-1.5c0,.83-.67,1.5-1.5,1.5h-.79l-5.29-5.29c-.78-.78-2.05-.78-2.83,0l-3.59,3.59v-6.29h4.09c.4,0,.78-.16,1.06-.44l1.56-1.56h5.79c.83,0,1.5.67,1.5,1.5v7Z" fill="currentColor" />
</svg>