<svg xmlns="http://www.w3.org/2000/svg" viewBox="0 0 16 16" width="16" height="16">
  <path d="m6.5,2h-1c-.28,0-.5.22-.5.5v1c0,.28.22.5.5.5h1c.28,0,.5-.22.5-.5v-1c0-.28-.22-.5-.5-.5Zm4,0h-1c-.28,0-.5.22-.5.5v1c0,.28.22.5.5.5h1c.28,0,.5-.22.5-.5v-1c0-.28-.22-.5-.5-.5Zm-5,7h5c.28,0,.5-.22.5-.5s-.22-.5-.5-.5h-5c-.28,0-.5.22-.5.5s.22.5.5.5Zm0,4h5c.28,0,.5-.22.5-.5s-.22-.5-.5-.5h-5c-.28,0-.5.22-.5.5s.22.5.5.5ZM11,0h-6c-1.66,0-3,1.34-3,3v10c0,1.66,1.34,3,3,3h6c1.66,0,3-1.34,3-3V3c0-1.66-1.34-3-3-3Zm2,13c0,1.1-.9,2-2,2h-6c-1.1,0-2-.9-2-2v-7h10v7Zm0-8H3v-2c0-1.1.9-2,2-2h6c1.1,0,2,.9,2,2v2Z" fill="#000000" />
</svg>