<svg xmlns="http://www.w3.org/2000/svg" viewBox="0 0 16 16" width="16" height="16">
  <path d="m0,5c0-1.66,1.34-3,3-3h9c1.66,0,3,1.34,3,3v2.26c-.95-.79-2.17-1.26-3.5-1.26-3.04,0-5.5,2.46-5.5,5.5,0,.9.22,1.75.6,2.5h-3.6c-1.66,0-3-1.34-3-3v-6Zm7,6.5c0,2.49,2.01,4.5,4.5,4.5s4.5-2.01,4.5-4.5-2.01-4.5-4.5-4.5-4.5,2.01-4.5,4.5Zm6.5-3c.28,0,.5.22.5.5v1.5c0,.28-.22.5-.5.5h-1.5c-.28,0-.5-.22-.5-.5s.22-.5.5-.5h.47c-.05-.03-.1-.05-.15-.08-.25-.11-.51-.17-.78-.17-.27,0-.54.04-.78.15-.25.1-.48.25-.67.44s-.51.2-.71,0c-.2-.2-.2-.51,0-.71.28-.28.62-.51,1-.66.37-.15.77-.23,1.18-.22.4,0,.8.1,1.17.26.1.04.19.09.28.14v-.15c0-.28.22-.5.5-.5Zm-.88,5.53c-.37.15-.77.23-1.18.22-.4,0-.8-.1-1.17-.26-.1-.04-.19-.09-.28-.14v.15c0,.28-.22.5-.5.5s-.5-.22-.5-.5v-1.5c0-.28.22-.5.5-.5h1.5c.28,0,.5.22.5.5s-.22.5-.5.5h-.47c.05.03.1.05.15.08.25.11.51.17.78.17.27,0,.54-.04.78-.15.25-.1.48-.25.67-.44s.51-.2.71,0c.2.2.2.51,0,.71-.28.28-.62.51-1,.66Z" fill="currentColor" />
</svg>