<svg xmlns="http://www.w3.org/2000/svg" viewBox="0 0 16 16" width="16" height="16">
  <path d="m7.5,7.5c-.55,0-1,.45-1,1s.45,1,1,1,1-.45,1-1-.45-1-1-1Zm3-2.5h-.5v-.5c0-1.38-1.12-2.5-2.5-2.5s-2.5,1.12-2.5,2.5v.5h-.5c-.83,0-1.5.67-1.5,1.5v4c0,.83.67,1.5,1.5,1.5h6c.83,0,1.5-.67,1.5-1.5v-4c0-.83-.67-1.5-1.5-1.5Zm-4.5-.5c0-.83.67-1.5,1.5-1.5s1.5.67,1.5,1.5v.5h-3v-.5Zm5,6c0,.28-.22.5-.5.5h-6c-.28,0-.5-.22-.5-.5v-4c0-.28.22-.5.5-.5h6c.28,0,.5.22.5.5v4ZM12,0H3C1.34,0,0,1.34,0,3v9c0,1.66,1.34,3,3,3h9c1.66,0,3-1.34,3-3V3c0-1.66-1.34-3-3-3Zm2,12c0,1.1-.9,2-2,2H3c-1.1,0-2-.9-2-2V3c0-1.1.9-2,2-2h9c1.1,0,2,.9,2,2v9Z" fill="currentColor" />
</svg>