<svg xmlns="http://www.w3.org/2000/svg" viewBox="0 0 16 16" width="16" height="16">
  <path d="m8,2.5c2.82,0,4.41,1.92,4.65,4.25h.07c1.81,0,3.28,1.51,3.28,3.38s-1.47,3.38-3.28,3.38H3.28c-1.81,0-3.28-1.51-3.28-3.38s1.37-3.28,3.1-3.37h.25c.23-2.34,1.83-4.25,4.65-4.25Zm0,1c-2.11,0-3.45,1.32-3.65,3.35-.05.51-.48.9-1,.9h-.07c-1.25,0-2.28,1.06-2.28,2.38s1.03,2.38,2.28,2.38h9.44c1.25,0,2.28-1.06,2.28-2.38s-1.03-2.38-2.28-2.38h-.07c-.51,0-.94-.39-1-.9-.2-2.02-1.54-3.35-3.65-3.35Z" fill="currentColor" />
</svg>