<svg xmlns="http://www.w3.org/2000/svg" viewBox="0 0 16 16" width="16" height="16">
  <path d="m5.41,1.22c.06.26.09.53.09.8l-.02,3.36c0,.92-.38,1.8-1.03,2.45l-1.73,1.72,1.52,1.51c.59.59,1.54.59,2.13,0l4.67-4.65c.28-.28.44-.65.44-1.05l.02-3.36c0-.83-.67-1.51-1.51-1.51h-3.25c-.4.02-.78.17-1.06.45l-.27.27Z" fill="#FFFFFF" />
  <path d="m9.99,0h-3.25c-.53.02-1.04.23-1.41.6l-.08.08c.15.36.23.75.25,1.16l.54-.54c.19-.19.44-.29.7-.29h3.25c.56-.02,1.01.44,1.01.99l-.02,3.36c0,.26-.11.51-.29.7l-4.67,4.65c-.39.39-1.03.39-1.42,0l-1.52-1.51-.71.71,1.52,1.51c.78.78,2.05.78,2.84,0l4.67-4.65c.37-.37.58-.87.59-1.4l.02-3.36C12.01.9,11.1,0,9.99,0Zm.01,3c0-.55-.45-1-1-1s-1,.45-1,1,.45,1,1,1,1-.45,1-1Z" fill="#000000" />
</svg>