<svg xmlns="http://www.w3.org/2000/svg" viewBox="0 0 16 16" width="16" height="16">
  <path d="m.85.15C.66-.05.34-.05.15.15-.05.34-.05.66.15.85l3.5,3.5C1.97,5.49.72,7.27.28,9.4c-.06.27.12.54.39.59.27.06.54-.12.59-.39.4-1.94,1.56-3.54,3.11-4.53l1.58,1.58c-.88.64-1.46,1.67-1.46,2.84,0,1.93,1.57,3.5,3.5,3.5,1.17,0,2.21-.58,2.84-1.46l4.31,4.31c.2.2.51.2.71,0,.2-.2.2-.51,0-.71L.85.15Zm7.27,5.86l3.36,3.36c-.07-1.83-1.54-3.29-3.36-3.36Zm-2.59-2.59l.8.8c.54-.14,1.1-.21,1.67-.21,3.21,0,6.06,2.33,6.74,5.6.06.27.32.44.59.39.27-.06.44-.32.39-.59-.78-3.72-4.03-6.4-7.72-6.4-.86,0-1.69.14-2.47.41Z" fill="currentColor" />
</svg>