<svg xmlns="http://www.w3.org/2000/svg" viewBox="0 0 16 16" width="16" height="16">
  <path d="m11.99,5c.55,0,1-.45,1-1s-.45-1-1-1-1,.45-1,1,.45,1,1,1ZM9.12,0c-.53,0-1.05.21-1.43.58L1.01,7.25c-.78.78-.78,2.05,0,2.83l4.95,4.95c.78.78,2.05.78,2.83,0l6.63-6.63c.38-.38.59-.89.59-1.42V2.03c0-1.1-.9-1.99-1.99-2L9.12,0Zm-.72,1.29c.19-.19.45-.29.71-.29l4.89.03c.55,0,.99.45.99,1v4.95c0,.27-.1.52-.29.71l-6.63,6.63c-.39.39-1.02.39-1.41,0L1.71,9.37c-.39-.39-.39-1.02,0-1.42L8.4,1.29Z" fill="currentColor" />
</svg>