<svg xmlns="http://www.w3.org/2000/svg" viewBox="0 0 16 16" width="16" height="16">
  <path d="m0,3C0,1.34,1.34,0,3,0h9c1.66,0,3,1.34,3,3v9c0,1.66-1.34,3-3,3H3c-1.66,0-3-1.34-3-3V3ZM3,1c-1.1,0-2,.9-2,2v9c0,1.1.9,2,2,2h9c1.1,0,2-.9,2-2V3c0-1.1-.9-2-2-2H3Z" fill="#000000" />
  <path d="m10.85,4.15c-.2-.2-.51-.2-.71,0l-2.65,2.65-2.65-2.65c-.2-.2-.51-.2-.71,0-.2.2-.2.51,0,.71l2.65,2.65-2.65,2.65c-.2.2-.2.51,0,.71.2.2.51.2.71,0l2.65-2.65,2.65,2.65c.2.2.51.2.71,0,.2-.2.2-.51,0-.71l-2.65-2.65,2.65-2.65c.2-.2.2-.51,0-.71Z" fill="#0078D7" />
</svg>