<svg xmlns="http://www.w3.org/2000/svg" viewBox="0 0 16 16" width="16" height="16">
  <path d="m.47,9.03c-.29-.29-.29-.77,0-1.06l1.75-1.75c.29-.29.77-.29,1.06,0l1.75,1.75c.29.29.29.77,0,1.06-.29.29-.77.29-1.06,0l-.43-.43c.29,2.2,2.18,3.9,4.46,3.9,1.39,0,2.63-.63,3.46-1.62.27-.32.74-.36,1.06-.1.32.27.36.74.1,1.06-1.1,1.32-2.76,2.16-4.61,2.16-3.13,0-5.7-2.4-5.98-5.46l-.49.49c-.29.29-.77.29-1.06,0Zm3.02-3.82c-.32-.27-.36-.74-.1-1.06,1.1-1.32,2.76-2.16,4.61-2.16,3.13,0,5.7,2.4,5.98,5.46l.49-.49c.29-.29.77-.29,1.06,0,.29.29.29.77,0,1.06l-1.75,1.75c-.14.14-.33.22-.53.22s-.39-.08-.53-.22l-1.75-1.75c-.29-.29-.29-.77,0-1.06.29-.29.77-.29,1.06,0l.43.43c-.29-2.2-2.18-3.9-4.46-3.9-1.39,0-2.63.63-3.46,1.62-.27.32-.74.36-1.06.1Z" fill="currentColor" />
</svg>