<svg xmlns="http://www.w3.org/2000/svg" viewBox="0 0 16 16" width="16" height="16">
  <path d="m9,4c-.55,0-1-.45-1-1s.45-1,1-1,1,.45,1,1-.45,1-1,1ZM.59,8.14c-.78-.78-.78-2.04,0-2.82L5.33.6C5.7.23,6.21.02,6.74.01h3.25c1.12-.02,2.02.89,2.01,2l-.02,3.36c0,.52-.21,1.03-.59,1.4l-4.67,4.65c-.78.78-2.05.78-2.84,0l-3.3-3.28Zm.71-2.12c-.39.39-.39,1.02,0,1.41l3.3,3.28c.39.39,1.03.39,1.42,0l4.67-4.65c.19-.19.29-.44.29-.7l.02-3.36c0-.56-.45-1.01-1.01-1h-3.25c-.26.01-.52.12-.7.31L1.3,6.02Z" fill="currentColor" />
</svg>