<svg xmlns="http://www.w3.org/2000/svg" viewBox="0 0 16 16" width="16" height="16">
  <path d="m2.5,2h5v1H2.5c-.83,0-1.5.67-1.5,1.5v6c0,.83.67,1.5,1.5,1.5h5v1H2.5c-1.38,0-2.5-1.12-2.5-2.5v-6c0-1.38,1.12-2.5,2.5-2.5Zm10,10h-2v1h2c1.38,0,2.5-1.12,2.5-2.5v-6c0-1.38-1.12-2.5-2.5-2.5h-2v1h2c.83,0,1.5.67,1.5,1.5v6c0,.83-.67,1.5-1.5,1.5Z" fill="#000000" />
  <path d="m7.5,0c-.28,0-.5.22-.5.5s.22.5.5.5h1v13h-1c-.28,0-.5.22-.5.5s.22.5.5.5h3c.28,0,.5-.22.5-.5s-.22-.5-.5-.5h-1V1h1c.28,0,.5-.22.5-.5s-.22-.5-.5-.5h-3Z" fill="#0078D7" />
</svg>