<svg xmlns="http://www.w3.org/2000/svg" viewBox="0 0 16 16" width="16" height="16">
  <path d="m4.79,13.15l3.69-3.69c.66-.66,1.03-1.55,1.03-2.48V2.03c0-.55-.14-1.07-.36-1.53l4.86.03c.82,0,1.49.67,1.49,1.5v4.95c0,.4-.15.78-.43,1.06l-6.63,6.63c-.59.59-1.54.59-2.12,0l-1.52-1.52Z" fill="#FFFFFF" />
  <path d="m15.99,2.03c0-1.1-.89-1.99-1.99-2L9.12,0c-.09,0-.18,0-.26.02.21.3.38.63.49.99l4.66.03c.55,0,.99.45.99,1v4.95c0,.27-.1.52-.29.71l-6.63,6.63c-.39.39-1.02.39-1.41,0l-1.52-1.52-.71.71,1.52,1.52c.78.78,2.05.78,2.83,0l6.63-6.63c.38-.38.59-.89.59-1.42V2.03Zm-3.01,1.97c0-.55-.45-1-1-1s-1,.45-1,1,.45,1,1,1,1-.45,1-1Z" fill="#000000" />
</svg>