<svg xmlns="http://www.w3.org/2000/svg" viewBox="0 0 16 16" width="16" height="16">
  <path d="m4.08,4.08c-1.89,1.12-3.32,3.02-3.8,5.32-.06.27.12.54.39.59.27.06.54-.12.59-.39.44-2.12,1.79-3.84,3.56-4.79l-.73-.73Zm11.64,5.32c-.78-3.72-4.03-6.4-7.72-6.4-.85,0-1.68.14-2.47.41l.8.8c.54-.14,1.09-.21,1.66-.21,3.21,0,6.06,2.33,6.74,5.6.06.27.32.44.59.39.27-.06.44-.32.39-.59Zm-7.72,2.6c-1.38,0-2.5-1.12-2.5-2.5,0-1.08.69-2,1.65-2.35l-.76-.76c-1.12.58-1.89,1.76-1.89,3.11,0,1.93,1.57,3.5,3.5,3.5,1.35,0,2.53-.77,3.11-1.89l-.76-.76c-.35.96-1.27,1.65-2.35,1.65Zm.13-6l3.37,3.37c-.07-1.83-1.54-3.3-3.37-3.37Z" fill="#000000" opacity="0.4" />
  <path d="m.15.15C.34-.05.66-.05.85.15l15,15c.2.2.2.51,0,.71-.2.2-.51.2-.71,0L.15.85C-.05.66-.05.34.15.15Z" fill="#000000" />
</svg>