<svg xmlns="http://www.w3.org/2000/svg" viewBox="0 0 16 16" width="16" height="16">
  <path d="m11.99,4.5c0-.28-.22-.5-.5-.5-.02,0-2.3-.53-3.64-1.86-.19-.19-.52-.19-.71,0-1.32,1.33-3.64,1.86-3.64,1.86-.28,0-.5.22-.5.5v.7c-.03,2.45-.08,6.29,4.35,7.76.05.03.11.03.16.03h-.02c.06.01.11,0,.16-.02,4.44-1.49,4.38-5.34,4.34-7.79v-.68Zm-4.48,7.47c-3.59-1.28-3.54-4.42-3.5-6.77v-.22c.78-.07,2.3-.85,3.5-1.81,1.19.96,2.72,1.74,3.5,1.81v.22c.04,2.35.09,5.5-3.5,6.77ZM12,0H3C1.34,0,0,1.34,0,3v9c0,1.66,1.34,3,3,3h9c1.66,0,3-1.34,3-3V3c0-1.66-1.34-3-3-3Zm2,12c0,1.1-.9,2-2,2H3c-1.1,0-2-.9-2-2V3c0-1.1.9-2,2-2h9c1.1,0,2,.9,2,2v9Z" fill="currentColor" />
</svg>