<svg xmlns="http://www.w3.org/2000/svg" viewBox="0 0 16 16" width="16" height="16">
  <path d="m3.34,4.22c-.17.21-.14.53.07.7.21.17.53.14.7-.07.92-1.13,2.32-1.85,3.88-1.85,2.69,0,4.88,2.13,5,4.79l-.64-.64c-.2-.2-.51-.2-.71,0-.2.2-.2.51,0,.71l1.5,1.5c.09.09.22.15.35.15s.26-.05.35-.15l1.5-1.5c.2-.2.2-.51,0-.71-.2-.2-.51-.2-.71,0l-.65.65c-.11-3.22-2.75-5.8-6-5.8-1.88,0-3.56.87-4.66,2.22Zm-2.69,3.92c-.2.2-.2.51,0,.71.2.2.51.2.71,0l.65-.65c.11,3.22,2.75,5.8,6,5.8,1.88,0,3.56-.87,4.66-2.22.17-.21.14-.53-.07-.7-.21-.17-.53-.14-.7.07-.92,1.13-2.32,1.85-3.88,1.85-2.69,0-4.88-2.13-5-4.79l.64.64c.2.2.51.2.71,0,.2-.2.2-.51,0-.71l-1.5-1.5c-.2-.2-.51-.2-.71,0l-1.5,1.5Z" fill="currentColor" />
</svg>