<svg xmlns="http://www.w3.org/2000/svg" viewBox="0 0 16 16" width="16" height="16">
  <path d="m7.55,1.22c.18-.37.71-.37.9,0l2.03,4.11.13.02,4.41.64c.41.06.57.56.28.85l-.94.92-.04-.04c-1.21-1.21-3.26-.87-4.02.67l-.8,1.65-1.1.38c-1.23.42-1.69,1.85-1.08,2.89l-3.38,1.78c-.37.19-.8-.12-.73-.53l.78-4.52L.7,6.85c-.3-.29-.13-.79.28-.85l4.54-.66L7.55,1.22Z" fill="#FFFFFF" />
  <path d="m8.9.9c-.37-.74-1.43-.74-1.79,0l-1.93,3.91-4.32.63c-.82.12-1.15,1.13-.55,1.71l3.12,3.04-.74,4.3c-.14.82.72,1.44,1.45,1.05l3.47-1.83c-.25-.26-.41-.56-.5-.87l-3.44,1.81.74-4.3c.06-.32-.05-.66-.29-.89l-3.12-3.04,4.32-.63c.33-.05.61-.25.75-.55l1.93-3.91,1.93,3.91c.15.3.43.5.75.55l4.32.63-1.04,1.01c.12.09.24.18.35.3l.38.38,1-.97c.59-.58.27-1.59-.55-1.71l-4.32-.63-1.93-3.91Z" fill="#000000" />
  <path d="m15.54,10.37l-1.93-1.93c-.73-.73-1.96-.52-2.41.4l-.8,1.65c-.12.24-.32.42-.57.51l-1.1.38c-.7.24-.9,1.13-.38,1.65l.95.95-1.29,1.29v.71h.71l1.29-1.29.95.95c.52.52,1.41.32,1.65-.38l.38-1.1c.09-.25.27-.46.51-.57l1.65-.8c.93-.45,1.13-1.68.4-2.41Z" fill="#0078D7" />
</svg>