<svg xmlns="http://www.w3.org/2000/svg" viewBox="0 0 16 16" width="16" height="16">
  <path d="m.98,6c-.41.06-.57.56-.28.85l3.29,3.2-.78,4.52c-.07.41.36.72.73.53l3.38-1.78c-.61-1.05-.15-2.47,1.08-2.89l1.1-.38.18-.37-4.32-4.32-4.38.64Zm14.04,0l-4.41-.64-.13-.02-2.03-4.11c-.18-.37-.71-.37-.9,0l-1.39,2.82,4.22,4.22c.81-1.42,2.76-1.7,3.94-.53l.04.04.94-.92c.3-.29.13-.79-.28-.85Z" fill="#FFFFFF" />
  <path d="m10.4,10.49c-.12.24-.32.42-.57.51l-1.1.38c-.7.24-.9,1.13-.38,1.65l.95.95-1.29,1.29v.71h.71l1.29-1.29.95.95c.52.52,1.41.32,1.65-.38l.38-1.1c.09-.25.27-.46.51-.57l.06-.03-3.12-3.12-.03.06Zm5.14-.12l-1.93-1.93c-.73-.73-1.96-.52-2.41.4l-.08.16,3.85,3.85.16-.08c.93-.45,1.13-1.68.4-2.41Z" fill="#000000" opacity="0.4" />
  <path d="m3.67,14.65l.74-4.3c.06-.32-.05-.66-.29-.89l-3.12-3.04,4.32-.63c.13-.02.25-.06.36-.12l-.82-.82-4,.58c-.82.12-1.15,1.13-.55,1.71l3.12,3.04-.74,4.3c-.14.82.72,1.44,1.45,1.05l3.47-1.83c-.25-.26-.41-.56-.5-.87l-3.44,1.81ZM15.14,5.44l-4.32-.63-1.93-3.91c-.37-.74-1.43-.74-1.79,0l-1.35,2.74.75.75,1.5-3.04,1.93,3.91c.15.3.43.5.75.55l4.32.63-1.04,1.01c.12.09.24.18.35.3l.38.38,1-.97c.59-.58.27-1.59-.55-1.71Z" fill="#000000" />
  <path d="m.15.15C.34-.05.66-.05.85.15l15,15c.2.2.2.51,0,.71-.2.2-.51.2-.71,0C7.12,7.82,3.98,4.68.15.85-.05.66-.05.34.15.15Z" fill="#0078D7" />
</svg>