<svg xmlns="http://www.w3.org/2000/svg" viewBox="0 0 16 16" width="16" height="16">
  <path d="m13.5,3.5H.5v7.75c0,1.24,1.01,2.25,2.25,2.25h3.63c-.25-.63-.38-1.31-.38-2,0-1.46.58-2.86,1.61-3.89s2.43-1.61,3.89-1.61c.69,0,1.37.13,2,.38v-2.88Z" fill="#FFFFFF" />
  <path d="m14,2.5c0-1.38-1.12-2.5-2.5-2.5H2.5C1.12,0,0,1.12,0,2.5v9c0,1.38,1.12,2.5,2.5,2.5h4.1c-.16-.32-.29-.65-.39-1h-3.71c-.83,0-1.5-.67-1.5-1.5v-7.5h12v2.21c.35.1.68.23,1,.39V2.5ZM2.5,1h9c.83,0,1.5.67,1.5,1.5v.5H1v-.5c0-.83.67-1.5,1.5-1.5Z" fill="#000000" />
  <path d="m7,11.5c0-1.19.47-2.34,1.32-3.18.84-.84,1.99-1.32,3.18-1.32s2.34.47,3.18,1.32c.84.84,1.32,1.99,1.32,3.18s-.47,2.34-1.32,3.18-1.99,1.32-3.18,1.32-2.34-.47-3.18-1.32c-.84-.84-1.32-1.99-1.32-3.18Z" fill="#0078D7" />
  <path d="m11.5,9c.13,0,.26.05.35.15.09.09.15.22.15.35v1.5h1.5c.13,0,.26.05.35.15.09.09.15.22.15.35s-.05.26-.15.35c-.09.09-.22.15-.35.15h-1.5v1.5c0,.13-.05.26-.15.35-.09.09-.22.15-.35.15s-.26-.05-.35-.15c-.09-.09-.15-.22-.15-.35v-1.5h-1.5c-.13,0-.26-.05-.35-.15-.09-.09-.15-.22-.15-.35s.05-.26.15-.35c.09-.09.22-.15.35-.15h1.5v-1.5c0-.13.05-.26.15-.35.09-.09.22-.15.35-.15Z" fill="#FFFFFF" />
</svg>