<svg xmlns="http://www.w3.org/2000/svg" viewBox="0 0 16 16" width="16" height="16">
  <path d="m8,.5c-.2,0-.4,0-.6.02-.2.01-.4.03-.59.06l-.36.05-.06.36c-.05.26-.09.52-.13.78-.04.25-.09.49-.14.74h0c-.04.19-.1.35-.18.5-.09.15-.19.27-.31.37-.12.1-.26.19-.42.25-.15.05-.31.08-.49.08s-.34-.03-.49-.09l-.08-.03h0l-1.44-.53h-.34l-.15.19c-.25.31-.48.64-.69.99-.21.34-.39.71-.53,1.09l-.03.09v.33l1.37,1.17h0c.16.14.28.3.37.49h0c.09.19.13.39.13.6s-.05.41-.14.6h0c-.09.2-.21.36-.37.5l-1.36,1.13v.24c0,.06.01.11.01.11,0,.02,0,.03,0,.03,0,.01,0,.03.01.04,0,.02.02.05.03.08h0s0,.01,0,.01c.01.03.02.06.03.08,0,0,0,.02.02.03.13.33.29.66.47.97h0c.19.32.4.62.63.91l.15.19h.33l1.55-.56c.15-.05.31-.08.47-.08.27,0,.51.06.73.19h0c.18.11.33.24.45.41h0c.12.18.2.37.24.58l.33,1.87.35.06c.4.07.81.1,1.22.1.2,0,.39,0,.59-.02h.01c.2-.02.39-.04.58-.07l.36-.05.06-.35c.02-.12.05-.27.07-.43h0c.03-.17.05-.34.08-.51.03-.17.06-.33.1-.48.03-.15.06-.26.09-.33.11-.3.29-.53.53-.71.23-.17.5-.26.82-.26.08,0,.19.02.35.06h0s0,0,0,0c.17.04.35.1.53.16h0c.19.07.37.13.55.2.19.07.35.14.5.19l.33.12.23-.27c.26-.31.5-.64.7-.99h0c.2-.35.37-.71.52-1.08l.04-.09v-.34l-1.37-1.17h0c-.16-.14-.29-.3-.37-.49-.09-.19-.13-.4-.13-.61s.04-.41.13-.61c.09-.2.22-.36.38-.49l1.36-1.13v-.24c0-.06-.01-.11-.01-.12,0-.02,0-.03-.01-.04,0-.02-.01-.03-.01-.04,0-.02-.02-.04-.03-.07-.01-.03-.02-.06-.03-.08,0-.01-.01-.03-.02-.05-.13-.34-.29-.66-.48-.96-.18-.32-.39-.62-.63-.91l-.15-.19h-.33l-1.55.56c-.15.05-.31.08-.47.08-.27,0-.51-.06-.73-.19h0c-.18-.11-.34-.24-.46-.42-.12-.17-.2-.37-.24-.58l-.33-1.87-.35-.06c-.4-.07-.81-.1-1.22-.1Zm-.97,5.19c.3-.13.62-.19.97-.19s.68.07.97.19c.31.13.57.31.8.53s.4.49.53.8c.13.3.19.62.19.97s-.07.68-.19.97c-.13.31-.31.57-.53.8s-.49.4-.8.53c-.3.13-.62.19-.97.19s-.68-.07-.97-.19c-.31-.13-.57-.31-.8-.53s-.4-.49-.53-.8c-.13-.3-.19-.62-.19-.97s.07-.68.19-.97c.13-.31.31-.57.53-.8.22-.22.49-.4.8-.53Z" fill="#FFFFFF" />
  <path d="m4.7,12.79c-.18,0-.36.03-.54.1-.18.07-.35.14-.53.22-.17.08-.35.15-.52.22-.18.07-.36.1-.54.1-.16,0-.3-.03-.43-.09-.13-.07-.25-.16-.35-.28-.07-.08-.15-.18-.24-.31-.09-.13-.18-.27-.28-.43s-.2-.32-.3-.49c-.1-.18-.19-.35-.27-.51-.07-.17-.13-.32-.18-.47-.05-.15-.07-.27-.07-.37,0-.19.05-.35.14-.5.09-.15.21-.29.34-.41.14-.12.29-.24.45-.35.17-.11.32-.22.45-.34.14-.12.26-.26.35-.39.09-.14.14-.3.14-.48s-.05-.34-.14-.48c-.09-.14-.21-.27-.35-.39-.14-.12-.29-.24-.45-.36-.16-.11-.31-.23-.45-.36-.14-.13-.26-.27-.35-.41s-.14-.31-.14-.5c0-.09.02-.21.07-.36.05-.15.12-.3.2-.47.08-.17.17-.34.27-.51.1-.18.21-.34.3-.5.1-.16.2-.31.3-.44.09-.13.17-.23.24-.3.1-.11.22-.2.35-.27.14-.06.28-.09.43-.09.18,0,.36.03.53.1.17.07.34.14.52.23.17.08.34.15.52.22.18.07.36.1.54.1.23,0,.43-.07.6-.21.17-.15.28-.33.32-.56.05-.26.09-.51.14-.77.05-.26.09-.51.14-.77.04-.22.14-.4.28-.54.15-.14.34-.23.55-.27.21-.04.42-.06.63-.07.21-.02.42-.02.63-.02.22,0,.44,0,.66.02s.43.04.65.09c.22.04.4.13.54.27.14.14.23.32.27.54.05.26.09.51.13.76s.09.5.13.76c.04.22.15.41.32.55.17.15.37.22.6.22.18,0,.36-.03.54-.1.18-.07.35-.14.52-.22.18-.08.35-.15.53-.22.18-.07.36-.1.54-.1.16,0,.3.03.43.1.13.06.25.15.35.27.07.08.15.18.23.31.09.13.19.27.29.43.1.16.2.32.3.5.1.17.18.34.26.51.08.16.14.32.19.46.05.15.07.27.07.37,0,.19-.05.36-.14.51-.09.15-.21.28-.35.41-.14.12-.29.23-.45.34-.16.11-.31.23-.45.35-.14.12-.25.25-.34.39-.09.14-.14.29-.14.48s.05.34.14.48c.09.14.21.27.35.4.14.12.29.24.45.35.16.11.31.24.45.37.14.12.26.26.35.41.09.15.14.31.14.5,0,.1-.03.23-.08.38-.05.14-.11.29-.19.46-.08.17-.17.34-.27.51-.1.17-.2.34-.3.49-.1.16-.2.3-.3.43-.09.13-.17.23-.24.31-.1.11-.22.2-.35.27-.12.06-.26.09-.41.09-.17,0-.35-.03-.53-.1-.18-.07-.35-.14-.53-.22-.18-.08-.35-.16-.53-.23-.18-.07-.35-.1-.52-.1-.23,0-.41.05-.53.14-.12.09-.22.22-.29.37-.07.15-.12.31-.15.49-.03.18-.05.35-.09.52-.03.14-.05.27-.08.4-.02.12-.04.26-.07.39-.04.22-.14.41-.28.55-.15.14-.33.22-.55.27-.21.04-.42.06-.63.08-.21.01-.42.02-.63.02s-.44,0-.66-.02c-.22-.02-.43-.04-.65-.09-.22-.04-.4-.13-.54-.27-.14-.15-.23-.33-.27-.55-.05-.25-.09-.5-.13-.75-.04-.26-.09-.51-.13-.76-.04-.22-.15-.41-.32-.55-.17-.15-.37-.22-.6-.22Zm4.42,2.13c.02-.11.04-.26.07-.42.03-.17.05-.35.09-.52.03-.18.07-.35.1-.51.04-.16.07-.29.11-.39.15-.39.38-.7.7-.94.32-.23.7-.35,1.12-.35.14,0,.3.03.48.08.19.05.38.1.57.17.2.07.39.14.57.21.18.07.34.14.48.19.24-.29.46-.6.65-.92.19-.33.35-.67.49-1.02h0s-1.2-1.02-1.2-1.02c-.22-.18-.39-.4-.51-.66-.12-.26-.18-.53-.18-.82s.06-.56.18-.82c.12-.26.3-.48.52-.66l1.18-.98h0s-.01-.04-.03-.09c-.02-.06-.03-.09-.04-.09-.12-.32-.28-.63-.45-.92-.17-.3-.37-.58-.59-.85h0l-1.47.53c-.21.07-.42.11-.64.11-.35,0-.68-.09-.98-.26-.25-.14-.46-.33-.63-.56-.16-.23-.27-.49-.32-.77l-.27-1.52c-.38-.06-.75-.09-1.13-.09-.19,0-.38,0-.56.02-.19.01-.37.03-.55.05-.05.26-.09.52-.13.77s-.09.51-.15.77c-.05.23-.13.44-.24.64-.11.19-.26.36-.42.5-.17.14-.35.25-.56.34-.21.08-.43.12-.67.12s-.46-.04-.66-.12h0l-1.44-.53h0c-.24.3-.46.61-.65.93-.19.32-.36.65-.49,1.01h0s1.2,1.02,1.2,1.02c.22.18.39.4.51.66.12.26.18.53.18.81s-.06.56-.19.82c-.12.26-.29.48-.51.66l-1.18.98h0s.01.04.03.1c.02.05.03.08.04.09.12.32.27.63.45.93.18.29.38.57.59.84h0l1.47-.53c.21-.07.42-.11.64-.11.35,0,.68.09.98.26.25.14.46.33.62.56.17.23.28.49.33.77l.27,1.52c.38.06.75.09,1.13.09.19,0,.38,0,.56-.02.19-.02.37-.04.55-.06Zm-4.12-6.92c0-.42.08-.81.23-1.17.16-.36.37-.68.64-.95s.59-.48.95-.64c.36-.16.76-.23,1.17-.23s.81.08,1.17.23c.36.16.68.37.95.64.27.27.48.59.64.95.16.36.23.76.23,1.17s-.08.81-.23,1.17c-.16.36-.37.68-.64.95-.27.27-.59.48-.95.64-.36.16-.76.23-1.17.23s-.81-.08-1.17-.23c-.36-.16-.68-.37-.95-.64-.27-.27-.48-.59-.64-.95-.16-.36-.23-.76-.23-1.17Zm5,0c0-.28-.05-.53-.16-.77-.1-.24-.25-.46-.43-.64s-.4-.33-.64-.43c-.24-.1-.5-.16-.77-.16s-.54.05-.78.16c-.24.1-.45.25-.63.43s-.33.4-.43.64c-.1.24-.16.5-.16.77s.05.54.16.78c.1.24.25.45.43.63s.39.33.63.43c.24.1.51.16.78.16s.53-.05.77-.16c.24-.1.46-.25.64-.43s.33-.39.43-.63c.1-.24.16-.51.16-.78Z" fill="#000000" />
</svg>