<svg xmlns="http://www.w3.org/2000/svg" viewBox="0 0 16 16" width="16" height="16">
  <path d="m.5,8c0-1.93,1.57-3.5,3.5-3.5h8c1.93,0,3.5,1.57,3.5,3.5s-1.57,3.5-3.5,3.5H4c-1.93,0-3.5-1.57-3.5-3.5Z" fill="#FFFFFF" />
  <path d="m6,4c.28,0,.5.22.5.5,0,.25-.18.45-.41.49h-.09s-2,0-2,0c-1.66,0-3,1.34-3,3s1.24,2.89,2.8,2.99h.2s2,0,2,0c.28,0,.5.22.5.5,0,.25-.18.45-.41.49h-.09s-2,0-2,0c-2.21,0-4-1.79-4-4s1.67-3.88,3.78-3.99h.22s2,0,2,0Zm6,0c2.21,0,4,1.79,4,4s-1.67,3.88-3.78,3.99h-.22s-2,0-2,0c-.28,0-.5-.22-.5-.5,0-.25.18-.45.41-.49h.09s2,0,2,0c1.66,0,3-1.34,3-3s-1.24-2.89-2.8-2.99h-.2s-2,0-2,0c-.28,0-.5-.22-.5-.5,0-.25.18-.45.41-.49h.09s2,0,2,0Z" fill="#000000" />
  <path d="m4,7.5h8c.28,0,.5.22.5.5,0,.25-.18.45-.41.49h-.09s-8,0-8,0c-.28,0-.5-.22-.5-.5,0-.25.18-.45.41-.49h.09s8,0,8,0H4Z" fill="#0078D7" />
</svg>