<svg xmlns="http://www.w3.org/2000/svg" viewBox="0 0 16 16" width="16" height="16">
  <path d="m5.43,7.75l.53-1.42L3.97.35c-.07-.2-.25-.34-.47-.34-.21,0-.4.13-.48.32L.03,8.33c-.1.26.03.55.29.64.26.1.55-.03.64-.29l.63-1.68h3.56l.28.74Zm-3.46-1.74l1.5-4,1.33,4H1.97Zm12.53,8h-.56L9.47,2.33c-.07-.19-.26-.32-.47-.32-.21,0-.39.13-.47.32l-3,7.99s0,.02,0,.02l-1.37,3.66h-.65c-.28,0-.5.22-.5.5s.22.5.5.5h.99s.02,0,.02,0h.99c.28,0,.5-.22.5-.5s-.22-.5-.5-.5h-.28l1.12-3h5.38l1.15,3h-.37c-.28,0-.5.22-.5.5s.22.5.5.5h1.09s.02,0,.02,0h.89c.28,0,.5-.22.5-.5s-.22-.5-.5-.5Zm-7.78-4l2.28-6.09,2.33,6.09h-4.62Z" fill="currentColor" />
</svg>