<svg xmlns="http://www.w3.org/2000/svg" viewBox="0 0 16 16" width="16" height="16">
  <path d="m10.06,2.44c-.71-.71-1.91-.54-2.39.35l-2.02,3.79-2.81.94c-.16.05-.29.19-.33.36-.04.17.01.35.13.47l2.15,2.15-2.65,2.65-.15.85.85-.15,2.65-2.65,2.15,2.15c.12.12.3.17.47.13.17-.04.3-.16.36-.33l.94-2.81,3.78-2.02c.89-.47,1.06-1.67.35-2.38l-3.49-3.5Zm-1.5.82c.16-.3.56-.36.8-.12l3.49,3.5c.24.24.18.64-.12.79l-3.95,2.12c-.11.06-.2.16-.24.28l-.74,2.23-3.86-3.86,2.23-.74c.12-.04.22-.13.28-.24l2.11-3.97Z" fill="currentColor" />
</svg>