<svg xmlns="http://www.w3.org/2000/svg" viewBox="0 0 16 16" width="16" height="16">
  <path d="m8.12,1.75l2.27,2.52c.55.61.34,1.57-.4,1.9l-2.99,1.33-.89,2.22c-.05.13-.23.17-.33.07l-3.57-3.57c-.1-.1-.07-.27.07-.33l2.22-.89,1.68-3.03c.4-.72,1.39-.83,1.94-.22Z" fill="#FFFFFF" />
  <path d="m8.05,1.44c-.71-.71-1.9-.54-2.38.35l-1.53,2.82-2.33.93c-.16.06-.27.2-.3.36-.03.16.02.34.14.45l1.65,1.65-2.15,2.15-.15.85.85-.15,2.15-2.15,1.65,1.65c.12.12.29.17.45.14.16-.03.3-.15.36-.3l.93-2.33,2.82-1.53c.88-.48,1.06-1.67.35-2.38l-2.51-2.51Zm-1.5.82c.16-.29.56-.35.79-.12l2.51,2.51c.24.24.18.63-.12.79l-2.98,1.61c-.1.06-.18.15-.23.25l-.72,1.8-2.93-2.93,1.79-.71c.11-.04.2-.12.25-.23l1.61-2.98Z" fill="#000000" />
</svg>