<svg xmlns="http://www.w3.org/2000/svg" viewBox="0 0 16 16" width="16" height="16">
  <path d="m4.5,9c2.49,0,4.5-2.01,4.5-4.5S6.99,0,4.5,0,0,2.01,0,4.5s2.01,4.5,4.5,4.5Zm-2-5h2.79l-1.15-1.15c-.2-.2-.2-.51,0-.71.2-.2.51-.2.71,0l2,2s.08.1.11.16c.02.06.04.12.04.19h0c0,.07-.01.14-.04.19-.02.06-.06.11-.11.16h0s-2,2-2,2c-.2.2-.51.2-.71,0-.2-.2-.2-.51,0-.71l1.15-1.15h-2.79c-.28,0-.5-.22-.5-.5s.22-.5.5-.5ZM12.5,1h-3.76c.25.31.47.64.66,1h3.1c.83,0,1.5.67,1.5,1.5v6c0,.83-.67,1.5-1.5,1.5h-4c-.83,0-1.5-.67-1.5-1.5v-.1c-.31.16-.64.29-.98.39.14,1.24,1.2,2.21,2.48,2.21h4c1.38,0,2.5-1.12,2.5-2.5V3.5c0-1.38-1.12-2.5-2.5-2.5Zm-5,13H3.5c-.83,0-1.5-.67-1.5-1.5v-3.1c-.36-.18-.69-.4-1-.66v3.76c0,1.38,1.12,2.5,2.5,2.5h4c1.21,0,2.22-.86,2.45-2h-1.04c-.21.58-.76,1-1.41,1Z" fill="currentColor" />
</svg>