<svg xmlns="http://www.w3.org/2000/svg" viewBox="0 0 16 16" width="16" height="16">
  <path d="m9.47,2.33c-.07-.19-.26-.32-.47-.32-.21,0-.39.13-.47.32l-3,7.99s0,.02,0,.02l-1.37,3.66h-.65c-.28,0-.5.22-.5.5s.22.5.5.5h.99s.02,0,.02,0h.99c.28,0,.5-.22.5-.5s-.22-.5-.5-.5h-.28l1.12-3h5.38l1.15,3h-.37c-.28,0-.5.22-.5.5s.22.5.5.5h1.09s.02,0,.02,0h.89c.28,0,.5-.22.5-.5s-.22-.5-.5-.5h-.56L9.47,2.33Zm1.87,7.68l-2.33-6.09-2.28,6.09h4.62Z" fill="#000000" />
  <path d="m3.51.01c.21,0,.4.14.47.34l1.99,5.98-.53,1.42-.28-.74H1.6l-.63,1.68c-.1.26-.39.39-.64.29-.26-.1-.39-.39-.29-.64L3.03.33c.07-.2.27-.33.48-.32Zm-1.54,6h2.83l-1.33-4-1.5,4Z" fill="#0078D7" />
</svg>