<svg xmlns="http://www.w3.org/2000/svg" viewBox="0 0 16 16" width="16" height="16">
  <path d="m5.44,3.85l2.06-2.06-1.28-1.28c-.33-.33-.77-.51-1.24-.51h-2.48C1.12,0,0,1.12,0,2.5v1.5h5.09c.13,0,.26-.05.35-.15Zm4.33,1.38c-.73-.73-1.78-1.18-3.07-1.23l-.56.56c-.28.28-.66.44-1.06.44H0v6.5c0,1.38,1.12,2.5,2.5,2.5h6.5v-2.5c0-.83.67-1.5,1.5-1.5h.5v-1.5c0-1.39-.46-2.5-1.23-3.27Zm2.73,5.77h-.5v-1h-1v1h-.5c-.28,0-.5.22-.5.5v4c0,.28.22.5.5.5h2c.28,0,.5-.22.5-.5v-4c0-.28-.22-.5-.5-.5Zm-.5,4h-1v-3h1v3Zm3.95-10.98c-1.14.1-2.06.54-2.73,1.2-.77.77-1.23,1.89-1.23,3.27v.5h.5c.28,0,.5.22.5.5s-.22.5-.5.5c.83,0,1.5.67,1.5,1.5v2.45c1.14-.23,2-1.24,2-2.45v-7c0-.16-.02-.32-.05-.48Zm-4.45,1.99c.25-.56.59-1.07,1.02-1.49.78-.78,1.82-1.28,3.03-1.46-.36-.51-.91-.89-1.55-1.02-.16-.03-.33-.05-.5-.05h-4.79l-1.09,1.09c1.14.19,2.12.68,2.86,1.43.43.43.77.93,1.02,1.49Z" fill="currentColor" />
</svg>