<svg xmlns="http://www.w3.org/2000/svg" viewBox="0 0 16 16" width="16" height="16">
  <path d="m6.5,12.5c.28,0,.5-.22.5-.5v-6c0-.28-.22-.5-.5-.5s-.5.22-.5.5v6c0,.28.22.5.5.5Zm3,0c.28,0,.5-.22.5-.5v-6c0-.28-.22-.5-.5-.5s-.5.22-.5.5v6c0,.28.22.5.5.5ZM15.5,2h-4.5v-.5c0-.83-.67-1.5-1.5-1.5h-3c-.83,0-1.5.67-1.5,1.5v.5H.5c-.28,0-.5.22-.5.5s.22.5.5.5h1.05l1.19,10.34c.17,1.51,1.46,2.66,2.98,2.66h4.54c1.52,0,2.81-1.14,2.98-2.66l1.19-10.34h1.05c.28,0,.5-.22.5-.5s-.22-.5-.5-.5Zm-9.5-.5c0-.28.22-.5.5-.5h3c.28,0,.5.22.5.5v.5h-4v-.5Zm6.26,11.73c-.12,1.01-.97,1.77-1.99,1.77h-4.54c-1.02,0-1.87-.76-1.99-1.77L2.56,3h10.88l-1.18,10.23Z" fill="currentColor" />
</svg>