<svg xmlns="http://www.w3.org/2000/svg" viewBox="0 0 16 16" width="16" height="16">
  <path d="m2.5,0C1.12,0,0,1.12,0,2.5v9c0,1.38,1.12,2.5,2.5,2.5h4.1c-.16-.32-.29-.65-.39-1h-3.71c-.83,0-1.5-.67-1.5-1.5v-6.5h4.09c.4,0,.78-.16,1.06-.44l1.56-1.56h4.79c.83,0,1.5.67,1.5,1.5v2.1c.36.18.69.4,1,.66v-2.76c0-1.38-1.12-2.5-2.5-2.5h-4.79l-1.49-1.49c-.33-.33-.77-.51-1.24-.51h-2.48Zm-1.5,2.5c0-.83.67-1.5,1.5-1.5h2.48c.2,0,.39.08.53.22l1.28,1.28-1.35,1.35c-.09.09-.22.15-.35.15H1v-1.5Z" fill="#000000" />
  <path d="m11.5,7c2.49,0,4.5,2.01,4.5,4.5s-2.01,4.5-4.5,4.5-4.5-2.01-4.5-4.5,2.01-4.5,4.5-4.5Z" fill="#0078D7" />
  <path d="m13.85,11.85h0c.05-.05.08-.1.11-.16.02-.06.04-.12.04-.19h0c0-.07-.01-.14-.04-.19-.02-.06-.06-.11-.11-.16l-2-2c-.2-.2-.51-.2-.71,0-.2.2-.2.51,0,.71l1.15,1.15h-2.79c-.28,0-.5.22-.5.5s.22.5.5.5h2.79l-1.15,1.15c-.2.2-.2.51,0,.71.2.2.51.2.71,0l2-2Z" fill="#FFFFFF" />
</svg>