<svg xmlns="http://www.w3.org/2000/svg" viewBox="0 0 16 16" width="16" height="16">
  <path d="m0,2.5C0,1.12,1.12,0,2.5,0h2.48c.46,0,.91.18,1.24.51l1.28,1.28-2.06,2.06c-.09.09-.22.15-.35.15H0v-1.5Zm0,2.5v6.5c0,1.38,1.12,2.5,2.5,2.5h4.1c-.38-.75-.6-1.6-.6-2.5,0-3.04,2.46-5.5,5.5-5.5,1.33,0,2.55.47,3.5,1.26v-2.76c0-1.38-1.12-2.5-2.5-2.5h-3.79l-2.56,2.56c-.28.28-.66.44-1.06.44H0Zm11.5,2c2.49,0,4.5,2.01,4.5,4.5s-2.01,4.5-4.5,4.5-4.5-2.01-4.5-4.5,2.01-4.5,4.5-4.5Zm2.35,4.85h0c.05-.05.08-.1.11-.16.02-.06.04-.12.04-.19h0c0-.07-.01-.14-.04-.19-.02-.06-.06-.11-.11-.16l-2-2c-.2-.2-.51-.2-.71,0-.2.2-.2.51,0,.71l1.15,1.15h-2.79c-.28,0-.5.22-.5.5s.22.5.5.5h2.79l-1.15,1.15c-.2.2-.2.51,0,.71.2.2.51.2.71,0l2-2Z" fill="currentColor" />
</svg>