<svg xmlns="http://www.w3.org/2000/svg" viewBox="0 0 16 16" width="16" height="16">
  <path d="m3.97.34C3.91.14,3.72,0,3.51,0c-.21,0-.4.13-.48.32L.03,8.32c-.1.26.03.55.29.64.26.1.55-.03.64-.29l.63-1.68h3.56l.28.74.53-1.42L3.97.34Zm.83,5.66H1.97L3.47,2l1.33,4Zm4.43-4c.3,0,.58.17.7.45l4.91,11.05h.4c.41,0,.75.34.75.75s-.34.75-.75.75h-2.5c-.41,0-.75-.34-.75-.75s.34-.75.75-.75h.46l-1.11-2.5h-5.34l-1,2.5h.49c.41,0,.75.34.75.75s-.34.75-.75.75h-2.5c-.41,0-.75-.34-.75-.75s.34-.75.75-.75h.39L8.55,2.47c.11-.28.38-.47.68-.47Zm-1.88,7.5h4.07l-2.14-4.82-1.93,4.82Z" fill="currentColor" />
</svg>