<svg xmlns="http://www.w3.org/2000/svg" viewBox="0 0 16 16" width="16" height="16">
  <path d="m2.5,0C1.12,0,0,1.12,0,2.5v9c0,1.38,1.12,2.5,2.5,2.5h6.5v-1H2.5c-.83,0-1.5-.67-1.5-1.5v-6.5h4.09c.4,0,.78-.16,1.06-.44l1.56-1.56h5.79c.83,0,1.5.67,1.5,1.5v7c0,.65-.42,1.21-1,1.41v1.04c1.14-.23,2-1.24,2-2.45v-7c0-1.38-1.12-2.5-2.5-2.5h-5.79l-1.49-1.49c-.33-.33-.77-.51-1.24-.51h-2.48Zm-1.5,2.5c0-.83.67-1.5,1.5-1.5h2.48c.2,0,.39.08.53.22l1.28,1.28-1.35,1.35c-.09.09-.22.15-.35.15H1v-1.5Z" fill="#000000" />
  <path d="m14.44,3.33c.27.22.46.53.53.88,0,0,0,0,0,0-.7.21-1.28.56-1.74,1.02-.77.77-1.23,1.88-1.23,3.27v.5h.5c.28,0,.5.22.5.5s-.22.5-.5.5h-.5v1h.5c.28,0,.5.22.5.5v4c0,.28-.22.5-.5.5h-2c-.28,0-.5-.22-.5-.5v-4c0-.28.22-.5.5-.5h.5v-2.5c0-1.39-.46-2.5-1.23-3.27-.73-.73-1.78-1.18-3.07-1.23l.91-.91c1.14.19,2.12.68,2.86,1.43.43.43.77.93,1.02,1.49.25-.56.59-1.07,1.02-1.49.53-.53,1.18-.93,1.92-1.19Zm-2.44,11.67h-1v-3h1v3Z" fill="#0078D7" />
  <path d="m2.5,0C1.12,0,0,1.12,0,2.5v9c0,1.38,1.12,2.5,2.5,2.5h6.5v-1H2.5c-.83,0-1.5-.67-1.5-1.5v-6.5h4.09c.4,0,.78-.16,1.06-.44l.56-.56c1.29.04,2.34.49,3.07,1.23.77.77,1.23,1.89,1.23,3.27v2.5h-.5c-.28,0-.5.22-.5.5v4c0,.28.22.5.5.5h2c.28,0,.5-.22.5-.5v-4c0-.28-.22-.5-.5-.5h-.5v-1h.5c.28,0,.5-.22.5-.5s-.22-.5-.5-.5h-.5v-.5c0-1.38.46-2.5,1.23-3.27.46-.46,1.05-.81,1.74-1.02.02.09.03.19.03.29v7c0,.65-.42,1.21-1,1.41v1.04c1.14-.23,2-1.24,2-2.45v-7c0-1.38-1.12-2.5-2.5-2.5h-5.79l-1.49-1.49c-.33-.33-.77-.51-1.24-.51h-2.48Zm11.94,3.33c-.26-.21-.58-.33-.94-.33h-5.79l-.09.09c1.14.19,2.12.68,2.86,1.43.43.43.77.93,1.02,1.49.25-.56.59-1.07,1.02-1.49.53-.53,1.18-.93,1.92-1.19ZM1,2.5c0-.83.67-1.5,1.5-1.5h2.48c.2,0,.39.08.53.22l1.28,1.28-1.35,1.35c-.09.09-.22.15-.35.15H1v-1.5Zm11,12.5h-1v-3h1v3Z" fill="#FFFFFF" />
</svg>