<svg xmlns="http://www.w3.org/2000/svg" viewBox="0 0 16 16" width="16" height="16">
  <path d="m7.15.65c.2-.2.51-.2.71,0l1.5,1.5c.2.2.2.51,0,.71l-1.5,1.5c-.2.2-.51.2-.71,0-.2-.2-.2-.51,0-.71l.64-.64c-2.66.11-4.79,2.31-4.79,5,0,1.57.72,2.97,1.85,3.88.21.17.25.49.07.7-.17.21-.49.25-.7.07-1.35-1.1-2.22-2.78-2.22-4.66,0-3.25,2.58-5.89,5.8-6l-.65-.65c-.2-.2-.2-.51,0-.71Zm3.93,2.77c.17-.21.49-.25.7-.07,1.35,1.1,2.22,2.78,2.22,4.66,0,3.25-2.58,5.89-5.8,6l.65.65c.2.2.2.51,0,.71-.2.2-.51.2-.71,0l-1.5-1.5c-.09-.09-.15-.22-.15-.35s.05-.26.15-.35l1.5-1.5c.2-.2.51-.2.71,0,.2.2.2.51,0,.71l-.64.64c2.66-.11,4.79-2.3,4.79-5,0-1.57-.72-2.97-1.85-3.88-.21-.17-.25-.49-.07-.7Z" fill="#000000" />
</svg>