<svg xmlns="http://www.w3.org/2000/svg" viewBox="0 0 16 16" width="16" height="16">
  <path d="m6.97.47c.29-.29.77-.29,1.06,0l1.75,1.75c.29.29.29.77,0,1.06l-1.75,1.75c-.29.29-.77.29-1.06,0-.29-.29-.29-.77,0-1.06l.43-.43c-2.2.29-3.9,2.18-3.9,4.46,0,1.39.63,2.63,1.62,3.46.32.27.36.74.1,1.06-.27.32-.74.36-1.06.1-1.32-1.1-2.16-2.76-2.16-4.61,0-3.13,2.4-5.7,5.46-5.98l-.49-.49c-.29-.29-.29-.77,0-1.06Zm3.82,3.02c.27-.32.74-.36,1.06-.1,1.32,1.1,2.16,2.76,2.16,4.61,0,3.13-2.4,5.7-5.46,5.98l.49.49c.29.29.29.77,0,1.06-.29.29-.77.29-1.06,0l-1.75-1.75c-.14-.14-.22-.33-.22-.53s.08-.39.22-.53l1.75-1.75c.29-.29.77-.29,1.06,0,.29.29.29.77,0,1.06l-.43.43c2.2-.29,3.9-2.18,3.9-4.46,0-1.39-.63-2.63-1.62-3.46-.32-.27-.36-.74-.1-1.06Z" fill="currentColor" />
</svg>