<svg xmlns="http://www.w3.org/2000/svg" viewBox="0 0 16 16" width="16" height="16">
  <path d="m2.3,14.2c.1,1,1,1.8,2,1.8h7.3c1,0,1.9-.8,2-1.8l1.3-10.8v-.2c0-.6-.3-1.2-.8-1.6l-1.4-1.2c-.3-.2-.8-.4-1.2-.4h-7c-.4,0-.9.2-1.2.5l-1.4,1.2c-.5.3-.8.9-.8,1.5v.2l1.2,10.8ZM13,2H2.9l1-.8c.2-.1.4-.2.6-.2h7c.2,0,.4.1.5.2l1,.8Zm-4.18,10.37c.06.07.18.03.18-.06v-.31h1.1c.2,0,.3,0,.4-.2l.78-1.55c.08-.15.07-.33-.02-.48l-.36-.59c-.06-.09-.18-.13-.27-.07l-.66.4c-.09.06-.12.17-.07.27l.51.93h-1.4v-.61c0-.09-.12-.14-.18-.06l-.87,1.11s-.03.09,0,.12l.87,1.11Zm-3.52-.97c.1.3.4.6.8.6h.9c.11,0,.2-.09.2-.2v-.9c0-.11-.09-.2-.2-.2h-1.4l.5-1,.49.42c.07.06.18,0,.16-.09l-.24-1.45s-.05-.08-.1-.08h-1.54c-.09,0-.14.12-.06.18l.39.32c-.2.3-.6.9-.6,1.1s.2.5.2.5l.5.8Zm4.61-2.9c.05,0,.1-.03.1-.08l.24-1.35c.02-.09-.09-.15-.16-.1l-.29.23-.5-.9c-.1-.2-.2-.3-.4-.3h-1.9c-.2,0-.3.1-.4.3l-.41.83c-.05.1-.01.21.08.27l.74.41c.1.06.23.01.28-.09l.61-1.31.8,1.6-.3.24c-.07.06-.03.17.06.18l1.45.08Z" fill="currentColor" />
</svg>