<svg xmlns="http://www.w3.org/2000/svg" viewBox="0 0 16 16" width="16" height="16">
  <path d="m11.7,15c.5,0,.9-.4,1-.9l1.2-10.9v-.3H2.1v.3l1.2,10.9c.1.5.5.9,1,.9h7.4ZM2.9,2h10.1l-1-.8c-.1-.1-.3-.2-.5-.2h-7c-.2,0-.4.1-.6.2l-1,.8Zm1.4,14c-1,0-1.9-.8-2-1.8L1.1,3.4v-.2c0-.6.3-1.2.8-1.5l1.4-1.2c.3-.3.8-.5,1.2-.5h7c.4,0,.9.2,1.2.4l1.4,1.2c.5.4.8,1,.8,1.6v.2l-1.3,10.8c-.1,1-1,1.8-2,1.8h-7.3Z" fill="#000000" />
  <path d="m9,12.31c0,.09-.12.14-.18.06l-.87-1.11s-.03-.09,0-.12l.87-1.11c.06-.07.18-.03.18.06v.61h1.4l-.51-.93c-.05-.09-.02-.21.07-.27l.66-.4c.09-.06.22-.03.27.07l.26.43.1.16c.09.15.09.33.02.48l-.78,1.55c-.1.2-.2.2-.4.2h-1.1v.31Zm-2.9-.31c-.4,0-.7-.3-.8-.6l-.5-.8s-.2-.3-.2-.5.4-.8.6-1.1l-.39-.32c-.07-.06-.03-.18.06-.18h1.54s.09.04.1.08l.24,1.45c.02.09-.09.15-.16.09l-.49-.42-.5,1h1.4c.11,0,.2.09.2.2v.9c0,.11-.09.2-.2.2h-.9Zm3.92-3.59s-.05.09-.1.08l-1.45-.08c-.09,0-.13-.12-.06-.18l.3-.24-.8-1.6-.61,1.31c-.05.1-.18.15-.28.09l-.74-.41c-.09-.05-.13-.17-.08-.27l.41-.83c.1-.2.2-.3.4-.3h1.9c.2,0,.3.1.4.3l.5.9.29-.23c.07-.06.18,0,.16.1l-.24,1.35Z" fill="#0078D7" />
</svg>