<svg xmlns="http://www.w3.org/2000/svg" viewBox="0 0 16 16" width="16" height="16">
  <path d="m3.45,10.5h9.11c.61,0,.96-.69.61-1.18l-4.35-6.16c-.4-.56-1.24-.56-1.63,0l-4.35,6.16c-.35.5,0,1.18.61,1.18Z" fill="#FFFFFF" />
  <path d="m7.6,3.2c.2-.27.6-.27.8,0l4.5,6c.25.33.01.8-.4.8H3.5c-.41,0-.65-.47-.4-.8L7.6,3.2Zm1.6-.6c-.6-.8-1.8-.8-2.4,0l-4.5,6c-.74.99-.04,2.4,1.2,2.4h8.99c1.24,0,1.94-1.41,1.2-2.4l-4.5-6ZM2,13c-.28,0-.5.22-.5.5s.22.5.5.5h12c.28,0,.5-.22.5-.5s-.22-.5-.5-.5H2Z" fill="#000000" />
</svg>