<svg xmlns="http://www.w3.org/2000/svg" viewBox="0 0 16 16" width="16" height="16">
  <path d="m14.5,7.5v4.5c0,1.38-1.12,2.5-2.5,2.5H3c-1.38,0-2.5-1.12-2.5-2.5v-4.5h14Z" fill="#FFFFFF" />
  <path d="m14.5,3c0-1.38-1.12-2.5-2.5-2.5H3c-1.38,0-2.5,1.12-2.5,2.5v4.5s14,0,14,0V3Z" fill="#0078D7" />
  <path d="m0,12c0,1.66,1.34,3,3,3h9c1.66,0,3-1.34,3-3V3C15,1.34,13.66,0,12,0H3C1.34,0,0,1.34,0,3v9ZM12,1c1.1,0,2,.9,2,2v4H1V3c0-1.1.9-2,2-2h9ZM1,8v4c0,1.1.9,2,2,2h9c1.1,0,2-.9,2-2v-4s-13,0-13,0Z" fill="#000000" />
</svg>