<svg xmlns="http://www.w3.org/2000/svg" viewBox="0 0 16 16" width="16" height="16">
  <path d="m.5,7.5V3c0-1.38,1.12-2.5,2.5-2.5h9c1.38,0,2.5,1.12,2.5,2.5v4.5H.5Z" fill="#FFFFFF" />
  <path d="m.5,12c0,1.38,1.12,2.5,2.5,2.5h9c1.38,0,2.5-1.12,2.5-2.5v-4.5s-14,0-14,0v4.5Z" fill="#0078D7" />
  <path d="m15,3C15,1.34,13.66,0,12,0H3C1.34,0,0,1.34,0,3v9c0,1.66,1.34,3,3,3h9c1.66,0,3-1.34,3-3V3ZM3,14c-1.1,0-2-.9-2-2v-4h13v4c0,1.1-.9,2-2,2H3Zm11-7V3c0-1.1-.9-2-2-2H3c-1.1,0-2,.9-2,2v4s13,0,13,0Z" fill="#000000" />
</svg>