<svg xmlns="http://www.w3.org/2000/svg" viewBox="0 0 16 16" width="16" height="16">
  <path d="m9.06.94c-.3-.3-.7-.45-1.09-.44-.37,0-.74.15-1.03.44L.94,6.94c-.59.59-.59,1.54,0,2.12l6,6c.3.3.7.45,1.1.44.37,0,.74-.16,1.02-.44l6-6c.59-.59.59-1.54,0-2.12L9.06.94Z" fill="#FFFFFF" />
  <path d="m.59,6.59c-.78.78-.78,2.05,0,2.83l6,6c.78.78,2.05.78,2.83,0l6-6c.78-.78.78-2.05,0-2.83L9.41.59c-.78-.78-2.05-.78-2.83,0L.59,6.59Zm.71,2.12c-.39-.39-.39-1.02,0-1.41L5.44,3.15l.71.71c-.09.2-.15.42-.15.65,0,.65.42,1.21,1,1.41v4.17c-.58.21-1,.76-1,1.41,0,.83.67,1.5,1.5,1.5s1.5-.67,1.5-1.5c0-.65-.42-1.21-1-1.41v-4.17c.05-.02.1-.04.15-.06l2,2c-.09.2-.15.42-.15.65,0,.83.67,1.5,1.5,1.5s1.5-.67,1.5-1.5-.67-1.5-1.5-1.5c-.23,0-.45.05-.65.15l-2-2c.09-.2.15-.42.15-.65,0-.83-.67-1.5-1.5-1.5-.23,0-.45.05-.65.15l-.71-.71,1.15-1.15c.39-.39,1.02-.39,1.41,0l6,6c.39.39.39,1.02,0,1.41l-6,6c-.39.39-1.02.39-1.41,0L1.29,8.71Z" fill="#000000" />
</svg>