<svg xmlns="http://www.w3.org/2000/svg" viewBox="0 0 16 16" width="16" height="16">
  <path d="m3,5.5c1.38,0,2.5-1.12,2.5-2.5S4.38.5,3,.5.5,1.62.5,3s1.12,2.5,2.5,2.5Zm0,5c-1.38,0-2.5,1.12-2.5,2.5s1.12,2.5,2.5,2.5,2.5-1.12,2.5-2.5-1.12-2.5-2.5-2.5Z" fill="#FFFFFF" />
  <path d="m6,3c0,1.36-.9,2.51-2.15,2.88.18.22.42.48.72.74.65.55,1.6,1.12,2.92,1.31v1.01c-1.61-.2-2.78-.88-3.58-1.56-.16-.13-.3-.27-.42-.4v3.06c1.42.24,2.5,1.47,2.5,2.96,0,1.66-1.34,3-3,3s-3-1.34-3-3c0-1.49,1.08-2.72,2.5-2.96v-4.08c-1.42-.24-2.5-1.47-2.5-2.96C0,1.34,1.34,0,3,0s3,1.34,3,3Zm-2.99,2c1.1,0,1.99-.9,1.99-2s-.9-2-2-2S1,1.9,1,3s.89,1.99,1.99,2c0,0,.01,0,.02,0Zm0,10c1.1,0,2-.9,2-2s-.9-2-2-2-2,.9-2,2,.9,2,2,2Z" fill="#000000" />
  <path d="m16,8.5c0,2.49-2.01,4.5-4.5,4.5s-4.5-2.01-4.5-4.5,2.01-4.5,4.5-4.5,4.5,2.01,4.5,4.5Z" fill="#0078D7" />
  <path d="m12,6.5c0-.28-.22-.5-.5-.5s-.5.22-.5.5v1.5h-1.5c-.28,0-.5.22-.5.5s.22.5.5.5h1.5v1.5c0,.28.22.5.5.5s.5-.22.5-.5v-1.5h1.5c.28,0,.5-.22.5-.5s-.22-.5-.5-.5h-1.5v-1.5Z" fill="#FFFFFF" />
</svg>