<svg xmlns="http://www.w3.org/2000/svg" viewBox="0 0 16 16" width="16" height="16">
  <path d="m6.85,11.15c-.2-.2-.51-.2-.71,0-.2.2-.2.51,0,.71l1.15,1.15h-1.79c-1.38,0-2.5-1.12-2.5-2.5v-4.5c1.66,0,3-1.34,3-3S4.66,0,3,0,0,1.34,0,3c0,1.31.83,2.42,2,2.83v4.67c0,1.93,1.57,3.5,3.5,3.5h1.79l-1.15,1.15c-.2.2-.2.51,0,.71.2.2.51.2.71,0l2-2c.2-.2.2-.51,0-.71l-2-2ZM1,3c0-1.1.9-2,2-2s2,.9,2,2-.9,2-2,2-2-.9-2-2Zm13,7.17v-4.67c0-1.93-1.57-3.5-3.5-3.5h-1.79l1.15-1.15c.2-.2.2-.51,0-.71s-.51-.2-.71,0l-2,2c-.2.2-.2.51,0,.71l2,2c.2.2.51.2.71,0,.2-.2.2-.51,0-.71l-1.15-1.15h1.79c1.38,0,2.5,1.12,2.5,2.5v4.5c-1.66,0-3,1.34-3,3s1.34,3,3,3,3-1.34,3-3c0-1.31-.83-2.42-2-2.83Zm-1,4.83c-1.1,0-2-.9-2-2s.9-2,2-2,2,.9,2,2-.9,2-2,2Z" fill="currentColor" />
</svg>