<svg xmlns="http://www.w3.org/2000/svg" viewBox="0 0 16 16" width="16" height="16">
  <path d="m.59,6.59c-.78.78-.78,2.05,0,2.83l6,6c.78.78,2.05.78,2.83,0l6-6c.78-.78.78-2.05,0-2.83L9.41.59c-.78-.78-2.05-.78-2.83,0l-1.15,1.15,1.41,1.41c.2-.09.42-.15.65-.15.83,0,1.5.67,1.5,1.5,0,.23-.05.45-.15.65l2,2c.2-.09.42-.15.65-.15.83,0,1.5.67,1.5,1.5s-.67,1.5-1.5,1.5-1.5-.67-1.5-1.5c0-.23.05-.45.15-.65l-2-2s-.1.04-.15.06v4.17c.58.21,1,.76,1,1.41,0,.83-.67,1.5-1.5,1.5s-1.5-.67-1.5-1.5c0-.65.42-1.21,1-1.41v-4.17c-.58-.21-1-.76-1-1.41,0-.23.05-.45.15-.65l-1.41-1.41L.59,6.59Z" fill="currentColor" />
</svg>