<svg xmlns="http://www.w3.org/2000/svg" viewBox="0 0 16 16" width="16" height="16">
  <path d="m3.85,5.88c1.24-.37,2.15-1.52,2.15-2.88,0-1.66-1.34-3-3-3S0,1.34,0,3c0,1.49,1.08,2.72,2.5,2.96v4.08c-1.42.24-2.5,1.47-2.5,2.96,0,1.66,1.34,3,3,3s3-1.34,3-3c0-1.49-1.08-2.72-2.5-2.96v-3.06c.13.13.27.26.42.4.71.61,1.73,1.22,3.09,1.48.18,2.32,2.12,4.14,4.49,4.14,2.49,0,4.5-2.01,4.5-4.5s-2.01-4.5-4.5-4.5c-2.26,0-4.14,1.67-4.45,3.85-1.09-.24-1.9-.74-2.47-1.23-.3-.26-.54-.52-.72-.74Zm1.15-2.88c0,1.1-.89,2-1.99,2,0,0-.01,0-.02,0-1.1,0-1.99-.9-1.99-2S1.9,1,3,1s2,.9,2,2Zm0,10c0,1.1-.9,2-2,2s-2-.9-2-2,.9-2,2-2,2,.9,2,2Zm7-6.5c0-.28-.22-.5-.5-.5s-.5.22-.5.5v1.5h-1.5c-.28,0-.5.22-.5.5s.22.5.5.5h1.5v1.5c0,.28.22.5.5.5s.5-.22.5-.5v-1.5h1.5c.28,0,.5-.22.5-.5s-.22-.5-.5-.5h-1.5v-1.5Z" fill="currentColor" />
</svg>