<svg xmlns="http://www.w3.org/2000/svg" viewBox="0 0 16 16" width="16" height="16">
  <path d="m3,.5C1.62.5.5,1.62.5,3s1.12,2.5,2.5,2.5,2.5-1.12,2.5-2.5S4.38.5,3,.5Zm10,10c-1.38,0-2.5,1.12-2.5,2.5s1.12,2.5,2.5,2.5,2.5-1.12,2.5-2.5-1.12-2.5-2.5-2.5Z" fill="#FFFFFF" />
  <path d="m9.15,4.85c.2.2.51.2.71,0,.2-.2.2-.51,0-.71l-1.15-1.15h1.79c1.38,0,2.5,1.12,2.5,2.5v4.5c-1.66,0-3,1.34-3,3s1.34,3,3,3,3-1.34,3-3c0-1.31-.83-2.42-2-2.83v-4.67c0-1.93-1.57-3.5-3.5-3.5h-1.79l1.15-1.15c.2-.2.2-.51,0-.71-.2-.2-.51-.2-.71,0l-2,2c-.2.2-.2.51,0,.71l2,2Zm5.85,8.15c0,1.1-.9,2-2,2s-2-.9-2-2,.9-2,2-2,2,.9,2,2Z" fill="#000000" />
  <path d="m6,3c0,1.66-1.34,3-3,3v4.5c0,1.38,1.12,2.5,2.5,2.5h1.79l-1.15-1.15c-.2-.2-.2-.51,0-.71.2-.2.51-.2.71,0l2,2c.2.2.2.51,0,.71l-2,2c-.2.2-.51.2-.71,0-.2-.2-.2-.51,0-.71l1.15-1.15h-1.79c-1.93,0-3.5-1.57-3.5-3.5v-4.67c-1.17-.41-2-1.52-2-2.83C0,1.34,1.34,0,3,0s3,1.34,3,3Zm-1,0c0-1.1-.9-2-2-2S1,1.9,1,3s.9,2,2,2,2-.9,2-2Z" fill="#0078D7" />
</svg>