<svg xmlns="http://www.w3.org/2000/svg" viewBox="0 0 16 16" width="16" height="16">
  <path d="m6,3c0,1.36-.9,2.51-2.15,2.88.18.22.42.48.72.74.57.49,1.38.98,2.47,1.23.32-2.18,2.19-3.85,4.45-3.85,2.49,0,4.5,2.01,4.5,4.5s-2.01,4.5-4.5,4.5-4.3-1.82-4.49-4.14c-1.36-.26-2.38-.87-3.09-1.48-.16-.13-.3-.27-.42-.4v3.06c1.42.24,2.5,1.47,2.5,2.96,0,1.66-1.34,3-3,3s-3-1.34-3-3c0-1.49,1.08-2.72,2.5-2.96v-4.08c-1.42-.24-2.5-1.47-2.5-2.96C0,1.34,1.34,0,3,0s3,1.34,3,3Zm6,3.5c0-.28-.22-.5-.5-.5s-.5.22-.5.5v1.5h-1.5c-.28,0-.5.22-.5.5s.22.5.5.5h1.5v1.5c0,.28.22.5.5.5s.5-.22.5-.5v-1.5h1.5c.28,0,.5-.22.5-.5s-.22-.5-.5-.5h-1.5v-1.5Z" fill="currentColor" />
</svg>