<svg xmlns="http://www.w3.org/2000/svg" viewBox="0 0 16 16" width="16" height="16">
  <path d="m7,3c0,1.36-.9,2.51-2.15,2.88.18.22.42.48.72.74.73.62,1.83,1.25,3.42,1.36,0-1.65,1.35-2.98,3-2.98s3,1.34,3,3-1.34,3-3,3c-1.31,0-2.42-.84-2.83-2.01-1.96-.08-3.34-.84-4.24-1.61-.16-.13-.3-.27-.42-.4v3.06c1.42.24,2.5,1.47,2.5,2.96,0,1.66-1.34,3-3,3s-3-1.34-3-3c0-1.49,1.08-2.72,2.5-2.96v-4.08c-1.42-.24-2.5-1.47-2.5-2.96C1,1.34,2.34,0,4,0s3,1.34,3,3Zm-2.99,2c1.1,0,1.99-.9,1.99-2s-.9-2-2-2S2,1.9,2,3s.89,1.99,1.99,2c0,0,.01,0,.02,0Zm9.99,3c0-1.1-.9-2-2-2s-2,.9-2,2,.9,2,2,2,2-.9,2-2ZM4,15c1.1,0,2-.9,2-2s-.9-2-2-2-2,.9-2,2,.9,2,2,2Z" fill="currentColor" />
</svg>