<svg xmlns="http://www.w3.org/2000/svg" viewBox="0 0 16 16" width="16" height="16">
  <path d="m3.67,14.65l.74-4.3c.06-.32-.05-.66-.29-.89l-3.12-3.04,4.32-.63c.33-.05.61-.25.75-.55l1.93-3.91,1.93,3.91c.15.3.43.5.75.55l4.32.63-.49.47c.28.18.54.39.79.63l.4-.39c.59-.58.27-1.59-.55-1.71l-4.32-.63-1.93-3.91c-.37-.74-1.43-.74-1.79,0l-1.93,3.91-4.32.63c-.82.12-1.15,1.13-.55,1.71l3.12,3.04-.74,4.3c-.14.82.72,1.44,1.45,1.05l2.56-1.35c-.16-.29-.3-.6-.41-.91l-2.62,1.38Zm7.83-7.65c-1.19,0-2.34.47-3.18,1.32s-1.32,1.99-1.32,3.18.47,2.34,1.32,3.18,1.99,1.32,3.18,1.32,2.34-.47,3.18-1.32,1.32-1.99,1.32-3.18-.47-2.34-1.32-3.18-1.99-1.32-3.18-1.32Zm2.35,4.85c-.09.09-.22.15-.35.15h-1.5v1.5c0,.13-.05.26-.15.35-.09.09-.22.15-.35.15s-.26-.05-.35-.15c-.09-.09-.15-.22-.15-.35v-1.5h-1.5c-.13,0-.26-.05-.35-.15-.09-.09-.15-.22-.15-.35s.05-.26.15-.35c.09-.09.22-.15.35-.15h1.5v-1.5c0-.13.05-.26.15-.35.09-.09.22-.15.35-.15s.26.05.35.15c.09.09.15.22.15.35v1.5h1.5c.13,0,.26.05.35.15.09.09.15.22.15.35s-.05.26-.15.35Z" fill="currentColor" />
</svg>