<svg xmlns="http://www.w3.org/2000/svg" viewBox="0 0 16 16" width="16" height="16">
  <path d="m7.55,1.22c.18-.37.71-.37.9,0l2.03,4.11.13.02,4.41.64c.41.06.57.56.28.85l-.36.35c-.97-.78-2.18-1.2-3.44-1.2-1.46,0-2.86.58-3.89,1.61s-1.61,2.43-1.61,3.89c0,.79.17,1.56.49,2.26l-2.55,1.34c-.37.19-.8-.12-.73-.53l.78-4.52L.7,6.85c-.3-.29-.13-.79.28-.85l4.54-.66L7.55,1.22Z" fill="#FFFFFF" />
  <path d="m8.9.9c-.37-.74-1.43-.74-1.79,0l-1.93,3.91-4.32.63c-.82.12-1.15,1.13-.55,1.71l3.12,3.04-.74,4.3c-.14.82.72,1.44,1.45,1.05l2.56-1.35c-.16-.29-.3-.6-.41-.91l-2.62,1.38.74-4.3c.06-.32-.05-.66-.29-.89l-3.12-3.04,4.32-.63c.33-.05.61-.25.75-.55l1.93-3.91,1.93,3.91c.15.3.43.5.75.55l4.32.63-.49.47c.28.18.54.39.79.63l.4-.39c.59-.58.27-1.59-.55-1.71l-4.32-.63-1.93-3.91Z" fill="#000000" />
  <path d="m16,11.5c0,1.19-.47,2.34-1.32,3.18s-1.99,1.32-3.18,1.32-2.34-.47-3.18-1.32c-.84-.84-1.32-1.99-1.32-3.18s.47-2.34,1.32-3.18c.84-.84,1.99-1.32,3.18-1.32s2.34.47,3.18,1.32c.84.84,1.32,1.99,1.32,3.18Z" fill="#0078D7" />
  <path d="m11.5,9c.13,0,.26.05.35.15.09.09.15.22.15.35v1.5h1.5c.13,0,.26.05.35.15.09.09.15.22.15.35s-.05.26-.15.35c-.09.09-.22.15-.35.15h-1.5v1.5c0,.13-.05.26-.15.35-.09.09-.22.15-.35.15s-.26-.05-.35-.15c-.09-.09-.15-.22-.15-.35v-1.5h-1.5c-.13,0-.26-.05-.35-.15-.09-.09-.15-.22-.15-.35s.05-.26.15-.35c.09-.09.22-.15.35-.15h1.5v-1.5c0-.13.05-.26.15-.35.09-.09.22-.15.35-.15Z" fill="#FFFFFF" />
</svg>