<svg xmlns="http://www.w3.org/2000/svg" viewBox="0 0 16 16" width="16" height="16">
  <path d="m.85.15C.66-.05.34-.05.15.15-.05.34-.05.66.15.85l4.09,4.09-3.38.49c-.82.12-1.15,1.13-.55,1.71l3.12,3.04-.74,4.3c-.14.82.72,1.44,1.45,1.05l3.47-1.83c-.25-.26-.41-.56-.5-.87l-3.44,1.81.74-4.3c.06-.32-.05-.66-.29-.89l-3.12-3.04,4.12-.6,5.01,5.01c-.09.07-.19.13-.3.16l-1.1.38c-.7.24-.9,1.13-.38,1.65l.95.95-1.29,1.29v.71h.71l1.29-1.29.95.95c.52.52,1.41.32,1.65-.38l.38-1.1c.04-.11.09-.21.16-.3l2,2c.2.2.51.2.71,0,.2-.2.2-.51,0-.71L.85.15Zm7.15,1.19l1.93,3.91c.15.3.43.5.75.55l4.32.63-1.04,1.01c.12.09.24.18.35.3l.38.38,1-.97c.59-.58.27-1.59-.55-1.71l-4.32-.63-1.93-3.91c-.37-.74-1.43-.74-1.79,0l-1.35,2.74.75.75,1.5-3.04Zm5.61,7.1c-.73-.73-1.96-.52-2.41.4l-.08.16,3.85,3.85.16-.08c.93-.45,1.13-1.68.4-2.41l-1.93-1.93Z" fill="currentColor" />
</svg>