<svg xmlns="http://www.w3.org/2000/svg" viewBox="0 0 16 16" width="16" height="16">
  <path d="m8.45,1.22c-.18-.37-.71-.37-.9,0l-2.03,4.12-4.54.66c-.41.06-.57.56-.28.85l3.29,3.2-.78,4.52c-.07.41.36.72.73.53l4.06-2.14,4.06,2.14c.37.19.8-.12.73-.53l-.78-4.52,3.29-3.2c.3-.29.13-.79-.28-.85l-4.41-.64-.13-.02-2.03-4.11Z" fill="#FFFFFF" />
  <path d="m7.1.9c.37-.74,1.43-.74,1.79,0l1.93,3.91,4.32.63c.82.12,1.15,1.13.55,1.71l-3.12,3.04.74,4.3c.14.82-.72,1.44-1.45,1.05l-3.86-2.03-3.86,2.03c-.73.39-1.59-.24-1.45-1.05l.74-4.3L.3,7.14c-.59-.58-.27-1.59.55-1.71l4.32-.63,1.93-3.91Zm.9.44l-1.93,3.91c-.15.3-.43.5-.75.55l-4.32.63,3.12,3.04c.24.23.34.56.29.89l-.74,4.3,3.86-2.03c.29-.15.64-.15.93,0l3.86,2.03-.74-4.3c-.06-.32.05-.66.29-.89l3.12-3.04-4.32-.63c-.33-.05-.61-.25-.75-.55l-1.93-3.91Z" fill="#000000" />
</svg>