<svg xmlns="http://www.w3.org/2000/svg" viewBox="0 0 16 16" width="16" height="16">
  <path d="m8.4,10.43l1.1-.38.8-1.65c.68-1.4,2.44-1.81,3.66-.97.12.09.24.18.35.3l.38.38,1-.97c.59-.58.27-1.59-.55-1.71l-4.32-.63-1.93-3.91c-.37-.74-1.43-.74-1.79,0l-1.93,3.91-4.32.63c-.82.12-1.15,1.13-.55,1.71l3.12,3.04-.74,4.3c-.14.82.72,1.44,1.45,1.05l3.47-1.83c-.12-.12-.21-.25-.29-.39-.09-.15-.16-.32-.2-.48-.26-.96.23-2.05,1.28-2.41Zm5.21-1.99c-.73-.73-1.96-.52-2.41.4l-.8,1.65c-.12.24-.32.42-.57.51l-1.1.38c-.7.24-.9,1.13-.38,1.65l.95.95-1.29,1.29v.71h.71l1.29-1.29.95.95c.52.52,1.41.32,1.65-.38l.38-1.1c.09-.25.27-.46.51-.57l1.65-.8c.93-.45,1.13-1.68.4-2.41l-1.93-1.93Z" fill="currentColor" />
</svg>