<svg xmlns="http://www.w3.org/2000/svg" viewBox="0 0 16 16" width="16" height="16">
  <path d="m12.5,5c-.83,0-1.5-.67-1.5-1.5V0h-2c-1.1,0-2,.9-2,2v9c0,1.1.9,2,2,2h5c1.1,0,2-.9,2-2v-6h-3.5Zm0-1h3.25L12,.25v3.25c0,.28.22.5.5.5Zm-7.56,3.85l1.06-1.06v-2l-.35-.35c-.28-.28-.66-.44-1.06-.44h-2.09c-1.38,0-2.5,1.12-2.5,2.5v1.5h4.59c.13,0,.26-.05.35-.15Zm1.06,3.65v-3.29l-.35.35c-.28.28-.66.44-1.06.44H0v4.5c0,1.38,1.12,2.5,2.5,2.5h9c1.21,0,2.22-.86,2.45-2h-5.45c-1.38,0-2.5-1.12-2.5-2.5Z" fill="currentColor" />
</svg>