<svg xmlns="http://www.w3.org/2000/svg" viewBox="0 0 16 16" width="16" height="16">
  <path d="m16,10v-1.5c0-.11-.03-.21-.07-.27s-.1-.12-.17-.15-.15-.05-.23-.06c-.08-.01-.17-.02-.26-.02h-.27V3.12c.03-.07.08-.15.13-.24.06-.09.11-.2.16-.31.05-.11.1-.22.14-.32.04-.1.06-.18.06-.24,0-.06-.03-.17-.07-.32s-.09-.32-.16-.49c-.06-.18-.12-.34-.18-.5-.06-.16-.1-.27-.12-.34-.04-.1-.1-.19-.19-.25-.08-.06-.18-.09-.29-.09h-2c-.11,0-.21.04-.3.1-.09.06-.15.14-.18.24-.03.08-.07.2-.12.35-.06.16-.11.32-.17.5-.06.18-.11.34-.16.49-.05.15-.07.26-.07.31,0,.07.02.16.06.25s.09.2.15.31c.06.11.11.22.16.32.05.1.09.18.12.23v4.88h-.27c-.09,0-.18,0-.27.02-.08.01-.16.03-.23.07s-.13.09-.17.15-.06.15-.06.27v1.5h5Zm0,1h-5v2.55c0,.34.07.66.2.95.14.3.32.56.55.78s.49.4.8.52.62.19.95.19.65-.07.95-.2c.3-.13.57-.3.8-.52.23-.22.41-.48.55-.77.14-.3.2-.61.2-.95v-2.55ZM3.78.13c.14.09.22.25.22.41v3.46c0,.55.45,1,1,1s1-.45,1-1V.54c0-.17.08-.32.22-.41.14-.09.31-.11.47-.05,1.65.67,2.81,2.28,2.81,4.17,0,1.77-1.02,3.3-2.5,4.03v5.72c0,1.1-.9,2-2,2s-2-.9-2-2v-5.72C1.52,7.55.5,6.02.5,4.25.5,2.36,1.66.74,3.31.08c.15-.06.33-.04.47.05Z" fill="currentColor" />
</svg>