<svg xmlns="http://www.w3.org/2000/svg" viewBox="0 0 16 16" width="16" height="16">
  <path d="m3.5,2.5h3v6l1.5,3H2l1.5-3V2.5Z" fill="#FFFFFF" />
  <path d="m7.72,12H2.28l-1.22,2.26c-.18.33.06.74.44.74h7c.38,0,.62-.4.44-.74l-1.22-2.26Z" fill="#0078D7" opacity="0.65" />
  <path d="m8,2c.28,0,.5.22.5.5s-.22.5-.5.5h-1v4.68c0,.58.14,1.15.42,1.66l2.4,4.45c.54,1-.19,2.21-1.32,2.21H1.5c-1.14,0-1.86-1.21-1.32-2.21l2.39-4.44c.27-.51.42-1.08.42-1.66V3h-.99c-.28,0-.5-.22-.5-.5s.22-.5.5-.5h6Zm-4.01,1v4.69c0,.75-.19,1.48-.54,2.13l-.64,1.18h4.36l-.64-1.18c-.35-.66-.54-1.39-.54-2.13V3h-2.01Zm3.72,9H2.28l-1.22,2.26c-.18.33.06.74.44.74h7c.38,0,.62-.4.44-.74l-1.22-2.26Z" fill="#000000" />
  <path d="m12.25,1.5c0,.41-.34.75-.75.75s-.75-.34-.75-.75.34-.75.75-.75.75.34.75.75Zm-.25,4.5c-1.38,0-2.5,1.12-2.5,2.5,0,1.1.9,2,2,2,.83,0,1.5-.67,1.5-1.5,0-.55-.45-1-1-1-.28,0-.5.22-.5.5s.22.5.5.5c0,.28-.22.5-.5.5-.55,0-1-.45-1-1,0-.83.67-1.5,1.5-1.5,1.1,0,2,.9,2,2,0,1.38-1.12,2.5-2.5,2.5-.28,0-.5.22-.5.5s.22.5.5.5c1.93,0,3.5-1.57,3.5-3.5,0-1.66-1.34-3-3-3Zm3-3.5c0-.28-.22-.5-.5-.5s-.5.22-.5.5v.5h-.5c-.28,0-.5.22-.5.5s.22.5.5.5h.5v.5c0,.28.22.5.5.5s.5-.22.5-.5v-.5h.5c.28,0,.5-.22.5-.5s-.22-.5-.5-.5h-.5v-.5Z" fill="#0078D7" />
</svg>