<svg xmlns="http://www.w3.org/2000/svg" viewBox="0 0 16 16" width="16" height="16">
  <path d="m13,0h-4.88c-.53,0-1.04.21-1.41.59L1.71,5.59c-.78.78-.78,2.05,0,2.83l4.38,4.38c.78.78,2.05.78,2.83,0l5.5-5.5c.38-.38.59-.88.59-1.41v-3.88c0-1.1-.9-2-2-2Zm-1.5,4.75c-.69,0-1.25-.56-1.25-1.25s.56-1.25,1.25-1.25,1.25.56,1.25,1.25-.56,1.25-1.25,1.25Zm-6.12,8.75L1.13,9.25c.06.94.45,1.86,1.16,2.58l2.38,2.38c1.56,1.56,4.09,1.56,5.66,0l3.5-3.5c.69-.69,1.1-1.61,1.16-2.58l-5.37,5.37c-1.17,1.17-3.07,1.17-4.24,0Z" fill="currentColor" />
</svg>