<svg xmlns="http://www.w3.org/2000/svg" viewBox="0 0 16 16" width="16" height="16">
  <path d="m2,1.5c-.83,0-1.5.67-1.5,1.5v7c0,.83.67,1.5,1.5,1.5h4c0-3.04,2.46-5.5,5.5-5.5,1.58,0,3,.66,4,1.73V3c0-.83-.67-1.5-1.5-1.5H2Z" fill="#FFFFFF" />
  <path d="m1.96,12c-.26,0-.51-.05-.75-.16-.23-.11-.44-.25-.63-.43-.18-.18-.32-.39-.43-.62-.1-.24-.16-.49-.16-.75V2.96c0-.26.05-.51.16-.74.11-.24.25-.45.43-.62.18-.18.39-.33.63-.43.24-.11.49-.16.75-.16h12.08c.26,0,.51.05.74.16.24.1.45.25.62.43.18.18.33.39.43.62.11.23.16.48.16.74v5.38c-.28-.4-.61-.76-1-1.08V3c0-.14-.03-.26-.08-.38-.05-.12-.12-.23-.22-.32-.09-.09-.2-.17-.32-.22-.12-.05-.25-.08-.38-.08H2c-.14,0-.27.03-.39.08-.12.05-.23.12-.32.22-.09.09-.16.19-.21.31-.05.12-.08.25-.08.39v7c0,.14.03.27.08.4.05.12.12.22.21.31.09.09.19.16.31.21.12.05.26.08.4.08h4.02c-.02.17-.02.33-.02.5s0,.34.02.5H1.96Zm.54-7.75c0-.21.07-.39.22-.53s.32-.22.53-.22.39.07.53.22.22.32.22.53-.07.39-.22.53-.32.22-.53.22-.39-.07-.53-.22-.22-.32-.22-.53Zm3,0c0-.21.07-.39.22-.53s.32-.22.53-.22.39.07.53.22.22.32.22.53-.07.39-.22.53-.32.22-.53.22-.39-.07-.53-.22-.22-.32-.22-.53Zm3,0c0-.21.07-.39.22-.53s.32-.22.53-.22.39.07.53.22.22.32.22.53-.07.39-.22.53-.32.22-.53.22-.39-.07-.53-.22-.22-.32-.22-.53Zm3,0c0-.21.07-.39.22-.53.15-.15.32-.22.53-.22s.39.07.53.22c.15.15.22.32.22.53s-.07.39-.22.53c-.15.15-.32.22-.53.22s-.39-.07-.53-.22c-.15-.15-.22-.32-.22-.53Zm-7,3c0-.21.07-.39.22-.53s.32-.22.53-.22.39.07.53.22.22.32.22.53-.07.39-.22.53-.32.22-.53.22-.39-.07-.53-.22-.22-.32-.22-.53Zm3,0c0-.21.07-.39.22-.53s.32-.22.53-.22.38.07.53.22c-.22.12-.43.26-.62.41-.19.15-.38.31-.55.49-.07-.11-.1-.24-.1-.38Zm2.22,8.24c-.3-.12-.59-.28-.88-.48.05-.17.09-.33.13-.48.05-.16.07-.33.07-.5,0-.23-.04-.45-.12-.66-.08-.21-.18-.41-.32-.58-.14-.17-.3-.32-.48-.44-.19-.12-.39-.21-.62-.27l-.48-.11c-.02-.16-.02-.32-.02-.48s0-.32.02-.48l.48-.11c.22-.05.43-.14.62-.26.19-.12.35-.27.48-.45.14-.17.24-.36.32-.57.08-.21.12-.43.12-.66,0-.17-.02-.34-.07-.49-.04-.16-.09-.33-.13-.49.29-.19.58-.35.88-.48.14.14.27.27.39.38.12.11.26.22.39.3.14.08.29.15.45.2.16.05.35.07.55.07s.39-.02.55-.07c.16-.05.31-.11.45-.2.14-.09.26-.19.38-.3.12-.11.26-.24.4-.38.3.12.59.28.88.48-.05.17-.09.33-.14.49-.04.16-.06.32-.06.49,0,.23.04.45.11.66.08.21.18.4.32.57.14.17.3.32.49.45.19.12.39.21.62.26l.48.11c.02.17.02.33.02.48s0,.32-.02.48l-.48.11c-.22.05-.43.14-.62.27-.19.12-.35.27-.49.44-.14.17-.24.36-.32.58-.07.21-.11.43-.11.66,0,.17.02.34.06.5.05.16.09.32.14.48-.29.19-.58.35-.88.48-.14-.14-.27-.27-.4-.38-.12-.11-.25-.21-.38-.3-.14-.09-.28-.16-.45-.2-.16-.05-.35-.07-.55-.07s-.4.02-.56.07c-.16.05-.3.11-.44.2-.14.08-.27.18-.39.3-.12.11-.25.24-.39.38Zm-6.22-5.49c-.14,0-.25-.05-.35-.15-.1-.1-.15-.22-.15-.35s.05-.25.15-.35c.1-.1.22-.15.35-.15h3.1c-.17.33-.3.66-.39,1h-2.71Zm9,1.5c0-.14-.03-.26-.08-.38-.05-.12-.12-.23-.22-.32-.09-.09-.2-.17-.32-.22-.12-.05-.25-.08-.38-.08s-.27.03-.39.08c-.12.05-.23.12-.32.22-.09.09-.16.19-.21.31-.05.12-.08.25-.08.39s.03.27.08.4c.05.12.12.22.21.31.09.09.19.16.31.21.12.05.26.08.4.08s.27-.03.39-.08c.12-.05.22-.12.31-.21.09-.09.17-.2.22-.32.05-.12.08-.25.08-.39Z" fill="#000000" />
</svg>