<svg xmlns="http://www.w3.org/2000/svg" viewBox="0 0 16 16" width="16" height="16">
  <path d="m5.38.54c.2-.03.41-.04.62-.04s.42.01.63.04c.21.03.39.19.43.4l.2,1.01c.11.55.67.87,1.2.69l.97-.34c.2-.07.43,0,.56.17.25.33.46.69.63,1.08.08.2.03.43-.13.57l-.78.67c-.42.37-.42,1.02,0,1.38l.78.67c.16.14.22.37.13.57-.16.39-.37.75-.63,1.08-.13.17-.36.24-.56.17l-.97-.34c-.53-.18-1.09.14-1.2.69l-.2,1.01c-.04.21-.21.37-.43.4-.21.03-.42.04-.63.04s-.42-.01-.62-.04c-.21-.03-.39-.19-.43-.4l-.2-1.01c-.11-.55-.67-.87-1.2-.69l-.98.34c-.2.07-.43,0-.56-.17-.25-.33-.46-.69-.63-1.08-.08-.2-.03-.43.13-.57l.78-.68c.42-.37.42-1.02,0-1.38l-.78-.68c-.16-.14-.22-.37-.13-.57.16-.39.37-.75.63-1.08.13-.17.36-.24.56-.17l.98.34c.53.18,1.09-.14,1.2-.69l.2-1.01c.04-.21.21-.37.43-.4Zm.62,6.46c.83,0,1.5-.67,1.5-1.5s-.67-1.5-1.5-1.5-1.5.67-1.5,1.5.67,1.5,1.5,1.5Z" fill="#FFFFFF" />
  <path d="m5.44,1.03l-.2,1.01c-.16.85-1.04,1.35-1.85,1.07l-.98-.34c-.23.3-.42.62-.56.97l.78.68c.65.56.65,1.57,0,2.14l-.78.68c.15.35.34.67.56.97l.98-.34c.81-.28,1.69.22,1.85,1.07l.2,1.01c.18.02.37.03.56.03s.38-.01.57-.04l.2-1.01c.16-.85,1.04-1.35,1.85-1.07l.97.34c.23-.3.42-.63.56-.97l-.78-.67c-.65-.56-.65-1.57,0-2.14l.78-.67c-.15-.35-.34-.68-.56-.97l-.97.34c-.81.28-1.69-.22-1.85-1.07l-.2-1.01c-.19-.02-.37-.04-.57-.04s-.38.01-.56.03Zm-.52-.93c.35-.07.71-.11,1.08-.11s.74.04,1.09.11c.2.04.35.2.39.4l.26,1.35c.05.25.31.4.55.31l1.3-.45c.19-.07.4-.01.54.14.48.54.85,1.18,1.09,1.88.06.19,0,.4-.15.54l-1.04.9c-.19.17-.19.46,0,.63l1.04.9c.15.13.21.34.15.54-.24.7-.61,1.34-1.09,1.88-.13.15-.35.21-.54.14l-1.3-.45c-.24-.08-.5.07-.55.31l-.26,1.35c-.04.2-.19.36-.39.4-.35.07-.72.11-1.09.11s-.73-.04-1.08-.11c-.2-.04-.35-.2-.39-.4l-.26-1.36c-.05-.25-.31-.4-.55-.31l-1.31.45c-.19.07-.4.01-.54-.14-.48-.54-.85-1.18-1.09-1.88-.06-.19,0-.4.15-.54l1.05-.91c.19-.17.19-.46,0-.63l-1.05-.91c-.15-.13-.21-.35-.15-.54.24-.7.61-1.34,1.09-1.88.13-.15.35-.21.54-.14l1.31.45c.24.08.5-.07.55-.31l.26-1.35c.04-.2.19-.36.39-.4Zm4.77,10.19c-.19-.07-.41-.01-.53.15-.14.19-.26.4-.36.62-.08.18-.02.4.13.53l.64.55c.21.18.21.51,0,.69l-.64.55c-.15.13-.21.35-.13.53.1.22.22.43.36.62.12.16.33.22.53.15l.8-.28c.26-.09.54.07.59.34l.16.83c.04.2.19.36.4.38.12.01.24.02.36.02s.24,0,.36-.02c.2-.02.36-.18.4-.38l.16-.83c.05-.27.33-.43.59-.34l.8.28c.19.07.41.01.53-.15.14-.19.26-.4.36-.62.08-.18.02-.4-.13-.53l-.64-.55c-.21-.18-.21-.51,0-.69l.64-.55c.15-.13.21-.35.13-.53-.1-.22-.22-.43-.36-.62-.12-.16-.33-.22-.53-.15l-.8.28c-.26.09-.54-.07-.59-.34l-.16-.83c-.04-.2-.19-.36-.4-.38-.12-.01-.24-.02-.36-.02s-.24,0-.36.02c-.2.02-.36.18-.4.38l-.16.83c-.05.27-.33.43-.59.34l-.8-.28Zm2.31,3.2c-.55,0-1-.45-1-1s.45-1,1-1,1,.45,1,1-.45,1-1,1Zm-7-8c0-.55.45-1,1-1s1,.45,1,1-.45,1-1,1-1-.45-1-1Zm1-2c-1.1,0-2,.9-2,2s.9,2,2,2,2-.9,2-2-.9-2-2-2Z" fill="#000000" />
</svg>