<svg xmlns="http://www.w3.org/2000/svg" viewBox="0 0 16 16" width="16" height="16">
  <path d="m4,2.5v1.5h-2c-1.1,0-2,.9-2,2v7c0,1.1.9,2,2,2h12c1.1,0,2-.9,2-2v-7c0-1.1-.9-2-2-2h-2v-1.5c0-.83-.67-1.5-1.5-1.5h-5c-.83,0-1.5.67-1.5,1.5Zm1.5-.5h5c.28,0,.5.22.5.5v1.5h-6v-1.5c0-.28.22-.5.5-.5Zm-3.5,3h12c.55,0,1,.45,1,1v2h-3v-.5c0-.28-.22-.5-.5-.5s-.5.22-.5.5v.5h-6v-.5c0-.28-.22-.5-.5-.5s-.5.22-.5.5v.5H1v-2c0-.55.45-1,1-1Zm9,4v.5c0,.28.22.5.5.5s.5-.22.5-.5v-.5h3v4c0,.55-.45,1-1,1H2c-.55,0-1-.45-1-1v-4h3v.5c0,.28.22.5.5.5s.5-.22.5-.5v-.5h6Z" fill="currentColor" />
</svg>