<svg xmlns="http://www.w3.org/2000/svg" viewBox="0 0 16 16" width="16" height="16">
  <path d="m15.56,3.35L12.65.44c-.28-.28-.66-.44-1.06-.44h-2.59c-1.1,0-2,.9-2,2v9c0,1.1.9,2,2,2h5c1.1,0,2-.9,2-2v-6.59c0-.4-.16-.78-.44-1.06Zm-3.56-2.15l2.79,2.79h-2.29c-.28,0-.5-.22-.5-.5V1.21Zm3,9.79c0,.55-.45,1-1,1h-5c-.55,0-1-.45-1-1V2c0-.55.45-1,1-1h2v2.5c0,.83.67,1.5,1.5,1.5h2.5v6Zm-3.5,4H2.5c-.83,0-1.5-.67-1.5-1.5v-4.5h3.09c.4,0,.78-.16,1.06-.44l.85-.85v-2.41l-.78-.78c-.33-.33-.77-.51-1.24-.51h-1.48c-1.38,0-2.5,1.12-2.5,2.5v7c0,1.38,1.12,2.5,2.5,2.5h9c1.21,0,2.22-.86,2.45-2h-1.04c-.21.58-.76,1-1.41,1ZM1,6.5c0-.83.67-1.5,1.5-1.5h1.48c.2,0,.39.08.53.22l1.28,1.28-1.35,1.35c-.09.09-.22.15-.35.15H1v-1.5Z" fill="currentColor" />
</svg>