<svg xmlns="http://www.w3.org/2000/svg" viewBox="0 0 16 16" width="16" height="16">
  <path d="m11.24,1.43c-.56-.29-1.13-.52-1.73-.69h0c-.59-.17-1.2-.25-1.82-.25-.67,0-1.3.09-1.9.28-.61.18-1.19.45-1.75.81-.31.2-.6.43-.86.68h0c-.27.27-.53.54-.77.84h0c-.54.66-.99,1.37-1.34,2.15-.16.36-.3.73-.4,1.12-.1.36-.15.73-.15,1.11s.06.69.17.98c.11.27.3.52.56.75.21.18.45.34.7.48.21.12.44.17.68.17.17,0,.32-.03.44-.09.18-.09.36-.18.53-.29.2-.12.4-.23.61-.34.27-.13.55-.19.85-.19.11,0,.21.01.33.03.12.01.24.04.36.07.14.04.26.09.39.15.13.07.26.17.36.3h0c.08.13.15.26.2.4.05.12.08.25.11.39.03.13.05.26.06.4.01.11.02.22.02.31.01.16.02.32.02.48.01.15.02.31.03.47h0c.02.44.09.84.19,1.19.1.35.25.66.43.94.18.27.42.51.7.71.28.21.63.39,1.04.53.41.14.81.21,1.21.21.45,0,.86-.08,1.25-.24h0c.41-.17.79-.4,1.15-.68.44-.35.81-.76,1.13-1.23h0c.33-.48.6-.99.81-1.53h0c.22-.54.38-1.1.48-1.68.1-.59.16-1.16.16-1.72,0-.78-.1-1.51-.29-2.19-.19-.7-.47-1.34-.83-1.93h0c-.36-.6-.8-1.14-1.33-1.63h0c-.52-.49-1.13-.92-1.81-1.29Z" fill="#FFFFFF" />
  <path d="m5.06,9.47c-.23,0-.45.05-.64.14-.19.09-.38.2-.57.31-.18.11-.37.22-.57.31-.2.09-.42.14-.66.14-.32,0-.63-.08-.92-.23-.29-.16-.55-.34-.79-.54-.32-.28-.55-.59-.7-.95-.15-.36-.22-.75-.22-1.16s.06-.83.17-1.24c.11-.42.26-.81.42-1.19.18-.41.39-.8.63-1.18.24-.38.5-.74.78-1.09.26-.31.53-.61.81-.88.29-.28.6-.53.95-.75.59-.37,1.21-.66,1.88-.86C6.31.11,6.99,0,7.69,0c.66,0,1.31.09,1.95.26.64.17,1.25.41,1.84.73.71.39,1.35.85,1.91,1.37.56.52,1.04,1.1,1.42,1.73.39.64.69,1.32.89,2.06.2.73.3,1.51.3,2.33,0,.5-.04,1-.12,1.49-.07.49-.18.97-.33,1.45-.11.37-.26.74-.44,1.12-.17.37-.38.73-.61,1.07-.23.34-.49.66-.78.96-.29.3-.6.55-.94.77-.33.22-.69.39-1.08.52-.38.12-.78.19-1.2.19-.23,0-.47-.02-.7-.06-.22-.04-.45-.1-.66-.18-.46-.16-.85-.36-1.18-.6-.33-.24-.6-.52-.82-.84-.21-.32-.38-.67-.49-1.07-.11-.4-.18-.83-.21-1.3-.02-.29-.04-.57-.05-.86,0-.29-.04-.57-.11-.85-.02-.08-.04-.16-.07-.25-.03-.09-.07-.16-.12-.22-.06-.06-.13-.12-.21-.16-.08-.05-.17-.08-.27-.11-.09-.03-.19-.04-.29-.05-.09-.02-.18-.02-.27-.02Zm5.45,5.59c.39,0,.76-.07,1.12-.22.35-.15.68-.35.98-.59.41-.33.77-.73,1.07-1.18s.55-.93.75-1.45c.2-.52.34-1.04.44-1.59.09-.55.14-1.08.14-1.59,0-.72-.09-1.41-.27-2.05-.18-.65-.44-1.24-.78-1.8-.34-.56-.76-1.06-1.26-1.52-.49-.45-1.06-.85-1.69-1.2-.51-.28-1.04-.49-1.6-.65s-1.14-.23-1.72-.23c-.72,0-1.39.11-2.02.34-.62.23-1.2.55-1.72.95-.52.4-.99.88-1.4,1.42-.41.54-.76,1.13-1.04,1.76-.15.32-.27.65-.37.98-.09.34-.14.68-.14,1.04,0,.27.04.52.12.74.08.22.23.42.43.6.06.05.13.11.21.17.09.06.18.12.27.18.09.05.19.1.28.14.09.04.18.05.26.05.15,0,.3-.05.47-.14.17-.1.35-.2.55-.31.2-.11.42-.22.66-.31.24-.1.51-.15.8-.15.16,0,.32.02.48.05.16.03.32.06.47.11.34.11.6.27.78.47.18.2.32.44.4.7.09.26.14.55.16.86.02.31.04.62.05.95.02.32.05.65.1.97.05.32.15.63.29.92.14.29.34.55.61.79.27.24.62.44,1.07.59.33.12.67.18,1.02.18ZM7,3.75c0-.21.07-.39.22-.53s.32-.22.53-.22.39.07.53.22.22.32.22.53-.07.39-.22.53-.32.22-.53.22-.39-.07-.53-.22-.22-.32-.22-.53Zm3,1c0-.21.07-.39.22-.53.15-.15.32-.22.53-.22s.39.07.53.22c.15.15.22.32.22.53s-.07.39-.22.53c-.15.15-.32.22-.53.22s-.39-.07-.53-.22c-.15-.15-.22-.32-.22-.53Zm1.75,2.25c0-.21.07-.39.22-.53.15-.15.32-.22.53-.22s.39.07.53.22c.15.15.22.32.22.53s-.07.39-.22.53c-.15.15-.32.22-.53.22s-.39-.07-.53-.22c-.15-.15-.22-.32-.22-.53Zm0,3c0-.21.07-.39.22-.53.15-.15.32-.22.53-.22s.39.07.53.22c.15.15.22.32.22.53s-.07.39-.22.53c-.15.15-.32.22-.53.22s-.39-.07-.53-.22c-.15-.15-.22-.32-.22-.53Zm-2,2c0-.21.07-.39.22-.53.15-.15.32-.22.53-.22s.39.07.53.22c.15.15.22.32.22.53s-.07.39-.22.53c-.15.15-.32.22-.53.22s-.39-.07-.53-.22c-.15-.15-.22-.32-.22-.53Z" fill="#000000" />
</svg>