<svg xmlns="http://www.w3.org/2000/svg" viewBox="0 0 16 16" width="16" height="16">
  <path d="m11.5,2.25c.41,0,.75-.34.75-.75s-.34-.75-.75-.75-.75.34-.75.75.34.75.75.75Zm.5,3.75c-1.38,0-2.5,1.12-2.5,2.5,0,1.1.9,2,2,2,.83,0,1.5-.67,1.5-1.5,0-.55-.45-1-1-1-.28,0-.5.22-.5.5s.22.5.5.5c0,.28-.22.5-.5.5-.55,0-1-.45-1-1,0-.83.67-1.5,1.5-1.5,1.1,0,2,.9,2,2,0,1.38-1.12,2.5-2.5,2.5-.28,0-.5.22-.5.5s.22.5.5.5c1.93,0,3.5-1.57,3.5-3.5,0-1.66-1.34-3-3-3Zm3.5-3h-.5v-.5c0-.28-.22-.5-.5-.5s-.5.22-.5.5v.5h-.5c-.28,0-.5.22-.5.5s.22.5.5.5h.5v.5c0,.28.22.5.5.5s.5-.22.5-.5v-.5h.5c.28,0,.5-.22.5-.5s-.22-.5-.5-.5Zm-8.08,6.34c-.27-.51-.42-1.08-.42-1.66V3h1c.28,0,.5-.22.5-.5s-.22-.5-.5-.5H2c-.28,0-.5.22-.5.5s.22.5.5.5h.99v4.69c0,.58-.14,1.15-.42,1.66L.18,13.79c-.54,1,.18,2.21,1.32,2.21h7c1.14,0,1.86-1.21,1.32-2.21l-2.4-4.45Zm-3.97.48c.35-.66.54-1.39.54-2.13V3h2.01v4.68c0,.75.18,1.48.54,2.13l.64,1.18H2.82l.64-1.18Zm5.04,5.18H1.5c-.38,0-.62-.4-.44-.74l1.22-2.26h5.44l1.22,2.26c.18.33-.06.74-.44.74Z" fill="currentColor" />
</svg>