<svg xmlns="http://www.w3.org/2000/svg" viewBox="0 0 16 16" width="16" height="16">
  <path d="m15.84,2.22c-.1-.24-.25-.45-.43-.62-.18-.18-.39-.33-.62-.43-.23-.11-.48-.16-.74-.16H1.96c-.26,0-.51.05-.75.16-.23.1-.44.25-.62.43s-.32.39-.43.62c-.1.23-.16.48-.16.74v7.08c0,.26.05.51.16.75.11.23.25.44.43.62.18.18.39.32.62.43.24.1.49.16.75.16h4.06c-.01-.16-.02-.33-.02-.5,0-.52.07-1.02.21-1.5h-2.71c-.14,0-.25-.05-.35-.15-.1-.1-.15-.22-.15-.35s.05-.25.15-.35.22-.15.35-.15h3.1c.24-.47.55-.9.91-1.29-.02-.04-.05-.08-.06-.12-.05-.11-.07-.22-.07-.34s.02-.23.07-.34c.05-.11.11-.2.19-.28s.17-.14.27-.19c.11-.05.22-.07.34-.07.25,0,.46.08.62.25,0,0,.02.02.03.03.77-.42,1.66-.65,2.6-.65,1.86,0,3.5.92,4.5,2.34V2.96c0-.26-.05-.51-.16-.74Zm-11.78,2.38c-.05.1-.11.2-.19.27s-.17.14-.28.19c-.1.05-.22.07-.34.07s-.23-.02-.34-.07c-.1-.05-.2-.11-.27-.19s-.14-.17-.19-.27c-.05-.11-.07-.22-.07-.34s.02-.23.07-.34c.05-.11.11-.2.19-.28s.17-.14.27-.19c.11-.05.22-.07.34-.07.25,0,.46.08.62.25s.25.38.25.62c0,.12-.02.23-.07.34Zm2,3c-.05.1-.11.2-.19.27s-.17.14-.28.19c-.1.05-.22.07-.34.07s-.23-.02-.34-.07c-.1-.05-.2-.11-.27-.19s-.14-.17-.19-.27c-.05-.11-.07-.22-.07-.34s.02-.23.07-.34c.05-.11.11-.2.19-.28s.17-.14.27-.19c.11-.05.22-.07.34-.07.25,0,.46.08.62.25s.25.38.25.62c0,.12-.02.23-.07.34Zm1-3c-.05.1-.11.2-.19.27s-.17.14-.28.19c-.1.05-.22.07-.34.07s-.23-.02-.34-.07c-.1-.05-.2-.11-.27-.19s-.14-.17-.19-.27c-.05-.11-.07-.22-.07-.34s.02-.23.07-.34c.05-.11.11-.2.19-.28s.17-.14.27-.19c.11-.05.22-.07.34-.07.25,0,.46.08.62.25s.25.38.25.62c0,.12-.02.23-.07.34Zm3,0c-.05.1-.11.2-.19.27s-.17.14-.28.19c-.1.05-.22.07-.34.07s-.23-.02-.34-.07c-.1-.05-.2-.11-.27-.19s-.14-.17-.19-.27c-.05-.11-.07-.22-.07-.34s.02-.23.07-.34c.05-.11.11-.2.19-.28s.17-.14.27-.19c.11-.05.22-.07.34-.07.25,0,.46.08.62.25s.25.38.25.62c0,.12-.02.23-.07.34Zm3,0c-.05.1-.11.2-.19.27-.08.08-.17.14-.28.19-.1.05-.22.07-.34.07s-.23-.02-.34-.07c-.1-.05-.2-.11-.27-.19-.08-.08-.14-.17-.19-.27-.05-.11-.07-.22-.07-.34s.02-.23.07-.34c.05-.11.11-.2.19-.28.08-.08.17-.14.27-.19.11-.05.22-.07.34-.07.25,0,.46.08.62.25s.25.38.25.62c0,.12-.02.23-.07.34Zm2.44,6.31c-.22-.05-.43-.14-.62-.26-.19-.12-.35-.27-.49-.45-.14-.17-.24-.36-.32-.57-.07-.21-.11-.43-.11-.66,0-.17.02-.34.06-.49.05-.16.09-.33.14-.49-.29-.19-.58-.35-.88-.48-.14.14-.27.27-.4.38-.12.11-.25.22-.38.3-.14.08-.28.15-.45.2-.16.05-.35.07-.55.07s-.39-.02-.55-.07c-.16-.05-.3-.11-.45-.2-.14-.09-.27-.19-.39-.3-.12-.11-.25-.24-.39-.38-.3.12-.59.28-.88.48.05.17.09.33.13.49.05.16.07.32.07.49,0,.23-.04.45-.12.66-.08.21-.18.4-.32.57-.14.17-.3.32-.48.45-.19.12-.39.21-.62.26l-.48.11c-.02.17-.02.33-.02.48s0,.32.02.48l.48.11c.22.05.43.14.62.27.19.12.35.27.48.44.14.17.24.36.32.58.08.21.12.43.12.66,0,.17-.02.34-.07.5-.04.16-.09.32-.13.48.29.19.58.35.88.48.14-.14.27-.27.39-.38.12-.11.26-.21.39-.3.14-.09.28-.16.44-.2.16-.05.35-.07.56-.07s.39.02.55.07c.16.05.31.11.45.2.14.08.26.18.38.3.12.11.26.24.4.38.3-.12.59-.28.88-.48-.05-.17-.09-.33-.14-.48-.04-.16-.06-.33-.06-.5,0-.23.04-.45.11-.66.08-.21.18-.41.32-.58.14-.17.3-.32.49-.44.19-.12.39-.21.62-.27l.48-.11c.02-.16.02-.32.02-.48s0-.32-.02-.48l-.48-.11Zm-3.07.98c-.05.12-.12.23-.22.32-.09.09-.19.16-.31.21-.12.05-.25.08-.39.08s-.27-.03-.4-.08c-.12-.05-.22-.12-.31-.21-.09-.09-.16-.19-.21-.31-.05-.12-.08-.26-.08-.4s.03-.27.08-.39c.05-.12.12-.22.21-.31.09-.09.2-.17.32-.22.12-.05.25-.08.39-.08s.26.03.38.08c.12.05.23.12.32.22.09.09.17.2.22.32.05.12.08.25.08.38s-.03.27-.08.39Z" fill="currentColor" />
</svg>