<svg xmlns="http://www.w3.org/2000/svg" viewBox="0 0 16 16" width="16" height="16">
  <path d="m5.06,9.47c-.23,0-.44.05-.63.14-.19.09-.38.2-.57.31-.19.11-.38.22-.58.31-.2.09-.42.14-.66.14-.33,0-.64-.08-.92-.23-.29-.16-.55-.34-.79-.54-.32-.28-.56-.59-.7-.95-.14-.35-.21-.74-.21-1.16s.05-.84.16-1.24c.11-.41.26-.8.43-1.19.37-.82.84-1.58,1.41-2.27.26-.31.53-.61.81-.88.29-.28.6-.53.95-.75.6-.38,1.22-.67,1.88-.87.65-.2,1.33-.3,2.05-.3.67,0,1.32.09,1.95.27.64.17,1.25.41,1.84.73.72.39,1.36.84,1.91,1.36.56.52,1.04,1.1,1.42,1.73.39.63.68,1.32.88,2.05.2.73.3,1.51.3,2.33,0,.59-.05,1.2-.16,1.81-.11.61-.28,1.2-.51,1.77-.22.57-.51,1.11-.86,1.62-.34.51-.75.95-1.23,1.34-.39.32-.82.57-1.27.76-.45.19-.93.28-1.45.28-.46,0-.92-.08-1.37-.24-.45-.16-.84-.36-1.17-.6-.33-.24-.6-.52-.82-.84-.22-.32-.39-.68-.5-1.08-.11-.4-.18-.83-.21-1.3-.01-.16-.02-.32-.03-.48,0-.16-.01-.32-.02-.48,0-.09-.01-.19-.02-.3-.01-.11-.03-.23-.05-.34-.02-.11-.05-.22-.09-.32-.04-.1-.08-.19-.13-.27-.05-.06-.11-.12-.2-.16-.08-.05-.17-.08-.27-.11-.1-.03-.2-.04-.3-.05-.09-.02-.18-.02-.26-.02Zm3.56-5.72c0-.25-.08-.46-.25-.62s-.38-.25-.62-.25c-.12,0-.23.02-.34.07-.1.05-.2.11-.27.19-.08.08-.14.17-.19.28-.05.1-.07.22-.07.34s.02.23.07.34c.05.1.11.2.19.27.08.08.17.14.27.19.11.05.22.07.34.07s.23-.02.34-.07c.11-.05.2-.11.28-.19.08-.08.14-.17.19-.27.05-.11.07-.22.07-.34Zm3,1c0-.25-.08-.46-.25-.62-.17-.17-.38-.25-.62-.25-.12,0-.23.02-.34.07-.1.05-.2.11-.27.19-.08.08-.14.17-.19.28-.05.1-.07.22-.07.34s.02.23.07.34c.05.1.11.2.19.27.08.08.17.14.27.19.11.05.22.07.34.07s.23-.02.34-.07c.11-.05.2-.11.28-.19.08-.08.14-.17.19-.27.05-.11.07-.22.07-.34Zm1.75,2.25c0-.25-.08-.46-.25-.62s-.38-.25-.62-.25c-.12,0-.23.02-.34.07-.1.05-.2.11-.27.19-.08.08-.14.17-.19.28-.05.1-.07.22-.07.34s.02.23.07.34c.05.1.11.2.19.27.08.08.17.14.27.19.11.05.22.07.34.07s.23-.02.34-.07c.11-.05.2-.11.28-.19.08-.08.14-.17.19-.27.05-.11.07-.22.07-.34Zm0,3c0-.25-.08-.46-.25-.62s-.38-.25-.62-.25c-.12,0-.23.02-.34.07-.1.05-.2.11-.27.19-.08.08-.14.17-.19.28-.05.1-.07.22-.07.34s.02.23.07.34c.05.1.11.2.19.27s.17.14.27.19c.11.05.22.07.34.07s.23-.02.34-.07c.11-.05.2-.11.28-.19s.14-.17.19-.27c.05-.11.07-.22.07-.34Zm-2,2c0-.25-.08-.46-.25-.62s-.38-.25-.62-.25c-.12,0-.23.02-.34.07-.1.05-.2.11-.27.19-.08.08-.14.17-.19.28-.05.1-.07.22-.07.34s.02.23.07.34c.05.1.11.2.19.27.08.08.17.14.27.19.11.05.22.07.34.07s.23-.02.34-.07c.11-.05.2-.11.28-.19s.14-.17.19-.27c.05-.11.07-.22.07-.34Z" fill="currentColor" />
</svg>