<svg xmlns="http://www.w3.org/2000/svg" viewBox="0 0 16 16" width="16" height="16">
  <path d="m6,0c-.37,0-.73.04-1.08.11-.2.04-.35.2-.39.4l-.26,1.35c-.05.25-.31.4-.55.31l-1.31-.45c-.19-.07-.4-.01-.54.14-.48.54-.85,1.18-1.09,1.88-.06.19,0,.4.15.54l1.05.91c.19.17.19.46,0,.63l-1.05.91c-.15.13-.21.35-.15.54.24.7.61,1.34,1.09,1.88.13.15.35.21.54.14l1.31-.45c.24-.08.5.07.55.31l.26,1.36c.04.2.19.36.39.4.35.07.71.11,1.08.11s.74-.04,1.09-.11c.2-.04.35-.2.39-.4l.26-1.35c.05-.25.31-.4.55-.31l1.3.45c.19.07.4.01.54-.14.48-.54.85-1.18,1.09-1.88.06-.19,0-.4-.15-.54l-1.04-.9c-.19-.17-.19-.46,0-.63l1.04-.9c.15-.13.21-.34.15-.54-.24-.7-.61-1.34-1.09-1.88-.13-.15-.35-.21-.54-.14l-1.3.45c-.24.08-.5-.07-.55-.31l-.26-1.35c-.04-.2-.19-.36-.39-.4-.35-.07-.72-.11-1.09-.11Zm-1.5,5.5c0-.83.67-1.5,1.5-1.5s1.5.67,1.5,1.5-.67,1.5-1.5,1.5-1.5-.67-1.5-1.5Zm4.66,4.95c.12-.16.33-.22.53-.15l.8.28c.26.09.54-.07.59-.34l.16-.83c.04-.2.19-.36.4-.38.12-.01.24-.02.36-.02s.24,0,.36.02c.2.02.36.18.4.38l.16.83c.05.27.33.43.59.34l.8-.28c.19-.07.41-.01.53.15.14.19.26.4.36.62.08.18.02.4-.13.53l-.64.55c-.21.18-.21.51,0,.69l.64.55c.15.13.21.35.13.53-.1.22-.22.43-.36.62-.12.16-.33.22-.53.15l-.8-.28c-.26-.09-.54.07-.59.34l-.16.83c-.04.2-.19.36-.4.38-.12.01-.24.02-.36.02s-.24,0-.36-.02c-.2-.02-.36-.18-.4-.38l-.16-.83c-.05-.27-.33-.43-.59-.34l-.8.28c-.19.07-.41.01-.53-.15-.14-.19-.26-.4-.36-.62-.08-.18-.02-.4.13-.53l.64-.55c.21-.18.21-.51,0-.69l-.64-.55c-.15-.13-.21-.35-.13-.53.1-.22.22-.43.36-.62Zm3.84,2.05c0-.55-.45-1-1-1s-1,.45-1,1,.45,1,1,1,1-.45,1-1Z" fill="currentColor" />
</svg>