<svg xmlns="http://www.w3.org/2000/svg" viewBox="0 0 16 16" width="16" height="16">
  <path d="m8,1c-3.87,0-7,3.13-7,7s3.13,7,7,7,7-3.13,7-7S11.87,1,8,1ZM0,8C0,3.58,3.58,0,8,0s8,3.58,8,8-3.58,8-8,8S0,12.42,0,8Zm8-4c-1.52,0-2.75,1.23-2.75,2.75,0,.88.42,1.67,1.06,2.17.19.15.34.36.39.63l.08.45h2.42l.08-.45c.05-.27.2-.48.39-.63.65-.5,1.06-1.29,1.06-2.17,0-1.52-1.23-2.75-2.75-2.75Zm1.02,7h-2.05l.11.59c.04.24.25.41.49.41h.84c.24,0,.45-.17.49-.41l.11-.59Zm-4.77-4.25c0-2.07,1.68-3.75,3.75-3.75s3.75,1.68,3.75,3.75c0,1.21-.57,2.28-1.45,2.96-.01,0-.02.02-.02.02h0s0,0,0,0l-.38,2.04c-.13.71-.75,1.22-1.47,1.22h-.84c-.72,0-1.34-.51-1.47-1.22l-.38-2.04s0,0,0,0c0,0,0-.01-.02-.02-.88-.69-1.45-1.76-1.45-2.96Z" fill="currentColor" />
</svg>