<svg xmlns="http://www.w3.org/2000/svg" viewBox="0 0 16 16" width="16" height="16">
  <path d="m6.5.29v3.71c0,.83-.67,1.5-1.5,1.5s-1.5-.67-1.5-1.5V.29C2.03.88,1,2.32,1,4s1.03,3.12,2.5,3.71v6.29c0,.83.67,1.5,1.5,1.5s1.5-.67,1.5-1.5v-6.29c1.47-.59,2.5-2.03,2.5-3.71S7.97.88,6.5.29Zm8.32,1.16c-.19-.57-.72-.95-1.32-.95s-1.13.38-1.32.95c-.12.35-.09.73.08,1.06l.08.17c.1.21.16.44.16.67v4.15c0,.55.45,1,1,1s1-.45,1-1V3.35c0-.23.05-.46.16-.67l.08-.17c.17-.33.19-.71.08-1.06Z" fill="#FFFFFF" />
  <path d="m11.5,8.5h4v5c0,1.1-.9,2-2,2s-2-.9-2-2v-5Z" fill="#000000" opacity="0.3" />
  <path d="m16,13.55v-5.05c0-.11-.03-.21-.07-.27s-.1-.12-.17-.15-.15-.05-.23-.06c-.08-.01-.17-.02-.26-.02h-.27V3.12c.03-.07.08-.15.13-.24.06-.09.11-.2.16-.31.05-.11.1-.22.14-.32.04-.1.06-.18.06-.24,0-.06-.03-.17-.07-.32s-.09-.32-.16-.49c-.06-.18-.12-.34-.18-.5-.06-.16-.1-.27-.12-.34-.04-.1-.1-.19-.19-.25-.08-.06-.18-.09-.29-.09h-2c-.11,0-.21.04-.3.1-.09.06-.15.14-.18.24-.03.08-.07.2-.12.35-.06.16-.11.32-.17.5-.06.18-.11.34-.16.49-.05.15-.07.26-.07.31,0,.07.02.16.06.25s.09.2.15.31c.06.11.11.22.16.32.05.1.09.18.12.23v4.88h-.27c-.09,0-.18,0-.27.02-.08.01-.16.03-.23.07s-.13.09-.17.15-.06.15-.06.27v5.05c0,.34.07.66.2.95.14.3.32.56.55.78s.49.4.8.52.62.19.95.19.65-.07.95-.2c.3-.13.57-.3.8-.52.23-.22.41-.48.55-.77.14-.3.2-.61.2-.95Zm-2-5.55h-1V3c0-.08-.02-.15-.05-.23l-.41-.81.32-.96h1.28l.32.96-.41.81c-.04.07-.05.15-.05.23v5Zm-2,2v-1h3v1h-3Zm3,1v2.5c0,.2-.03.39-.12.58s-.19.35-.33.48c-.14.14-.29.24-.48.32-.18.08-.38.12-.58.12-.2,0-.39-.03-.58-.12-.19-.08-.35-.19-.48-.33s-.24-.29-.32-.48c-.08-.18-.12-.38-.12-.58v-2.5h3ZM4,.54c0-.17-.08-.32-.22-.41-.14-.09-.31-.11-.47-.05C1.66.75.5,2.36.5,4.25c0,1.77,1.02,3.3,2.5,4.03v5.72c0,1.1.9,2,2,2s2-.9,2-2v-5.72c1.48-.74,2.5-2.26,2.5-4.03,0-1.89-1.16-3.51-2.81-4.17-.15-.06-.33-.04-.47.05-.14.09-.22.25-.22.41v3.46c0,.55-.45,1-1,1s-1-.45-1-1V.54Zm-2.5,3.71c0-1.19.59-2.24,1.5-2.87v2.62c0,1.1.9,2,2,2s2-.9,2-2V1.38c.91.63,1.5,1.68,1.5,2.87,0,1.47-.9,2.73-2.19,3.25-.19.08-.31.26-.31.46v6.04c0,.55-.45,1-1,1s-1-.45-1-1v-6.04c0-.2-.12-.39-.31-.46-1.28-.52-2.19-1.78-2.19-3.25Z" fill="#000000" />
</svg>