<svg xmlns="http://www.w3.org/2000/svg" viewBox="0 0 16 16" width="16" height="16">
  <path d="m4.5.5c-1.1,0-2,.9-2,2v11c0,1.1.9,2,2,2h7c1.1,0,2-.9,2-2V5.5h-4c-.55,0-1-.45-1-1V.5h-4Z" fill="#FFFFFF" />
  <path d="m4,8.5c0-.28.22-.5.5-.5s.5.22.5.5-.22.5-.5.5-.5-.22-.5-.5Zm.5,1.5c-.28,0-.5.22-.5.5s.22.5.5.5.5-.22.5-.5-.22-.5-.5-.5Zm-.5,2.5c0-.28.22-.5.5-.5s.5.22.5.5-.22.5-.5.5-.5-.22-.5-.5Zm2.5-4.5c-.28,0-.5.22-.5.5s.22.5.5.5h5c.28,0,.5-.22.5-.5s-.22-.5-.5-.5h-5Zm-.5,2.5c0-.28.22-.5.5-.5h5c.28,0,.5.22.5.5s-.22.5-.5.5h-5c-.28,0-.5-.22-.5-.5Zm.5,1.5c-.28,0-.5.22-.5.5s.22.5.5.5h5c.28,0,.5-.22.5-.5s-.22-.5-.5-.5h-5ZM4,0C2.9,0,2,.9,2,2v12c0,1.1.9,2,2,2h8c1.1,0,2-.9,2-2V5.41c0-.4-.16-.78-.44-1.06L9.65.44c-.28-.28-.66-.44-1.06-.44H4Zm-1,2c0-.55.45-1,1-1h4v3.5c0,.83.67,1.5,1.5,1.5h3.5v8c0,.55-.45,1-1,1H4c-.55,0-1-.45-1-1V2Zm9.79,3h-3.29c-.28,0-.5-.22-.5-.5V1.21l3.79,3.79Z" fill="#000000" />
</svg>