<svg xmlns="http://www.w3.org/2000/svg" viewBox="0 0 16 16" width="16" height="16">
  <path d="m10.5,6c-.83,0-1.5-.67-1.5-1.5V0h-4c-1.1,0-2,.9-2,2v4.21c.48-.13.98-.21,1.5-.21,3.04,0,5.5,2.46,5.5,5.5,0,1.33-.47,2.55-1.26,3.5h4.26c1.1,0,2-.9,2-2v-7h-4.5Zm0-1h4.25L10,.25v4.25c0,.28.22.5.5.5Zm-6,3.88c-.35,0-.62.28-.62.62s.28.62.62.62.62-.28.62-.62-.28-.62-.62-.62Zm0,2.12c-.28,0-.5.22-.5.5v2c0,.28.22.5.5.5s.5-.22.5-.5v-2c0-.28-.22-.5-.5-.5Zm0-4c-2.49,0-4.5,2.01-4.5,4.5s2.01,4.5,4.5,4.5,4.5-2.01,4.5-4.5-2.01-4.5-4.5-4.5Zm0,8c-1.93,0-3.5-1.57-3.5-3.5s1.57-3.5,3.5-3.5,3.5,1.57,3.5,3.5-1.57,3.5-3.5,3.5Z" fill="currentColor" />
</svg>