<svg xmlns="http://www.w3.org/2000/svg" viewBox="0 0 16 16" width="16" height="16">
  <path d="m5.5.5c-1.1,0-2,.9-2,2v3.88c.31.27.5.67.5,1.12,0-.83.67-1.5,1.5-1.5s1.5.67,1.5,1.5v.5h.5c.83,0,1.5.67,1.5,1.5s-.67,1.5-1.5,1.5h-.5v1h.5c.83,0,1.5.67,1.5,1.5,0,.38-.14.73-.38,1h3.88c1.1,0,2-.9,2-2v-7h-4c-.55,0-1-.45-1-1V.5h-4Z" fill="#FFFFFF" />
  <path d="m14.56,4.35L10.65.44c-.28-.28-.66-.44-1.06-.44h-4.59c-1.1,0-2,.9-2,2v4.09c.58.21,1,.76,1,1.41V2c0-.55.45-1,1-1h4v3.5c0,.83.67,1.5,1.5,1.5h3.5v7c0,.55-.45,1-1,1h-4.09c-.21.58-.76,1-1.41,1h5.5c1.1,0,2-.9,2-2v-7.59c0-.4-.16-.78-.44-1.06Zm-4.06.65c-.28,0-.5-.22-.5-.5V1.21l3.79,3.79h-3.29Zm-2.5,8.5c0-.28-.22-.5-.5-.5h-1.5v-3h1.5c.28,0,.5-.22.5-.5s-.22-.5-.5-.5h-1.5v-1.5c0-.28-.22-.5-.5-.5s-.5.22-.5.5v1.5h-2v-1.5c0-.28-.22-.5-.5-.5s-.5.22-.5.5v1.5H.5c-.28,0-.5.22-.5.5s.22.5.5.5h1.5v3H.5c-.28,0-.5.22-.5.5s.22.5.5.5h1.5v1.5c0,.28.22.5.5.5s.5-.22.5-.5v-1.5h2v1.5c0,.28.22.5.5.5s.5-.22.5-.5v-1.5h1.5c.28,0,.5-.22.5-.5Zm-3-.5h-2v-3h2v3Z" fill="#000000" />
</svg>