<svg xmlns="http://www.w3.org/2000/svg" viewBox="0 0 16 16" width="16" height="16">
  <path d="m5.44,5.85l2.06-2.06-1.28-1.28c-.33-.33-.77-.51-1.24-.51h-2.48c-1.38,0-2.5,1.12-2.5,2.5v1.5h5.09c.13,0,.26-.05.35-.15Zm6.54,6.12c-2.06,2.09-5.67,1.99-7.66-.55-.31-.39-.4-.91-.25-1.38.15-.47.53-.84,1-.98.48-.14.72-.27.84-.35.1-.07.12-.11.14-.14.03-.06.06-.1.12-.24h0c.03-.07.07-.16.12-.26.14-.3.35-.67.73-1.05.84-.84,2-1.16,3.09-.97l2.05-2.05h-3.46l-2.56,2.56c-.28.28-.66.44-1.06.44H0v5.5c0,1.38,1.12,2.5,2.5,2.5h10c1.38,0,2.5-1.12,2.5-2.5v-5.67l-2.05,2.05c.19,1.09-.13,2.25-.97,3.09Zm3.73-8.68c-.39-.39-1.02-.39-1.41,0l-3.88,3.88c-.9-.35-1.96-.17-2.68.56-.27.27-.42.54-.53.78-.04.09-.08.17-.11.23-.06.13-.11.23-.18.35-.17.27-.48.61-1.55.93-.16.05-.28.17-.33.33-.05.16-.02.33.08.46,1.62,2.06,4.52,2.12,6.16.46.72-.72.91-1.78.56-2.68l3.88-3.88c.39-.39.39-1.02,0-1.41Zm-5.15,7.27h0c-1.07,1.09-2.89,1.21-4.16.15.72-.31,1.11-.67,1.37-1.09.11-.17.19-.37.27-.53.03-.06.05-.11.07-.15.09-.19.18-.34.34-.5.59-.59,1.54-.59,2.12,0,.59.59.59,1.54,0,2.12Z" fill="currentColor" />
</svg>