<svg xmlns="http://www.w3.org/2000/svg" viewBox="0 0 16 16" width="16" height="16">
  <path d="m8.8,4.5h3.7c1.1,0,2,.9,2,2v5c0,1.1-.9,2-2,2H3.5c-1.1,0-2-.9-2-2v-4c0-.55.45-1,1-1h2.7c.2,0,.39-.06.55-.17l2.5-1.66c.16-.11.36-.17.55-.17Z" fill="#FFFFFF" />
  <path d="m5.92,2.72c.06.05.11.1.17.14l2.41,1.64-2.41,1.64c-.06.04-.12.09-.17.14-.16.14-.37.22-.58.22H1.5v-2c0-1.1.83-2,1.86-2h1.99c.21,0,.41.08.58.22Z" fill="#000000" opacity="0.3" />
  <path d="m12.5,4h-3.85l-2.37-1.58c-.41-.27-.89-.42-1.39-.42h-1.39c-1.38,0-2.5,1.12-2.5,2.5v7c0,1.38,1.12,2.5,2.5,2.5h9c1.38,0,2.5-1.12,2.5-2.5v-5c0-1.38-1.12-2.5-2.5-2.5Zm-10.5.5c0-.83.67-1.5,1.5-1.5h1.39c.3,0,.59.09.83.25l1.87,1.25-2.12,1.42c-.08.05-.18.08-.28.08h-3.2v-1.5Zm12,7c0,.83-.67,1.5-1.5,1.5H3.5c-.83,0-1.5-.67-1.5-1.5v-4.5h3.2c.3,0,.59-.09.83-.25l2.62-1.75h3.85c.83,0,1.5.67,1.5,1.5v5Zm-10,4.5h8c.82,0,1.54-.39,2-1H2c.46.61,1.18,1,2,1Z" fill="#000000" />
</svg>