<svg xmlns="http://www.w3.org/2000/svg" viewBox="0 0 16 16" width="16" height="16">
  <path d="m.5,13.5l1-3.5L10.49,1.01c.81-.81,2.14-.75,2.87.13.64.77.59,1.91-.12,2.62L4.5,12.5.5,13.5Z" fill="#FFFFFF" />
  <path d="m10.02.77c.95-.95,2.5-.95,3.46,0,.95.95.95,2.5,0,3.46l-1.27,1.27.09.09c.78.78.78,2.05,0,2.83l-1.44,1.44c-.2.2-.51.2-.71,0-.2-.2-.2-.51,0-.71l1.44-1.44c.39-.39.39-1.02,0-1.41l-.09-.09-6.65,6.65c-.06.06-.14.11-.23.13l-4,1c-.18.04-.36-.01-.49-.15-.12-.13-.17-.32-.11-.5l1.25-3.75c.02-.07.07-.14.12-.2L10.02.77Zm2.75.71c-.56-.56-1.48-.56-2.04,0L2.19,10.01l-.92,2.77,2.98-.75L12.77,3.52c.56-.56.56-1.48,0-2.04ZM1.22,14.86s.03.03.05.04c.74.54,1.84,1.1,3.23,1.1.74,0,1.42-.26,2.03-.6.6-.34,1.16-.79,1.66-1.19l.12-.1c.46-.38.86-.7,1.23-.92.4-.24.64-.27.81-.21.27.09.42.29.68,1.17.09.29.24.61.47.87.23.26.57.49,1.01.49.47,0,.94-.23,1.31-.44.24-.14.5-.32.7-.46.1-.07.19-.13.26-.18.27-.17.49-.29.65-.35.08-.03.14-.06.17-.07.02,0,.03-.01.04-.01h0c.26-.08.42-.36.34-.62-.08-.27-.36-.42-.62-.34h0s0,0,0,0h0s-.02,0-.02,0c-.02,0-.04.01-.07.02-.06.02-.14.05-.24.1-.2.09-.47.22-.79.43-.12.08-.23.15-.34.23-.18.13-.37.26-.59.38-.34.2-.61.3-.8.3-.06,0-.15-.03-.26-.15-.11-.13-.21-.31-.26-.49-.24-.8-.5-1.56-1.32-1.83-.59-.2-1.16.02-1.63.3-.44.26-.89.63-1.34.99l-.13.11c-.5.41-1,.8-1.53,1.1-.52.3-1.03.47-1.53.47-.75,0-1.4-.2-1.93-.47l-1.35.34Zm14.28-1.37c-.14-.48-.14-.48-.14-.48l.14.48Z" fill="#000000" />
</svg>