<svg xmlns="http://www.w3.org/2000/svg" viewBox="0 0 16 16" width="16" height="16">
  <path d="m2.67,13.87c-.88,0-1.6-.72-1.6-1.6V4.27h12.8v1.47c.38.21.74.46,1.07.75v-3.87c0-1.4-1.21-2.61-2.61-2.61H2.61C1.21,0,0,1.21,0,2.61v9.71c0,1.4,1.21,2.61,2.61,2.61h.01s3.85.01,3.85.01c-.28-.33-.54-.69-.74-1.07h-3.06ZM1.07,2.67c0-.88.72-1.6,1.6-1.6h9.6c.88,0,1.6.72,1.6,1.6v.53H1.07v-.53Zm9.93,3.33c-2.75,0-5,2.25-5,5s2.25,5,5,5,5-2.25,5-5-2.25-5-5-5Zm2.84,4.04l-3.43,3.79c-.11.11-.24.17-.39.17-.15,0-.27-.05-.38-.17l-1.47-1.63c-.11-.11-.17-.25-.17-.43,0-.34.25-.61.55-.61.15,0,.28.05.39.17l1.08,1.2,3.05-3.36c.1-.11.23-.17.39-.17.3,0,.55.27.55.61,0,.16-.05.3-.16.43Z" fill="currentColor" />
</svg>