<svg xmlns="http://www.w3.org/2000/svg" viewBox="0 0 16 16" width="16" height="16">
  <path d="m7,11.5h7c.83,0,1.5-.67,1.5-1.5V2c0-.83-.67-1.5-1.5-1.5H2c-.83,0-1.5.67-1.5,1.5v3.15c.8-.71,1.85-1.15,3-1.15,2.49,0,4.5,2.01,4.5,4.5,0,1.07-.37,2.06-1,2.83v.17Z" fill="#FFFFFF" />
  <path d="m14,0H2C.9,0,0,.9,0,2v3.67c.29-.35.62-.66,1-.91v-2.76c0-.55.45-1,1-1h12c.55,0,1,.45,1,1v8c0,.55-.45,1-1,1h-6.76c-.08.11-.16.22-.24.33v.67h7c1.1,0,2-.9,2-2V2c0-1.1-.9-2-2-2ZM0,8.5c0,1.93,1.57,3.5,3.5,3.5s3.5-1.57,3.5-3.5-1.57-3.5-3.5-3.5-3.5,1.57-3.5,3.5Zm1,3.74v2.76c0,.41.47.65.8.4l1.4-1.05c.18-.13.42-.13.6,0l1.4,1.05c.33.25.8.01.8-.4v-2.76c-.72.48-1.57.76-2.5.76s-1.78-.28-2.5-.76ZM12.5,3H3.5c-.28,0-.5.22-.5.5s.22.5.5.5h9c.28,0,.5-.22.5-.5s-.22-.5-.5-.5Zm0,4h-3c-.28,0-.5.22-.5.5s.22.5.5.5h3c.28,0,.5-.22.5-.5s-.22-.5-.5-.5Z" fill="#000000" />
</svg>