<svg xmlns="http://www.w3.org/2000/svg" viewBox="0 0 16 16" width="16" height="16">
  <path d="m4.85,12.85l6.65-6.65.09.09c.39.39.39,1.02,0,1.41l-1.44,1.44c-.2.2-.2.51,0,.71.2.2.51.2.71,0l1.44-1.44c.78-.78.78-2.05,0-2.83l-.09-.09,1.27-1.27c.95-.95.95-2.5,0-3.46s-2.5-.95-3.46,0L1.4,9.39c-.05.05-.1.12-.12.2L.03,13.34c-.06.17-.02.36.11.5.12.13.31.19.49.15l4-1c.09-.02.17-.07.23-.13Zm11.13.51c-.08-.27-.36-.42-.62-.34h0s0,0,0,0h0s-.02,0-.02,0c-.02,0-.04.01-.07.02-.06.02-.14.05-.24.1-.2.09-.47.22-.79.43-.12.08-.23.15-.34.23-.18.13-.37.26-.59.38-.34.2-.61.3-.8.3-.06,0-.15-.03-.26-.15-.11-.13-.21-.31-.26-.49-.24-.8-.5-1.56-1.32-1.83-.59-.2-1.16.02-1.63.3-.44.26-.89.63-1.34.99l-.13.11c-.5.41-1,.8-1.53,1.1-.52.3-1.03.47-1.53.47-.75,0-1.4-.2-1.93-.47l-1.35.34s.03.03.05.04c.74.54,1.84,1.1,3.23,1.1.74,0,1.42-.26,2.03-.6.6-.34,1.16-.79,1.66-1.19l.12-.1c.46-.38.86-.7,1.23-.92.4-.24.64-.27.81-.21.27.09.42.29.68,1.17.09.29.24.61.47.87.23.26.57.49,1.01.49.47,0,.94-.23,1.31-.44.24-.14.5-.32.7-.46.1-.07.19-.13.26-.18.27-.17.49-.29.65-.35.08-.03.14-.06.17-.07.02,0,.03-.01.04-.01h0c.26-.08.42-.36.34-.62Z" fill="currentColor" />
</svg>