<svg xmlns="http://www.w3.org/2000/svg" viewBox="0 0 16 16" width="16" height="16">
  <path d="m12.5,4h-3.85l-2.37-1.58c-.41-.27-.89-.42-1.39-.42h-1.39c-1.38,0-2.5,1.12-2.5,2.5v7c0,1.38,1.12,2.5,2.5,2.5h9c1.38,0,2.5-1.12,2.5-2.5v-5c0-1.38-1.12-2.5-2.5-2.5Zm-10.5.5c0-.83.67-1.5,1.5-1.5h1.39c.3,0,.59.09.83.25l1.87,1.25-2.12,1.42c-.08.05-.18.08-.28.08h-3.2v-1.5Zm12,7c0,.83-.67,1.5-1.5,1.5H3.5c-.83,0-1.5-.67-1.5-1.5v-4.5h3.2c.3,0,.59-.09.83-.25l2.62-1.75h3.85c.83,0,1.5.67,1.5,1.5v5Zm-10,4.5h8c.82,0,1.54-.39,2-1H2c.46.61,1.18,1,2,1Z" fill="currentColor" />
</svg>