<svg xmlns="http://www.w3.org/2000/svg" viewBox="0 0 16 16" width="16" height="16">
  <path d="m14,12.5c0,.83-.67,1.5-1.5,1.5H2.5c-.83,0-1.5-.67-1.5-1.5v-5.5h4.09c.4,0,.78-.16,1.06-.44l1.56-1.56h3.46l1-1h-4.46l-1.49-1.49c-.33-.33-.77-.51-1.24-.51h-2.48c-1.38,0-2.5,1.12-2.5,2.5v8c0,1.38,1.12,2.5,2.5,2.5h10c1.38,0,2.5-1.12,2.5-2.5v-5.67l-1,1v4.67ZM1,4.5c0-.83.67-1.5,1.5-1.5h2.48c.2,0,.39.08.53.22l1.28,1.28-1.35,1.35c-.09.09-.22.15-.35.15H1v-1.5Zm14.71-1.21c-.39-.39-1.02-.39-1.41,0l-3.88,3.88c-.9-.35-1.96-.17-2.68.56-.27.27-.42.54-.53.78-.04.09-.08.17-.11.23-.06.13-.11.23-.18.35-.17.27-.48.61-1.55.93-.16.05-.28.17-.33.33-.05.16-.02.33.08.46,1.62,2.06,4.52,2.12,6.16.46.72-.72.91-1.78.56-2.68l3.88-3.88c.39-.39.39-1.02,0-1.41Zm-5.15,7.27h0c-1.07,1.09-2.89,1.21-4.16.15.72-.31,1.11-.67,1.37-1.09.11-.17.19-.37.27-.53.03-.06.05-.11.07-.15.09-.19.18-.34.34-.5.59-.59,1.54-.59,2.12,0,.59.59.59,1.54,0,2.12Z" fill="currentColor" />
</svg>