<svg xmlns="http://www.w3.org/2000/svg" viewBox="0 0 16 16" width="16" height="16">
  <path d="m5.32,12.43c-.31-.39-.4-.91-.25-1.38.15-.47.53-.84,1-.98.48-.14.72-.27.84-.35.1-.07.12-.11.14-.14.03-.06.06-.1.12-.24h0c.03-.07.07-.16.12-.26.14-.3.35-.67.73-1.05.84-.84,2-1.16,3.09-.97l1.05-1.05h-3.67c-.83,0-1.5-.67-1.5-1.5V0H3C1.9,0,1,.9,1,2v12c0,1.1.9,2,2,2h8c1.1,0,2-.9,2-2v-1.05l-.02.02c-2.06,2.09-5.67,1.99-7.66-.55Zm3.18-7.43h4.25L8,.25v4.25c0,.28.22.5.5.5Zm7.21.29c-.39-.39-1.02-.39-1.41,0l-2.88,2.88c-.9-.35-1.96-.17-2.68.56-.27.27-.42.54-.53.78-.04.09-.08.17-.11.23-.06.13-.11.23-.18.35-.17.27-.48.61-1.55.93-.16.05-.28.17-.33.33-.05.16-.02.33.08.46,1.62,2.06,4.52,2.12,6.16.46.72-.72.91-1.78.56-2.68l2.88-2.88c.39-.39.39-1.02,0-1.41Zm-4.15,6.27h0c-1.07,1.09-2.89,1.21-4.16.15.72-.31,1.11-.67,1.37-1.09.11-.17.19-.37.27-.53.03-.06.05-.11.07-.15.09-.19.18-.34.34-.5.59-.59,1.54-.59,2.12,0,.59.59.59,1.54,0,2.12Z" fill="currentColor" />
</svg>