<svg xmlns="http://www.w3.org/2000/svg" viewBox="0 0 16 16" width="16" height="16">
  <path d="m11.86,4.15h0c-.05-.05-.1-.09-.16-.11-.06-.02-.12-.04-.19-.04h-5c-.28,0-.5.22-.5.5s.22.5.5.5h3.79l-6.15,6.15c-.2.2-.2.51,0,.71.2.2.51.2.71,0l6.15-6.15v3.79c0,.28.22.5.5.5s.5-.22.5-.5v-5c0-.07-.01-.13-.04-.19-.02-.06-.06-.11-.11-.16Zm.14-3.15H4c-1.66,0-3,1.34-3,3v8c0,1.66,1.34,3,3,3h8c1.66,0,3-1.34,3-3V4c0-1.66-1.34-3-3-3Zm2,11c0,1.1-.9,2-2,2H4c-1.1,0-2-.9-2-2V4c0-1.1.9-2,2-2h8c1.1,0,2,.9,2,2v8Z" fill="currentColor" />
</svg>