<svg xmlns="http://www.w3.org/2000/svg" viewBox="0 0 16 16" width="16" height="16">
  <path d="m8,5.5c.8,0,1.5.7,1.5,1.5,0,.6-.3,1.1-.9,1.4l.3,2.1v.1c0,.3-.2.5-.5.5h-.8c-.3,0-.5-.2-.5-.5v-.1l.3-2.1c-.6-.3-.9-.8-.9-1.4,0-.8.7-1.5,1.5-1.5Zm6-2.1c-2.1-.4-4.2-1.1-6-2.3-1.8,1.2-3.9,2-6,2.3v4.1c0,3.9,2.6,6.1,6,7.5,3.4-1.3,6-3.6,6-7.5V3.4Zm1-.4v4.5c0,4.4-3,7-6.8,8.5h-.4C4,14.5,1,11.9,1,7.5V3c0-.3.2-.4.4-.5.2-.1.5-.1.7-.1.4-.1.8-.2,1.2-.3,1.7-.5,3-1.1,4.4-2,.1-.1.2-.1.3-.1s.2,0,.3.1c1.4.9,2.8,1.6,4.4,2,.4.1.8.2,1.2.3.2.1.5.1.7.1.2.1.4.2.4.5Z" fill="currentColor" />
</svg>