<svg xmlns="http://www.w3.org/2000/svg" viewBox="0 0 16 16" width="16" height="16">
  <path d="m10.5,6c-.83,0-1.5-.67-1.5-1.5V0h-4c-1.1,0-2,.9-2,2v4.17c.59.28,1,.88,1,1.58,0-.97.78-1.75,1.75-1.75s1.75.78,1.75,1.75v.27c.85.12,1.5.85,1.5,1.73s-.65,1.61-1.5,1.73v.04c.85.12,1.5.85,1.5,1.73s-.65,1.61-1.5,1.73v.02h5.5c1.1,0,2-.9,2-2v-7h-4.5Zm0-1h4.25L10,.25v4.25c0,.28.22.5.5.5Zm-2.5,8.25c0-.41-.34-.75-.75-.75h-.75v-2h.75c.41,0,.75-.34.75-.75s-.34-.75-.75-.75h-.75v-1.25c0-.41-.34-.75-.75-.75s-.75.34-.75.75v1.25h-2v-1.25c0-.41-.34-.75-.75-.75s-.75.34-.75.75v1.25h-.75c-.41,0-.75.34-.75.75s.34.75.75.75h.75v2h-.75c-.41,0-.75.34-.75.75s.34.75.75.75h.75v1.25c0,.41.34.75.75.75s.75-.34.75-.75v-1.25h2v1.25c0,.41.34.75.75.75s.75-.34.75-.75v-1.25h.75c.41,0,.75-.34.75-.75Zm-3-.75h-2v-2h2v2Z" fill="currentColor" />
</svg>