<svg xmlns="http://www.w3.org/2000/svg" viewBox="0 0 16 16" width="16" height="16">
  <path d="m9.5,8.5c1-.5,2,0,2.5.5s.5,1,.5,2-2,2-3,2-2.5-.5-3-1.5c.33-.17,1.22-.22,1.5-.5.5-.5.87-2.18,1.5-2.5Z" fill="#FFFFFF" />
  <path d="m12,13.74v.26c0,.55-.45,1-1,1h-3.02c-.07,0-.13,0-.2,0H3c-.55,0-1-.45-1-1V2c0-.55.45-1,1-1h4v3.5c0,.83.67,1.5,1.5,1.5h3.67l1.02-1.02L8.65.44c-.28-.28-.66-.44-1.06-.44H3C1.9,0,1,.9,1,2v12c0,1.1.9,2,2,2h8c1.1,0,2-.9,2-2v-1.05l-.02.02c-.3.3-.63.56-.98.77ZM8,1.21l3.79,3.79h-3.29c-.28,0-.5-.22-.5-.5V1.21Zm7.71,4.09c-.39-.39-1.02-.39-1.41,0l-2.88,2.88c-.9-.35-1.96-.17-2.68.56-.27.27-.42.54-.53.78-.04.09-.08.17-.11.23-.06.13-.11.23-.18.35-.17.27-.48.61-1.55.93-.16.05-.28.17-.33.33-.05.16-.02.33.08.46,1.62,2.06,4.52,2.12,6.16.46.72-.72.91-1.78.56-2.68l2.88-2.88c.39-.39.39-1.02,0-1.41Zm-4.15,6.27h0c-1.07,1.09-2.89,1.21-4.16.15.72-.31,1.11-.67,1.37-1.09.11-.17.19-.37.27-.53.03-.06.05-.11.07-.15.09-.19.18-.34.34-.5.59-.59,1.54-.59,2.12,0,.59.59.59,1.54,0,2.12Z" fill="#000000" />
</svg>