<svg xmlns="http://www.w3.org/2000/svg" viewBox="0 0 16 16" width="16" height="16">
  <path d="m14,0H2C.9,0,0,.9,0,2v3.67c.15-.19.32-.36.5-.53.16-.14.32-.27.5-.39.72-.48,1.57-.76,2.5-.76-.28,0-.5-.22-.5-.5s.22-.5.5-.5h9c.28,0,.5.22.5.5s-.22.5-.5.5H3.5c2.49,0,4.5,2.01,4.5,4.5,0,.93-.28,1.78-.76,2.5-.08.11-.16.22-.24.33v.67h7c1.1,0,2-.9,2-2V2c0-1.1-.9-2-2-2Zm-1.5,8h-3c-.28,0-.5-.22-.5-.5s.22-.5.5-.5h3c.28,0,.5.22.5.5s-.22.5-.5.5ZM3.5,12c1.93,0,3.5-1.57,3.5-3.5s-1.57-3.5-3.5-3.5-3.5,1.57-3.5,3.5,1.57,3.5,3.5,3.5Zm-2.5.24v2.76c0,.41.47.65.8.4l1.4-1.05c.18-.13.42-.13.6,0l1.4,1.05c.33.25.8.01.8-.4v-2.76c-.72.48-1.57.76-2.5.76s-1.78-.28-2.5-.76Z" fill="currentColor" />
</svg>