<svg xmlns="http://www.w3.org/2000/svg" viewBox="0 0 16 16" width="16" height="16">
  <path d="m14.56,4.35L10.65.44c-.28-.28-.66-.44-1.06-.44h-4.59c-1.1,0-2,.9-2,2v4.21c.32-.09.66-.15,1-.18V2c0-.55.45-1,1-1h4v3.5c0,.83.67,1.5,1.5,1.5h3.5v7c0,.55-.45,1-1,1h-3.6c-.18.36-.4.69-.66,1h4.26c1.1,0,2-.9,2-2v-7.59c0-.4-.16-.78-.44-1.06Zm-4.06.65c-.28,0-.5-.22-.5-.5V1.21l3.79,3.79h-3.29Zm-6,3.88c-.35,0-.62.28-.62.62s.28.62.62.62.62-.28.62-.62-.28-.62-.62-.62Zm0,2.12c-.28,0-.5.22-.5.5v2c0,.28.22.5.5.5s.5-.22.5-.5v-2c0-.28-.22-.5-.5-.5Zm0-4c-2.49,0-4.5,2.01-4.5,4.5s2.01,4.5,4.5,4.5,4.5-2.01,4.5-4.5-2.01-4.5-4.5-4.5Zm0,8c-1.93,0-3.5-1.57-3.5-3.5s1.57-3.5,3.5-3.5,3.5,1.57,3.5,3.5-1.57,3.5-3.5,3.5Z" fill="currentColor" />
</svg>